M48
; DRILL file {KiCad 5.1.7-a382d34a8~87~ubuntu18.04.1} date Wed Oct 21 19:44:49 2020
; FORMAT={-:-/ absolute / inch / decimal}
; #@! TF.CreationDate,2020-10-21T19:44:49+03:00
; #@! TF.GenerationSoftware,Kicad,Pcbnew,5.1.7-a382d34a8~87~ubuntu18.04.1
; #@! TF.FileFunction,Plated,1,2,PTH
FMAT,2
INCH
T1C0.0118
T2C0.0177
T3C0.0256
%
G90
G05
T1
X-0.5009Y0.2427
X-0.4885Y-0.1515
X-0.4884Y-0.1219
X-0.4878Y0.0075
X-0.4878Y-0.0783
X-0.4862Y0.1311
X-0.4862Y-0.0366
X-0.4861Y-0.2726
X-0.4808Y0.3285
X-0.4748Y0.0992
X-0.4735Y-0.2081
X-0.4728Y0.2278
X-0.4713Y0.2576
X-0.4712Y0.1566
X-0.4693Y-0.2472
X-0.4686Y0.1861
X-0.468Y0.287
X-0.4678Y-0.179
X-0.4673Y-0.4622
X-0.4672Y0.0593
X-0.4672Y-0.1012
X-0.4671Y-0.0136
X-0.4671Y0.0297
X-0.4645Y-0.2928
X-0.464Y-0.0567
X-0.4318Y0.322
X-0.4189Y-0.4205
X-0.4054Y-0.3789
X-0.387Y-0.0483
X-0.3805Y0.2792
X-0.3797Y0.1543
X-0.3791Y0.0706
X-0.3784Y0.2376
X-0.3777Y0.1959
X-0.372Y-0.1626
X-0.3665Y-0.121
X-0.3646Y0.128
X-0.3638Y-0.2045
X-0.3633Y-0.0118
X-0.3631Y0.0298
X-0.3631Y-0.2821
X-0.3613Y-0.0672
X-0.3535Y0.3438
X-0.3242Y0.3394
X-0.3201Y0.3706
X-0.3189Y-0.4417
X-0.2894Y0.4122
X-0.2786Y0.3583
X-0.2756Y-0.233
X-0.2732Y0.3874
X-0.2711Y-0.1586
X-0.2706Y-0.1057
X-0.2697Y-0.2987
X-0.2584Y0.4154
X-0.2563Y-0.0713
X-0.2543Y-0.3241
X-0.25Y-0.1272
X-0.2394Y0.315
X-0.239Y-0.0386
X-0.2373Y-0.1594
X-0.2365Y0.2741
X-0.2341Y-0.4431
X-0.2276Y-0.3108
X-0.2272Y-0.348
X-0.1978Y0.0021
X-0.1969Y-0.1607
X-0.1906Y0.2894
X-0.1898Y-0.2728
X-0.1866Y0.3192
X-0.172Y0.4815
X-0.1612Y-0.3123
X-0.1595Y0.039
X-0.1587Y-0.1193
X-0.157Y0.3176
X-0.1473Y-0.2607
X-0.1463Y-0.3589
X-0.1449Y0.2415
X-0.1411Y-0.2896
X-0.1366Y0.4075
X-0.1341Y0.2814
X-0.1213Y0.0787
X-0.1201Y-0.4093
X-0.12Y-0.1567
X-0.1175Y-0.3519
X-0.1164Y0.3163
X-0.1031Y0.5091
X-0.0912Y0.2467
X-0.0906Y-0.398
X-0.0876Y0.2853
X-0.0868Y0.3183
X-0.0817Y-0.3542
X-0.0773Y0.1591
X-0.0756Y-0.1575
X-0.0645Y-0.0349
X-0.0606Y0.0273
X-0.0581Y0.0728
X-0.0572Y-0.3708
X-0.057Y0.3211
X-0.0551Y0.3847
X-0.0459Y0.2817
X-0.0433Y-0.1568
X-0.0408Y-0.3134
X-0.0405Y0.1949
X-0.0382Y0.4945
X-0.0378Y0.0063
X-0.0376Y0.2366
X-0.0332Y-0.0319
X-0.0307Y-0.2634
X-0.0283Y0.0686
X-0.008Y0.5052
X-0.0039Y-0.1569
X0.0Y-0.3511
X0.0008Y-0.3138
X0.0015Y-0.3928
X0.0142Y0.0319
X0.0201Y-0.2657
X0.0219Y0.1001
X0.0263Y0.0707
X0.0284Y0.3843
X0.0375Y-0.0996
X0.0385Y0.1974
X0.0386Y-0.2126
X0.0431Y0.276
X0.0475Y0.4339
X0.0516Y0.0997
X0.0543Y0.2433
X0.0613Y-0.3862
X0.0718Y0.0386
X0.0724Y0.4499
X0.0729Y-0.0494
X0.0729Y0.388
X0.0816Y0.2759
X0.0827Y-0.4413
X0.1004Y0.4402
X0.1123Y-0.2643
X0.1149Y-0.315
X0.1159Y0.2776
X0.1189Y0.1585
X0.1199Y0.1169
X0.1343Y-0.1772
X0.1355Y0.422
X0.1488Y0.2486
X0.1575Y0.3118
X0.1576Y0.2781
X0.1578Y0.0024
X0.1626Y0.1303
X0.1632Y0.3408
X0.1724Y0.0865
X0.1759Y0.3851
X0.1774Y-0.1772
X0.184Y0.045
X0.1886Y-0.2607
X0.1904Y0.4782
X0.1913Y-0.2903
X0.1924Y0.3045
X0.1943Y-0.3217
X0.1958Y-0.2317
X0.1964Y0.3516
X0.1992Y0.2748
X0.1994Y-0.0006
X0.2Y-0.0394
X0.2Y-0.1575
X0.2026Y0.4386
X0.2051Y0.38
X0.22Y-0.3034
X0.2255Y-0.447
X0.226Y-0.2617
X0.228Y0.0484
X0.235Y0.3153
X0.2365Y0.3698
X0.2368Y-0.0813
X0.2375Y-0.1198
X0.2398Y-0.1618
X0.2475Y-0.3355
X0.2494Y-0.2425
X0.2547Y0.395
X0.2694Y-0.2971
X0.272Y0.3547
X0.2742Y-0.1578
X0.2756Y0.0032
X0.2767Y-0.1162
X0.3044Y0.4652
X0.3136Y0.3528
X0.3257Y-0.4325
X0.3555Y0.348
X0.3605Y-0.0732
X0.3633Y0.2164
X0.3633Y0.1487
X0.3641Y0.0057
X0.3654Y0.1087
X0.3685Y-0.1149
X0.3685Y-0.2101
X0.3689Y-0.2757
X0.3721Y-0.1685
X0.3756Y-0.3173
X0.3777Y-0.049
X0.3864Y0.1297
X0.3868Y0.2539
X0.3896Y0.0415
X0.3912Y0.1811
X0.4016Y0.3286
X0.4029Y-0.3288
X0.4068Y-0.4213
X0.4364Y-0.4205
X0.4553Y0.3125
X0.4671Y0.2629
X0.4672Y-0.1024
X0.4677Y0.1843
X0.4683Y-0.2081
X0.4685Y0.1071
X0.4685Y-0.3141
X0.4685Y-0.0585
X0.4732Y0.0027
X0.4758Y-0.0298
X0.4791Y0.0343
X0.4794Y-0.2608
X0.4856Y-0.1841
X0.4859Y-0.2319
X0.487Y-0.1249
X0.4872Y-0.1545
X0.4873Y-0.2894
X0.488Y0.1627
X0.4882Y-0.0807
X0.4883Y0.0679
X0.4885Y0.133
X0.4916Y0.2057
X0.4992Y0.235
T3
X-0.55Y0.375
X-0.55Y0.325
X-0.55Y0.275
X-0.55Y0.225
X-0.55Y0.175
X-0.55Y0.125
X-0.55Y0.075
X-0.55Y0.025
X-0.55Y-0.025
X-0.55Y-0.075
X-0.55Y-0.125
X-0.55Y-0.175
X-0.55Y-0.225
X-0.55Y-0.275
X-0.55Y-0.325
X-0.55Y-0.375
X0.55Y0.375
X0.55Y0.325
X0.55Y0.275
X0.55Y0.225
X0.55Y0.175
X0.55Y0.125
X0.55Y0.075
X0.55Y0.025
X0.55Y-0.025
X0.55Y-0.075
X0.55Y-0.125
X0.55Y-0.175
X0.55Y-0.225
X0.55Y-0.275
X0.55Y-0.325
X0.55Y-0.375
T2
G00X-0.4157Y-0.518
M15
G01X-0.4157Y-0.4865
M16
G05
G00X-0.1343Y-0.4865
M15
G01X-0.1343Y-0.518
M16
G05
G00X0.1343Y-0.518
M15
G01X0.1343Y-0.4865
M16
G05
G00X0.4157Y-0.4865
M15
G01X0.4157Y-0.518
M16
G05
T0
M30
