G04 #@! TF.GenerationSoftware,KiCad,Pcbnew,5.1.7-a382d34a8~87~ubuntu18.04.1*
G04 #@! TF.CreationDate,2020-10-22T16:40:06+03:00*
G04 #@! TF.ProjectId,FreeSmart157AAC_29mm_module,46726565-536d-4617-9274-313537414143,rev?*
G04 #@! TF.SameCoordinates,Original*
G04 #@! TF.FileFunction,Legend,Top*
G04 #@! TF.FilePolarity,Positive*
%FSLAX46Y46*%
G04 Gerber Fmt 4.6, Leading zero omitted, Abs format (unit mm)*
G04 Created by KiCad (PCBNEW 5.1.7-a382d34a8~87~ubuntu18.04.1) date 2020-10-22 16:40:06*
%MOMM*%
%LPD*%
G01*
G04 APERTURE LIST*
%ADD10C,0.120000*%
%ADD11C,0.125000*%
G04 APERTURE END LIST*
D10*
X14200000Y-13950000D02*
X14500000Y-13950000D01*
X14500000Y-13950000D02*
X14500000Y-10650000D01*
X14500000Y-10650000D02*
X14200000Y-10650000D01*
X12000000Y-13950000D02*
X11700000Y-13950000D01*
X11700000Y-13950000D02*
X11700000Y-10650000D01*
X11700000Y-10650000D02*
X12000000Y-10650000D01*
X-12000000Y-13950000D02*
X-11700000Y-13950000D01*
X-11700000Y-13950000D02*
X-11700000Y-10650000D01*
X-11700000Y-10650000D02*
X-12000000Y-10650000D01*
X-14200000Y-13950000D02*
X-14500000Y-13950000D01*
X-14500000Y-13950000D02*
X-14500000Y-10650000D01*
X-14500000Y-10650000D02*
X-14200000Y-10650000D01*
X-9600000Y9600000D02*
X-9600000Y-8600000D01*
X9600000Y9600000D02*
X-9600000Y9600000D01*
X9600000Y-9600000D02*
X9600000Y9600000D01*
X-8600000Y-9600000D02*
X9600000Y-9600000D01*
X-9600000Y-8600000D02*
X-8600000Y-9600000D01*
X12860000Y10285000D02*
X13970000Y10285000D01*
X12860000Y9525000D02*
X12860000Y10285000D01*
X14533471Y8765000D02*
X15080000Y8765000D01*
X12860000Y8765000D02*
X13406529Y8765000D01*
X15080000Y8765000D02*
X15080000Y-10220000D01*
X12860000Y8765000D02*
X12860000Y-10220000D01*
X14277530Y-10220000D02*
X15080000Y-10220000D01*
X12860000Y-10220000D02*
X13662470Y-10220000D01*
X-15080000Y-10220000D02*
X-14277530Y-10220000D01*
X-13662470Y-10220000D02*
X-12860000Y-10220000D01*
X-15080000Y8765000D02*
X-15080000Y-10220000D01*
X-12860000Y8765000D02*
X-12860000Y-10220000D01*
X-15080000Y8765000D02*
X-14533471Y8765000D01*
X-13406529Y8765000D02*
X-12860000Y8765000D01*
X-15080000Y9525000D02*
X-15080000Y10285000D01*
X-15080000Y10285000D02*
X-13970000Y10285000D01*
D11*
X11632380Y-12985666D02*
X11656190Y-12914238D01*
X11656190Y-12795190D01*
X11632380Y-12747571D01*
X11608571Y-12723761D01*
X11560952Y-12699952D01*
X11513333Y-12699952D01*
X11465714Y-12723761D01*
X11441904Y-12747571D01*
X11418095Y-12795190D01*
X11394285Y-12890428D01*
X11370476Y-12938047D01*
X11346666Y-12961857D01*
X11299047Y-12985666D01*
X11251428Y-12985666D01*
X11203809Y-12961857D01*
X11180000Y-12938047D01*
X11156190Y-12890428D01*
X11156190Y-12771380D01*
X11180000Y-12699952D01*
X11156190Y-12533285D02*
X11656190Y-12414238D01*
X11299047Y-12319000D01*
X11656190Y-12223761D01*
X11156190Y-12104714D01*
X11203809Y-11938047D02*
X11180000Y-11914238D01*
X11156190Y-11866619D01*
X11156190Y-11747571D01*
X11180000Y-11699952D01*
X11203809Y-11676142D01*
X11251428Y-11652333D01*
X11299047Y-11652333D01*
X11370476Y-11676142D01*
X11656190Y-11961857D01*
X11656190Y-11652333D01*
X-11354619Y-12985666D02*
X-11330809Y-12914238D01*
X-11330809Y-12795190D01*
X-11354619Y-12747571D01*
X-11378428Y-12723761D01*
X-11426047Y-12699952D01*
X-11473666Y-12699952D01*
X-11521285Y-12723761D01*
X-11545095Y-12747571D01*
X-11568904Y-12795190D01*
X-11592714Y-12890428D01*
X-11616523Y-12938047D01*
X-11640333Y-12961857D01*
X-11687952Y-12985666D01*
X-11735571Y-12985666D01*
X-11783190Y-12961857D01*
X-11807000Y-12938047D01*
X-11830809Y-12890428D01*
X-11830809Y-12771380D01*
X-11807000Y-12699952D01*
X-11830809Y-12533285D02*
X-11330809Y-12414238D01*
X-11687952Y-12319000D01*
X-11330809Y-12223761D01*
X-11830809Y-12104714D01*
X-11330809Y-11652333D02*
X-11330809Y-11938047D01*
X-11330809Y-11795190D02*
X-11830809Y-11795190D01*
X-11759380Y-11842809D01*
X-11711761Y-11890428D01*
X-11687952Y-11938047D01*
X-9925809Y-380952D02*
X-9521047Y-380952D01*
X-9473428Y-357142D01*
X-9449619Y-333333D01*
X-9425809Y-285714D01*
X-9425809Y-190476D01*
X-9449619Y-142857D01*
X-9473428Y-119047D01*
X-9521047Y-95238D01*
X-9925809Y-95238D01*
X-9425809Y404761D02*
X-9425809Y119047D01*
X-9425809Y261904D02*
X-9925809Y261904D01*
X-9854380Y214285D01*
X-9806761Y166666D01*
X-9782952Y119047D01*
X6901666Y-12243571D02*
X6877857Y-12267380D01*
X6806428Y-12291190D01*
X6758809Y-12291190D01*
X6687380Y-12267380D01*
X6639761Y-12219761D01*
X6615952Y-12172142D01*
X6592142Y-12076904D01*
X6592142Y-12005476D01*
X6615952Y-11910238D01*
X6639761Y-11862619D01*
X6687380Y-11815000D01*
X6758809Y-11791190D01*
X6806428Y-11791190D01*
X6877857Y-11815000D01*
X6901666Y-11838809D01*
X7187380Y-12005476D02*
X7139761Y-11981666D01*
X7115952Y-11957857D01*
X7092142Y-11910238D01*
X7092142Y-11886428D01*
X7115952Y-11838809D01*
X7139761Y-11815000D01*
X7187380Y-11791190D01*
X7282619Y-11791190D01*
X7330238Y-11815000D01*
X7354047Y-11838809D01*
X7377857Y-11886428D01*
X7377857Y-11910238D01*
X7354047Y-11957857D01*
X7330238Y-11981666D01*
X7282619Y-12005476D01*
X7187380Y-12005476D01*
X7139761Y-12029285D01*
X7115952Y-12053095D01*
X7092142Y-12100714D01*
X7092142Y-12195952D01*
X7115952Y-12243571D01*
X7139761Y-12267380D01*
X7187380Y-12291190D01*
X7282619Y-12291190D01*
X7330238Y-12267380D01*
X7354047Y-12243571D01*
X7377857Y-12195952D01*
X7377857Y-12100714D01*
X7354047Y-12053095D01*
X7330238Y-12029285D01*
X7282619Y-12005476D01*
X-7033333Y-12596190D02*
X-7200000Y-12358095D01*
X-7319047Y-12596190D02*
X-7319047Y-12096190D01*
X-7128571Y-12096190D01*
X-7080952Y-12120000D01*
X-7057142Y-12143809D01*
X-7033333Y-12191428D01*
X-7033333Y-12262857D01*
X-7057142Y-12310476D01*
X-7080952Y-12334285D01*
X-7128571Y-12358095D01*
X-7319047Y-12358095D01*
X-6842857Y-12143809D02*
X-6819047Y-12120000D01*
X-6771428Y-12096190D01*
X-6652380Y-12096190D01*
X-6604761Y-12120000D01*
X-6580952Y-12143809D01*
X-6557142Y-12191428D01*
X-6557142Y-12239047D01*
X-6580952Y-12310476D01*
X-6866666Y-12596190D01*
X-6557142Y-12596190D01*
X6901666Y-13640571D02*
X6877857Y-13664380D01*
X6806428Y-13688190D01*
X6758809Y-13688190D01*
X6687380Y-13664380D01*
X6639761Y-13616761D01*
X6615952Y-13569142D01*
X6592142Y-13473904D01*
X6592142Y-13402476D01*
X6615952Y-13307238D01*
X6639761Y-13259619D01*
X6687380Y-13212000D01*
X6758809Y-13188190D01*
X6806428Y-13188190D01*
X6877857Y-13212000D01*
X6901666Y-13235809D01*
X7092142Y-13235809D02*
X7115952Y-13212000D01*
X7163571Y-13188190D01*
X7282619Y-13188190D01*
X7330238Y-13212000D01*
X7354047Y-13235809D01*
X7377857Y-13283428D01*
X7377857Y-13331047D01*
X7354047Y-13402476D01*
X7068333Y-13688190D01*
X7377857Y-13688190D01*
X13803333Y11493809D02*
X13803333Y11136666D01*
X13779523Y11065238D01*
X13731904Y11017619D01*
X13660476Y10993809D01*
X13612857Y10993809D01*
X13993809Y11493809D02*
X14327142Y11493809D01*
X14112857Y10993809D01*
X-14136666Y11493809D02*
X-14136666Y11136666D01*
X-14160476Y11065238D01*
X-14208095Y11017619D01*
X-14279523Y10993809D01*
X-14327142Y10993809D01*
X-13827142Y11279523D02*
X-13874761Y11303333D01*
X-13898571Y11327142D01*
X-13922380Y11374761D01*
X-13922380Y11398571D01*
X-13898571Y11446190D01*
X-13874761Y11470000D01*
X-13827142Y11493809D01*
X-13731904Y11493809D01*
X-13684285Y11470000D01*
X-13660476Y11446190D01*
X-13636666Y11398571D01*
X-13636666Y11374761D01*
X-13660476Y11327142D01*
X-13684285Y11303333D01*
X-13731904Y11279523D01*
X-13827142Y11279523D01*
X-13874761Y11255714D01*
X-13898571Y11231904D01*
X-13922380Y11184285D01*
X-13922380Y11089047D01*
X-13898571Y11041428D01*
X-13874761Y11017619D01*
X-13827142Y10993809D01*
X-13731904Y10993809D01*
X-13684285Y11017619D01*
X-13660476Y11041428D01*
X-13636666Y11089047D01*
X-13636666Y11184285D01*
X-13660476Y11231904D01*
X-13684285Y11255714D01*
X-13731904Y11279523D01*
X9526190Y12119047D02*
X9026190Y12119047D01*
X9264285Y12119047D02*
X9264285Y12404761D01*
X9526190Y12404761D02*
X9026190Y12404761D01*
X9526190Y12904761D02*
X9526190Y12619047D01*
X9526190Y12761904D02*
X9026190Y12761904D01*
X9097619Y12714285D01*
X9145238Y12666666D01*
X9169047Y12619047D01*
X-9425809Y12065047D02*
X-9925809Y12065047D01*
X-9687714Y12065047D02*
X-9687714Y12350761D01*
X-9425809Y12350761D02*
X-9925809Y12350761D01*
X-9878190Y12565047D02*
X-9902000Y12588857D01*
X-9925809Y12636476D01*
X-9925809Y12755523D01*
X-9902000Y12803142D01*
X-9878190Y12826952D01*
X-9830571Y12850761D01*
X-9782952Y12850761D01*
X-9711523Y12826952D01*
X-9425809Y12541238D01*
X-9425809Y12850761D01*
X-1932809Y-12953952D02*
X-2432809Y-12953952D01*
X-2194714Y-12953952D02*
X-2194714Y-12668238D01*
X-1932809Y-12668238D02*
X-2432809Y-12668238D01*
X-2432809Y-12477761D02*
X-2432809Y-12168238D01*
X-2242333Y-12334904D01*
X-2242333Y-12263476D01*
X-2218523Y-12215857D01*
X-2194714Y-12192047D01*
X-2147095Y-12168238D01*
X-2028047Y-12168238D01*
X-1980428Y-12192047D01*
X-1956619Y-12215857D01*
X-1932809Y-12263476D01*
X-1932809Y-12406333D01*
X-1956619Y-12453952D01*
X-1980428Y-12477761D01*
M02*
