G04 #@! TF.GenerationSoftware,KiCad,Pcbnew,5.1.7-a382d34a8~87~ubuntu18.04.1*
G04 #@! TF.CreationDate,2020-10-22T16:40:06+03:00*
G04 #@! TF.ProjectId,FreeSmart157AAC_29mm_module,46726565-536d-4617-9274-313537414143,rev?*
G04 #@! TF.SameCoordinates,Original*
G04 #@! TF.FileFunction,Paste,Top*
G04 #@! TF.FilePolarity,Positive*
%FSLAX46Y46*%
G04 Gerber Fmt 4.6, Leading zero omitted, Abs format (unit mm)*
G04 Created by KiCad (PCBNEW 5.1.7-a382d34a8~87~ubuntu18.04.1) date 2020-10-22 16:40:06*
%MOMM*%
%LPD*%
G01*
G04 APERTURE LIST*
%ADD10R,1.700000X0.900000*%
%ADD11C,0.400000*%
G04 APERTURE END LIST*
D10*
X13100000Y-10600000D03*
X13100000Y-14000000D03*
X-13100000Y-10600000D03*
X-13100000Y-14000000D03*
D11*
X-7500000Y-8500000D03*
X-6500000Y-8500000D03*
X-5500000Y-8500000D03*
X-4500000Y-8500000D03*
X-3500000Y-8500000D03*
X-2500000Y-8500000D03*
X-1500000Y-8500000D03*
X-500000Y-8500000D03*
X500000Y-8500000D03*
X1500000Y-8500000D03*
X2500000Y-8500000D03*
X3500000Y-8500000D03*
X4500000Y-8500000D03*
X5500000Y-8500000D03*
X6500000Y-8500000D03*
X7500000Y-8500000D03*
X-8500000Y-7500000D03*
X-7500000Y-7500000D03*
X-6500000Y-7500000D03*
X-5500000Y-7500000D03*
X-4500000Y-7500000D03*
X-3500000Y-7500000D03*
X-2500000Y-7500000D03*
X-1500000Y-7500000D03*
X-500000Y-7500000D03*
X500000Y-7500000D03*
X1500000Y-7500000D03*
X2500000Y-7500000D03*
X3500000Y-7500000D03*
X4500000Y-7500000D03*
X5500000Y-7500000D03*
X6500000Y-7500000D03*
X7500000Y-7500000D03*
X8500000Y-7500000D03*
X-8500000Y-6500000D03*
X-7500000Y-6500000D03*
X-6500000Y-6500000D03*
X-5500000Y-6500000D03*
X-4500000Y-6500000D03*
X-3500000Y-6500000D03*
X-2500000Y-6500000D03*
X-1500000Y-6500000D03*
X-500000Y-6500000D03*
X500000Y-6500000D03*
X1500000Y-6500000D03*
X2500000Y-6500000D03*
X3500000Y-6500000D03*
X4500000Y-6500000D03*
X5500000Y-6500000D03*
X6500000Y-6500000D03*
X7500000Y-6500000D03*
X8500000Y-6500000D03*
X-8500000Y-5500000D03*
X-7500000Y-5500000D03*
X-6500000Y-5500000D03*
X-5500000Y-5500000D03*
X-4500000Y-5500000D03*
X-3500000Y-5500000D03*
X-2500000Y-5500000D03*
X-1500000Y-5500000D03*
X-500000Y-5500000D03*
X500000Y-5500000D03*
X1500000Y-5500000D03*
X2500000Y-5500000D03*
X3500000Y-5500000D03*
X4500000Y-5500000D03*
X5500000Y-5500000D03*
X6500000Y-5500000D03*
X7500000Y-5500000D03*
X8500000Y-5500000D03*
X-8500000Y-4500000D03*
X-7500000Y-4500000D03*
X-6500000Y-4500000D03*
X-5500000Y-4500000D03*
X-4500000Y-4500000D03*
X-3500000Y-4500000D03*
X-2500000Y-4500000D03*
X-1500000Y-4500000D03*
X-500000Y-4500000D03*
X500000Y-4500000D03*
X1500000Y-4500000D03*
X2500000Y-4500000D03*
X3500000Y-4500000D03*
X4500000Y-4500000D03*
X5500000Y-4500000D03*
X6500000Y-4500000D03*
X7500000Y-4500000D03*
X8500000Y-4500000D03*
X-8500000Y-3500000D03*
X-7500000Y-3500000D03*
X-6500000Y-3500000D03*
X-5500000Y-3500000D03*
X-4500000Y-3500000D03*
X-3500000Y-3500000D03*
X-2500000Y-3500000D03*
X-1500000Y-3500000D03*
X-500000Y-3500000D03*
X500000Y-3500000D03*
X1500000Y-3500000D03*
X2500000Y-3500000D03*
X3500000Y-3500000D03*
X4500000Y-3500000D03*
X5500000Y-3500000D03*
X6500000Y-3500000D03*
X7500000Y-3500000D03*
X8500000Y-3500000D03*
X-8500000Y-2500000D03*
X-7500000Y-2500000D03*
X-6500000Y-2500000D03*
X-5500000Y-2500000D03*
X-4500000Y-2500000D03*
X-3500000Y-2500000D03*
X-2500000Y-2500000D03*
X-1500000Y-2500000D03*
X-500000Y-2500000D03*
X500000Y-2500000D03*
X1500000Y-2500000D03*
X2500000Y-2500000D03*
X3500000Y-2500000D03*
X4500000Y-2500000D03*
X5500000Y-2500000D03*
X6500000Y-2500000D03*
X7500000Y-2500000D03*
X8500000Y-2500000D03*
X-8500000Y-1500000D03*
X-7500000Y-1500000D03*
X-6500000Y-1500000D03*
X-5500000Y-1500000D03*
X-4500000Y-1500000D03*
X-3500000Y-1500000D03*
X-2500000Y-1500000D03*
X-1500000Y-1500000D03*
X-500000Y-1500000D03*
X500000Y-1500000D03*
X1500000Y-1500000D03*
X2500000Y-1500000D03*
X3500000Y-1500000D03*
X4500000Y-1500000D03*
X5500000Y-1500000D03*
X6500000Y-1500000D03*
X7500000Y-1500000D03*
X8500000Y-1500000D03*
X-8500000Y-500000D03*
X-7500000Y-500000D03*
X-6500000Y-500000D03*
X-5500000Y-500000D03*
X-4500000Y-500000D03*
X-3500000Y-500000D03*
X-2500000Y-500000D03*
X-1500000Y-500000D03*
X-500000Y-500000D03*
X500000Y-500000D03*
X1500000Y-500000D03*
X2500000Y-500000D03*
X3500000Y-500000D03*
X4500000Y-500000D03*
X5500000Y-500000D03*
X6500000Y-500000D03*
X7500000Y-500000D03*
X8500000Y-500000D03*
X-8500000Y500000D03*
X-7500000Y500000D03*
X-6500000Y500000D03*
X-5500000Y500000D03*
X-4500000Y500000D03*
X-3500000Y500000D03*
X-2500000Y500000D03*
X2500000Y500000D03*
X3500000Y500000D03*
X4500000Y500000D03*
X5500000Y500000D03*
X6500000Y500000D03*
X7500000Y500000D03*
X8500000Y500000D03*
X-8500000Y1500000D03*
X-7500000Y1500000D03*
X-6500000Y1500000D03*
X-4500000Y1500000D03*
X-3500000Y1500000D03*
X-2500000Y1500000D03*
X2500000Y1500000D03*
X3500000Y1500000D03*
X5500000Y1500000D03*
X6500000Y1500000D03*
X7500000Y1500000D03*
X8500000Y1500000D03*
X-8500000Y2500000D03*
X-7500000Y2500000D03*
X-6500000Y2500000D03*
X-4500000Y2500000D03*
X-3500000Y2500000D03*
X-2500000Y2500000D03*
X-1500000Y2500000D03*
X-500000Y2500000D03*
X500000Y2500000D03*
X1500000Y2500000D03*
X2500000Y2500000D03*
X3500000Y2500000D03*
X5500000Y2500000D03*
X6500000Y2500000D03*
X7500000Y2500000D03*
X8500000Y2500000D03*
X-8500000Y3500000D03*
X-7500000Y3500000D03*
X-6500000Y3500000D03*
X-4500000Y3500000D03*
X-3500000Y3500000D03*
X-2500000Y3500000D03*
X-1500000Y3500000D03*
X-500000Y3500000D03*
X500000Y3500000D03*
X1500000Y3500000D03*
X2500000Y3500000D03*
X3500000Y3500000D03*
X5500000Y3500000D03*
X6500000Y3500000D03*
X7500000Y3500000D03*
X8500000Y3500000D03*
X-8500000Y4500000D03*
X-7500000Y4500000D03*
X-6500000Y4500000D03*
X-4500000Y4500000D03*
X-3500000Y4500000D03*
X-2500000Y4500000D03*
X-1500000Y4500000D03*
X-500000Y4500000D03*
X500000Y4500000D03*
X1500000Y4500000D03*
X2500000Y4500000D03*
X3500000Y4500000D03*
X5500000Y4500000D03*
X6500000Y4500000D03*
X7500000Y4500000D03*
X8500000Y4500000D03*
X-8500000Y5500000D03*
X-7500000Y5500000D03*
X-6500000Y5500000D03*
X-4500000Y5500000D03*
X-3500000Y5500000D03*
X-2500000Y5500000D03*
X-1500000Y5500000D03*
X-500000Y5500000D03*
X500000Y5500000D03*
X1500000Y5500000D03*
X2500000Y5500000D03*
X3500000Y5500000D03*
X5500000Y5500000D03*
X6500000Y5500000D03*
X7500000Y5500000D03*
X8500000Y5500000D03*
X-8500000Y6500000D03*
X-7500000Y6500000D03*
X-6500000Y6500000D03*
X-5500000Y6500000D03*
X-4500000Y6500000D03*
X-3500000Y6500000D03*
X-2500000Y6500000D03*
X-1500000Y6500000D03*
X-500000Y6500000D03*
X500000Y6500000D03*
X1500000Y6500000D03*
X2500000Y6500000D03*
X3500000Y6500000D03*
X4500000Y6500000D03*
X5500000Y6500000D03*
X6500000Y6500000D03*
X7500000Y6500000D03*
X8500000Y6500000D03*
X-8500000Y7500000D03*
X-7500000Y7500000D03*
X-6500000Y7500000D03*
X-5500000Y7500000D03*
X-4500000Y7500000D03*
X-3500000Y7500000D03*
X-2500000Y7500000D03*
X-1500000Y7500000D03*
X-500000Y7500000D03*
X500000Y7500000D03*
X1500000Y7500000D03*
X2500000Y7500000D03*
X3500000Y7500000D03*
X4500000Y7500000D03*
X5500000Y7500000D03*
X6500000Y7500000D03*
X7500000Y7500000D03*
X8500000Y7500000D03*
X-7500000Y8500000D03*
X-6500000Y8500000D03*
X-5500000Y8500000D03*
X-4500000Y8500000D03*
X-3500000Y8500000D03*
X-2500000Y8500000D03*
X-1500000Y8500000D03*
X-500000Y8500000D03*
X500000Y8500000D03*
X1500000Y8500000D03*
X2500000Y8500000D03*
X3500000Y8500000D03*
X4500000Y8500000D03*
X5500000Y8500000D03*
X6500000Y8500000D03*
X7500000Y8500000D03*
G36*
G01*
X7504000Y-11249500D02*
X7504000Y-11450500D01*
G75*
G02*
X7424500Y-11530000I-79500J0D01*
G01*
X7265500Y-11530000D01*
G75*
G02*
X7186000Y-11450500I0J79500D01*
G01*
X7186000Y-11249500D01*
G75*
G02*
X7265500Y-11170000I79500J0D01*
G01*
X7424500Y-11170000D01*
G75*
G02*
X7504000Y-11249500I0J-79500D01*
G01*
G37*
G36*
G01*
X6814000Y-11249500D02*
X6814000Y-11450500D01*
G75*
G02*
X6734500Y-11530000I-79500J0D01*
G01*
X6575500Y-11530000D01*
G75*
G02*
X6496000Y-11450500I0J79500D01*
G01*
X6496000Y-11249500D01*
G75*
G02*
X6575500Y-11170000I79500J0D01*
G01*
X6734500Y-11170000D01*
G75*
G02*
X6814000Y-11249500I0J-79500D01*
G01*
G37*
G36*
G01*
X-6446000Y-11219500D02*
X-6446000Y-11420500D01*
G75*
G02*
X-6525500Y-11500000I-79500J0D01*
G01*
X-6684500Y-11500000D01*
G75*
G02*
X-6764000Y-11420500I0J79500D01*
G01*
X-6764000Y-11219500D01*
G75*
G02*
X-6684500Y-11140000I79500J0D01*
G01*
X-6525500Y-11140000D01*
G75*
G02*
X-6446000Y-11219500I0J-79500D01*
G01*
G37*
G36*
G01*
X-7136000Y-11219500D02*
X-7136000Y-11420500D01*
G75*
G02*
X-7215500Y-11500000I-79500J0D01*
G01*
X-7374500Y-11500000D01*
G75*
G02*
X-7454000Y-11420500I0J79500D01*
G01*
X-7454000Y-11219500D01*
G75*
G02*
X-7374500Y-11140000I79500J0D01*
G01*
X-7215500Y-11140000D01*
G75*
G02*
X-7136000Y-11219500I0J-79500D01*
G01*
G37*
G36*
G01*
X7504000Y-12529500D02*
X7504000Y-12730500D01*
G75*
G02*
X7424500Y-12810000I-79500J0D01*
G01*
X7265500Y-12810000D01*
G75*
G02*
X7186000Y-12730500I0J79500D01*
G01*
X7186000Y-12529500D01*
G75*
G02*
X7265500Y-12450000I79500J0D01*
G01*
X7424500Y-12450000D01*
G75*
G02*
X7504000Y-12529500I0J-79500D01*
G01*
G37*
G36*
G01*
X6814000Y-12529500D02*
X6814000Y-12730500D01*
G75*
G02*
X6734500Y-12810000I-79500J0D01*
G01*
X6575500Y-12810000D01*
G75*
G02*
X6496000Y-12730500I0J79500D01*
G01*
X6496000Y-12529500D01*
G75*
G02*
X6575500Y-12450000I79500J0D01*
G01*
X6734500Y-12450000D01*
G75*
G02*
X6814000Y-12529500I0J-79500D01*
G01*
G37*
M02*
