G04 #@! TF.GenerationSoftware,KiCad,Pcbnew,5.1.7-a382d34a8~87~ubuntu18.04.1*
G04 #@! TF.CreationDate,2020-10-22T16:40:06+03:00*
G04 #@! TF.ProjectId,FreeSmart157AAC_29mm_module,46726565-536d-4617-9274-313537414143,rev?*
G04 #@! TF.SameCoordinates,Original*
G04 #@! TF.FileFunction,Legend,Bot*
G04 #@! TF.FilePolarity,Positive*
%FSLAX46Y46*%
G04 Gerber Fmt 4.6, Leading zero omitted, Abs format (unit mm)*
G04 Created by KiCad (PCBNEW 5.1.7-a382d34a8~87~ubuntu18.04.1) date 2020-10-22 16:40:06*
%MOMM*%
%LPD*%
G01*
G04 APERTURE LIST*
%ADD10C,0.120000*%
%ADD11C,0.100000*%
%ADD12C,0.150000*%
%ADD13C,0.125000*%
G04 APERTURE END LIST*
D10*
X12000000Y-13950000D02*
X11700000Y-13950000D01*
X11700000Y-13950000D02*
X11700000Y-10650000D01*
X11700000Y-10650000D02*
X12000000Y-10650000D01*
X14200000Y-13950000D02*
X14500000Y-13950000D01*
X14500000Y-13950000D02*
X14500000Y-10650000D01*
X14500000Y-10650000D02*
X14200000Y-10650000D01*
X-14200000Y-13950000D02*
X-14500000Y-13950000D01*
X-14500000Y-13950000D02*
X-14500000Y-10650000D01*
X-14500000Y-10650000D02*
X-14200000Y-10650000D01*
X-12000000Y-13950000D02*
X-11700000Y-13950000D01*
X-11700000Y-13950000D02*
X-11700000Y-10650000D01*
X-11700000Y-10650000D02*
X-12000000Y-10650000D01*
D11*
X-5499190Y-5718330D02*
X-6300620Y-5718330D01*
X-6300620Y-5718330D02*
X-6300620Y-2840040D01*
X-6300620Y-2840040D02*
X-5499190Y-2840040D01*
X5500890Y-5720320D02*
X6300620Y-5720320D01*
X6300620Y-5720320D02*
X6300620Y-2840040D01*
X6300620Y-2840040D02*
X5499190Y-2840040D01*
D12*
X4500000Y12534000D02*
X4500000Y13534000D01*
X4500000Y13534000D02*
X7000000Y13534000D01*
X-7000000Y-1666000D02*
X-7000000Y12534000D01*
X-7000000Y12534000D02*
X4500000Y12534000D01*
X7000000Y13534000D02*
X7000000Y-1666000D01*
X7000000Y-1666000D02*
X-7000000Y-1666000D01*
D10*
X-3175000Y-9847000D02*
X-3835000Y-9847000D01*
X-3175000Y-11577000D02*
X-3175000Y-9847000D01*
X-10795000Y-14147000D02*
X-10795000Y-13937000D01*
X-3175000Y-14147000D02*
X-3175000Y-13937000D01*
X-10795000Y-11577000D02*
X-10795000Y-9847000D01*
X-10795000Y-9847000D02*
X-10145000Y-9847000D01*
X-5225000Y-9147000D02*
X-5675000Y-9147000D01*
X-5225000Y-9147000D02*
X-5225000Y-9537000D01*
D11*
X11215810Y9299440D02*
X11215810Y8250420D01*
X7834170Y9299440D02*
X11215810Y9299440D01*
X7834170Y8250850D02*
X7834170Y9299440D01*
X7834190Y-9301070D02*
X7834190Y-8250420D01*
X11215810Y-9301070D02*
X7834190Y-9301070D01*
X11215810Y-8250420D02*
X11215810Y-9301070D01*
X-7834190Y-8250420D02*
X-7834190Y-9301070D01*
X-7834190Y-9301070D02*
X-11215810Y-9301070D01*
X-11215810Y-9301070D02*
X-11215810Y-8250420D01*
X-11215830Y8250850D02*
X-11215830Y9299440D01*
X-11215830Y9299440D02*
X-7834190Y9299440D01*
X-7834190Y9299440D02*
X-7834190Y8250420D01*
D10*
X8745000Y-9147000D02*
X8745000Y-9537000D01*
X8745000Y-9147000D02*
X8295000Y-9147000D01*
X3175000Y-9847000D02*
X3825000Y-9847000D01*
X3175000Y-11577000D02*
X3175000Y-9847000D01*
X10795000Y-14147000D02*
X10795000Y-13937000D01*
X3175000Y-14147000D02*
X3175000Y-13937000D01*
X10795000Y-11577000D02*
X10795000Y-9847000D01*
X10795000Y-9847000D02*
X10135000Y-9847000D01*
D13*
X11632380Y-11633333D02*
X11656190Y-11704761D01*
X11656190Y-11823809D01*
X11632380Y-11871428D01*
X11608571Y-11895238D01*
X11560952Y-11919047D01*
X11513333Y-11919047D01*
X11465714Y-11895238D01*
X11441904Y-11871428D01*
X11418095Y-11823809D01*
X11394285Y-11728571D01*
X11370476Y-11680952D01*
X11346666Y-11657142D01*
X11299047Y-11633333D01*
X11251428Y-11633333D01*
X11203809Y-11657142D01*
X11180000Y-11680952D01*
X11156190Y-11728571D01*
X11156190Y-11847619D01*
X11180000Y-11919047D01*
X11156190Y-12085714D02*
X11656190Y-12204761D01*
X11299047Y-12300000D01*
X11656190Y-12395238D01*
X11156190Y-12514285D01*
X11322857Y-12919047D02*
X11656190Y-12919047D01*
X11132380Y-12800000D02*
X11489523Y-12680952D01*
X11489523Y-12990476D01*
X-11354619Y-11652333D02*
X-11330809Y-11723761D01*
X-11330809Y-11842809D01*
X-11354619Y-11890428D01*
X-11378428Y-11914238D01*
X-11426047Y-11938047D01*
X-11473666Y-11938047D01*
X-11521285Y-11914238D01*
X-11545095Y-11890428D01*
X-11568904Y-11842809D01*
X-11592714Y-11747571D01*
X-11616523Y-11699952D01*
X-11640333Y-11676142D01*
X-11687952Y-11652333D01*
X-11735571Y-11652333D01*
X-11783190Y-11676142D01*
X-11807000Y-11699952D01*
X-11830809Y-11747571D01*
X-11830809Y-11866619D01*
X-11807000Y-11938047D01*
X-11830809Y-12104714D02*
X-11330809Y-12223761D01*
X-11687952Y-12319000D01*
X-11330809Y-12414238D01*
X-11830809Y-12533285D01*
X-11830809Y-12676142D02*
X-11830809Y-12985666D01*
X-11640333Y-12819000D01*
X-11640333Y-12890428D01*
X-11616523Y-12938047D01*
X-11592714Y-12961857D01*
X-11545095Y-12985666D01*
X-11426047Y-12985666D01*
X-11378428Y-12961857D01*
X-11354619Y-12938047D01*
X-11330809Y-12890428D01*
X-11330809Y-12747571D01*
X-11354619Y-12699952D01*
X-11378428Y-12676142D01*
X4026190Y-8426666D02*
X3788095Y-8260000D01*
X4026190Y-8140952D02*
X3526190Y-8140952D01*
X3526190Y-8331428D01*
X3550000Y-8379047D01*
X3573809Y-8402857D01*
X3621428Y-8426666D01*
X3692857Y-8426666D01*
X3740476Y-8402857D01*
X3764285Y-8379047D01*
X3788095Y-8331428D01*
X3788095Y-8140952D01*
X4026190Y-8664761D02*
X4026190Y-8760000D01*
X4002380Y-8807619D01*
X3978571Y-8831428D01*
X3907142Y-8879047D01*
X3811904Y-8902857D01*
X3621428Y-8902857D01*
X3573809Y-8879047D01*
X3550000Y-8855238D01*
X3526190Y-8807619D01*
X3526190Y-8712380D01*
X3550000Y-8664761D01*
X3573809Y-8640952D01*
X3621428Y-8617142D01*
X3740476Y-8617142D01*
X3788095Y-8640952D01*
X3811904Y-8664761D01*
X3835714Y-8712380D01*
X3835714Y-8807619D01*
X3811904Y-8855238D01*
X3788095Y-8879047D01*
X3740476Y-8902857D01*
X-3437662Y-7411300D02*
X-3437662Y-6911300D01*
X-3628138Y-6911300D01*
X-3675757Y-6935110D01*
X-3699567Y-6958919D01*
X-3723376Y-7006538D01*
X-3723376Y-7077967D01*
X-3699567Y-7125586D01*
X-3675757Y-7149395D01*
X-3628138Y-7173205D01*
X-3437662Y-7173205D01*
X-4199567Y-7411300D02*
X-3913852Y-7411300D01*
X-4056709Y-7411300D02*
X-4056709Y-6911300D01*
X-4009090Y-6982729D01*
X-3961471Y-7030348D01*
X-3913852Y-7054157D01*
X166666Y13481809D02*
X166666Y13124666D01*
X190476Y13053238D01*
X238095Y13005619D01*
X309523Y12981809D01*
X357142Y12981809D01*
X-23809Y13481809D02*
X-333333Y13481809D01*
X-166666Y13291333D01*
X-238095Y13291333D01*
X-285714Y13267523D01*
X-309523Y13243714D01*
X-333333Y13196095D01*
X-333333Y13077047D01*
X-309523Y13029428D01*
X-285714Y13005619D01*
X-238095Y12981809D01*
X-95238Y12981809D01*
X-47619Y13005619D01*
X-23809Y13029428D01*
X-440571Y-6830190D02*
X-273904Y-6592095D01*
X-154857Y-6830190D02*
X-154857Y-6330190D01*
X-345333Y-6330190D01*
X-392952Y-6354000D01*
X-416761Y-6377809D01*
X-440571Y-6425428D01*
X-440571Y-6496857D01*
X-416761Y-6544476D01*
X-392952Y-6568285D01*
X-345333Y-6592095D01*
X-154857Y-6592095D01*
X-916761Y-6830190D02*
X-631047Y-6830190D01*
X-773904Y-6830190D02*
X-773904Y-6330190D01*
X-726285Y-6401619D01*
X-678666Y-6449238D01*
X-631047Y-6473047D01*
X-1083428Y-6330190D02*
X-1392952Y-6330190D01*
X-1226285Y-6520666D01*
X-1297714Y-6520666D01*
X-1345333Y-6544476D01*
X-1369142Y-6568285D01*
X-1392952Y-6615904D01*
X-1392952Y-6734952D01*
X-1369142Y-6782571D01*
X-1345333Y-6806380D01*
X-1297714Y-6830190D01*
X-1154857Y-6830190D01*
X-1107238Y-6806380D01*
X-1083428Y-6782571D01*
X-1964571Y-6830190D02*
X-1797904Y-6592095D01*
X-1678857Y-6830190D02*
X-1678857Y-6330190D01*
X-1869333Y-6330190D01*
X-1916952Y-6354000D01*
X-1940761Y-6377809D01*
X-1964571Y-6425428D01*
X-1964571Y-6496857D01*
X-1940761Y-6544476D01*
X-1916952Y-6568285D01*
X-1869333Y-6592095D01*
X-1678857Y-6592095D01*
X-2440761Y-6830190D02*
X-2155047Y-6830190D01*
X-2297904Y-6830190D02*
X-2297904Y-6330190D01*
X-2250285Y-6401619D01*
X-2202666Y-6449238D01*
X-2155047Y-6473047D01*
X-2631238Y-6377809D02*
X-2655047Y-6354000D01*
X-2702666Y-6330190D01*
X-2821714Y-6330190D01*
X-2869333Y-6354000D01*
X-2893142Y-6377809D01*
X-2916952Y-6425428D01*
X-2916952Y-6473047D01*
X-2893142Y-6544476D01*
X-2607428Y-6830190D01*
X-2916952Y-6830190D01*
X2480428Y-6830190D02*
X2647095Y-6592095D01*
X2766142Y-6830190D02*
X2766142Y-6330190D01*
X2575666Y-6330190D01*
X2528047Y-6354000D01*
X2504238Y-6377809D01*
X2480428Y-6425428D01*
X2480428Y-6496857D01*
X2504238Y-6544476D01*
X2528047Y-6568285D01*
X2575666Y-6592095D01*
X2766142Y-6592095D01*
X2004238Y-6830190D02*
X2289952Y-6830190D01*
X2147095Y-6830190D02*
X2147095Y-6330190D01*
X2194714Y-6401619D01*
X2242333Y-6449238D01*
X2289952Y-6473047D01*
X1694714Y-6330190D02*
X1647095Y-6330190D01*
X1599476Y-6354000D01*
X1575666Y-6377809D01*
X1551857Y-6425428D01*
X1528047Y-6520666D01*
X1528047Y-6639714D01*
X1551857Y-6734952D01*
X1575666Y-6782571D01*
X1599476Y-6806380D01*
X1647095Y-6830190D01*
X1694714Y-6830190D01*
X1742333Y-6806380D01*
X1766142Y-6782571D01*
X1789952Y-6734952D01*
X1813761Y-6639714D01*
X1813761Y-6520666D01*
X1789952Y-6425428D01*
X1766142Y-6377809D01*
X1742333Y-6354000D01*
X1694714Y-6330190D01*
X-6818333Y-7983190D02*
X-6818333Y-8340333D01*
X-6794523Y-8411761D01*
X-6746904Y-8459380D01*
X-6675476Y-8483190D01*
X-6627857Y-8483190D01*
X-7294523Y-7983190D02*
X-7056428Y-7983190D01*
X-7032619Y-8221285D01*
X-7056428Y-8197476D01*
X-7104047Y-8173666D01*
X-7223095Y-8173666D01*
X-7270714Y-8197476D01*
X-7294523Y-8221285D01*
X-7318333Y-8268904D01*
X-7318333Y-8387952D01*
X-7294523Y-8435571D01*
X-7270714Y-8459380D01*
X-7223095Y-8483190D01*
X-7104047Y-8483190D01*
X-7056428Y-8459380D01*
X-7032619Y-8435571D01*
X-278671Y-11023477D02*
X-329179Y-10737267D01*
X-76641Y-10821446D02*
X-430194Y-10467893D01*
X-564881Y-10602580D01*
X-581717Y-10653087D01*
X-581717Y-10686759D01*
X-564881Y-10737267D01*
X-514373Y-10787774D01*
X-463866Y-10804610D01*
X-430194Y-10804610D01*
X-379686Y-10787774D01*
X-244999Y-10653087D01*
X-615389Y-11360194D02*
X-413358Y-11158164D01*
X-514373Y-11259179D02*
X-867927Y-10905626D01*
X-783747Y-10922462D01*
X-716404Y-10922462D01*
X-665896Y-10905626D01*
X-228015Y-8854866D02*
X58194Y-8804358D01*
X-25984Y-9056896D02*
X327568Y-8703343D01*
X192881Y-8568656D01*
X142374Y-8551820D01*
X108702Y-8551820D01*
X58194Y-8568656D01*
X7687Y-8619164D01*
X-9148Y-8669671D01*
X-9148Y-8703343D01*
X7687Y-8753851D01*
X142374Y-8888538D01*
X7687Y-8383461D02*
X-228015Y-8147759D01*
X-430045Y-8652835D01*
X-6901666Y-2639190D02*
X-6735000Y-2401095D01*
X-6615952Y-2639190D02*
X-6615952Y-2139190D01*
X-6806428Y-2139190D01*
X-6854047Y-2163000D01*
X-6877857Y-2186809D01*
X-6901666Y-2234428D01*
X-6901666Y-2305857D01*
X-6877857Y-2353476D01*
X-6854047Y-2377285D01*
X-6806428Y-2401095D01*
X-6615952Y-2401095D01*
X-7330238Y-2305857D02*
X-7330238Y-2639190D01*
X-7211190Y-2115380D02*
X-7092142Y-2472523D01*
X-7401666Y-2472523D01*
X1505341Y-12472509D02*
X1505341Y-12506181D01*
X1539013Y-12573524D01*
X1572685Y-12607196D01*
X1640028Y-12640868D01*
X1707372Y-12640868D01*
X1757879Y-12624032D01*
X1842059Y-12573524D01*
X1892566Y-12523017D01*
X1943074Y-12438837D01*
X1959910Y-12388330D01*
X1959910Y-12320986D01*
X1926238Y-12253643D01*
X1892566Y-12219971D01*
X1825223Y-12186299D01*
X1791551Y-12186299D01*
X1404326Y-11967433D02*
X1168623Y-12203135D01*
X1623192Y-11916925D02*
X1454833Y-12253643D01*
X1235967Y-12034776D01*
X833333Y-8636190D02*
X1000000Y-8398095D01*
X1119047Y-8636190D02*
X1119047Y-8136190D01*
X928571Y-8136190D01*
X880952Y-8160000D01*
X857142Y-8183809D01*
X833333Y-8231428D01*
X833333Y-8302857D01*
X857142Y-8350476D01*
X880952Y-8374285D01*
X928571Y-8398095D01*
X1119047Y-8398095D01*
X666666Y-8136190D02*
X357142Y-8136190D01*
X523809Y-8326666D01*
X452380Y-8326666D01*
X404761Y-8350476D01*
X380952Y-8374285D01*
X357142Y-8421904D01*
X357142Y-8540952D01*
X380952Y-8588571D01*
X404761Y-8612380D01*
X452380Y-8636190D01*
X595238Y-8636190D01*
X642857Y-8612380D01*
X666666Y-8588571D01*
X12254755Y-6841658D02*
X12611898Y-6841658D01*
X12683326Y-6817848D01*
X12730945Y-6770229D01*
X12754755Y-6698801D01*
X12754755Y-6651182D01*
X12302374Y-7055944D02*
X12278565Y-7079753D01*
X12254755Y-7127372D01*
X12254755Y-7246420D01*
X12278565Y-7294039D01*
X12302374Y-7317848D01*
X12349993Y-7341658D01*
X12397612Y-7341658D01*
X12469041Y-7317848D01*
X12754755Y-7032134D01*
X12754755Y-7341658D01*
X-6795244Y-6841658D02*
X-6438101Y-6841658D01*
X-6366673Y-6817848D01*
X-6319054Y-6770229D01*
X-6295244Y-6698801D01*
X-6295244Y-6651182D01*
X-6295244Y-7341658D02*
X-6295244Y-7055944D01*
X-6295244Y-7198801D02*
X-6795244Y-7198801D01*
X-6723815Y-7151182D01*
X-6676196Y-7103563D01*
X-6652387Y-7055944D01*
X7151666Y-7983190D02*
X7151666Y-8340333D01*
X7175476Y-8411761D01*
X7223095Y-8459380D01*
X7294523Y-8483190D01*
X7342142Y-8483190D01*
X6699285Y-8149857D02*
X6699285Y-8483190D01*
X6818333Y-7959380D02*
X6937380Y-8316523D01*
X6627857Y-8316523D01*
M02*
