M48
; DRILL file {KiCad 5.1.7-a382d34a8~87~ubuntu18.04.1} date Thu Oct 22 16:54:05 2020
; FORMAT={-:-/ absolute / inch / decimal}
; #@! TF.CreationDate,2020-10-22T16:54:05+03:00
; #@! TF.GenerationSoftware,Kicad,Pcbnew,5.1.7-a382d34a8~87~ubuntu18.04.1
; #@! TF.FileFunction,Plated,1,2,PTH
FMAT,2
INCH
T1C0.0118
T2C0.0394
%
G90
G05
T1
X-0.5732Y-0.7567
X-0.5511Y-0.7208
X-0.537Y0.6516
X-0.5319Y-0.6862
X-0.5114Y-0.5479
X-0.5051Y0.6335
X-0.4826Y-0.655
X-0.479Y-0.5567
X-0.4673Y0.6047
X-0.4587Y-0.6375
X-0.3933Y0.572
X-0.3871Y-0.1422
X-0.3867Y0.2906
X-0.3866Y0.0591
X-0.3854Y0.0155
X-0.3846Y0.139
X-0.3843Y-0.0918
X-0.3827Y-0.0142
X-0.3812Y-0.5183
X-0.3804Y-0.4886
X-0.3796Y0.175
X-0.3689Y-0.4598
X-0.3642Y0.211
X-0.359Y0.1183
X-0.3587Y-0.5375
X-0.3336Y0.3131
X-0.3319Y-0.5594
X-0.3265Y0.483
X-0.3224Y0.4287
X-0.274Y0.4094
X-0.2291Y-0.6169
X-0.228Y0.3886
X-0.2258Y0.0365
X-0.2236Y-0.4421
X-0.2147Y-0.059
X-0.2142Y-0.0965
X-0.2098Y0.1024
X-0.2084Y-0.0224
X-0.2063Y-0.5087
X-0.1969Y-0.1929
X-0.1955Y-0.384
X-0.1843Y-0.3184
X-0.1839Y0.2358
X-0.1823Y0.0193
X-0.1815Y0.3488
X-0.1772Y-0.1693
X-0.1745Y-0.263
X-0.1631Y-0.3392
X-0.1629Y-0.3948
X-0.1554Y-0.0425
X-0.1295Y-0.161
X-0.1288Y-0.3862
X-0.1264Y0.0417
X-0.1232Y-0.0587
X-0.1224Y-0.3572
X-0.1213Y-0.4413
X-0.0984Y0.3461
X-0.0945Y0.1531
X-0.0929Y0.2465
X-0.0886Y0.4531
X-0.0883Y0.0596
X-0.0839Y0.5559
X-0.0728Y-0.1625
X-0.0198Y-0.3226
X-0.005Y-0.3898
X0.0036Y-0.3593
X0.013Y-0.4193
X0.0379Y-0.3852
X0.0437Y-0.4244
X0.0619Y-0.4835
X0.0739Y-0.5125
X0.0835Y0.5457
X0.0902Y-0.5536
X0.0906Y0.352
X0.0929Y0.2539
X0.0972Y0.4575
X0.1015Y-0.0423
X0.1016Y0.0575
X0.1029Y-0.5991
X0.1039Y0.1571
X0.1252Y-0.1622
X0.1276Y-0.0763
X0.1343Y-0.0429
X0.1441Y-0.585
X0.161Y-0.6209
X0.1683Y-0.0521
X0.1705Y-0.1587
X0.1712Y0.0492
X0.176Y0.1299
X0.1792Y-0.0004
X0.1843Y-0.42
X0.1857Y0.2159
X0.1892Y0.1593
X0.1909Y0.3492
X0.1959Y0.1881
X0.1989Y0.0596
X0.2082Y-0.0702
X0.2088Y0.0123
X0.2142Y-0.6212
X0.2159Y-0.0413
X0.2379Y-0.4375
X0.2618Y-0.639
X0.3205Y-0.4433
X0.326Y0.4147
X0.3429Y0.3131
X0.3465Y0.4701
X0.3579Y0.5457
X0.3632Y0.1079
X0.3646Y0.2169
X0.3699Y-0.4635
X0.3804Y-0.498
X0.3814Y-0.0213
X0.3819Y0.2957
X0.3829Y0.057
X0.383Y0.1915
X0.3835Y0.0098
X0.3861Y-0.1583
X0.3867Y-0.1012
X0.3915Y-0.5332
X0.476Y0.6051
X0.4814Y-0.7105
X0.4937Y-0.5469
X0.5134Y-0.6409
X0.52Y-0.5604
X0.5268Y-0.7244
X0.5311Y0.689
X0.5445Y-0.652
X0.5488Y-0.7606
X0.5583Y0.6551
X0.5634Y0.6941
T2
X0.65Y0.7
X0.65Y0.6
X0.65Y0.5
X0.65Y0.4
X0.65Y0.3
X0.65Y0.2
X0.65Y0.1
X0.65Y0.0
X0.65Y-0.1
X0.65Y-0.2
X0.65Y-0.3
X0.65Y-0.4
X0.65Y-0.5
X0.65Y-0.6
X0.65Y-0.7
X0.75Y0.7
X0.75Y0.6
X0.75Y0.5
X0.75Y0.4
X0.75Y0.3
X0.75Y0.2
X0.75Y0.1
X0.75Y0.0
X0.75Y-0.1
X0.75Y-0.2
X0.75Y-0.3
X0.75Y-0.4
X0.75Y-0.5
X0.75Y-0.6
X0.75Y-0.7
X-0.95Y0.7
X-0.95Y0.6
X-0.95Y0.5
X-0.95Y0.4
X-0.95Y0.3
X-0.95Y0.2
X-0.95Y0.1
X-0.95Y0.0
X-0.95Y-0.1
X-0.95Y-0.2
X-0.95Y-0.3
X-0.95Y-0.4
X-0.95Y-0.5
X-0.95Y-0.6
X-0.95Y-0.7
X-0.75Y0.7
X-0.75Y0.6
X-0.75Y0.5
X-0.75Y0.4
X-0.75Y0.3
X-0.75Y0.2
X-0.75Y0.1
X-0.75Y0.0
X-0.75Y-0.1
X-0.75Y-0.2
X-0.75Y-0.3
X-0.75Y-0.4
X-0.75Y-0.5
X-0.75Y-0.6
X-0.75Y-0.7
X0.95Y0.7
X0.95Y0.6
X0.95Y0.5
X0.95Y0.4
X0.95Y0.3
X0.95Y0.2
X0.95Y0.1
X0.95Y0.0
X0.95Y-0.1
X0.95Y-0.2
X0.95Y-0.3
X0.95Y-0.4
X0.95Y-0.5
X0.95Y-0.6
X0.95Y-0.7
X-1.05Y0.7
X-1.05Y0.6
X-1.05Y0.5
X-1.05Y0.4
X-1.05Y0.3
X-1.05Y0.2
X-1.05Y0.1
X-1.05Y0.0
X-1.05Y-0.1
X-1.05Y-0.2
X-1.05Y-0.3
X-1.05Y-0.4
X-1.05Y-0.5
X-1.05Y-0.6
X-1.05Y-0.7
X-0.65Y0.7
X-0.65Y0.6
X-0.65Y0.5
X-0.65Y0.4
X-0.65Y0.3
X-0.65Y0.2
X-0.65Y0.1
X-0.65Y0.0
X-0.65Y-0.1
X-0.65Y-0.2
X-0.65Y-0.3
X-0.65Y-0.4
X-0.65Y-0.5
X-0.65Y-0.6
X-0.65Y-0.7
X-0.85Y0.7
X-0.85Y0.6
X-0.85Y0.5
X-0.85Y0.4
X-0.85Y0.3
X-0.85Y0.2
X-0.85Y0.1
X-0.85Y0.0
X-0.85Y-0.1
X-0.85Y-0.2
X-0.85Y-0.3
X-0.85Y-0.4
X-0.85Y-0.5
X-0.85Y-0.6
X-0.85Y-0.7
X1.05Y0.7
X1.05Y0.6
X1.05Y0.5
X1.05Y0.4
X1.05Y0.3
X1.05Y0.2
X1.05Y0.1
X1.05Y0.0
X1.05Y-0.1
X1.05Y-0.2
X1.05Y-0.3
X1.05Y-0.4
X1.05Y-0.5
X1.05Y-0.6
X1.05Y-0.7
X0.85Y0.7
X0.85Y0.6
X0.85Y0.5
X0.85Y0.4
X0.85Y0.3
X0.85Y0.2
X0.85Y0.1
X0.85Y0.0
X0.85Y-0.1
X0.85Y-0.2
X0.85Y-0.3
X0.85Y-0.4
X0.85Y-0.5
X0.85Y-0.6
X0.85Y-0.7
T0
M30
