G04 #@! TF.GenerationSoftware,KiCad,Pcbnew,5.1.7-a382d34a8~87~ubuntu18.04.1*
G04 #@! TF.CreationDate,2020-10-22T16:54:02+03:00*
G04 #@! TF.ProjectId,FreeSmart157AAC_29mm_devboard_5r_smd,46726565-536d-4617-9274-313537414143,rev?*
G04 #@! TF.SameCoordinates,Original*
G04 #@! TF.FileFunction,Copper,L2,Bot*
G04 #@! TF.FilePolarity,Positive*
%FSLAX46Y46*%
G04 Gerber Fmt 4.6, Leading zero omitted, Abs format (unit mm)*
G04 Created by KiCad (PCBNEW 5.1.7-a382d34a8~87~ubuntu18.04.1) date 2020-10-22 16:54:02*
%MOMM*%
%LPD*%
G01*
G04 APERTURE LIST*
G04 #@! TA.AperFunction,SMDPad,CuDef*
%ADD10R,3.150000X1.000000*%
G04 #@! TD*
G04 #@! TA.AperFunction,ComponentPad*
%ADD11O,1.700000X1.700000*%
G04 #@! TD*
G04 #@! TA.AperFunction,ComponentPad*
%ADD12R,1.700000X1.700000*%
G04 #@! TD*
G04 #@! TA.AperFunction,ViaPad*
%ADD13C,0.600000*%
G04 #@! TD*
G04 #@! TA.AperFunction,Conductor*
%ADD14C,0.152400*%
G04 #@! TD*
G04 APERTURE END LIST*
D10*
X2525000Y15240000D03*
X-2525000Y15240000D03*
X2525000Y12700000D03*
X-2525000Y12700000D03*
X2525000Y10160000D03*
X-2525000Y10160000D03*
X2525000Y7620000D03*
X-2525000Y7620000D03*
X2525000Y5080000D03*
X-2525000Y5080000D03*
X2525000Y2540000D03*
X-2525000Y2540000D03*
X2525000Y0D03*
X-2525000Y0D03*
X2525000Y-2540000D03*
X-2525000Y-2540000D03*
X2525000Y-5080000D03*
X-2525000Y-5080000D03*
X2525000Y-7620000D03*
X-2525000Y-7620000D03*
X12685000Y7620000D03*
X7635000Y7620000D03*
X12685000Y5080000D03*
X7635000Y5080000D03*
X12685000Y2540000D03*
X7635000Y2540000D03*
X12685000Y0D03*
X7635000Y0D03*
X12685000Y-2540000D03*
X7635000Y-2540000D03*
X12685000Y-5080000D03*
X7635000Y-5080000D03*
X12685000Y-7620000D03*
X7635000Y-7620000D03*
X12685000Y-10160000D03*
X7635000Y-10160000D03*
X12685000Y-12700000D03*
X7635000Y-12700000D03*
X12685000Y-15240000D03*
X7635000Y-15240000D03*
D11*
X26670000Y-17780000D03*
X26670000Y-15240000D03*
X26670000Y-12700000D03*
X26670000Y-10160000D03*
X26670000Y-7620000D03*
X26670000Y-5080000D03*
X26670000Y-2540000D03*
X26670000Y0D03*
X26670000Y2540000D03*
X26670000Y5080000D03*
X26670000Y7620000D03*
X26670000Y10160000D03*
X26670000Y12700000D03*
X26670000Y15240000D03*
D12*
X26670000Y17780000D03*
D11*
X24130000Y-17780000D03*
X24130000Y-15240000D03*
X24130000Y-12700000D03*
X24130000Y-10160000D03*
X24130000Y-7620000D03*
X24130000Y-5080000D03*
X24130000Y-2540000D03*
X24130000Y0D03*
X24130000Y2540000D03*
X24130000Y5080000D03*
X24130000Y7620000D03*
X24130000Y10160000D03*
X24130000Y12700000D03*
X24130000Y15240000D03*
D12*
X24130000Y17780000D03*
D11*
X21590000Y-17780000D03*
X21590000Y-15240000D03*
X21590000Y-12700000D03*
X21590000Y-10160000D03*
X21590000Y-7620000D03*
X21590000Y-5080000D03*
X21590000Y-2540000D03*
X21590000Y0D03*
X21590000Y2540000D03*
X21590000Y5080000D03*
X21590000Y7620000D03*
X21590000Y10160000D03*
X21590000Y12700000D03*
X21590000Y15240000D03*
D12*
X21590000Y17780000D03*
D11*
X19050000Y-17780000D03*
X19050000Y-15240000D03*
X19050000Y-12700000D03*
X19050000Y-10160000D03*
X19050000Y-7620000D03*
X19050000Y-5080000D03*
X19050000Y-2540000D03*
X19050000Y0D03*
X19050000Y2540000D03*
X19050000Y5080000D03*
X19050000Y7620000D03*
X19050000Y10160000D03*
X19050000Y12700000D03*
X19050000Y15240000D03*
D12*
X19050000Y17780000D03*
D11*
X16510000Y-17780000D03*
X16510000Y-15240000D03*
X16510000Y-12700000D03*
X16510000Y-10160000D03*
X16510000Y-7620000D03*
X16510000Y-5080000D03*
X16510000Y-2540000D03*
X16510000Y0D03*
X16510000Y2540000D03*
X16510000Y5080000D03*
X16510000Y7620000D03*
X16510000Y10160000D03*
X16510000Y12700000D03*
X16510000Y15240000D03*
D12*
X16510000Y17780000D03*
D10*
X-7635000Y7620000D03*
X-12685000Y7620000D03*
X-7635000Y5080000D03*
X-12685000Y5080000D03*
X-7635000Y2540000D03*
X-12685000Y2540000D03*
X-7635000Y0D03*
X-12685000Y0D03*
X-7635000Y-2540000D03*
X-12685000Y-2540000D03*
X-7635000Y-5080000D03*
X-12685000Y-5080000D03*
X-7635000Y-7620000D03*
X-12685000Y-7620000D03*
X-7635000Y-10160000D03*
X-12685000Y-10160000D03*
X-7635000Y-12700000D03*
X-12685000Y-12700000D03*
X-7635000Y-15240000D03*
X-12685000Y-15240000D03*
D11*
X-26670000Y-17780000D03*
X-26670000Y-15240000D03*
X-26670000Y-12700000D03*
X-26670000Y-10160000D03*
X-26670000Y-7620000D03*
X-26670000Y-5080000D03*
X-26670000Y-2540000D03*
X-26670000Y0D03*
X-26670000Y2540000D03*
X-26670000Y5080000D03*
X-26670000Y7620000D03*
X-26670000Y10160000D03*
X-26670000Y12700000D03*
X-26670000Y15240000D03*
D12*
X-26670000Y17780000D03*
D11*
X-24130000Y-17780000D03*
X-24130000Y-15240000D03*
X-24130000Y-12700000D03*
X-24130000Y-10160000D03*
X-24130000Y-7620000D03*
X-24130000Y-5080000D03*
X-24130000Y-2540000D03*
X-24130000Y0D03*
X-24130000Y2540000D03*
X-24130000Y5080000D03*
X-24130000Y7620000D03*
X-24130000Y10160000D03*
X-24130000Y12700000D03*
X-24130000Y15240000D03*
D12*
X-24130000Y17780000D03*
D11*
X-21590000Y-17780000D03*
X-21590000Y-15240000D03*
X-21590000Y-12700000D03*
X-21590000Y-10160000D03*
X-21590000Y-7620000D03*
X-21590000Y-5080000D03*
X-21590000Y-2540000D03*
X-21590000Y0D03*
X-21590000Y2540000D03*
X-21590000Y5080000D03*
X-21590000Y7620000D03*
X-21590000Y10160000D03*
X-21590000Y12700000D03*
X-21590000Y15240000D03*
D12*
X-21590000Y17780000D03*
D11*
X-19050000Y-17780000D03*
X-19050000Y-15240000D03*
X-19050000Y-12700000D03*
X-19050000Y-10160000D03*
X-19050000Y-7620000D03*
X-19050000Y-5080000D03*
X-19050000Y-2540000D03*
X-19050000Y0D03*
X-19050000Y2540000D03*
X-19050000Y5080000D03*
X-19050000Y7620000D03*
X-19050000Y10160000D03*
X-19050000Y12700000D03*
X-19050000Y15240000D03*
D12*
X-19050000Y17780000D03*
X-16510000Y17780000D03*
D11*
X-16510000Y15240000D03*
X-16510000Y12700000D03*
X-16510000Y10160000D03*
X-16510000Y7620000D03*
X-16510000Y5080000D03*
X-16510000Y2540000D03*
X-16510000Y0D03*
X-16510000Y-2540000D03*
X-16510000Y-5080000D03*
X-16510000Y-7620000D03*
X-16510000Y-10160000D03*
X-16510000Y-12700000D03*
X-16510000Y-15240000D03*
X-16510000Y-17780000D03*
D13*
X-13640000Y16550000D03*
X-12830000Y16090000D03*
X-9822588Y7380172D03*
X-11870000Y15360000D03*
X-9990000Y14530000D03*
X-9250000Y5360000D03*
X-8293001Y12267172D03*
X-8190000Y10890000D03*
X8708641Y7952422D03*
X14310000Y17630000D03*
X14180000Y16640000D03*
X9700000Y7510000D03*
X12090000Y15370000D03*
X13490000Y17500000D03*
X9260000Y5510000D03*
X9090000Y13860000D03*
X8800000Y11940000D03*
X-5330000Y2600000D03*
X-5000000Y-4900000D03*
X-4630000Y490000D03*
X-4433421Y-6680000D03*
X-3946196Y-1078230D03*
X-3270590Y-9808237D03*
X-3130000Y-1490000D03*
X-3109390Y-9073296D03*
X-3290000Y-4090000D03*
X-5680000Y-11230000D03*
X-3210000Y1060000D03*
X-3080000Y-11210000D03*
X-2243043Y1514565D03*
X-2400000Y3890000D03*
X-5240000Y-12920000D03*
X-2360000Y6260000D03*
X-8430000Y-14210000D03*
X-9370000Y-11680000D03*
X-4500000Y-4300000D03*
X-5292192Y-569070D03*
X-9770000Y3530000D03*
X-6960000Y10398610D03*
X-8474480Y7952412D03*
X-12988603Y-13917008D03*
X-9662404Y-12411170D03*
X-4965000Y-9753166D03*
X-4680049Y-8086332D03*
X-9761449Y-2332030D03*
X-5454512Y-1498784D03*
X-9790000Y392789D03*
X-9820000Y1500000D03*
X-4610000Y8860000D03*
X-5790000Y9870000D03*
X-12166455Y-14140000D03*
X-9683015Y-13164886D03*
X-4136854Y-10026955D03*
X-4141546Y-8615653D03*
X-9831386Y-3611269D03*
X-5440000Y-2450000D03*
X-9720028Y-360385D03*
X-5734231Y927527D03*
X-4670000Y5990000D03*
X-9117935Y3004921D03*
X-9642183Y4446229D03*
X-14560000Y-19220000D03*
X-13998694Y-18308097D03*
X-13510000Y-17430000D03*
X-12257944Y-16635913D03*
X-11650136Y-16192412D03*
X13940000Y-19320000D03*
X13380000Y-18400000D03*
X12227198Y-18046834D03*
X13830000Y-16560000D03*
X13040000Y-16280000D03*
X13208816Y-14234453D03*
X9944092Y-13542303D03*
X8140000Y-11260000D03*
X4681318Y-10667503D03*
X5289412Y-1782489D03*
X9686533Y-541768D03*
X5302527Y313198D03*
X4348087Y1250820D03*
X4975758Y4778694D03*
X9225636Y2739991D03*
X9728738Y4863043D03*
X12538771Y-13892163D03*
X9662412Y-12650000D03*
X6042012Y-11112054D03*
X9807294Y-4021341D03*
X5483756Y-1048825D03*
X9740000Y250002D03*
X5052928Y1514112D03*
X4471455Y3298258D03*
X4716574Y5485057D03*
X4850000Y8870000D03*
X9395447Y-11773187D03*
X9822586Y-2570000D03*
X9724645Y1447265D03*
X4806360Y4045599D03*
X8279992Y10533688D03*
X-9109916Y-13652412D03*
X-2500000Y8790000D03*
X-5818610Y-15670000D03*
X-2250000Y11510000D03*
X-1850000Y-4127598D03*
X-2130000Y14120000D03*
X-503757Y-8194389D03*
X2120000Y13860000D03*
X-128164Y-9900036D03*
X2470000Y11620000D03*
X90343Y-9127438D03*
X2300000Y8940000D03*
X330000Y-10650000D03*
X2360000Y6450000D03*
X962902Y-9784778D03*
X2640000Y3990000D03*
X1110000Y-10780002D03*
X2580000Y1460000D03*
X1572524Y-12280530D03*
X2578886Y-1074183D03*
X1877335Y-13016734D03*
X3240000Y-1937598D03*
X2613394Y-15218157D03*
X3180000Y-4120000D03*
X2291108Y-14060875D03*
X4331519Y-4031390D03*
X3660149Y-14859851D03*
X3410000Y-1090000D03*
X4090000Y-15770000D03*
X4273942Y-1322877D03*
X5441216Y-15778784D03*
X4552412Y-9318D03*
X6650000Y-16230000D03*
D14*
X-14064264Y16550000D02*
X-13640000Y16550000D01*
X-14214265Y16700001D02*
X-14064264Y16550000D01*
X-18972401Y16700001D02*
X-14214265Y16700001D01*
X-19050000Y16777600D02*
X-18972401Y16700001D01*
X-19050000Y17780000D02*
X-19050000Y16777600D01*
X-14322333Y15790001D02*
X-13129999Y15790001D01*
X-23671001Y16318601D02*
X-14850933Y16318601D01*
X-24130000Y16777600D02*
X-23671001Y16318601D01*
X-14850933Y16318601D02*
X-14322333Y15790001D01*
X-13129999Y15790001D02*
X-12830000Y16090000D01*
X-24130000Y17780000D02*
X-24130000Y16777600D01*
X-10062416Y7620000D02*
X-9822588Y7380172D01*
X-12685000Y7620000D02*
X-10062416Y7620000D01*
X-17960001Y14150001D02*
X-13079999Y14150001D01*
X-12169999Y15060001D02*
X-11870000Y15360000D01*
X-13079999Y14150001D02*
X-12169999Y15060001D01*
X-19050000Y15240000D02*
X-17960001Y14150001D01*
X-10691399Y13828601D02*
X-10289999Y14230001D01*
X-24130000Y15240000D02*
X-22718601Y13828601D01*
X-10289999Y14230001D02*
X-9990000Y14530000D01*
X-22718601Y13828601D02*
X-10691399Y13828601D01*
X-8825736Y5360000D02*
X-9250000Y5360000D01*
X-7915000Y5360000D02*
X-8825736Y5360000D01*
X-7635000Y5080000D02*
X-7915000Y5360000D01*
X-14372512Y10909622D02*
X-9650551Y10909622D01*
X-9650551Y10909622D02*
X-8593000Y11967173D01*
X-8593000Y11967173D02*
X-8293001Y12267172D01*
X-15084289Y11621399D02*
X-14372512Y10909622D01*
X-17971399Y11621399D02*
X-15084289Y11621399D01*
X-19050000Y12700000D02*
X-17971399Y11621399D01*
X-15358481Y10604811D02*
X-8899453Y10604811D01*
X-24130000Y12700000D02*
X-22668601Y11238601D01*
X-22668601Y11238601D02*
X-15992271Y11238601D01*
X-15992271Y11238601D02*
X-15358481Y10604811D01*
X-8614264Y10890000D02*
X-8190000Y10890000D01*
X-8899453Y10604811D02*
X-8614264Y10890000D01*
X7967422Y7952422D02*
X8284377Y7952422D01*
X7635000Y7620000D02*
X7967422Y7952422D01*
X8284377Y7952422D02*
X8708641Y7952422D01*
X19050000Y18782400D02*
X18973799Y18858601D01*
X19050000Y17780000D02*
X19050000Y18782400D01*
X18973799Y18858601D02*
X15538601Y18858601D01*
X15538601Y18858601D02*
X14609999Y17929999D01*
X14609999Y17929999D02*
X14310000Y17630000D01*
X24130000Y16777600D02*
X23992400Y16640000D01*
X14604264Y16640000D02*
X14180000Y16640000D01*
X24130000Y17780000D02*
X24130000Y16777600D01*
X23992400Y16640000D02*
X14604264Y16640000D01*
X12575000Y7510000D02*
X12685000Y7620000D01*
X9700000Y7510000D02*
X12575000Y7510000D01*
X15043670Y15370000D02*
X12514264Y15370000D01*
X17971399Y16318601D02*
X15992271Y16318601D01*
X12514264Y15370000D02*
X12090000Y15370000D01*
X15992271Y16318601D02*
X15043670Y15370000D01*
X19050000Y15240000D02*
X17971399Y16318601D01*
X24130000Y15240000D02*
X25208601Y16318601D01*
X14729147Y19163411D02*
X13490000Y17924264D01*
X24858071Y19163411D02*
X14729147Y19163411D01*
X13490000Y17924264D02*
X13490000Y17500000D01*
X25208601Y18812881D02*
X24858071Y19163411D01*
X25208601Y16318601D02*
X25208601Y18812881D01*
X8065000Y5510000D02*
X8835736Y5510000D01*
X8835736Y5510000D02*
X9260000Y5510000D01*
X7635000Y5080000D02*
X8065000Y5510000D01*
X9389999Y14159999D02*
X9090000Y13860000D01*
X19050000Y12700000D02*
X17590001Y14159999D01*
X17590001Y14159999D02*
X9389999Y14159999D01*
X13356979Y11143309D02*
X9596691Y11143309D01*
X24130000Y12700000D02*
X23051399Y11621399D01*
X17027729Y13778601D02*
X15992271Y13778601D01*
X15992271Y13778601D02*
X13356979Y11143309D01*
X17588601Y13217729D02*
X17027729Y13778601D01*
X9596691Y11143309D02*
X9099999Y11640001D01*
X23051399Y11621399D02*
X18450733Y11621399D01*
X18450733Y11621399D02*
X17588601Y12483531D01*
X17588601Y12483531D02*
X17588601Y13217729D01*
X9099999Y11640001D02*
X8800000Y11940000D01*
X-6114217Y1760940D02*
X-5744796Y1760940D01*
X-9291399Y1751399D02*
X-6123758Y1751399D01*
X-10080000Y2540000D02*
X-9291399Y1751399D01*
X-5330000Y2175736D02*
X-5330000Y2600000D01*
X-12685000Y2540000D02*
X-10080000Y2540000D01*
X-5744796Y1760940D02*
X-5330000Y2175736D01*
X-6123758Y1751399D02*
X-6114217Y1760940D01*
X-5000000Y-4900000D02*
X-5750000Y-4150000D01*
X-9191482Y-4150000D02*
X-10250000Y-5208518D01*
X-5750000Y-4150000D02*
X-9191482Y-4150000D01*
X-10378518Y-5080000D02*
X-12685000Y-5080000D01*
X-10250000Y-5208518D02*
X-10378518Y-5080000D01*
X-5672177Y264342D02*
X-5279922Y264342D01*
X-7635000Y0D02*
X-5936518Y0D01*
X-5054264Y490000D02*
X-4630000Y490000D01*
X-5936518Y0D02*
X-5672177Y264342D01*
X-5279922Y264342D02*
X-5054264Y490000D01*
X-5907600Y-5080000D02*
X-4433421Y-6554179D01*
X-7635000Y-5080000D02*
X-5907600Y-5080000D01*
X-4433421Y-6554179D02*
X-4433421Y-6680000D01*
X-4983957Y-40469D02*
X-4246195Y-778231D01*
X-9466298Y-888987D02*
X-9365260Y-787949D01*
X-10862745Y0D02*
X-9973758Y-888987D01*
X-5820793Y-315341D02*
X-5545921Y-40469D01*
X-6020279Y-787949D02*
X-5820793Y-588463D01*
X-5820793Y-588463D02*
X-5820793Y-315341D01*
X-9973758Y-888987D02*
X-9466298Y-888987D01*
X-12685000Y0D02*
X-10862745Y0D01*
X-9365260Y-787949D02*
X-6020279Y-787949D01*
X-4246195Y-778231D02*
X-3946196Y-1078230D01*
X-5545921Y-40469D02*
X-4983957Y-40469D01*
X-6528850Y-8348601D02*
X-6055674Y-8821777D01*
X-12685000Y-8272400D02*
X-12608799Y-8348601D01*
X-5221820Y-9224564D02*
X-4727425Y-9224564D01*
X-5624607Y-8821777D02*
X-5221820Y-9224564D01*
X-12608799Y-8348601D02*
X-6528850Y-8348601D01*
X-4727425Y-9224564D02*
X-4453636Y-9498353D01*
X-6055674Y-8821777D02*
X-5624607Y-8821777D01*
X-3580474Y-9498353D02*
X-3570589Y-9508238D01*
X-4453636Y-9498353D02*
X-3580474Y-9498353D01*
X-3570589Y-9508238D02*
X-3270590Y-9808237D01*
X-12685000Y-7620000D02*
X-12685000Y-8272400D01*
X-4881398Y-2767400D02*
X-4881398Y-2443730D01*
X-4227667Y-1789999D02*
X-3429999Y-1789999D01*
X-5202600Y-3088602D02*
X-4881398Y-2767400D01*
X-3429999Y-1789999D02*
X-3130000Y-1490000D01*
X-7635000Y-2540000D02*
X-7086398Y-3088602D01*
X-7086398Y-3088602D02*
X-5202600Y-3088602D01*
X-4881398Y-2443730D02*
X-4227667Y-1789999D01*
X-5907600Y-7620000D02*
X-5742917Y-7784683D01*
X-3612449Y-9152091D02*
X-3533654Y-9073296D01*
X-3533654Y-9073296D02*
X-3109390Y-9073296D01*
X-7635000Y-7620000D02*
X-5907600Y-7620000D01*
X-4585014Y-8919753D02*
X-4352676Y-9152091D01*
X-5742917Y-8272400D02*
X-5095564Y-8919753D01*
X-5095564Y-8919753D02*
X-4585014Y-8919753D01*
X-4352676Y-9152091D02*
X-3612449Y-9152091D01*
X-5742917Y-7784683D02*
X-5742917Y-8272400D01*
X-10015179Y-2860246D02*
X-9806205Y-2860246D01*
X-10335425Y-2540000D02*
X-10015179Y-2860246D01*
X-9236452Y-3429999D02*
X-3950001Y-3429999D01*
X-9806205Y-2860246D02*
X-9236452Y-3429999D01*
X-3950001Y-3429999D02*
X-3589999Y-3790001D01*
X-3589999Y-3790001D02*
X-3290000Y-4090000D01*
X-12685000Y-2540000D02*
X-10335425Y-2540000D01*
X-6104264Y-11230000D02*
X-5680000Y-11230000D01*
X-12685000Y-10160000D02*
X-10058601Y-10160000D01*
X-8988601Y-11230000D02*
X-6104264Y-11230000D01*
X-10058601Y-10160000D02*
X-8988601Y-11230000D01*
X-3210000Y685000D02*
X-2525000Y0D01*
X-3210000Y1060000D02*
X-3210000Y685000D01*
X-7094999Y-10700001D02*
X-3589999Y-10700001D01*
X-7635000Y-10160000D02*
X-7094999Y-10700001D01*
X-3589999Y-10700001D02*
X-3379999Y-10910001D01*
X-3379999Y-10910001D02*
X-3080000Y-11210000D01*
X-2525000Y2540000D02*
X-2525000Y1796522D01*
X-2525000Y1796522D02*
X-2243043Y1514565D01*
X-2400000Y4955000D02*
X-2525000Y5080000D01*
X-2400000Y3890000D02*
X-2400000Y4955000D01*
X-5460000Y-12700000D02*
X-5240000Y-12920000D01*
X-7635000Y-12700000D02*
X-5460000Y-12700000D01*
X-2360000Y7455000D02*
X-2525000Y7620000D01*
X-2360000Y6260000D02*
X-2360000Y7455000D01*
X-10045716Y-15240000D02*
X-9015716Y-14210000D01*
X-12685000Y-15240000D02*
X-10045716Y-15240000D01*
X-8854264Y-14210000D02*
X-8430000Y-14210000D01*
X-9015716Y-14210000D02*
X-8854264Y-14210000D01*
X-9669999Y-11380001D02*
X-9370000Y-11680000D01*
X-16510000Y-10160000D02*
X-15660001Y-11009999D01*
X-10040001Y-11009999D02*
X-9669999Y-11380001D01*
X-15660001Y-11009999D02*
X-10040001Y-11009999D01*
X-14547918Y-4319999D02*
X-9792547Y-4319999D01*
X-9317738Y-3845189D02*
X-4954811Y-3845189D01*
X-4954811Y-3845189D02*
X-4799999Y-4000001D01*
X-4799999Y-4000001D02*
X-4500000Y-4300000D01*
X-15307919Y-5080000D02*
X-14547918Y-4319999D01*
X-16510000Y-5080000D02*
X-15307919Y-5080000D01*
X-9792547Y-4319999D02*
X-9317738Y-3845189D01*
X-16510000Y0D02*
X-15307919Y0D01*
X-10100014Y-1193798D02*
X-9340042Y-1193798D01*
X-10470113Y-823699D02*
X-10100014Y-1193798D01*
X-9239004Y-1092760D02*
X-5815882Y-1092760D01*
X-14484220Y-823699D02*
X-10470113Y-823699D01*
X-9340042Y-1193798D02*
X-9239004Y-1092760D01*
X-5592191Y-869069D02*
X-5292192Y-569070D01*
X-5815882Y-1092760D02*
X-5592191Y-869069D01*
X-15307919Y0D02*
X-14484220Y-823699D01*
X-10194264Y3530000D02*
X-9770000Y3530000D01*
X-15307919Y5080000D02*
X-13757919Y3530000D01*
X-13757919Y3530000D02*
X-10194264Y3530000D01*
X-16510000Y5080000D02*
X-15307919Y5080000D01*
X-17971399Y9081399D02*
X-15039667Y9081399D01*
X-15039667Y9081399D02*
X-13946256Y10174811D01*
X-19050000Y10160000D02*
X-17971399Y9081399D01*
X-7384264Y10398610D02*
X-6960000Y10398610D01*
X-7608063Y10174811D02*
X-7384264Y10398610D01*
X-13946256Y10174811D02*
X-7608063Y10174811D01*
X-7635000Y7620000D02*
X-7967412Y7952412D01*
X-7967412Y7952412D02*
X-8050216Y7952412D01*
X-8050216Y7952412D02*
X-8474480Y7952412D01*
X-13489875Y-13840000D02*
X-13412867Y-13917008D01*
X-13412867Y-13917008D02*
X-12988603Y-13917008D01*
X-17910000Y-13840000D02*
X-13489875Y-13840000D01*
X-19050000Y-12700000D02*
X-17910000Y-13840000D01*
X-21590000Y-10160000D02*
X-20433412Y-11316588D01*
X-10756986Y-11316588D02*
X-9962403Y-12111171D01*
X-20433412Y-11316588D02*
X-10756986Y-11316588D01*
X-9962403Y-12111171D02*
X-9662404Y-12411170D01*
X-6578517Y-8730001D02*
X-6181930Y-9126588D01*
X-5750863Y-9126588D02*
X-5124285Y-9753166D01*
X-19050000Y-7620000D02*
X-17939999Y-8730001D01*
X-6181930Y-9126588D02*
X-5750863Y-9126588D01*
X-5124285Y-9753166D02*
X-4965000Y-9753166D01*
X-17939999Y-8730001D02*
X-6578517Y-8730001D01*
X-6178850Y-6158601D02*
X-4680049Y-7657402D01*
X-20511399Y-6158601D02*
X-6178850Y-6158601D01*
X-4680049Y-7662068D02*
X-4680049Y-8086332D01*
X-21590000Y-5080000D02*
X-20511399Y-6158601D01*
X-4680049Y-7657402D02*
X-4680049Y-7662068D01*
X-14488601Y-3222881D02*
X-14488601Y-1857119D01*
X-10902867Y-1811399D02*
X-10483283Y-2230983D01*
X-14488601Y-1857119D02*
X-14442881Y-1811399D01*
X-14442881Y-1811399D02*
X-10902867Y-1811399D01*
X-17971399Y-3618601D02*
X-14884321Y-3618601D01*
X-19050000Y-2540000D02*
X-17971399Y-3618601D01*
X-10483283Y-2230983D02*
X-9862496Y-2230983D01*
X-14884321Y-3618601D02*
X-14488601Y-3222881D01*
X-9862496Y-2230983D02*
X-9761449Y-2332030D01*
X-9112748Y-1397571D02*
X-5555725Y-1397571D01*
X-10596368Y-1128510D02*
X-10226270Y-1498609D01*
X-9213786Y-1498609D02*
X-9112748Y-1397571D01*
X-20461490Y-1128510D02*
X-10596368Y-1128510D01*
X-21590000Y0D02*
X-20461490Y-1128510D01*
X-10226270Y-1498609D02*
X-9213786Y-1498609D01*
X-5555725Y-1397571D02*
X-5454512Y-1498784D01*
X-15944002Y1461399D02*
X-15516015Y1033412D01*
X-19050000Y2540000D02*
X-17971399Y1461399D01*
X-10185990Y392789D02*
X-9790000Y392789D01*
X-17971399Y1461399D02*
X-15944002Y1461399D01*
X-10826613Y1033412D02*
X-10185990Y392789D01*
X-15516015Y1033412D02*
X-10826613Y1033412D01*
X-15085189Y2496255D02*
X-14388933Y1799999D01*
X-10119999Y1799999D02*
X-9820000Y1500000D01*
X-15085189Y3386256D02*
X-15085189Y2496255D01*
X-14388933Y1799999D02*
X-10119999Y1799999D01*
X-15622345Y3923412D02*
X-15085189Y3386256D01*
X-20433412Y3923412D02*
X-15622345Y3923412D01*
X-21590000Y5080000D02*
X-20433412Y3923412D01*
X-17971399Y6541399D02*
X-15880332Y6541399D01*
X-19050000Y7620000D02*
X-17971399Y6541399D01*
X-13931482Y8860000D02*
X-15431399Y7360083D01*
X-15431399Y7360083D02*
X-15431399Y6498601D01*
X-4610000Y8860000D02*
X-13931482Y8860000D01*
X-15431399Y6498601D02*
X-15600000Y6330000D01*
X-15880332Y6541399D02*
X-15600000Y6330000D01*
X-22668601Y8698601D02*
X-15992271Y8698601D01*
X-24130000Y10160000D02*
X-22668601Y8698601D01*
X-13820000Y9870000D02*
X-15491835Y8198165D01*
X-5790000Y9870000D02*
X-13820000Y9870000D01*
X-15992271Y8698601D02*
X-15491835Y8198165D01*
X-24130000Y-12700000D02*
X-22668601Y-14161399D01*
X-14884321Y-14161399D02*
X-14575721Y-14469999D01*
X-14575721Y-14469999D02*
X-12496454Y-14469999D01*
X-22668601Y-14161399D02*
X-14884321Y-14161399D01*
X-12496454Y-14469999D02*
X-12466454Y-14439999D01*
X-12466454Y-14439999D02*
X-12166455Y-14140000D01*
X-25208601Y-11621399D02*
X-11226502Y-11621399D01*
X-11226502Y-11621399D02*
X-9983014Y-12864887D01*
X-26670000Y-10160000D02*
X-25208601Y-11621399D01*
X-9983014Y-12864887D02*
X-9683015Y-13164886D01*
X-24130000Y-7620000D02*
X-22668601Y-9081399D01*
X-9392881Y-9431399D02*
X-5877119Y-9431399D01*
X-9742881Y-9081399D02*
X-9392881Y-9431399D01*
X-5748878Y-10326954D02*
X-4436853Y-10326954D01*
X-4436853Y-10326954D02*
X-4136854Y-10026955D01*
X-5877119Y-9431399D02*
X-5778754Y-9529764D01*
X-22668601Y-9081399D02*
X-9742881Y-9081399D01*
X-5778754Y-9529764D02*
X-5778754Y-10297078D01*
X-5778754Y-10297078D02*
X-5748878Y-10326954D01*
X-4147854Y-8621961D02*
X-4141546Y-8615653D01*
X-4969308Y-8614942D02*
X-4154873Y-8614942D01*
X-6227119Y-6541399D02*
X-5353927Y-7414591D01*
X-5353927Y-8230323D02*
X-4969308Y-8614942D01*
X-5353927Y-7414591D02*
X-5353927Y-8230323D01*
X-4154873Y-8614942D02*
X-4147854Y-8621961D01*
X-26670000Y-5080000D02*
X-25208601Y-6541399D01*
X-25208601Y-6541399D02*
X-6227119Y-6541399D01*
X-22670001Y-3999999D02*
X-10220116Y-3999999D01*
X-24130000Y-2540000D02*
X-22670001Y-3999999D01*
X-10131385Y-3911268D02*
X-9831386Y-3611269D01*
X-10220116Y-3999999D02*
X-10131385Y-3911268D01*
X-5739999Y-2150001D02*
X-5440000Y-2450000D01*
X-5739999Y-1995627D02*
X-5739999Y-2150001D01*
X-25236679Y-1433321D02*
X-10722625Y-1433321D01*
X-10352526Y-1803420D02*
X-9087530Y-1803420D01*
X-9087530Y-1803420D02*
X-8986492Y-1702382D01*
X-10722625Y-1433321D02*
X-10352526Y-1803420D01*
X-26670000Y0D02*
X-25236679Y-1433321D01*
X-6033244Y-1702382D02*
X-5739999Y-1995627D01*
X-8986492Y-1702382D02*
X-6033244Y-1702382D01*
X-15642271Y728601D02*
X-10952869Y728601D01*
X-9863883Y-360385D02*
X-9720028Y-360385D01*
X-10952869Y728601D02*
X-9863883Y-360385D01*
X-22668601Y1078601D02*
X-15992271Y1078601D01*
X-15992271Y1078601D02*
X-15642271Y728601D01*
X-24130000Y2540000D02*
X-22668601Y1078601D01*
X-15390000Y3060000D02*
X-15390000Y2369999D01*
X-10073729Y921399D02*
X-6164623Y921399D01*
X-25208601Y3618601D02*
X-15948601Y3618601D01*
X-10490553Y1338223D02*
X-10073729Y921399D01*
X-15948601Y3618601D02*
X-15390000Y3060000D01*
X-15390000Y2369999D02*
X-14358224Y1338223D01*
X-14358224Y1338223D02*
X-10490553Y1338223D01*
X-6164623Y921399D02*
X-6158495Y927527D01*
X-26670000Y5080000D02*
X-25208601Y3618601D01*
X-6158495Y927527D02*
X-5734231Y927527D01*
X-7298874Y6068691D02*
X-7377565Y5990000D01*
X-15431399Y5597729D02*
X-15992271Y6158601D01*
X-15992271Y6158601D02*
X-22668601Y6158601D01*
X-7377565Y5990000D02*
X-15039128Y5990000D01*
X-22668601Y6158601D02*
X-24130000Y7620000D01*
X-4670000Y5990000D02*
X-4748691Y6068691D01*
X-4748691Y6068691D02*
X-7298874Y6068691D01*
X-15039128Y5990000D02*
X-15431399Y5597729D01*
X-8693671Y3004921D02*
X-9117935Y3004921D01*
X-8099921Y3004921D02*
X-8693671Y3004921D01*
X-7635000Y2540000D02*
X-8099921Y3004921D01*
X-10275954Y5080000D02*
X-9642183Y4446229D01*
X-12685000Y5080000D02*
X-10275954Y5080000D01*
X-14859999Y-19519999D02*
X-14560000Y-19220000D01*
X-24130000Y-17780000D02*
X-22370001Y-19539999D01*
X-14879999Y-19539999D02*
X-14859999Y-19519999D01*
X-22370001Y-19539999D02*
X-14879999Y-19539999D01*
X-19050000Y-17780000D02*
X-17874811Y-18955189D01*
X-15070050Y-18955189D02*
X-14422958Y-18308097D01*
X-14422958Y-18308097D02*
X-13998694Y-18308097D01*
X-17874811Y-18955189D02*
X-15070050Y-18955189D01*
X-26670000Y-15240000D02*
X-25208601Y-16701399D01*
X-13809999Y-17130001D02*
X-13510000Y-17430000D01*
X-25208601Y-16701399D02*
X-14238601Y-16701399D01*
X-14238601Y-16701399D02*
X-13809999Y-17130001D01*
X-20433412Y-16396588D02*
X-12921533Y-16396588D01*
X-21590000Y-15240000D02*
X-20433412Y-16396588D01*
X-12921533Y-16396588D02*
X-12682208Y-16635913D01*
X-12682208Y-16635913D02*
X-12257944Y-16635913D01*
X-11752549Y-16089999D02*
X-11650136Y-16192412D01*
X-15660001Y-16089999D02*
X-11752549Y-16089999D01*
X-16510000Y-15240000D02*
X-15660001Y-16089999D01*
X24130000Y-17780000D02*
X22590000Y-19320000D01*
X22590000Y-19320000D02*
X13940000Y-19320000D01*
X13804264Y-18400000D02*
X13380000Y-18400000D01*
X19050000Y-17780000D02*
X17971399Y-18858601D01*
X17971399Y-18858601D02*
X14262865Y-18858601D01*
X14262865Y-18858601D02*
X13804264Y-18400000D01*
X25260000Y-16650000D02*
X14522332Y-16650000D01*
X26670000Y-15240000D02*
X25260000Y-16650000D01*
X14522332Y-16650000D02*
X13425497Y-17746835D01*
X12527197Y-17746835D02*
X12227198Y-18046834D01*
X13425497Y-17746835D02*
X12527197Y-17746835D01*
X14069999Y-16320001D02*
X13830000Y-16560000D01*
X21590000Y-15240000D02*
X20509999Y-16320001D01*
X20509999Y-16320001D02*
X14069999Y-16320001D01*
X13309999Y-16010001D02*
X13040000Y-16280000D01*
X15307919Y-15240000D02*
X14537918Y-16010001D01*
X14537918Y-16010001D02*
X13309999Y-16010001D01*
X16510000Y-15240000D02*
X15307919Y-15240000D01*
X22670000Y-14160000D02*
X13707533Y-14160000D01*
X13633080Y-14234453D02*
X13208816Y-14234453D01*
X24130000Y-12700000D02*
X22670000Y-14160000D01*
X13707533Y-14160000D02*
X13633080Y-14234453D01*
X11149933Y-11594809D02*
X10244091Y-12500651D01*
X10244091Y-12500651D02*
X10244091Y-13242304D01*
X26670000Y-10160000D02*
X25235191Y-11594809D01*
X10244091Y-13242304D02*
X9944092Y-13542303D01*
X25235191Y-11594809D02*
X11149933Y-11594809D01*
X9392881Y-10888601D02*
X8511399Y-10888601D01*
X8439999Y-10960001D02*
X8140000Y-11260000D01*
X8511399Y-10888601D02*
X8439999Y-10960001D01*
X24130000Y-7620000D02*
X22668601Y-9081399D01*
X22668601Y-9081399D02*
X11200083Y-9081399D01*
X11200083Y-9081399D02*
X9392881Y-10888601D01*
X4681318Y-8864216D02*
X4681318Y-10243239D01*
X4681318Y-10243239D02*
X4681318Y-10667503D01*
X25208601Y-6541399D02*
X6227119Y-6541399D01*
X5065189Y-8480345D02*
X4681318Y-8864216D01*
X6227119Y-6541399D02*
X5065189Y-7703329D01*
X26670000Y-5080000D02*
X25208601Y-6541399D01*
X5065189Y-7703329D02*
X5065189Y-8480345D01*
X22668601Y-4001399D02*
X13710083Y-4001399D01*
X5750863Y-1506588D02*
X5474962Y-1782489D01*
X5474962Y-1782489D02*
X5289412Y-1782489D01*
X13710083Y-4001399D02*
X14488601Y-3222881D01*
X6083743Y-1275191D02*
X5852346Y-1506588D01*
X5852346Y-1506588D02*
X5750863Y-1506588D01*
X8956257Y-1275191D02*
X6083743Y-1275191D01*
X14488601Y-1857119D02*
X14442881Y-1811399D01*
X9056255Y-1375189D02*
X8956257Y-1275191D01*
X14442881Y-1811399D02*
X10692465Y-1811399D01*
X24130000Y-2540000D02*
X22668601Y-4001399D01*
X10692465Y-1811399D02*
X10256255Y-1375189D01*
X14488601Y-3222881D02*
X14488601Y-1857119D01*
X10256255Y-1375189D02*
X9056255Y-1375189D01*
X10284968Y-541768D02*
X10110797Y-541768D01*
X26670000Y0D02*
X25208601Y-1461399D01*
X10944977Y-1201777D02*
X10284968Y-541768D01*
X14955015Y-1461399D02*
X14695393Y-1201777D01*
X14695393Y-1201777D02*
X10944977Y-1201777D01*
X10110797Y-541768D02*
X9686533Y-541768D01*
X25208601Y-1461399D02*
X14955015Y-1461399D01*
X9978374Y1975866D02*
X9470916Y1975866D01*
X23051399Y1461399D02*
X15519095Y1461399D01*
X24130000Y2540000D02*
X23051399Y1461399D01*
X10306454Y1647786D02*
X9978374Y1975866D01*
X15519095Y1461399D02*
X15332708Y1647786D01*
X5842262Y1124811D02*
X5302527Y585076D01*
X15332708Y1647786D02*
X10306454Y1647786D01*
X9470916Y1975866D02*
X8619861Y1124811D01*
X8619861Y1124811D02*
X5842262Y1124811D01*
X5302527Y585076D02*
X5302527Y313198D01*
X4993570Y2320567D02*
X4348087Y1675084D01*
X26670000Y5080000D02*
X25513412Y3923412D01*
X25513412Y3923412D02*
X15866015Y3923412D01*
X4348087Y1675084D02*
X4348087Y1250820D01*
X4993570Y3215704D02*
X4993570Y2320567D01*
X5807486Y4029622D02*
X4993570Y3215704D01*
X15516015Y3573412D02*
X10786321Y3573412D01*
X10786321Y3573412D02*
X10330112Y4029622D01*
X10330112Y4029622D02*
X5807486Y4029622D01*
X15866015Y3923412D02*
X15516015Y3573412D01*
X5275757Y5078693D02*
X4975758Y4778694D01*
X6328518Y6260000D02*
X5275757Y5207239D01*
X24130000Y7620000D02*
X22770000Y6260000D01*
X5275757Y5207239D02*
X5275757Y5078693D01*
X22770000Y6260000D02*
X6328518Y6260000D01*
X8801372Y2739991D02*
X9225636Y2739991D01*
X7635000Y2540000D02*
X7834991Y2739991D01*
X7834991Y2739991D02*
X8801372Y2739991D01*
X9945695Y5080000D02*
X9728738Y4863043D01*
X12685000Y5080000D02*
X9945695Y5080000D01*
X15748599Y-13778601D02*
X15562162Y-13592164D01*
X12838770Y-13592164D02*
X12538771Y-13892163D01*
X19050000Y-12700000D02*
X17971399Y-13778601D01*
X17971399Y-13778601D02*
X15748599Y-13778601D01*
X15562162Y-13592164D02*
X12838770Y-13592164D01*
X21590000Y-10160000D02*
X20463425Y-11286575D01*
X20463425Y-11286575D02*
X11025837Y-11286575D01*
X11025837Y-11286575D02*
X9962411Y-12350001D01*
X9962411Y-12350001D02*
X9662412Y-12650000D01*
X17950000Y-8720000D02*
X6505736Y-8720000D01*
X6505736Y-8720000D02*
X5819542Y-9406194D01*
X5819542Y-10889584D02*
X6042012Y-11112054D01*
X19050000Y-7620000D02*
X17950000Y-8720000D01*
X5819542Y-9406194D02*
X5819542Y-10889584D01*
X11287655Y-6236588D02*
X9807294Y-4756227D01*
X9807294Y-4445605D02*
X9807294Y-4021341D01*
X21590000Y-5080000D02*
X20433412Y-6236588D01*
X9807294Y-4756227D02*
X9807294Y-4445605D01*
X20433412Y-6236588D02*
X11287655Y-6236588D01*
X14569137Y-1506588D02*
X10818721Y-1506588D01*
X9082513Y-970380D02*
X5562201Y-970380D01*
X5562201Y-970380D02*
X5483756Y-1048825D01*
X14884321Y-1821772D02*
X14569137Y-1506588D01*
X19050000Y-2540000D02*
X17971399Y-3618601D01*
X9182511Y-1070378D02*
X9082513Y-970380D01*
X10382511Y-1070378D02*
X9182511Y-1070378D01*
X14884321Y-3618601D02*
X14884321Y-1821772D01*
X10818721Y-1506588D02*
X10382511Y-1070378D01*
X17971399Y-3618601D02*
X14884321Y-3618601D01*
X10271693Y-49997D02*
X10039999Y-49997D01*
X14821649Y-896966D02*
X11118662Y-896966D01*
X20433412Y-1156588D02*
X15081270Y-1156588D01*
X15081270Y-1156588D02*
X14821649Y-896966D01*
X10039999Y-49997D02*
X9740000Y250002D01*
X21590000Y0D02*
X20433412Y-1156588D01*
X11118662Y-896966D02*
X10271693Y-49997D01*
X5052928Y1938376D02*
X5052928Y1514112D01*
X5298381Y2183829D02*
X5052928Y1938376D01*
X5298381Y3089448D02*
X5298381Y2183829D01*
X5933742Y3724811D02*
X5298381Y3089448D01*
X10660065Y3268601D02*
X10203856Y3724811D01*
X15642271Y3268601D02*
X10660065Y3268601D01*
X15992271Y3618601D02*
X15642271Y3268601D01*
X10203856Y3724811D02*
X5933742Y3724811D01*
X17971399Y3618601D02*
X15992271Y3618601D01*
X19050000Y2540000D02*
X17971399Y3618601D01*
X6259959Y11062289D02*
X4321399Y9123729D01*
X4321399Y9123729D02*
X4321399Y8616271D01*
X23000871Y5929999D02*
X23612271Y6541399D01*
X25208601Y7102271D02*
X25208601Y10677729D01*
X15161102Y10838498D02*
X8757512Y10838498D01*
X8757512Y10838498D02*
X8533721Y11062289D01*
X21590000Y5080000D02*
X22439999Y5929999D01*
X4321399Y8616271D02*
X4596271Y8341399D01*
X18097656Y11543410D02*
X15866015Y11543411D01*
X4596271Y8341399D02*
X4596271Y6121991D01*
X22439999Y5929999D02*
X23000871Y5929999D01*
X4596271Y6121991D02*
X4282881Y5808601D01*
X24647729Y11238601D02*
X18402465Y11238601D01*
X4282881Y5808601D02*
X767119Y5808601D01*
X8533721Y11062289D02*
X6259959Y11062289D01*
X737462Y3298258D02*
X4047191Y3298258D01*
X-48601Y4084321D02*
X737462Y3298258D01*
X24647729Y6541399D02*
X25208601Y7102271D01*
X18402465Y11238601D02*
X18097656Y11543410D01*
X4047191Y3298258D02*
X4471455Y3298258D01*
X-48601Y4992881D02*
X-48601Y4084321D01*
X767119Y5808601D02*
X-48601Y4992881D01*
X23612271Y6541399D02*
X24647729Y6541399D01*
X15866015Y11543411D02*
X15161102Y10838498D01*
X25208601Y10677729D02*
X24647729Y11238601D01*
X18200001Y8469999D02*
X17256331Y8469999D01*
X14893939Y6564811D02*
X5796328Y6564811D01*
X15431399Y7102271D02*
X14893939Y6564811D01*
X19050000Y7620000D02*
X18200001Y8469999D01*
X5016573Y5785056D02*
X4716574Y5485057D01*
X5796328Y6564811D02*
X5016573Y5785056D01*
X17256331Y8469999D02*
X17027729Y8698601D01*
X17027729Y8698601D02*
X15992271Y8698601D01*
X15992271Y8698601D02*
X15431399Y8137729D01*
X15431399Y8137729D02*
X15431399Y7102271D01*
X17153985Y9003412D02*
X17287397Y8870000D01*
X22840000Y8870000D02*
X23280001Y9310001D01*
X23280001Y9310001D02*
X24130000Y10160000D01*
X17287397Y8870000D02*
X22840000Y8870000D01*
X4850000Y8870000D02*
X5274264Y8870000D01*
X5407676Y9003412D02*
X17153985Y9003412D01*
X5274264Y8870000D02*
X5407676Y9003412D01*
X9695446Y-11473188D02*
X9395447Y-11773187D01*
X15307919Y-10160000D02*
X14567919Y-10900000D01*
X14567919Y-10900000D02*
X10268634Y-10900000D01*
X16510000Y-10160000D02*
X15307919Y-10160000D01*
X10268634Y-10900000D02*
X9695446Y-11473188D01*
X16510000Y-5080000D02*
X15307919Y-5080000D01*
X10122585Y-2869999D02*
X9822586Y-2570000D01*
X14579318Y-4351399D02*
X11603985Y-4351399D01*
X15307919Y-5080000D02*
X14579318Y-4351399D01*
X11603985Y-4351399D02*
X10122585Y-2869999D01*
X9987828Y1447265D02*
X9724645Y1447265D01*
X16510000Y0D02*
X15660001Y849999D01*
X10585094Y849999D02*
X9987828Y1447265D01*
X15660001Y849999D02*
X10585094Y849999D01*
X5230624Y4045599D02*
X4806360Y4045599D01*
X5519458Y4334433D02*
X5230624Y4045599D01*
X16510000Y5080000D02*
X15307919Y5080000D01*
X15307919Y5080000D02*
X14562352Y4334433D01*
X14562352Y4334433D02*
X5519458Y4334433D01*
X19050000Y10160000D02*
X17971399Y11238601D01*
X15287358Y10533688D02*
X8704256Y10533688D01*
X15992271Y11238601D02*
X15287358Y10533688D01*
X17971399Y11238601D02*
X15992271Y11238601D01*
X8704256Y10533688D02*
X8279992Y10533688D01*
X-12685000Y-12700000D02*
X-10957600Y-12700000D01*
X-9705189Y-13952411D02*
X-9409915Y-13952411D01*
X-9409915Y-13952411D02*
X-9109916Y-13652412D01*
X-10957600Y-12700000D02*
X-9705189Y-13952411D01*
X-2500000Y10135000D02*
X-2525000Y10160000D01*
X-2500000Y8790000D02*
X-2500000Y10135000D01*
X-7635000Y-15240000D02*
X-5907600Y-15240000D01*
X-5907600Y-15240000D02*
X-5818610Y-15328990D01*
X-5818610Y-15328990D02*
X-5818610Y-15670000D01*
X-2250000Y12425000D02*
X-2525000Y12700000D01*
X-2250000Y11510000D02*
X-2250000Y12425000D01*
X-2525000Y-3192400D02*
X-2525000Y-2540000D01*
X-2525000Y-3452598D02*
X-2525000Y-3192400D01*
X-1850000Y-4127598D02*
X-2525000Y-3452598D01*
X-2130000Y14845000D02*
X-2525000Y15240000D01*
X-2130000Y14120000D02*
X-2130000Y14845000D01*
X-503757Y-5373843D02*
X-503757Y-7770125D01*
X-2525000Y-5080000D02*
X-797600Y-5080000D01*
X-503757Y-7770125D02*
X-503757Y-8194389D01*
X-797600Y-5080000D02*
X-503757Y-5373843D01*
X2120000Y14835000D02*
X2525000Y15240000D01*
X2120000Y13860000D02*
X2120000Y14835000D01*
X-2525000Y-7620000D02*
X-2525000Y-8272400D01*
X-552428Y-9900036D02*
X-128164Y-9900036D01*
X-897364Y-9900036D02*
X-552428Y-9900036D01*
X-2525000Y-8272400D02*
X-897364Y-9900036D01*
X2470000Y12645000D02*
X2525000Y12700000D01*
X2470000Y11620000D02*
X2470000Y12645000D01*
X797600Y-5080000D02*
X90343Y-5787257D01*
X2525000Y-5080000D02*
X797600Y-5080000D01*
X90343Y-5787257D02*
X90343Y-8703174D01*
X90343Y-8703174D02*
X90343Y-9127438D01*
X2300000Y9935000D02*
X2525000Y10160000D01*
X2300000Y8940000D02*
X2300000Y9935000D01*
X797600Y-9167748D02*
X434300Y-9531048D01*
X2525000Y-7620000D02*
X1450000Y-7620000D01*
X797600Y-8272400D02*
X797600Y-9167748D01*
X434300Y-9531048D02*
X434300Y-10121436D01*
X330000Y-10225736D02*
X330000Y-10650000D01*
X1450000Y-7620000D02*
X797600Y-8272400D01*
X434300Y-10121436D02*
X330000Y-10225736D01*
X2360000Y7455000D02*
X2525000Y7620000D01*
X2360000Y6450000D02*
X2360000Y7455000D01*
X4328601Y-6658999D02*
X4328601Y-8259366D01*
X2803189Y-9784778D02*
X1387166Y-9784778D01*
X7635000Y-5080000D02*
X5907600Y-5080000D01*
X5907600Y-5080000D02*
X4328601Y-6658999D01*
X4328601Y-8259366D02*
X2803189Y-9784778D01*
X1387166Y-9784778D02*
X962902Y-9784778D01*
X2525000Y4105000D02*
X2640000Y3990000D01*
X2525000Y5080000D02*
X2525000Y4105000D01*
X1534264Y-10780002D02*
X1110000Y-10780002D01*
X4760378Y-8258655D02*
X2239031Y-10780002D01*
X9438601Y-4434978D02*
X9438601Y-5705803D01*
X12685000Y-5080000D02*
X11610000Y-5080000D01*
X10038283Y-3470000D02*
X9611066Y-3470000D01*
X9335803Y-5808601D02*
X6528850Y-5808601D01*
X2239031Y-10780002D02*
X1534264Y-10780002D01*
X4760378Y-7577073D02*
X4760378Y-8258655D01*
X6528850Y-5808601D02*
X4760378Y-7577073D01*
X9100000Y-3981067D02*
X9100000Y-4096377D01*
X9438601Y-5705803D02*
X9335803Y-5808601D01*
X11610000Y-5080000D02*
X10957600Y-4427600D01*
X9611066Y-3470000D02*
X9100000Y-3981067D01*
X9100000Y-4096377D02*
X9438601Y-4434978D01*
X10957600Y-4389317D02*
X10038283Y-3470000D01*
X10957600Y-4427600D02*
X10957600Y-4389317D01*
X2525000Y1515000D02*
X2580000Y1460000D01*
X2525000Y2540000D02*
X2525000Y1515000D01*
X6560000Y-7620000D02*
X5209920Y-8970080D01*
X3850623Y-12280530D02*
X1996788Y-12280530D01*
X1996788Y-12280530D02*
X1572524Y-12280530D01*
X7635000Y-7620000D02*
X6560000Y-7620000D01*
X5209920Y-8970080D02*
X5209920Y-10921233D01*
X5209920Y-10921233D02*
X3850623Y-12280530D01*
X2525000Y0D02*
X2525000Y-1020297D01*
X2525000Y-1020297D02*
X2578886Y-1074183D01*
X5514731Y-11047489D02*
X3545486Y-13016734D01*
X6403427Y-8370000D02*
X5514731Y-9258696D01*
X12587400Y-8370000D02*
X6403427Y-8370000D01*
X12685000Y-8272400D02*
X12587400Y-8370000D01*
X12685000Y-7620000D02*
X12685000Y-8272400D01*
X3545486Y-13016734D02*
X2301599Y-13016734D01*
X5514731Y-9258696D02*
X5514731Y-11047489D01*
X2301599Y-13016734D02*
X1877335Y-13016734D01*
X3127402Y-1937598D02*
X2525000Y-2540000D01*
X3240000Y-1937598D02*
X3127402Y-1937598D01*
X2613394Y-14793893D02*
X2613394Y-15218157D01*
X5483449Y-11641014D02*
X2613394Y-14511069D01*
X6433730Y-11641014D02*
X5483449Y-11641014D01*
X2613394Y-14511069D02*
X2613394Y-14793893D01*
X7635000Y-10439744D02*
X6433730Y-11641014D01*
X7635000Y-10160000D02*
X7635000Y-10439744D01*
X10228999Y-1811399D02*
X5938601Y-1811399D01*
X5938601Y-1811399D02*
X5818014Y-1931986D01*
X12685000Y-2540000D02*
X10957600Y-2540000D01*
X4351444Y-3502789D02*
X3797211Y-3502789D01*
X5818014Y-2036219D02*
X4351444Y-3502789D01*
X5818014Y-1931986D02*
X5818014Y-2036219D01*
X3479999Y-3820001D02*
X3180000Y-4120000D01*
X3797211Y-3502789D02*
X3479999Y-3820001D01*
X10957600Y-2540000D02*
X10228999Y-1811399D01*
X6645811Y-11860000D02*
X6559986Y-11945825D01*
X3161548Y-15143580D02*
X3161548Y-15433324D01*
X9519137Y-11193412D02*
X9227655Y-11193412D01*
X10552548Y-10160000D02*
X9519137Y-11193412D01*
X8561067Y-11860000D02*
X6645811Y-11860000D01*
X12685000Y-10160000D02*
X10552548Y-10160000D01*
X2826270Y-15768602D02*
X2416270Y-15768602D01*
X5791845Y-11945825D02*
X3131548Y-14606122D01*
X9227655Y-11193412D02*
X8561067Y-11860000D01*
X1991109Y-15343441D02*
X1991109Y-14360874D01*
X6559986Y-11945825D02*
X5791845Y-11945825D01*
X3131548Y-14606122D02*
X3131548Y-15113580D01*
X3161548Y-15433324D02*
X2826270Y-15768602D01*
X1991109Y-14360874D02*
X2291108Y-14060875D01*
X3131548Y-15113580D02*
X3161548Y-15143580D01*
X2416270Y-15768602D02*
X1991109Y-15343441D01*
X5822909Y-2540000D02*
X4331519Y-4031390D01*
X7635000Y-2540000D02*
X5822909Y-2540000D01*
X7635000Y-12700000D02*
X5820000Y-12700000D01*
X5820000Y-12700000D02*
X3660149Y-14859851D01*
X12685000Y0D02*
X10957600Y0D01*
X9300256Y820000D02*
X5968518Y820000D01*
X5968518Y820000D02*
X5831399Y682881D01*
X3709999Y-790001D02*
X3410000Y-1090000D01*
X10957600Y0D02*
X10038945Y918655D01*
X5831399Y682881D02*
X5831399Y-34135D01*
X4529181Y-790001D02*
X3709999Y-790001D01*
X5831399Y-34135D02*
X5650122Y-215412D01*
X5103770Y-215412D02*
X4529181Y-790001D01*
X10038945Y918655D02*
X9398911Y918655D01*
X5650122Y-215412D02*
X5103770Y-215412D01*
X9398911Y918655D02*
X9300256Y820000D01*
X11610000Y-12700000D02*
X9942431Y-14367569D01*
X5492431Y-14367569D02*
X4389999Y-15470001D01*
X4389999Y-15470001D02*
X4090000Y-15770000D01*
X9942431Y-14367569D02*
X5492431Y-14367569D01*
X12685000Y-12700000D02*
X11610000Y-12700000D01*
X7635000Y0D02*
X7114777Y-520223D01*
X5230026Y-520223D02*
X4427372Y-1322877D01*
X4427372Y-1322877D02*
X4273942Y-1322877D01*
X7114777Y-520223D02*
X5230026Y-520223D01*
X7635000Y-15240000D02*
X5907600Y-15240000D01*
X5441216Y-15706384D02*
X5441216Y-15778784D01*
X5907600Y-15240000D02*
X5441216Y-15706384D01*
X4552412Y414946D02*
X4552412Y-9318D01*
X5091322Y804938D02*
X4942404Y804938D01*
X4942404Y804938D02*
X4552412Y414946D01*
X5603192Y1316808D02*
X5603192Y2963194D01*
X5603192Y1316808D02*
X5091322Y804938D01*
X5603192Y2963194D02*
X6059998Y3420000D01*
X10957600Y2540000D02*
X12685000Y2540000D01*
X6059998Y3420000D02*
X10077600Y3420000D01*
X10077600Y3420000D02*
X10957600Y2540000D01*
X11695000Y-16230000D02*
X12685000Y-15240000D01*
X6650000Y-16230000D02*
X11695000Y-16230000D01*
M02*
