G04 #@! TF.GenerationSoftware,KiCad,Pcbnew,5.1.7-a382d34a8~87~ubuntu18.04.1*
G04 #@! TF.CreationDate,2020-10-22T16:54:02+03:00*
G04 #@! TF.ProjectId,FreeSmart157AAC_29mm_devboard_5r_smd,46726565-536d-4617-9274-313537414143,rev?*
G04 #@! TF.SameCoordinates,Original*
G04 #@! TF.FileFunction,Paste,Top*
G04 #@! TF.FilePolarity,Positive*
%FSLAX46Y46*%
G04 Gerber Fmt 4.6, Leading zero omitted, Abs format (unit mm)*
G04 Created by KiCad (PCBNEW 5.1.7-a382d34a8~87~ubuntu18.04.1) date 2020-10-22 16:54:02*
%MOMM*%
%LPD*%
G01*
G04 APERTURE LIST*
%ADD10R,0.200000X1.140000*%
%ADD11R,1.140000X0.200000*%
G04 APERTURE END LIST*
D10*
X4800000Y-2960000D03*
X4800000Y-5600000D03*
X4400000Y-2960000D03*
X4400000Y-5600000D03*
X4000000Y-2960000D03*
X4000000Y-5600000D03*
X3600000Y-2960000D03*
X3600000Y-5600000D03*
X3200000Y-2960000D03*
X3200000Y-5600000D03*
X2800000Y-2960000D03*
X2800000Y-5600000D03*
X2400000Y-2960000D03*
X2400000Y-5600000D03*
X2000000Y-2960000D03*
X2000000Y-5600000D03*
X1600000Y-2960000D03*
X1600000Y-5600000D03*
X1200000Y-2960000D03*
X1200000Y-5600000D03*
X800000Y-2960000D03*
X800000Y-5600000D03*
X400000Y-2960000D03*
X400000Y-5600000D03*
X0Y-2960000D03*
X0Y-5600000D03*
X-400000Y-2960000D03*
X-400000Y-5600000D03*
X-800000Y-2960000D03*
X-800000Y-5600000D03*
X-1200000Y-2960000D03*
X-1200000Y-5600000D03*
X-1600000Y-2960000D03*
X-1600000Y-5600000D03*
X-2000000Y-2960000D03*
X-2000000Y-5600000D03*
X-2400000Y-2960000D03*
X-2400000Y-5600000D03*
X-2800000Y-2960000D03*
X-2800000Y-5600000D03*
X-3200000Y-2960000D03*
X-3200000Y-5600000D03*
X-3600000Y-2960000D03*
X-3600000Y-5600000D03*
X-4000000Y-2960000D03*
X-4000000Y-5600000D03*
X-4400000Y-2960000D03*
X-4400000Y-5600000D03*
X-4800000Y-2960000D03*
X-4800000Y-5600000D03*
D11*
X8205000Y7800000D03*
X10845000Y7800000D03*
X8205000Y7400000D03*
X10845000Y7400000D03*
X8205000Y7000000D03*
X10845000Y7000000D03*
X8205000Y6600000D03*
X10845000Y6600000D03*
X8205000Y6200000D03*
X10845000Y6200000D03*
X8205000Y5800000D03*
X10845000Y5800000D03*
X8205000Y5400000D03*
X10845000Y5400000D03*
X8205000Y5000000D03*
X10845000Y5000000D03*
X8205000Y4600000D03*
X10845000Y4600000D03*
X8205000Y4200000D03*
X10845000Y4200000D03*
X8205000Y3800000D03*
X10845000Y3800000D03*
X8205000Y3400000D03*
X10845000Y3400000D03*
X8205000Y3000000D03*
X10845000Y3000000D03*
X8205000Y2600000D03*
X10845000Y2600000D03*
X8205000Y2200000D03*
X10845000Y2200000D03*
X8205000Y1800000D03*
X10845000Y1800000D03*
X8205000Y1400000D03*
X10845000Y1400000D03*
X8205000Y1000000D03*
X10845000Y1000000D03*
X8205000Y600000D03*
X10845000Y600000D03*
X8205000Y200000D03*
X10845000Y200000D03*
X8205000Y-200000D03*
X10845000Y-200000D03*
X8205000Y-600000D03*
X10845000Y-600000D03*
X8205000Y-1000000D03*
X10845000Y-1000000D03*
X8205000Y-1400000D03*
X10845000Y-1400000D03*
X8205000Y-1800000D03*
X10845000Y-1800000D03*
X8205000Y-2200000D03*
X10845000Y-2200000D03*
X8205000Y-2600000D03*
X10845000Y-2600000D03*
X8205000Y-3000000D03*
X10845000Y-3000000D03*
X8205000Y-3400000D03*
X10845000Y-3400000D03*
X8205000Y-3800000D03*
X10845000Y-3800000D03*
X8205000Y-4200000D03*
X10845000Y-4200000D03*
X8205000Y-4600000D03*
X10845000Y-4600000D03*
X8205000Y-5000000D03*
X10845000Y-5000000D03*
X8205000Y-5400000D03*
X10845000Y-5400000D03*
X8205000Y-5800000D03*
X10845000Y-5800000D03*
X8205000Y-6200000D03*
X10845000Y-6200000D03*
X8205000Y-6600000D03*
X10845000Y-6600000D03*
X8205000Y-7000000D03*
X10845000Y-7000000D03*
X8205000Y-7400000D03*
X10845000Y-7400000D03*
X8205000Y-7800000D03*
X10845000Y-7800000D03*
X-10845000Y7800000D03*
X-8205000Y7800000D03*
X-10845000Y7400000D03*
X-8205000Y7400000D03*
X-10845000Y7000000D03*
X-8205000Y7000000D03*
X-10845000Y6600000D03*
X-8205000Y6600000D03*
X-10845000Y6200000D03*
X-8205000Y6200000D03*
X-10845000Y5800000D03*
X-8205000Y5800000D03*
X-10845000Y5400000D03*
X-8205000Y5400000D03*
X-10845000Y5000000D03*
X-8205000Y5000000D03*
X-10845000Y4600000D03*
X-8205000Y4600000D03*
X-10845000Y4200000D03*
X-8205000Y4200000D03*
X-10845000Y3800000D03*
X-8205000Y3800000D03*
X-10845000Y3400000D03*
X-8205000Y3400000D03*
X-10845000Y3000000D03*
X-8205000Y3000000D03*
X-10845000Y2600000D03*
X-8205000Y2600000D03*
X-10845000Y2200000D03*
X-8205000Y2200000D03*
X-10845000Y1800000D03*
X-8205000Y1800000D03*
X-10845000Y1400000D03*
X-8205000Y1400000D03*
X-10845000Y1000000D03*
X-8205000Y1000000D03*
X-10845000Y600000D03*
X-8205000Y600000D03*
X-10845000Y200000D03*
X-8205000Y200000D03*
X-10845000Y-200000D03*
X-8205000Y-200000D03*
X-10845000Y-600000D03*
X-8205000Y-600000D03*
X-10845000Y-1000000D03*
X-8205000Y-1000000D03*
X-10845000Y-1400000D03*
X-8205000Y-1400000D03*
X-10845000Y-1800000D03*
X-8205000Y-1800000D03*
X-10845000Y-2200000D03*
X-8205000Y-2200000D03*
X-10845000Y-2600000D03*
X-8205000Y-2600000D03*
X-10845000Y-3000000D03*
X-8205000Y-3000000D03*
X-10845000Y-3400000D03*
X-8205000Y-3400000D03*
X-10845000Y-3800000D03*
X-8205000Y-3800000D03*
X-10845000Y-4200000D03*
X-8205000Y-4200000D03*
X-10845000Y-4600000D03*
X-8205000Y-4600000D03*
X-10845000Y-5000000D03*
X-8205000Y-5000000D03*
X-10845000Y-5400000D03*
X-8205000Y-5400000D03*
X-10845000Y-5800000D03*
X-8205000Y-5800000D03*
X-10845000Y-6200000D03*
X-8205000Y-6200000D03*
X-10845000Y-6600000D03*
X-8205000Y-6600000D03*
X-10845000Y-7000000D03*
X-8205000Y-7000000D03*
X-10845000Y-7400000D03*
X-8205000Y-7400000D03*
X-10845000Y-7800000D03*
X-8205000Y-7800000D03*
M02*
