G04 #@! TF.GenerationSoftware,KiCad,Pcbnew,5.1.7-a382d34a8~87~ubuntu18.04.1*
G04 #@! TF.CreationDate,2020-10-22T16:54:02+03:00*
G04 #@! TF.ProjectId,FreeSmart157AAC_29mm_devboard_5r_smd,46726565-536d-4617-9274-313537414143,rev?*
G04 #@! TF.SameCoordinates,Original*
G04 #@! TF.FileFunction,Copper,L1,Top*
G04 #@! TF.FilePolarity,Positive*
%FSLAX46Y46*%
G04 Gerber Fmt 4.6, Leading zero omitted, Abs format (unit mm)*
G04 Created by KiCad (PCBNEW 5.1.7-a382d34a8~87~ubuntu18.04.1) date 2020-10-22 16:54:02*
%MOMM*%
%LPD*%
G01*
G04 APERTURE LIST*
G04 #@! TA.AperFunction,ComponentPad*
%ADD10O,1.700000X1.700000*%
G04 #@! TD*
G04 #@! TA.AperFunction,ComponentPad*
%ADD11R,1.700000X1.700000*%
G04 #@! TD*
G04 #@! TA.AperFunction,SMDPad,CuDef*
%ADD12R,0.200000X1.140000*%
G04 #@! TD*
G04 #@! TA.AperFunction,SMDPad,CuDef*
%ADD13R,1.140000X0.200000*%
G04 #@! TD*
G04 #@! TA.AperFunction,ViaPad*
%ADD14C,0.600000*%
G04 #@! TD*
G04 #@! TA.AperFunction,Conductor*
%ADD15C,0.152400*%
G04 #@! TD*
G04 APERTURE END LIST*
D10*
X26670000Y-17780000D03*
X26670000Y-15240000D03*
X26670000Y-12700000D03*
X26670000Y-10160000D03*
X26670000Y-7620000D03*
X26670000Y-5080000D03*
X26670000Y-2540000D03*
X26670000Y0D03*
X26670000Y2540000D03*
X26670000Y5080000D03*
X26670000Y7620000D03*
X26670000Y10160000D03*
X26670000Y12700000D03*
X26670000Y15240000D03*
D11*
X26670000Y17780000D03*
D10*
X24130000Y-17780000D03*
X24130000Y-15240000D03*
X24130000Y-12700000D03*
X24130000Y-10160000D03*
X24130000Y-7620000D03*
X24130000Y-5080000D03*
X24130000Y-2540000D03*
X24130000Y0D03*
X24130000Y2540000D03*
X24130000Y5080000D03*
X24130000Y7620000D03*
X24130000Y10160000D03*
X24130000Y12700000D03*
X24130000Y15240000D03*
D11*
X24130000Y17780000D03*
D10*
X21590000Y-17780000D03*
X21590000Y-15240000D03*
X21590000Y-12700000D03*
X21590000Y-10160000D03*
X21590000Y-7620000D03*
X21590000Y-5080000D03*
X21590000Y-2540000D03*
X21590000Y0D03*
X21590000Y2540000D03*
X21590000Y5080000D03*
X21590000Y7620000D03*
X21590000Y10160000D03*
X21590000Y12700000D03*
X21590000Y15240000D03*
D11*
X21590000Y17780000D03*
D10*
X19050000Y-17780000D03*
X19050000Y-15240000D03*
X19050000Y-12700000D03*
X19050000Y-10160000D03*
X19050000Y-7620000D03*
X19050000Y-5080000D03*
X19050000Y-2540000D03*
X19050000Y0D03*
X19050000Y2540000D03*
X19050000Y5080000D03*
X19050000Y7620000D03*
X19050000Y10160000D03*
X19050000Y12700000D03*
X19050000Y15240000D03*
D11*
X19050000Y17780000D03*
D12*
X4800000Y-2960000D03*
X4800000Y-5600000D03*
X4400000Y-2960000D03*
X4400000Y-5600000D03*
X4000000Y-2960000D03*
X4000000Y-5600000D03*
X3600000Y-2960000D03*
X3600000Y-5600000D03*
X3200000Y-2960000D03*
X3200000Y-5600000D03*
X2800000Y-2960000D03*
X2800000Y-5600000D03*
X2400000Y-2960000D03*
X2400000Y-5600000D03*
X2000000Y-2960000D03*
X2000000Y-5600000D03*
X1600000Y-2960000D03*
X1600000Y-5600000D03*
X1200000Y-2960000D03*
X1200000Y-5600000D03*
X800000Y-2960000D03*
X800000Y-5600000D03*
X400000Y-2960000D03*
X400000Y-5600000D03*
X0Y-2960000D03*
X0Y-5600000D03*
X-400000Y-2960000D03*
X-400000Y-5600000D03*
X-800000Y-2960000D03*
X-800000Y-5600000D03*
X-1200000Y-2960000D03*
X-1200000Y-5600000D03*
X-1600000Y-2960000D03*
X-1600000Y-5600000D03*
X-2000000Y-2960000D03*
X-2000000Y-5600000D03*
X-2400000Y-2960000D03*
X-2400000Y-5600000D03*
X-2800000Y-2960000D03*
X-2800000Y-5600000D03*
X-3200000Y-2960000D03*
X-3200000Y-5600000D03*
X-3600000Y-2960000D03*
X-3600000Y-5600000D03*
X-4000000Y-2960000D03*
X-4000000Y-5600000D03*
X-4400000Y-2960000D03*
X-4400000Y-5600000D03*
X-4800000Y-2960000D03*
X-4800000Y-5600000D03*
D10*
X16510000Y-17780000D03*
X16510000Y-15240000D03*
X16510000Y-12700000D03*
X16510000Y-10160000D03*
X16510000Y-7620000D03*
X16510000Y-5080000D03*
X16510000Y-2540000D03*
X16510000Y0D03*
X16510000Y2540000D03*
X16510000Y5080000D03*
X16510000Y7620000D03*
X16510000Y10160000D03*
X16510000Y12700000D03*
X16510000Y15240000D03*
D11*
X16510000Y17780000D03*
D13*
X8205000Y7800000D03*
X10845000Y7800000D03*
X8205000Y7400000D03*
X10845000Y7400000D03*
X8205000Y7000000D03*
X10845000Y7000000D03*
X8205000Y6600000D03*
X10845000Y6600000D03*
X8205000Y6200000D03*
X10845000Y6200000D03*
X8205000Y5800000D03*
X10845000Y5800000D03*
X8205000Y5400000D03*
X10845000Y5400000D03*
X8205000Y5000000D03*
X10845000Y5000000D03*
X8205000Y4600000D03*
X10845000Y4600000D03*
X8205000Y4200000D03*
X10845000Y4200000D03*
X8205000Y3800000D03*
X10845000Y3800000D03*
X8205000Y3400000D03*
X10845000Y3400000D03*
X8205000Y3000000D03*
X10845000Y3000000D03*
X8205000Y2600000D03*
X10845000Y2600000D03*
X8205000Y2200000D03*
X10845000Y2200000D03*
X8205000Y1800000D03*
X10845000Y1800000D03*
X8205000Y1400000D03*
X10845000Y1400000D03*
X8205000Y1000000D03*
X10845000Y1000000D03*
X8205000Y600000D03*
X10845000Y600000D03*
X8205000Y200000D03*
X10845000Y200000D03*
X8205000Y-200000D03*
X10845000Y-200000D03*
X8205000Y-600000D03*
X10845000Y-600000D03*
X8205000Y-1000000D03*
X10845000Y-1000000D03*
X8205000Y-1400000D03*
X10845000Y-1400000D03*
X8205000Y-1800000D03*
X10845000Y-1800000D03*
X8205000Y-2200000D03*
X10845000Y-2200000D03*
X8205000Y-2600000D03*
X10845000Y-2600000D03*
X8205000Y-3000000D03*
X10845000Y-3000000D03*
X8205000Y-3400000D03*
X10845000Y-3400000D03*
X8205000Y-3800000D03*
X10845000Y-3800000D03*
X8205000Y-4200000D03*
X10845000Y-4200000D03*
X8205000Y-4600000D03*
X10845000Y-4600000D03*
X8205000Y-5000000D03*
X10845000Y-5000000D03*
X8205000Y-5400000D03*
X10845000Y-5400000D03*
X8205000Y-5800000D03*
X10845000Y-5800000D03*
X8205000Y-6200000D03*
X10845000Y-6200000D03*
X8205000Y-6600000D03*
X10845000Y-6600000D03*
X8205000Y-7000000D03*
X10845000Y-7000000D03*
X8205000Y-7400000D03*
X10845000Y-7400000D03*
X8205000Y-7800000D03*
X10845000Y-7800000D03*
D10*
X-26670000Y-17780000D03*
X-26670000Y-15240000D03*
X-26670000Y-12700000D03*
X-26670000Y-10160000D03*
X-26670000Y-7620000D03*
X-26670000Y-5080000D03*
X-26670000Y-2540000D03*
X-26670000Y0D03*
X-26670000Y2540000D03*
X-26670000Y5080000D03*
X-26670000Y7620000D03*
X-26670000Y10160000D03*
X-26670000Y12700000D03*
X-26670000Y15240000D03*
D11*
X-26670000Y17780000D03*
D10*
X-24130000Y-17780000D03*
X-24130000Y-15240000D03*
X-24130000Y-12700000D03*
X-24130000Y-10160000D03*
X-24130000Y-7620000D03*
X-24130000Y-5080000D03*
X-24130000Y-2540000D03*
X-24130000Y0D03*
X-24130000Y2540000D03*
X-24130000Y5080000D03*
X-24130000Y7620000D03*
X-24130000Y10160000D03*
X-24130000Y12700000D03*
X-24130000Y15240000D03*
D11*
X-24130000Y17780000D03*
D10*
X-21590000Y-17780000D03*
X-21590000Y-15240000D03*
X-21590000Y-12700000D03*
X-21590000Y-10160000D03*
X-21590000Y-7620000D03*
X-21590000Y-5080000D03*
X-21590000Y-2540000D03*
X-21590000Y0D03*
X-21590000Y2540000D03*
X-21590000Y5080000D03*
X-21590000Y7620000D03*
X-21590000Y10160000D03*
X-21590000Y12700000D03*
X-21590000Y15240000D03*
D11*
X-21590000Y17780000D03*
D10*
X-19050000Y-17780000D03*
X-19050000Y-15240000D03*
X-19050000Y-12700000D03*
X-19050000Y-10160000D03*
X-19050000Y-7620000D03*
X-19050000Y-5080000D03*
X-19050000Y-2540000D03*
X-19050000Y0D03*
X-19050000Y2540000D03*
X-19050000Y5080000D03*
X-19050000Y7620000D03*
X-19050000Y10160000D03*
X-19050000Y12700000D03*
X-19050000Y15240000D03*
D11*
X-19050000Y17780000D03*
X-16510000Y17780000D03*
D10*
X-16510000Y15240000D03*
X-16510000Y12700000D03*
X-16510000Y10160000D03*
X-16510000Y7620000D03*
X-16510000Y5080000D03*
X-16510000Y2540000D03*
X-16510000Y0D03*
X-16510000Y-2540000D03*
X-16510000Y-5080000D03*
X-16510000Y-7620000D03*
X-16510000Y-10160000D03*
X-16510000Y-12700000D03*
X-16510000Y-15240000D03*
X-16510000Y-17780000D03*
D13*
X-10845000Y7800000D03*
X-8205000Y7800000D03*
X-10845000Y7400000D03*
X-8205000Y7400000D03*
X-10845000Y7000000D03*
X-8205000Y7000000D03*
X-10845000Y6600000D03*
X-8205000Y6600000D03*
X-10845000Y6200000D03*
X-8205000Y6200000D03*
X-10845000Y5800000D03*
X-8205000Y5800000D03*
X-10845000Y5400000D03*
X-8205000Y5400000D03*
X-10845000Y5000000D03*
X-8205000Y5000000D03*
X-10845000Y4600000D03*
X-8205000Y4600000D03*
X-10845000Y4200000D03*
X-8205000Y4200000D03*
X-10845000Y3800000D03*
X-8205000Y3800000D03*
X-10845000Y3400000D03*
X-8205000Y3400000D03*
X-10845000Y3000000D03*
X-8205000Y3000000D03*
X-10845000Y2600000D03*
X-8205000Y2600000D03*
X-10845000Y2200000D03*
X-8205000Y2200000D03*
X-10845000Y1800000D03*
X-8205000Y1800000D03*
X-10845000Y1400000D03*
X-8205000Y1400000D03*
X-10845000Y1000000D03*
X-8205000Y1000000D03*
X-10845000Y600000D03*
X-8205000Y600000D03*
X-10845000Y200000D03*
X-8205000Y200000D03*
X-10845000Y-200000D03*
X-8205000Y-200000D03*
X-10845000Y-600000D03*
X-8205000Y-600000D03*
X-10845000Y-1000000D03*
X-8205000Y-1000000D03*
X-10845000Y-1400000D03*
X-8205000Y-1400000D03*
X-10845000Y-1800000D03*
X-8205000Y-1800000D03*
X-10845000Y-2200000D03*
X-8205000Y-2200000D03*
X-10845000Y-2600000D03*
X-8205000Y-2600000D03*
X-10845000Y-3000000D03*
X-8205000Y-3000000D03*
X-10845000Y-3400000D03*
X-8205000Y-3400000D03*
X-10845000Y-3800000D03*
X-8205000Y-3800000D03*
X-10845000Y-4200000D03*
X-8205000Y-4200000D03*
X-10845000Y-4600000D03*
X-8205000Y-4600000D03*
X-10845000Y-5000000D03*
X-8205000Y-5000000D03*
X-10845000Y-5400000D03*
X-8205000Y-5400000D03*
X-10845000Y-5800000D03*
X-8205000Y-5800000D03*
X-10845000Y-6200000D03*
X-8205000Y-6200000D03*
X-10845000Y-6600000D03*
X-8205000Y-6600000D03*
X-10845000Y-7000000D03*
X-8205000Y-7000000D03*
X-10845000Y-7400000D03*
X-8205000Y-7400000D03*
X-10845000Y-7800000D03*
X-8205000Y-7800000D03*
D14*
X-13640000Y16550000D03*
X-12830000Y16090000D03*
X-9822588Y7380172D03*
X-11870000Y15360000D03*
X-9990000Y14530000D03*
X-9250000Y5360000D03*
X-8293001Y12267172D03*
X-8190000Y10890000D03*
X8708641Y7952422D03*
X14310000Y17630000D03*
X14180000Y16640000D03*
X9700000Y7510000D03*
X12090000Y15370000D03*
X13490000Y17500000D03*
X9260000Y5510000D03*
X9090000Y13860000D03*
X8800000Y11940000D03*
X-5330000Y2600000D03*
X-5000000Y-4900000D03*
X-4630000Y490000D03*
X-4433421Y-6680000D03*
X-3946196Y-1078230D03*
X-3270590Y-9808237D03*
X-3130000Y-1490000D03*
X-3109390Y-9073296D03*
X-3290000Y-4090000D03*
X-5680000Y-11230000D03*
X-3210000Y1060000D03*
X-3080000Y-11210000D03*
X-2243043Y1514565D03*
X-2400000Y3890000D03*
X-5240000Y-12920000D03*
X-2360000Y6260000D03*
X-8430000Y-14210000D03*
X-9370000Y-11680000D03*
X-4500000Y-4300000D03*
X-5292192Y-569070D03*
X-9770000Y3530000D03*
X-6960000Y10398610D03*
X-8474480Y7952412D03*
X-12988603Y-13917008D03*
X-9662404Y-12411170D03*
X-4965000Y-9753166D03*
X-4680049Y-8086332D03*
X-9761449Y-2332030D03*
X-5454512Y-1498784D03*
X-9790000Y392789D03*
X-9820000Y1500000D03*
X-4610000Y8860000D03*
X-5790000Y9870000D03*
X-12166455Y-14140000D03*
X-9683015Y-13164886D03*
X-4136854Y-10026955D03*
X-4141546Y-8615653D03*
X-9831386Y-3611269D03*
X-5440000Y-2450000D03*
X-9720028Y-360385D03*
X-5734231Y927527D03*
X-4670000Y5990000D03*
X-9117935Y3004921D03*
X-9642183Y4446229D03*
X-14560000Y-19220000D03*
X-13998694Y-18308097D03*
X-13510000Y-17430000D03*
X-12257944Y-16635913D03*
X-11650136Y-16192412D03*
X13940000Y-19320000D03*
X13380000Y-18400000D03*
X12227198Y-18046834D03*
X13830000Y-16560000D03*
X13040000Y-16280000D03*
X13208816Y-14234453D03*
X9944092Y-13542303D03*
X8140000Y-11260000D03*
X4681318Y-10667503D03*
X5289412Y-1782489D03*
X9686533Y-541768D03*
X5302527Y313198D03*
X4348087Y1250820D03*
X4975758Y4778694D03*
X9225636Y2739991D03*
X9728738Y4863043D03*
X12538771Y-13892163D03*
X9662412Y-12650000D03*
X6042012Y-11112054D03*
X9807294Y-4021341D03*
X5483756Y-1048825D03*
X9740000Y250002D03*
X5052928Y1514112D03*
X4471455Y3298258D03*
X4716574Y5485057D03*
X4850000Y8870000D03*
X9395447Y-11773187D03*
X9822586Y-2570000D03*
X9724645Y1447265D03*
X4806360Y4045599D03*
X8279992Y10533688D03*
X-9109916Y-13652412D03*
X-2500000Y8790000D03*
X-5818610Y-15670000D03*
X-2250000Y11510000D03*
X-1850000Y-4127598D03*
X-2130000Y14120000D03*
X-503757Y-8194389D03*
X2120000Y13860000D03*
X-128164Y-9900036D03*
X2470000Y11620000D03*
X90343Y-9127438D03*
X2300000Y8940000D03*
X330000Y-10650000D03*
X2360000Y6450000D03*
X962902Y-9784778D03*
X2640000Y3990000D03*
X1110000Y-10780002D03*
X2580000Y1460000D03*
X1572524Y-12280530D03*
X2578886Y-1074183D03*
X1877335Y-13016734D03*
X3240000Y-1937598D03*
X2613394Y-15218157D03*
X3180000Y-4120000D03*
X2291108Y-14060875D03*
X4331519Y-4031390D03*
X3660149Y-14859851D03*
X3410000Y-1090000D03*
X4090000Y-15770000D03*
X4273942Y-1322877D03*
X5441216Y-15778784D03*
X4552412Y-9318D03*
X6650000Y-16230000D03*
D15*
X-10362656Y8534744D02*
X-10362656Y12727125D01*
X-10362656Y12727125D02*
X-11857308Y14221777D01*
X-16312330Y17780000D02*
X-16510000Y17780000D01*
X-10845000Y7800000D02*
X-10845000Y8052400D01*
X-11857308Y14221777D02*
X-12754107Y14221777D01*
X-12754107Y14221777D02*
X-16312330Y17780000D01*
X-10845000Y8052400D02*
X-10362656Y8534744D01*
X-7887081Y8147344D02*
X-8821891Y9082155D01*
X-9068753Y9082155D02*
X-10057845Y10071247D01*
X-8821891Y9082155D02*
X-9068753Y9082155D01*
X-10057845Y10071247D02*
X-10057845Y12853381D01*
X-10057845Y12853381D02*
X-11731052Y14526588D01*
X-7372279Y7567521D02*
X-7372279Y8033181D01*
X-8205000Y7400000D02*
X-7539800Y7400000D01*
X-7539800Y7400000D02*
X-7372279Y7567521D01*
X-7486439Y8147343D02*
X-7887081Y8147344D01*
X-12249985Y14526588D02*
X-13640000Y15916603D01*
X-11731052Y14526588D02*
X-12249985Y14526588D01*
X-13640000Y15916603D02*
X-13640000Y16125736D01*
X-7372279Y8033181D02*
X-7486439Y8147343D01*
X-13640000Y16125736D02*
X-13640000Y16550000D01*
X-10667467Y12600869D02*
X-11983564Y13916966D01*
X-17530000Y16720000D02*
X-17588601Y16747119D01*
X-10845000Y7400000D02*
X-11526482Y7400000D01*
X-12880363Y13916966D02*
X-15664796Y16701399D01*
X-11643601Y7517119D02*
X-11643601Y8306399D01*
X-21435812Y16623412D02*
X-21590000Y16777600D01*
X-17511399Y16701399D02*
X-17530000Y16720000D01*
X-21590000Y16777600D02*
X-21590000Y17780000D01*
X-15664796Y16701399D02*
X-17511399Y16701399D01*
X-11526482Y7400000D02*
X-11643601Y7517119D01*
X-10667467Y9282533D02*
X-10667467Y12600869D01*
X-11643601Y8306399D02*
X-10667467Y9282533D01*
X-11983564Y13916966D02*
X-12880363Y13916966D01*
X-17712308Y16623412D02*
X-21435812Y16623412D01*
X-17588601Y16747119D02*
X-17712308Y16623412D01*
X-12123729Y14831399D02*
X-12830000Y15537670D01*
X-7067468Y8159437D02*
X-7360183Y8452154D01*
X-11604796Y14831399D02*
X-12123729Y14831399D01*
X-8695635Y9386966D02*
X-8942497Y9386966D01*
X-12830000Y15537670D02*
X-12830000Y15665736D01*
X-7360183Y8452154D02*
X-7760824Y8452154D01*
X-9753034Y12979637D02*
X-11604796Y14831399D01*
X-9753034Y10197503D02*
X-9753034Y12979637D01*
X-7067468Y7432330D02*
X-7067468Y8159437D01*
X-7760824Y8452154D02*
X-8695635Y9386966D01*
X-8942497Y9386966D02*
X-9753034Y10197503D01*
X-8205000Y7000000D02*
X-7499798Y7000000D01*
X-7499798Y7000000D02*
X-7067468Y7432330D01*
X-12830000Y15665736D02*
X-12830000Y16090000D01*
X-13828601Y14434137D02*
X-13828601Y11862271D01*
X-18253670Y16040000D02*
X-17306330Y16040000D01*
X-11948412Y8432655D02*
X-11948412Y7390863D01*
X-11171399Y10480527D02*
X-11171399Y9209668D01*
X-26670000Y16777600D02*
X-26211001Y16318601D01*
X-17027729Y16318601D02*
X-15713065Y16318601D01*
X-26670000Y17780000D02*
X-26670000Y16777600D01*
X-11948412Y7390863D02*
X-11557549Y7000000D01*
X-17306330Y16040000D02*
X-17027729Y16318601D01*
X-13137729Y11171399D02*
X-11862271Y11171399D01*
X-15713065Y16318601D02*
X-13828601Y14434137D01*
X-26211001Y16318601D02*
X-18532271Y16318601D01*
X-11171399Y9209668D02*
X-11948412Y8432655D01*
X-11862271Y11171399D02*
X-11171399Y10480527D01*
X-11557549Y7000000D02*
X-10845000Y7000000D01*
X-18532271Y16318601D02*
X-18253670Y16040000D01*
X-13828601Y11862271D02*
X-13137729Y11171399D01*
X-8205000Y6600000D02*
X-9042416Y6600000D01*
X-9042416Y6600000D02*
X-9822588Y7380172D01*
X-12349622Y9952225D02*
X-14133412Y11736015D01*
X-15660001Y14390001D02*
X-16510000Y15240000D01*
X-11588616Y6600000D02*
X-12349622Y7361006D01*
X-12349622Y7361006D02*
X-12349622Y9952225D01*
X-14133412Y12863412D02*
X-15660001Y14390001D01*
X-14133412Y11736015D02*
X-14133412Y12863412D01*
X-10845000Y6600000D02*
X-11588616Y6600000D01*
X-6762657Y8285693D02*
X-7233927Y8756965D01*
X-6762657Y7306074D02*
X-6762657Y8285693D01*
X-8205000Y6200000D02*
X-7598630Y6200000D01*
X-7233927Y8756965D02*
X-7634568Y8756965D01*
X-7634568Y8756965D02*
X-8569380Y9691777D01*
X-9448223Y10323759D02*
X-9448223Y13105893D01*
X-7598630Y6200000D02*
X-7067466Y6731164D01*
X-9448223Y13105893D02*
X-11702330Y15360000D01*
X-7067466Y7001266D02*
X-6762657Y7306074D01*
X-8569380Y9691777D02*
X-8816241Y9691777D01*
X-7067466Y6731164D02*
X-7067466Y7001266D01*
X-11702330Y15360000D02*
X-11870000Y15360000D01*
X-8816241Y9691777D02*
X-9448223Y10323759D01*
X-20433412Y14083412D02*
X-20740001Y14390001D01*
X-20740001Y14390001D02*
X-21590000Y15240000D01*
X-11619683Y6200000D02*
X-12654433Y7234750D01*
X-12654433Y9625031D02*
X-14450378Y11420976D01*
X-15866015Y14083412D02*
X-20433412Y14083412D01*
X-10845000Y6200000D02*
X-11619683Y6200000D01*
X-14450378Y12667775D02*
X-15866015Y14083412D01*
X-12654433Y7234750D02*
X-12654433Y9625031D01*
X-14450378Y11420976D02*
X-14450378Y12667775D01*
X-7107671Y9061776D02*
X-7508312Y9061776D01*
X-7567563Y5800000D02*
X-6762656Y6604907D01*
X-9690001Y14230001D02*
X-9990000Y14530000D01*
X-6762656Y6875009D02*
X-6457846Y7179818D01*
X-8205000Y5800000D02*
X-7567563Y5800000D01*
X-7508312Y9061776D02*
X-8443124Y9996588D01*
X-9143412Y10450015D02*
X-9143412Y13683412D01*
X-6457846Y8411949D02*
X-7107671Y9061776D01*
X-6457846Y7179818D02*
X-6457846Y8411949D01*
X-6762656Y6604907D02*
X-6762656Y6875009D01*
X-8443124Y9996588D02*
X-8689985Y9996588D01*
X-9143412Y13683412D02*
X-9690001Y14230001D01*
X-8689985Y9996588D02*
X-9143412Y10450015D01*
X-25208601Y13778601D02*
X-25820001Y14390001D01*
X-10845000Y5800000D02*
X-11650750Y5800000D01*
X-14925189Y11464719D02*
X-14925189Y12711519D01*
X-15992271Y13778601D02*
X-25208601Y13778601D01*
X-25820001Y14390001D02*
X-26670000Y15240000D01*
X-12959244Y9498774D02*
X-14925189Y11464719D01*
X-11650750Y5800000D02*
X-12959244Y7108494D01*
X-14925189Y12711519D02*
X-15992271Y13778601D01*
X-12959244Y7108494D02*
X-12959244Y9498774D01*
X-8205000Y5400000D02*
X-9210000Y5400000D01*
X-9210000Y5400000D02*
X-9250000Y5360000D01*
X-11681817Y5400000D02*
X-13264055Y6982238D01*
X-13264055Y6982238D02*
X-13264055Y9372519D01*
X-15660001Y11850001D02*
X-16510000Y12700000D01*
X-15660001Y11768465D02*
X-15660001Y11850001D01*
X-13264055Y9372519D02*
X-15660001Y11768465D01*
X-10845000Y5400000D02*
X-11681817Y5400000D01*
X-8838601Y10576271D02*
X-8838601Y11721572D01*
X-8205000Y5000000D02*
X-6837664Y5000000D01*
X-6153035Y8538207D02*
X-6981415Y9366587D01*
X-6837664Y5000000D02*
X-6437845Y5399819D01*
X-8563729Y10301399D02*
X-8838601Y10576271D01*
X-6153035Y7053562D02*
X-6153035Y8538207D01*
X-6981415Y9366587D02*
X-7382056Y9366587D01*
X-6437845Y5399819D02*
X-6437845Y6768752D01*
X-8838601Y11721572D02*
X-8593000Y11967173D01*
X-7382056Y9366587D02*
X-8316868Y10301399D01*
X-8593000Y11967173D02*
X-8293001Y12267172D01*
X-8316868Y10301399D02*
X-8563729Y10301399D01*
X-6437845Y6768752D02*
X-6153035Y7053562D01*
X-13568866Y6855982D02*
X-13568866Y9246263D01*
X-20740001Y11850001D02*
X-21590000Y12700000D01*
X-15944002Y11621399D02*
X-20511399Y11621399D01*
X-13568866Y9246263D02*
X-15944002Y11621399D01*
X-20511399Y11621399D02*
X-20740001Y11850001D01*
X-11712884Y5000000D02*
X-13568866Y6855982D01*
X-10845000Y5000000D02*
X-11712884Y5000000D01*
X-6806597Y4600000D02*
X-6133034Y5273564D01*
X-5848224Y8664463D02*
X-6855159Y9671398D01*
X-6855159Y9671398D02*
X-7255800Y9671398D01*
X-7890001Y10305599D02*
X-7890001Y10590001D01*
X-6133034Y6642496D02*
X-5848224Y6927306D01*
X-5848224Y6927306D02*
X-5848224Y8664463D01*
X-6133034Y5273564D02*
X-6133034Y6642496D01*
X-7255800Y9671398D02*
X-7890001Y10305599D01*
X-7890001Y10590001D02*
X-8190000Y10890000D01*
X-8205000Y4600000D02*
X-6806597Y4600000D01*
X8205000Y7873045D02*
X8284377Y7952422D01*
X8284377Y7952422D02*
X8708641Y7952422D01*
X8205000Y7800000D02*
X8205000Y7873045D01*
X10852657Y8060057D02*
X10852657Y13189456D01*
X10845000Y8052400D02*
X10852657Y8060057D01*
X10852657Y13189456D02*
X11824977Y14161776D01*
X16510000Y17756603D02*
X16510000Y17780000D01*
X11824977Y14161776D02*
X12915173Y14161776D01*
X10845000Y7800000D02*
X10845000Y8052400D01*
X12915173Y14161776D02*
X16510000Y17756603D01*
X11442120Y14466587D02*
X12788917Y14466587D01*
X8205000Y7400000D02*
X7482600Y7400000D01*
X7482600Y7400000D02*
X7378808Y7503792D01*
X7378808Y7503792D02*
X7378808Y7969712D01*
X12788917Y14466587D02*
X14739999Y16417669D01*
X7378808Y7969712D02*
X7890119Y8481023D01*
X10547846Y13572313D02*
X11442120Y14466587D01*
X9308690Y8481023D02*
X10547846Y9720179D01*
X14739999Y16417669D02*
X14739999Y17200001D01*
X10547846Y9720179D02*
X10547846Y13572313D01*
X7890119Y8481023D02*
X9308690Y8481023D01*
X14739999Y17200001D02*
X14609999Y17330001D01*
X14609999Y17330001D02*
X14310000Y17630000D01*
X11157468Y13063200D02*
X11951233Y13856965D01*
X11157468Y11008735D02*
X11157468Y13063200D01*
X11685189Y10481013D02*
X11157468Y11008735D01*
X15885863Y16701399D02*
X21513799Y16701399D01*
X11951233Y13856965D02*
X13041429Y13856965D01*
X11685189Y7517789D02*
X11685189Y10481013D01*
X11567400Y7400000D02*
X11685189Y7517789D01*
X10845000Y7400000D02*
X11567400Y7400000D01*
X21590000Y16777600D02*
X21590000Y17780000D01*
X13041429Y13856965D02*
X15885863Y16701399D01*
X21513799Y16701399D02*
X21590000Y16777600D01*
X7347741Y7000000D02*
X6971466Y7376275D01*
X12311398Y14771398D02*
X13880001Y16340001D01*
X9182434Y8785834D02*
X10243035Y9846435D01*
X10243035Y9846435D02*
X10243035Y13748569D01*
X8205000Y7000000D02*
X7347741Y7000000D01*
X13880001Y16340001D02*
X14180000Y16640000D01*
X6971466Y7376275D02*
X6971466Y8353137D01*
X10243035Y13748569D02*
X11265864Y14771398D01*
X7404163Y8785834D02*
X9182434Y8785834D01*
X11265864Y14771398D02*
X12311398Y14771398D01*
X6971466Y8353137D02*
X7404163Y8785834D01*
X12110001Y7410001D02*
X11700000Y7000000D01*
X26211001Y16318601D02*
X16018601Y16318601D01*
X13828601Y14128601D02*
X13828601Y11862271D01*
X11567400Y7000000D02*
X10845000Y7000000D01*
X12110001Y10143671D02*
X12110001Y7410001D01*
X16018601Y16318601D02*
X13828601Y14128601D01*
X11700000Y7000000D02*
X11567400Y7000000D01*
X13828601Y11862271D02*
X12110001Y10143671D01*
X26670000Y17780000D02*
X26670000Y16777600D01*
X26670000Y16777600D02*
X26211001Y16318601D01*
X8927400Y6600000D02*
X9700000Y7372600D01*
X9700000Y7372600D02*
X9700000Y7510000D01*
X8205000Y6600000D02*
X8927400Y6600000D01*
X12414811Y7253744D02*
X12414811Y10017414D01*
X11761067Y6600000D02*
X12414811Y7253744D01*
X15371066Y15240000D02*
X16510000Y15240000D01*
X10845000Y6600000D02*
X11761067Y6600000D01*
X14440378Y14309312D02*
X15371066Y15240000D01*
X12414811Y10017414D02*
X14440378Y12042981D01*
X14440378Y12042981D02*
X14440378Y14309312D01*
X6811182Y9090645D02*
X9056178Y9090645D01*
X9056178Y9090645D02*
X9938224Y9972691D01*
X8205000Y6200000D02*
X7544734Y6200000D01*
X6666655Y7078079D02*
X6666655Y8946118D01*
X11665736Y15370000D02*
X12090000Y15370000D01*
X9938224Y13874825D02*
X11433399Y15370000D01*
X11433399Y15370000D02*
X11665736Y15370000D01*
X7544734Y6200000D02*
X6666655Y7078079D01*
X6666655Y8946118D02*
X6811182Y9090645D01*
X9938224Y9972691D02*
X9938224Y13874825D01*
X14775189Y13226256D02*
X15710332Y14161399D01*
X15710332Y14161399D02*
X20511399Y14161399D01*
X12719622Y9891158D02*
X14775189Y11946725D01*
X20511399Y14161399D02*
X20740001Y14390001D01*
X14775189Y11946725D02*
X14775189Y13226256D01*
X20740001Y14390001D02*
X21590000Y15240000D01*
X10845000Y6200000D02*
X11792134Y6200000D01*
X11792134Y6200000D02*
X12719622Y7127488D01*
X12719622Y7127488D02*
X12719622Y9891158D01*
X6619922Y9395456D02*
X8929922Y9395456D01*
X8929922Y9395456D02*
X9633413Y10098947D01*
X9633413Y10098947D02*
X9633413Y14067677D01*
X9633413Y14067677D02*
X13065736Y17500000D01*
X8205000Y5800000D02*
X7482600Y5800000D01*
X6361844Y9137378D02*
X6619922Y9395456D01*
X13065736Y17500000D02*
X13490000Y17500000D01*
X6361844Y6920756D02*
X6361844Y9137378D01*
X7482600Y5800000D02*
X6361844Y6920756D01*
X13024433Y9764902D02*
X15080000Y11820469D01*
X15080000Y11820469D02*
X15080000Y12866330D01*
X10845000Y5800000D02*
X11823201Y5800000D01*
X15080000Y12866330D02*
X16023670Y13810000D01*
X25240000Y13810000D02*
X25820001Y14390001D01*
X25820001Y14390001D02*
X26670000Y15240000D01*
X13024433Y7001232D02*
X13024433Y9764902D01*
X16023670Y13810000D02*
X25240000Y13810000D01*
X11823201Y5800000D02*
X13024433Y7001232D01*
X9150000Y5400000D02*
X9260000Y5510000D01*
X8205000Y5400000D02*
X9150000Y5400000D01*
X10845000Y5400000D02*
X11854268Y5400000D01*
X13329244Y6874976D02*
X13329244Y9519244D01*
X13329244Y9519244D02*
X15660001Y11850001D01*
X15660001Y11850001D02*
X16510000Y12700000D01*
X11854268Y5400000D02*
X13329244Y6874976D01*
X9090000Y13435736D02*
X9090000Y13860000D01*
X9328602Y13197134D02*
X9090000Y13435736D01*
X8803666Y9700267D02*
X9328602Y10225203D01*
X9328602Y10225203D02*
X9328602Y13197134D01*
X6493666Y9700267D02*
X8803666Y9700267D01*
X6057033Y9263634D02*
X6493666Y9700267D01*
X6057033Y6425567D02*
X6057033Y9263634D01*
X8205000Y5000000D02*
X7482600Y5000000D01*
X7482600Y5000000D02*
X6057033Y6425567D01*
X20511399Y11621399D02*
X20740001Y11850001D01*
X20740001Y11850001D02*
X21590000Y12700000D01*
X15944004Y11621399D02*
X20511399Y11621399D01*
X13634055Y9311450D02*
X15944004Y11621399D01*
X13634055Y6748720D02*
X13634055Y9311450D01*
X11885335Y5000000D02*
X13634055Y6748720D01*
X10845000Y5000000D02*
X11885335Y5000000D01*
X5752222Y9389890D02*
X6367410Y10005078D01*
X8800000Y11515736D02*
X8800000Y11940000D01*
X6367410Y10005078D02*
X8677410Y10005078D01*
X8808602Y11507134D02*
X8800000Y11515736D01*
X5752222Y6299311D02*
X5752222Y9389890D01*
X7451533Y4600000D02*
X5752222Y6299311D01*
X8205000Y4600000D02*
X7451533Y4600000D01*
X8808602Y10136270D02*
X8808602Y11507134D01*
X8677410Y10005078D02*
X8808602Y10136270D01*
X11916402Y4600000D02*
X13938866Y6622464D01*
X10845000Y4600000D02*
X11916402Y4600000D01*
X25820001Y11850001D02*
X26670000Y12700000D01*
X25500000Y11530000D02*
X25820001Y11850001D01*
X16070259Y11316588D02*
X20637655Y11316588D01*
X20851066Y11530000D02*
X25500000Y11530000D01*
X20637655Y11316588D02*
X20851066Y11530000D01*
X13938866Y9185195D02*
X16070259Y11316588D01*
X13938866Y6622464D02*
X13938866Y9185195D01*
X-4800000Y-2960000D02*
X-4800000Y-2237600D01*
X-4705614Y-624251D02*
X-4705614Y-296718D01*
X-5030001Y2300001D02*
X-5330000Y2600000D01*
X-4800000Y-2237600D02*
X-4779608Y-2217208D01*
X-4779608Y-2217208D02*
X-4779608Y-698245D01*
X-5238602Y743730D02*
X-4723730Y1258602D01*
X-4723730Y1993730D02*
X-5030001Y2300001D01*
X-4723730Y1258602D02*
X-4723730Y1993730D01*
X-5238602Y236270D02*
X-5238602Y743730D01*
X-4779608Y-698245D02*
X-4705614Y-624251D01*
X-4705614Y-296718D02*
X-5238602Y236270D01*
X-4800000Y-5100000D02*
X-5000000Y-4900000D01*
X-4800000Y-5600000D02*
X-4800000Y-5100000D01*
X-4330001Y190001D02*
X-4630000Y490000D01*
X-4474797Y-824501D02*
X-4330001Y-679705D01*
X-4474797Y-1331959D02*
X-4474797Y-824501D01*
X-4400000Y-1406756D02*
X-4474797Y-1331959D01*
X-4400000Y-2960000D02*
X-4400000Y-1406756D01*
X-4330001Y-679705D02*
X-4330001Y190001D01*
X-4400000Y-5600000D02*
X-4400000Y-6646579D01*
X-4400000Y-6646579D02*
X-4433421Y-6680000D01*
X-4000000Y-1132034D02*
X-3946196Y-1078230D01*
X-4000000Y-2960000D02*
X-4000000Y-1132034D01*
X-3612944Y-8361923D02*
X-3612944Y-8912483D01*
X-3612944Y-8912483D02*
X-3743496Y-9043035D01*
X-3743496Y-9335331D02*
X-3570589Y-9508238D01*
X-3743496Y-9043035D02*
X-3743496Y-9335331D01*
X-4000000Y-5600000D02*
X-4000000Y-6322400D01*
X-3904811Y-6417589D02*
X-3904811Y-8070056D01*
X-3904811Y-8070056D02*
X-3612944Y-8361923D01*
X-4000000Y-6322400D02*
X-3904811Y-6417589D01*
X-3570589Y-9508238D02*
X-3270590Y-9808237D01*
X-3600000Y-1960000D02*
X-3130000Y-1490000D01*
X-3600000Y-2960000D02*
X-3600000Y-1960000D01*
X-3308133Y-8874553D02*
X-3109390Y-9073296D01*
X-3600000Y-5600000D02*
X-3600000Y-7943800D01*
X-3308133Y-8235667D02*
X-3308133Y-8874553D01*
X-3600000Y-7943800D02*
X-3308133Y-8235667D01*
X-3200000Y-4000000D02*
X-3290000Y-4090000D01*
X-3200000Y-2960000D02*
X-3200000Y-4000000D01*
X-2580789Y-10068459D02*
X-2903729Y-10391399D01*
X-2580789Y-8819567D02*
X-2580789Y-10068459D01*
X-3753729Y-10391399D02*
X-4592330Y-11230000D01*
X-3003322Y-8109411D02*
X-3003322Y-8397034D01*
X-3003322Y-8397034D02*
X-2580789Y-8819567D01*
X-3200000Y-5600000D02*
X-3200000Y-7912733D01*
X-3200000Y-7912733D02*
X-3003322Y-8109411D01*
X-2903729Y-10391399D02*
X-3753729Y-10391399D01*
X-4592330Y-11230000D02*
X-5255736Y-11230000D01*
X-5255736Y-11230000D02*
X-5680000Y-11230000D01*
X-2514433Y364433D02*
X-2910001Y760001D01*
X-2910001Y760001D02*
X-3210000Y1060000D01*
X-2800000Y-2960000D02*
X-2800000Y-2208934D01*
X-2800000Y-2208934D02*
X-2514433Y-1923367D01*
X-2514433Y-1923367D02*
X-2514433Y364433D01*
X-2800000Y-7881666D02*
X-2698511Y-7983155D01*
X-2780001Y-10910001D02*
X-3080000Y-11210000D01*
X-2275978Y-8693311D02*
X-2275978Y-10405978D01*
X-2698511Y-8270778D02*
X-2275978Y-8693311D01*
X-2800000Y-5600000D02*
X-2800000Y-7881666D01*
X-2275978Y-10405978D02*
X-2780001Y-10910001D01*
X-2698511Y-7983155D02*
X-2698511Y-8270778D01*
X-2400000Y-2240000D02*
X-2209622Y-2049622D01*
X-2209622Y1056880D02*
X-2243043Y1090301D01*
X-2209622Y-2049622D02*
X-2209622Y1056880D01*
X-2400000Y-2960000D02*
X-2400000Y-2240000D01*
X-2243043Y1090301D02*
X-2243043Y1514565D01*
X-2400000Y3465736D02*
X-2400000Y3890000D01*
X-1714433Y-1985494D02*
X-1714433Y2133570D01*
X-1714433Y2133570D02*
X-2400000Y2819137D01*
X-2000000Y-2271062D02*
X-1714433Y-1985494D01*
X-2000000Y-2960000D02*
X-2000000Y-2271062D01*
X-2400000Y2819137D02*
X-2400000Y3465736D01*
X-2000000Y-8107155D02*
X-1666356Y-8440799D01*
X-4815736Y-12920000D02*
X-5240000Y-12920000D01*
X-2000000Y-5600000D02*
X-2000000Y-8107155D01*
X-3182132Y-12920000D02*
X-4815736Y-12920000D01*
X-1666356Y-11404224D02*
X-3182132Y-12920000D01*
X-1666356Y-8440799D02*
X-1666356Y-11404224D01*
X-1409622Y-2111749D02*
X-1409622Y2259824D01*
X-1600000Y-2960000D02*
X-1600000Y-2302128D01*
X-1409622Y2259824D02*
X-1602276Y2452483D01*
X-1602276Y5502276D02*
X-2060001Y5960001D01*
X-2060001Y5960001D02*
X-2360000Y6260000D01*
X-1602276Y2452483D02*
X-1602276Y5502276D01*
X-1600000Y-2302128D02*
X-1409622Y-2111749D01*
X-1600000Y-8076089D02*
X-1361545Y-8314543D01*
X-4041065Y-14210000D02*
X-8005736Y-14210000D01*
X-1361545Y-11530480D02*
X-4041065Y-14210000D01*
X-1600000Y-5600000D02*
X-1600000Y-8076089D01*
X-1361545Y-8314543D02*
X-1361545Y-11530480D01*
X-8005736Y-14210000D02*
X-8430000Y-14210000D01*
X-16510000Y-12700000D02*
X-15660001Y-11850001D01*
X-11567400Y-5000000D02*
X-10845000Y-5000000D01*
X-15660001Y-11795400D02*
X-14805577Y-10940976D01*
X-15660001Y-11850001D02*
X-15660001Y-11795400D01*
X-14805577Y-10940976D02*
X-14805577Y-9406176D01*
X-14805577Y-9406176D02*
X-14055609Y-8656208D01*
X-14055609Y-7320934D02*
X-11734675Y-5000000D01*
X-14055609Y-8656208D02*
X-14055609Y-7320934D01*
X-11734675Y-5000000D02*
X-11567400Y-5000000D01*
X-9070001Y-11380001D02*
X-9370000Y-11680000D01*
X-9070001Y-11197669D02*
X-9070001Y-11380001D01*
X-6796777Y-4950887D02*
X-6796777Y-6440040D01*
X-8193730Y-10721398D02*
X-8593730Y-10721398D01*
X-6183035Y-8710703D02*
X-8193730Y-10721398D01*
X-6183035Y-7053782D02*
X-6183035Y-8710703D01*
X-8205000Y-4200000D02*
X-7547664Y-4200000D01*
X-8593730Y-10721398D02*
X-9070001Y-11197669D01*
X-6796777Y-6440040D02*
X-6183035Y-7053782D01*
X-7547664Y-4200000D02*
X-6796777Y-4950887D01*
X-13670001Y-3000000D02*
X-10845000Y-3000000D01*
X-14740000Y-4069999D02*
X-13670001Y-3000000D01*
X-16510000Y-7620000D02*
X-14740000Y-5850000D01*
X-14740000Y-5850000D02*
X-14740000Y-4069999D01*
X-7314264Y-2200000D02*
X-5214264Y-4300000D01*
X-4924264Y-4300000D02*
X-4500000Y-4300000D01*
X-5214264Y-4300000D02*
X-4924264Y-4300000D01*
X-8205000Y-2200000D02*
X-7314264Y-2200000D01*
X-14970000Y-1000000D02*
X-16510000Y-2540000D01*
X-10845000Y-1000000D02*
X-14970000Y-1000000D01*
X-8205000Y-200000D02*
X-5661262Y-200000D01*
X-5661262Y-200000D02*
X-5292192Y-569070D01*
X-15660001Y1690001D02*
X-16510000Y2540000D01*
X-14307867Y1000000D02*
X-14997868Y1690001D01*
X-10845000Y1000000D02*
X-14307867Y1000000D01*
X-14997868Y1690001D02*
X-15660001Y1690001D01*
X-8205000Y1800000D02*
X-9025138Y1800000D01*
X-9025138Y1800000D02*
X-9770000Y2544862D01*
X-9770000Y2544862D02*
X-9770000Y3105736D01*
X-9770000Y3105736D02*
X-9770000Y3530000D01*
X-11505267Y3000000D02*
X-11854888Y3349622D01*
X-12239622Y3349622D02*
X-15660001Y6770001D01*
X-11854888Y3349622D02*
X-12239622Y3349622D01*
X-10845000Y3000000D02*
X-11505267Y3000000D01*
X-15660001Y6770001D02*
X-16510000Y7620000D01*
X-5828223Y5147308D02*
X-5828223Y6516240D01*
X-7297567Y3800000D02*
X-6825070Y4272497D01*
X-5543413Y8801081D02*
X-6660001Y9917669D01*
X-8205000Y3800000D02*
X-7297567Y3800000D01*
X-6660001Y10098611D02*
X-6960000Y10398610D01*
X-5828223Y6516240D02*
X-5543413Y6801050D01*
X-6703034Y4272497D02*
X-5828223Y5147308D01*
X-6825070Y4272497D02*
X-6703034Y4272497D01*
X-5543413Y6801050D02*
X-5543413Y8801081D01*
X-6660001Y9917669D02*
X-6660001Y10098611D01*
X-8205000Y7800000D02*
X-8357412Y7952412D01*
X-8357412Y7952412D02*
X-8474480Y7952412D01*
X-10845000Y-5400000D02*
X-11703608Y-5400000D01*
X-15786469Y-13778601D02*
X-20511399Y-13778601D01*
X-20740001Y-13549999D02*
X-21590000Y-12700000D01*
X-11703608Y-5400000D02*
X-13750798Y-7447190D01*
X-15346071Y-11912536D02*
X-15346071Y-13338203D01*
X-13750798Y-7447190D02*
X-13750798Y-8782464D01*
X-13750798Y-8782464D02*
X-14500766Y-9532432D01*
X-20511399Y-13778601D02*
X-20740001Y-13549999D01*
X-14500766Y-11067231D02*
X-15346071Y-11912536D01*
X-14500766Y-9532432D02*
X-14500766Y-11067231D01*
X-15346071Y-13338203D02*
X-15786469Y-13778601D01*
X-10034431Y-6454748D02*
X-10034431Y-8083565D01*
X-10034431Y-8083565D02*
X-12367089Y-10416223D01*
X-8979683Y-5400000D02*
X-10034431Y-6454748D01*
X-8205000Y-5400000D02*
X-8979683Y-5400000D01*
X-12688604Y-13617009D02*
X-12988603Y-13917008D01*
X-12367089Y-13295494D02*
X-12688604Y-13617009D01*
X-12367089Y-10416223D02*
X-12367089Y-13295494D01*
X-8205000Y-4600000D02*
X-7578730Y-4600000D01*
X-6489999Y-7177885D02*
X-6489999Y-8586600D01*
X-8918917Y-10416587D02*
X-9928601Y-11426271D01*
X-6489999Y-8586600D02*
X-8319986Y-10416587D01*
X-7101588Y-6566296D02*
X-6489999Y-7177885D01*
X-8319986Y-10416587D02*
X-8918917Y-10416587D01*
X-9928601Y-12144973D02*
X-9662404Y-12411170D01*
X-7101588Y-5077142D02*
X-7101588Y-6566296D01*
X-7578730Y-4600000D02*
X-7101588Y-5077142D01*
X-9928601Y-11426271D02*
X-9928601Y-12144973D01*
X-11567400Y-4200000D02*
X-10845000Y-4200000D01*
X-15415199Y-10661529D02*
X-15415199Y-9153664D01*
X-13823677Y-6226869D02*
X-13823677Y-6056208D01*
X-14665231Y-8403696D02*
X-14665231Y-7068422D01*
X-14665231Y-7068422D02*
X-13823677Y-6226869D01*
X-11967469Y-4200000D02*
X-11567400Y-4200000D01*
X-19050000Y-10160000D02*
X-17971399Y-11238601D01*
X-15415199Y-9153664D02*
X-14665231Y-8403696D01*
X-17971399Y-11238601D02*
X-15992271Y-11238601D01*
X-15992271Y-11238601D02*
X-15415199Y-10661529D01*
X-13823677Y-6056208D02*
X-11967469Y-4200000D01*
X-13610000Y-3400000D02*
X-10845000Y-3400000D01*
X-14435190Y-4225190D02*
X-13610000Y-3400000D01*
X-21590000Y-7620000D02*
X-20511400Y-8698600D01*
X-15992270Y-8698600D02*
X-15431401Y-8137731D01*
X-20511400Y-8698600D02*
X-15992270Y-8698600D01*
X-15431401Y-8137731D02*
X-15431400Y-7211717D01*
X-14435190Y-5976256D02*
X-14435190Y-5455190D01*
X-15274841Y-6815907D02*
X-14435190Y-5976256D01*
X-15274841Y-7055159D02*
X-15274841Y-6815907D01*
X-14435190Y-5455190D02*
X-14430000Y-5450000D01*
X-15431400Y-7211717D02*
X-15274841Y-7055159D01*
X-14430000Y-5450000D02*
X-14435190Y-4225190D01*
X-6187155Y-4698376D02*
X-6187155Y-6187528D01*
X-5571644Y-9146522D02*
X-5264999Y-9453167D01*
X-6187155Y-6187528D02*
X-5571644Y-6803039D01*
X-8205000Y-3400000D02*
X-7485531Y-3400000D01*
X-5571644Y-6803039D02*
X-5571644Y-9146522D01*
X-7485531Y-3400000D02*
X-6187155Y-4698376D01*
X-5264999Y-9453167D02*
X-4965000Y-9753166D01*
X-4680049Y-7662068D02*
X-4680049Y-8086332D01*
X-8205000Y-2600000D02*
X-7423397Y-2600000D01*
X-5545834Y-5966715D02*
X-4962022Y-6550527D01*
X-5545834Y-4477563D02*
X-5545834Y-5966715D01*
X-4962022Y-7380095D02*
X-4680049Y-7662068D01*
X-4962022Y-6550527D02*
X-4962022Y-7380095D01*
X-7423397Y-2600000D02*
X-5545834Y-4477563D01*
X-12917867Y-2200000D02*
X-11567400Y-2200000D01*
X-13592513Y-2060380D02*
X-13057487Y-2060380D01*
X-15349621Y-3817486D02*
X-13592513Y-2060380D01*
X-19050000Y-5080000D02*
X-17971399Y-6158601D01*
X-15349622Y-5597489D02*
X-15349621Y-3817486D01*
X-11567400Y-2200000D02*
X-10845000Y-2200000D01*
X-15910734Y-6158601D02*
X-15349622Y-5597489D01*
X-17971399Y-6158601D02*
X-15910734Y-6158601D01*
X-13057487Y-2060380D02*
X-12917867Y-2200000D01*
X-20740001Y-3389999D02*
X-21590000Y-2540000D01*
X-16012868Y-3618600D02*
X-20511400Y-3618600D01*
X-13794268Y-1400000D02*
X-16012868Y-3618600D01*
X-10845000Y-1400000D02*
X-13794268Y-1400000D01*
X-20511400Y-3618600D02*
X-20740001Y-3389999D01*
X-9761449Y-1907766D02*
X-9761449Y-2332030D01*
X-8205000Y-1400000D02*
X-9253683Y-1400000D01*
X-9253683Y-1400000D02*
X-9761449Y-1907766D01*
X-8205000Y-600000D02*
X-6353296Y-600000D01*
X-6353296Y-600000D02*
X-5454512Y-1498784D01*
X-17971399Y-1078601D02*
X-18200001Y-849999D01*
X-18200001Y-849999D02*
X-19050000Y0D01*
X-16059668Y-1078601D02*
X-17971399Y-1078601D01*
X-15181067Y-200000D02*
X-16059668Y-1078601D01*
X-10845000Y-200000D02*
X-15181067Y-200000D01*
X-16298479Y1384809D02*
X-16375069Y1461399D01*
X-16375069Y1461399D02*
X-20511399Y1461399D01*
X-20511399Y1461399D02*
X-20740001Y1690001D01*
X-20740001Y1690001D02*
X-21590000Y2540000D01*
X-15693743Y1384809D02*
X-16298479Y1384809D01*
X-14908934Y600000D02*
X-15693743Y1384809D01*
X-10845000Y600000D02*
X-14908934Y600000D01*
X-8205000Y600000D02*
X-9582789Y600000D01*
X-9582789Y600000D02*
X-9790000Y392789D01*
X-8205000Y1400000D02*
X-9720000Y1400000D01*
X-9720000Y1400000D02*
X-9820000Y1500000D01*
X-18200001Y4230001D02*
X-19050000Y5080000D01*
X-17971399Y4001399D02*
X-18200001Y4230001D01*
X-10845000Y1800000D02*
X-13742604Y1800000D01*
X-15944003Y4001399D02*
X-17971399Y4001399D01*
X-13742604Y1800000D02*
X-15944003Y4001399D01*
X-11536333Y2600000D02*
X-11981144Y3044811D01*
X-15115189Y5712586D02*
X-15866015Y6463412D01*
X-15115189Y5296255D02*
X-15115189Y5712586D01*
X-15866015Y6463412D02*
X-20433412Y6463412D01*
X-10845000Y2600000D02*
X-11536333Y2600000D01*
X-20740001Y6770001D02*
X-21590000Y7620000D01*
X-11981144Y3044811D02*
X-12863745Y3044811D01*
X-20433412Y6463412D02*
X-20740001Y6770001D01*
X-12863745Y3044811D02*
X-15115189Y5296255D01*
X-5218601Y6243729D02*
X-4610000Y6852330D01*
X-5218601Y4894796D02*
X-5218601Y6243729D01*
X-6173412Y3939985D02*
X-5218601Y4894796D01*
X-7181066Y2600000D02*
X-6801081Y2220015D01*
X-6173412Y2847684D02*
X-6173412Y3939985D01*
X-4610000Y8435736D02*
X-4610000Y8860000D01*
X-8205000Y2600000D02*
X-7181066Y2600000D01*
X-4610000Y6852330D02*
X-4610000Y8435736D01*
X-6801081Y2220015D02*
X-6173412Y2847684D01*
X-5238602Y6674794D02*
X-5238602Y9318602D01*
X-5238602Y9318602D02*
X-5490001Y9570001D01*
X-5523412Y6389984D02*
X-5238602Y6674794D01*
X-7266500Y3400000D02*
X-7055794Y3610706D01*
X-8205000Y3400000D02*
X-7266500Y3400000D01*
X-5490001Y9570001D02*
X-5790000Y9870000D01*
X-7055794Y3610706D02*
X-6933758Y3610706D01*
X-5523412Y5021052D02*
X-5523412Y6389984D01*
X-6933758Y3610706D02*
X-5523412Y5021052D01*
X-11602376Y3959244D02*
X-11965329Y3959244D01*
X-11965329Y3959244D02*
X-14483299Y6477214D01*
X-20740001Y9310001D02*
X-21590000Y10160000D01*
X-11443132Y3800000D02*
X-11602376Y3959244D01*
X-15890332Y9081399D02*
X-20511399Y9081399D01*
X-20511399Y9081399D02*
X-20740001Y9310001D01*
X-14483299Y6477214D02*
X-14483299Y7674366D01*
X-10845000Y3800000D02*
X-11443132Y3800000D01*
X-14483299Y7674366D02*
X-15890332Y9081399D01*
X-15992271Y11238601D02*
X-25208601Y11238601D01*
X-10845000Y4600000D02*
X-11743951Y4600000D01*
X-25820001Y11850001D02*
X-26670000Y12700000D01*
X-11743951Y4600000D02*
X-13873677Y6729726D01*
X-13873677Y9120007D02*
X-15992271Y11238601D01*
X-25208601Y11238601D02*
X-25820001Y11850001D01*
X-13873677Y6729726D02*
X-13873677Y9120007D01*
X-15041260Y-12038792D02*
X-15041260Y-13881260D01*
X-15041260Y-13881260D02*
X-15321399Y-14161399D01*
X-10845000Y-5800000D02*
X-11672541Y-5800000D01*
X-13445987Y-7573446D02*
X-13445987Y-8908720D01*
X-13445987Y-8908720D02*
X-14195955Y-9658688D01*
X-14195955Y-11193487D02*
X-15041260Y-12038792D01*
X-14195955Y-9658688D02*
X-14195955Y-11193487D01*
X-11672541Y-5800000D02*
X-13445987Y-7573446D01*
X-25208601Y-14161399D02*
X-25820001Y-13549999D01*
X-25820001Y-13549999D02*
X-26670000Y-12700000D01*
X-15321399Y-14161399D02*
X-25208601Y-14161399D01*
X-9624733Y-6476117D02*
X-9624733Y-8104934D01*
X-8205000Y-5800000D02*
X-8948616Y-5800000D01*
X-12062278Y-13611559D02*
X-12166455Y-13715736D01*
X-9624733Y-8104934D02*
X-12062278Y-10542479D01*
X-8948616Y-5800000D02*
X-9624733Y-6476117D01*
X-12166455Y-13715736D02*
X-12166455Y-14140000D01*
X-12062278Y-10542479D02*
X-12062278Y-13611559D01*
X-9045173Y-10111776D02*
X-10233412Y-11300015D01*
X-8205000Y-5000000D02*
X-7609796Y-5000000D01*
X-7406399Y-5203397D02*
X-7406399Y-6692552D01*
X-6796777Y-7302174D02*
X-6796777Y-8462311D01*
X-8446242Y-10111776D02*
X-9045173Y-10111776D01*
X-9983014Y-12864887D02*
X-9683015Y-13164886D01*
X-7609796Y-5000000D02*
X-7406399Y-5203397D01*
X-10233412Y-11300015D02*
X-10233412Y-12614489D01*
X-10233412Y-12614489D02*
X-9983014Y-12864887D01*
X-7406399Y-6692552D02*
X-6796777Y-7302174D01*
X-6796777Y-8462311D02*
X-8446242Y-10111776D01*
X-14360420Y-7194678D02*
X-11765742Y-4600000D01*
X-11765742Y-4600000D02*
X-11567400Y-4600000D01*
X-11567400Y-4600000D02*
X-10845000Y-4600000D01*
X-14360420Y-8529952D02*
X-14360420Y-7194678D01*
X-15110388Y-9279920D02*
X-14360420Y-8529952D01*
X-15917067Y-11621399D02*
X-15110388Y-10814720D01*
X-15110388Y-10814720D02*
X-15110388Y-9279920D01*
X-22668601Y-11621399D02*
X-15917067Y-11621399D01*
X-24130000Y-10160000D02*
X-22668601Y-11621399D01*
X-14128488Y-6100613D02*
X-14128488Y-5929952D01*
X-14970037Y-6942161D02*
X-14128488Y-6100613D01*
X-14128488Y-5929952D02*
X-11998536Y-3800000D01*
X-14970040Y-7349370D02*
X-14970037Y-6942161D01*
X-11567400Y-3800000D02*
X-10845000Y-3800000D01*
X-15103675Y-7483005D02*
X-14970040Y-7349370D01*
X-26670000Y-7620000D02*
X-25286589Y-9003411D01*
X-15103675Y-8241071D02*
X-15103675Y-7483005D01*
X-25286589Y-9003411D02*
X-15866015Y-9003411D01*
X-15866015Y-9003411D02*
X-15103675Y-8241071D01*
X-11998536Y-3800000D02*
X-11567400Y-3800000D01*
X-8205000Y-3800000D02*
X-7516598Y-3800000D01*
X-6491966Y-6313784D02*
X-5876775Y-6928975D01*
X-5503188Y-10326954D02*
X-4436853Y-10326954D01*
X-7516598Y-3800000D02*
X-6491966Y-4824632D01*
X-5876775Y-6928975D02*
X-5876775Y-9953367D01*
X-6491966Y-4824632D02*
X-6491966Y-6313784D01*
X-4436853Y-10326954D02*
X-4136854Y-10026955D01*
X-5876775Y-9953367D02*
X-5503188Y-10326954D01*
X-5850645Y-6092971D02*
X-5266833Y-6676783D01*
X-4565810Y-8615653D02*
X-4141546Y-8615653D01*
X-5266833Y-8295499D02*
X-4946679Y-8615653D01*
X-5266833Y-6676783D02*
X-5266833Y-8295499D01*
X-5850645Y-4603819D02*
X-5850645Y-6092971D01*
X-8205000Y-3000000D02*
X-7454464Y-3000000D01*
X-4946679Y-8615653D02*
X-4565810Y-8615653D01*
X-7454464Y-3000000D02*
X-5850645Y-4603819D01*
X-22668601Y-6541399D02*
X-15862465Y-6541399D01*
X-12948934Y-2600000D02*
X-11567400Y-2600000D01*
X-15044811Y-5723745D02*
X-15044811Y-3943743D01*
X-24130000Y-5080000D02*
X-22668601Y-6541399D01*
X-15044811Y-3943743D02*
X-13466257Y-2365191D01*
X-15862465Y-6541399D02*
X-15044811Y-5723745D01*
X-11567400Y-2600000D02*
X-10845000Y-2600000D01*
X-13466257Y-2365191D02*
X-13183743Y-2365191D01*
X-13183743Y-2365191D02*
X-12948934Y-2600000D01*
X-12791231Y-1755569D02*
X-13718769Y-1755569D01*
X-25286589Y-3923411D02*
X-25820001Y-3389999D01*
X-13718769Y-1755569D02*
X-15886611Y-3923411D01*
X-15886611Y-3923411D02*
X-25286589Y-3923411D01*
X-25820001Y-3389999D02*
X-26670000Y-2540000D01*
X-12746800Y-1800000D02*
X-12791231Y-1755569D01*
X-10845000Y-1800000D02*
X-12746800Y-1800000D01*
X-9232847Y-2105447D02*
X-9232847Y-3012730D01*
X-9531387Y-3311270D02*
X-9831386Y-3611269D01*
X-8205000Y-1800000D02*
X-8927400Y-1800000D01*
X-9232847Y-3012730D02*
X-9531387Y-3311270D01*
X-8927400Y-1800000D02*
X-9232847Y-2105447D01*
X-8205000Y-1000000D02*
X-6890000Y-1000000D01*
X-6890000Y-1000000D02*
X-5440000Y-2450000D01*
X-22746593Y-1383407D02*
X-24130000Y0D01*
X-10845000Y-600000D02*
X-15150001Y-600000D01*
X-15933412Y-1383411D02*
X-22746593Y-1383407D01*
X-15150001Y-600000D02*
X-15933412Y-1383411D01*
X-25208601Y1078601D02*
X-26670000Y2540000D01*
X-15818601Y1078601D02*
X-25208601Y1078601D01*
X-14940000Y200000D02*
X-15818601Y1078601D01*
X-10845000Y200000D02*
X-14940000Y200000D01*
X-9072514Y200000D02*
X-9632899Y-360385D01*
X-8205000Y200000D02*
X-9072514Y200000D01*
X-9632899Y-360385D02*
X-9720028Y-360385D01*
X-8205000Y1000000D02*
X-5806704Y1000000D01*
X-5806704Y1000000D02*
X-5734231Y927527D01*
X-23280001Y4230001D02*
X-24130000Y5080000D01*
X-15992271Y3618601D02*
X-22668601Y3618601D01*
X-13773670Y1400000D02*
X-15992271Y3618601D01*
X-10845000Y1400000D02*
X-13773670Y1400000D01*
X-22668601Y3618601D02*
X-23280001Y4230001D01*
X-25208601Y6158601D02*
X-26670000Y7620000D01*
X-15992271Y6158601D02*
X-25208601Y6158601D01*
X-15431399Y5181399D02*
X-15431399Y5597729D01*
X-13624736Y3360000D02*
X-13624736Y3374736D01*
X-10845000Y2200000D02*
X-11567400Y2200000D01*
X-13624736Y3374736D02*
X-15431399Y5181399D01*
X-11567400Y2200000D02*
X-12107401Y2740001D01*
X-15431399Y5597729D02*
X-15992271Y6158601D01*
X-12107401Y2740001D02*
X-13004738Y2740002D01*
X-13004738Y2740002D02*
X-13624736Y3360000D01*
X-4670000Y5012330D02*
X-4670000Y5990000D01*
X-8205000Y2200000D02*
X-7482600Y2200000D01*
X-6892222Y1609622D02*
X-5868601Y2633243D01*
X-5868601Y2633243D02*
X-5868601Y3813729D01*
X-7482600Y2200000D02*
X-6892222Y1609622D01*
X-5868601Y3813729D02*
X-4670000Y5012330D01*
X-8205000Y3000000D02*
X-9113014Y3000000D01*
X-9113014Y3000000D02*
X-9117935Y3004921D01*
X-11728632Y3654433D02*
X-12091585Y3654433D01*
X-14788110Y6350958D02*
X-14788110Y7494440D01*
X-12091585Y3654433D02*
X-14788110Y6350958D01*
X-14788110Y7494440D02*
X-16070258Y8776588D01*
X-11474200Y3400000D02*
X-11728632Y3654433D01*
X-25286589Y8776589D02*
X-25820001Y9310001D01*
X-25820001Y9310001D02*
X-26670000Y10160000D01*
X-16070258Y8776588D02*
X-25286589Y8776589D01*
X-10845000Y3400000D02*
X-11474200Y3400000D01*
X-14178488Y7828488D02*
X-15660001Y9310001D01*
X-15660001Y9310001D02*
X-16510000Y10160000D01*
X-10845000Y4200000D02*
X-10909055Y4264055D01*
X-11839073Y4264055D02*
X-14178488Y6603470D01*
X-10909055Y4264055D02*
X-11839073Y4264055D01*
X-14178488Y6603470D02*
X-14178488Y7828488D01*
X-9395954Y4200000D02*
X-9642183Y4446229D01*
X-8205000Y4200000D02*
X-9395954Y4200000D01*
X-11010014Y-17346587D02*
X-12380014Y-17346587D01*
X-10821239Y-13346706D02*
X-10821239Y-13671128D01*
X-8205000Y-7800000D02*
X-8205000Y-7978402D01*
X-12380014Y-17346587D02*
X-13130014Y-16596587D01*
X-13889986Y-16596587D02*
X-14560000Y-17266601D01*
X-11147845Y-10921247D02*
X-11147845Y-13020100D01*
X-14560000Y-17266601D02*
X-14560000Y-18795736D01*
X-10800637Y-17137210D02*
X-11010014Y-17346587D01*
X-14560000Y-18795736D02*
X-14560000Y-19220000D01*
X-10800637Y-13691730D02*
X-10800637Y-17137210D01*
X-11147845Y-13020100D02*
X-10821239Y-13346706D01*
X-8205000Y-7978402D02*
X-11147845Y-10921247D01*
X-10821239Y-13671128D02*
X-10800637Y-13691730D01*
X-13130014Y-16596587D02*
X-13889986Y-16596587D01*
X-12671900Y-11899691D02*
X-13517205Y-12744995D01*
X-14973413Y-18270015D02*
X-15866810Y-19163411D01*
X-12671900Y-10289967D02*
X-12671900Y-11899691D01*
X-25286589Y-19163411D02*
X-25820001Y-18629999D01*
X-13517205Y-12744995D02*
X-13517205Y-15562741D01*
X-10845000Y-7800000D02*
X-10845000Y-8463067D01*
X-14973413Y-17018949D02*
X-14973413Y-18270015D01*
X-10845000Y-8463067D02*
X-12671900Y-10289967D01*
X-13517205Y-15562741D02*
X-14973413Y-17018949D01*
X-15866810Y-19163411D02*
X-25286589Y-19163411D01*
X-25820001Y-18629999D02*
X-26670000Y-17780000D01*
X-7406399Y-8124551D02*
X-8784002Y-9502154D01*
X-10753730Y-17651398D02*
X-12506270Y-17651398D01*
X-8205000Y-7400000D02*
X-7561085Y-7400000D01*
X-14038602Y-17176270D02*
X-14038602Y-17843925D01*
X-12506270Y-17651398D02*
X-13256270Y-16901398D01*
X-14038602Y-17843925D02*
X-13998694Y-17883833D01*
X-7406399Y-7554686D02*
X-7406399Y-8124551D01*
X-10495826Y-17393494D02*
X-10753730Y-17651398D01*
X-10843034Y-12893844D02*
X-10516428Y-13220450D01*
X-13256270Y-16901398D02*
X-13763730Y-16901398D01*
X-13763730Y-16901398D02*
X-14038602Y-17176270D01*
X-8784002Y-9502154D02*
X-9297685Y-9502154D01*
X-13998694Y-17883833D02*
X-13998694Y-18308097D01*
X-7561085Y-7400000D02*
X-7406399Y-7554686D01*
X-10516428Y-13544872D02*
X-10495826Y-13565474D01*
X-9297685Y-9502154D02*
X-10843034Y-11047503D01*
X-10495826Y-13565474D02*
X-10495826Y-17393494D01*
X-10843034Y-11047503D02*
X-10843034Y-12893844D01*
X-10516428Y-13220450D02*
X-10516428Y-13544872D01*
X-11200000Y-7400000D02*
X-11271399Y-7471399D01*
X-10845000Y-7400000D02*
X-11200000Y-7400000D01*
X-15993066Y-18858600D02*
X-15278224Y-18143759D01*
X-13822016Y-12618739D02*
X-12976711Y-11773434D01*
X-12976711Y-11773434D02*
X-12976711Y-10163711D01*
X-12976711Y-10163711D02*
X-12080000Y-9267001D01*
X-20511400Y-18858600D02*
X-15993066Y-18858600D01*
X-13822016Y-15436485D02*
X-13822016Y-12618739D01*
X-21590000Y-17780000D02*
X-20511400Y-18858600D01*
X-15278224Y-18143759D02*
X-15278224Y-16892693D01*
X-12080000Y-7953518D02*
X-11526482Y-7400000D01*
X-11526482Y-7400000D02*
X-10845000Y-7400000D01*
X-12080000Y-9267001D02*
X-12080000Y-7953518D01*
X-15278224Y-16892693D02*
X-13822016Y-15436485D01*
X-10191015Y-13439218D02*
X-10191015Y-17545279D01*
X-7101588Y-8250807D02*
X-8657746Y-9806965D01*
X-10191015Y-17545279D02*
X-10615735Y-17969999D01*
X-8205000Y-7000000D02*
X-7530018Y-7000000D01*
X-10615735Y-17969999D02*
X-12970001Y-17969999D01*
X-10211617Y-13094193D02*
X-10211617Y-13418616D01*
X-10211617Y-13418616D02*
X-10191015Y-13439218D01*
X-10538223Y-11173759D02*
X-10538223Y-12767587D01*
X-8657746Y-9806965D02*
X-9171429Y-9806965D01*
X-9171429Y-9806965D02*
X-10538223Y-11173759D01*
X-12970001Y-17969999D02*
X-13210001Y-17729999D01*
X-7530018Y-7000000D02*
X-7101588Y-7428430D01*
X-10538223Y-12767587D02*
X-10211617Y-13094193D01*
X-13210001Y-17729999D02*
X-13510000Y-17430000D01*
X-7101588Y-7428430D02*
X-7101588Y-8250807D01*
X-12531554Y-7952214D02*
X-12531554Y-9287488D01*
X-14126827Y-15310229D02*
X-15660001Y-16843403D01*
X-10845000Y-7000000D02*
X-11579340Y-7000000D01*
X-15660001Y-16930001D02*
X-16510000Y-17780000D01*
X-15660001Y-16843403D02*
X-15660001Y-16930001D01*
X-14126827Y-12417560D02*
X-14126827Y-15310229D01*
X-11579340Y-7000000D02*
X-12531554Y-7952214D01*
X-13281522Y-11572255D02*
X-14126827Y-12417560D01*
X-12531554Y-9287488D02*
X-13281522Y-10037455D01*
X-13281522Y-10037455D02*
X-13281522Y-11572255D01*
X-11885881Y-17007976D02*
X-11957945Y-16935912D01*
X-11126050Y-13797384D02*
X-11105448Y-13817986D01*
X-8205000Y-6600000D02*
X-8886482Y-6600000D01*
X-8886482Y-6600000D02*
X-9003601Y-6717119D01*
X-9003601Y-8345936D02*
X-11452656Y-10794991D01*
X-11452656Y-13146356D02*
X-11126050Y-13472962D01*
X-11957945Y-16935912D02*
X-12257944Y-16635913D01*
X-11105448Y-16954821D02*
X-11158603Y-17007976D01*
X-11452656Y-10794991D02*
X-11452656Y-13146356D01*
X-11158603Y-17007976D02*
X-11885881Y-17007976D01*
X-11126050Y-13472962D02*
X-11126050Y-13797384D01*
X-11105448Y-13817986D02*
X-11105448Y-16954821D01*
X-9003601Y-6717119D02*
X-9003601Y-8345936D01*
X-14431638Y-15183973D02*
X-15871076Y-16623411D01*
X-15871076Y-16623411D02*
X-22746589Y-16623411D01*
X-13586333Y-9911199D02*
X-13586333Y-11445999D01*
X-14431638Y-12291304D02*
X-14431638Y-15183973D01*
X-22746589Y-16623411D02*
X-23280001Y-16089999D01*
X-23280001Y-16089999D02*
X-24130000Y-15240000D01*
X-12836365Y-9161232D02*
X-13586333Y-9911199D01*
X-12836365Y-7825958D02*
X-12836365Y-9161232D01*
X-11610407Y-6600000D02*
X-12836365Y-7825958D01*
X-13586333Y-11445999D02*
X-14431638Y-12291304D01*
X-10845000Y-6600000D02*
X-11610407Y-6600000D01*
X-11437653Y-13592426D02*
X-11437653Y-15555665D01*
X-8917549Y-6200000D02*
X-9308412Y-6590863D01*
X-9308412Y-6590863D02*
X-9308412Y-8219680D01*
X-9308412Y-8219680D02*
X-11757467Y-10668735D01*
X-11757467Y-13272612D02*
X-11437653Y-13592426D01*
X-8205000Y-6200000D02*
X-8917549Y-6200000D01*
X-11437653Y-15555665D02*
X-11650136Y-15768148D01*
X-11757467Y-10668735D02*
X-11757467Y-13272612D01*
X-11650136Y-15768148D02*
X-11650136Y-16192412D01*
X-13891144Y-9784943D02*
X-13891144Y-11319743D01*
X-11641474Y-6200000D02*
X-13141176Y-7699702D01*
X-13141176Y-9034976D02*
X-13891144Y-9784943D01*
X-14736449Y-15057717D02*
X-15997332Y-16318600D01*
X-13891144Y-11319743D02*
X-14736449Y-12165048D01*
X-17971400Y-16318600D02*
X-18200001Y-16089999D01*
X-14736449Y-12165048D02*
X-14736449Y-15057717D01*
X-15997332Y-16318600D02*
X-17971400Y-16318600D01*
X-18200001Y-16089999D02*
X-19050000Y-15240000D01*
X-10845000Y-6200000D02*
X-11641474Y-6200000D01*
X-13141176Y-7699702D02*
X-13141176Y-9034976D01*
X11163034Y-13252497D02*
X11082316Y-13333215D01*
X11082316Y-13333215D02*
X11082316Y-16818797D01*
X8205000Y-7800000D02*
X8205000Y-8076140D01*
X13940000Y-18204872D02*
X13940000Y-18895736D01*
X11082316Y-16818797D02*
X11476932Y-17213413D01*
X12948541Y-17213413D02*
X13940000Y-18204872D01*
X13940000Y-18895736D02*
X13940000Y-19320000D01*
X8205000Y-8076140D02*
X11163034Y-11034174D01*
X11476932Y-17213413D02*
X12948541Y-17213413D01*
X11163034Y-11034174D02*
X11163034Y-13252497D01*
X12687089Y-12930394D02*
X13737418Y-13980723D01*
X14358601Y-18165204D02*
X15623397Y-19430000D01*
X15623397Y-19430000D02*
X25020000Y-19430000D01*
X12687089Y-10402894D02*
X12687089Y-12930394D01*
X10845000Y-7800000D02*
X10845000Y-8560805D01*
X13737418Y-15685088D02*
X14358601Y-16306271D01*
X25020000Y-19430000D02*
X25820001Y-18629999D01*
X10845000Y-8560805D02*
X12687089Y-10402894D01*
X25820001Y-18629999D02*
X26670000Y-17780000D01*
X13737418Y-13980723D02*
X13737418Y-15685088D01*
X14358601Y-16306271D02*
X14358601Y-18165204D01*
X7406399Y-8007388D02*
X9585976Y-10186965D01*
X12498224Y-17518224D02*
X13080001Y-18100001D01*
X7406399Y-7586802D02*
X7406399Y-8007388D01*
X13080001Y-18100001D02*
X13380000Y-18400000D01*
X10777505Y-13206959D02*
X10777505Y-17174851D01*
X10858223Y-11160430D02*
X10858223Y-13126241D01*
X9585976Y-10186965D02*
X9884758Y-10186965D01*
X11120878Y-17518224D02*
X12498224Y-17518224D01*
X9884758Y-10186965D02*
X10858223Y-11160430D01*
X7593201Y-7400000D02*
X7406399Y-7586802D01*
X8205000Y-7400000D02*
X7593201Y-7400000D01*
X10777505Y-17174851D02*
X11120878Y-17518224D01*
X10858223Y-13126241D02*
X10777505Y-13206959D01*
X14042229Y-15558832D02*
X14663412Y-16180015D01*
X12991900Y-10276639D02*
X12991900Y-12804138D01*
X14663412Y-16180015D02*
X14663412Y-18033412D01*
X12200000Y-8073518D02*
X12200000Y-9484739D01*
X12991900Y-12804138D02*
X14042229Y-13854467D01*
X15488601Y-18858601D02*
X20511399Y-18858601D01*
X11526482Y-7400000D02*
X12200000Y-8073518D01*
X20511399Y-18858601D02*
X20740001Y-18629999D01*
X20740001Y-18629999D02*
X21590000Y-17780000D01*
X12200000Y-9484739D02*
X12991900Y-10276639D01*
X10845000Y-7400000D02*
X11526482Y-7400000D01*
X14663412Y-18033412D02*
X15488601Y-18858601D01*
X14042229Y-13854467D02*
X14042229Y-15558832D01*
X11802934Y-18046834D02*
X12227198Y-18046834D01*
X6933677Y-7628456D02*
X6933677Y-7965732D01*
X10553412Y-12999985D02*
X10472694Y-13080703D01*
X10292570Y-18046834D02*
X11802934Y-18046834D01*
X9459721Y-10491776D02*
X9758502Y-10491776D01*
X9758502Y-10491776D02*
X10553412Y-11286686D01*
X10108601Y-17862865D02*
X10292570Y-18046834D01*
X8205000Y-7000000D02*
X7562134Y-7000000D01*
X6933677Y-7965732D02*
X9459721Y-10491776D01*
X10472694Y-13080703D02*
X10472694Y-14429638D01*
X10553412Y-11286686D02*
X10553412Y-12999985D01*
X7562134Y-7000000D02*
X6933677Y-7628456D01*
X10472694Y-14429638D02*
X10108601Y-14793731D01*
X10108601Y-14793731D02*
X10108601Y-17862865D01*
X11557549Y-7000000D02*
X12504811Y-7947262D01*
X14347040Y-13728211D02*
X14347040Y-15432576D01*
X12504811Y-9358482D02*
X13296711Y-10150382D01*
X14968223Y-16238223D02*
X15660001Y-16930001D01*
X13296711Y-10150382D02*
X13296711Y-12677882D01*
X15660001Y-16930001D02*
X16510000Y-17780000D01*
X13296711Y-12677882D02*
X14347040Y-13728211D01*
X12504811Y-7947262D02*
X12504811Y-9358482D01*
X14347040Y-15432576D02*
X14968223Y-16053759D01*
X14968223Y-16053759D02*
X14968223Y-16238223D01*
X10845000Y-7000000D02*
X11557549Y-7000000D01*
X8886482Y-6600000D02*
X9003601Y-6717119D01*
X11467845Y-13378753D02*
X11387127Y-13459471D01*
X13530001Y-16859999D02*
X13830000Y-16560000D01*
X8205000Y-6600000D02*
X8886482Y-6600000D01*
X11387127Y-13459471D02*
X11387127Y-16539013D01*
X11467845Y-10907918D02*
X11467845Y-13378753D01*
X11387127Y-16539013D02*
X11708113Y-16859999D01*
X9003601Y-8443674D02*
X11467845Y-10907918D01*
X9003601Y-6717119D02*
X9003601Y-8443674D01*
X11708113Y-16859999D02*
X13530001Y-16859999D01*
X10845000Y-6600000D02*
X11588616Y-6600000D01*
X15273034Y-15927503D02*
X15273034Y-16097503D01*
X23280001Y-16089999D02*
X24130000Y-15240000D01*
X13601522Y-10024127D02*
X13601522Y-12551626D01*
X14651851Y-15306320D02*
X15273034Y-15927503D01*
X11588616Y-6600000D02*
X12809622Y-7821006D01*
X15273034Y-16097503D02*
X15876930Y-16701399D01*
X15876930Y-16701399D02*
X22668601Y-16701399D01*
X12809622Y-9232227D02*
X13601522Y-10024127D01*
X12809622Y-7821006D02*
X12809622Y-9232227D01*
X22668601Y-16701399D02*
X23280001Y-16089999D01*
X13601522Y-12551626D02*
X14651851Y-13601955D01*
X14651851Y-13601955D02*
X14651851Y-15306320D01*
X9308412Y-8317418D02*
X11772656Y-10781662D01*
X12740001Y-15980001D02*
X13040000Y-16280000D01*
X8917549Y-6200000D02*
X9308412Y-6590863D01*
X11772656Y-10781662D02*
X11772656Y-13505009D01*
X11772656Y-13505009D02*
X11691938Y-13585727D01*
X11691938Y-14931938D02*
X12740001Y-15980001D01*
X8205000Y-6200000D02*
X8917549Y-6200000D01*
X11691938Y-13585727D02*
X11691938Y-14931938D01*
X9308412Y-6590863D02*
X9308412Y-8317418D01*
X11619683Y-6200000D02*
X13114433Y-7694750D01*
X13906333Y-12425370D02*
X14956662Y-13475699D01*
X14956662Y-15180064D02*
X15577845Y-15801247D01*
X10845000Y-6200000D02*
X11619683Y-6200000D01*
X15577845Y-15801247D02*
X15577845Y-15904175D01*
X15577845Y-15904175D02*
X15992271Y-16318601D01*
X18200001Y-16089999D02*
X19050000Y-15240000D01*
X13906333Y-9897870D02*
X13906333Y-12425370D01*
X17971399Y-16318601D02*
X18200001Y-16089999D01*
X13114433Y-7694750D02*
X13114433Y-9105970D01*
X14956662Y-13475699D02*
X14956662Y-15180064D01*
X15992271Y-16318601D02*
X17971399Y-16318601D01*
X13114433Y-9105970D02*
X13906333Y-9897870D01*
X15261473Y-13349443D02*
X15261473Y-13411396D01*
X25208601Y-14161399D02*
X25820001Y-13549999D01*
X10845000Y-5800000D02*
X11650750Y-5800000D01*
X25820001Y-13549999D02*
X26670000Y-12700000D01*
X14211144Y-9771615D02*
X14211144Y-12299114D01*
X13419244Y-7568494D02*
X13419244Y-8979715D01*
X11650750Y-5800000D02*
X13419244Y-7568494D01*
X16011476Y-14161399D02*
X25208601Y-14161399D01*
X14211144Y-12299114D02*
X15261473Y-13349443D01*
X15261473Y-13411396D02*
X16011476Y-14161399D01*
X13419244Y-8979715D02*
X14211144Y-9771615D01*
X8948616Y-5800000D02*
X9613223Y-6464607D01*
X12077467Y-13631265D02*
X11996749Y-13711983D01*
X9613223Y-8191162D02*
X12077467Y-10655406D01*
X12103888Y-14534452D02*
X12908817Y-14534452D01*
X12077467Y-10655406D02*
X12077467Y-13631265D01*
X11996749Y-13711983D02*
X11996749Y-14427313D01*
X12908817Y-14534452D02*
X13208816Y-14234453D01*
X11996749Y-14427313D02*
X12103888Y-14534452D01*
X8205000Y-5800000D02*
X8948616Y-5800000D01*
X9613223Y-6464607D02*
X9613223Y-8191162D01*
X7337846Y-6793221D02*
X6628866Y-7502201D01*
X6628866Y-8091988D02*
X9333465Y-10796587D01*
X6628866Y-7502201D02*
X6628866Y-8091988D01*
X7337846Y-5215352D02*
X7337846Y-6793221D01*
X8205000Y-5000000D02*
X7553198Y-5000000D01*
X10248601Y-11412942D02*
X10248601Y-12813530D01*
X9632246Y-10796587D02*
X10248601Y-11412942D01*
X7553198Y-5000000D02*
X7337846Y-5215352D01*
X10248601Y-12813530D02*
X9944092Y-13118039D01*
X9944092Y-13118039D02*
X9944092Y-13542303D01*
X9333465Y-10796587D02*
X9632246Y-10796587D01*
X22668601Y-11621399D02*
X23280001Y-11009999D01*
X14333677Y-8600946D02*
X15125577Y-9392846D01*
X10845000Y-4600000D02*
X11743951Y-4600000D01*
X15125577Y-11621399D02*
X22668601Y-11621399D01*
X11743951Y-4600000D02*
X14333677Y-7189726D01*
X14333677Y-7189726D02*
X14333677Y-8600946D01*
X23280001Y-11009999D02*
X24130000Y-10160000D01*
X15125577Y-9392846D02*
X15125577Y-11621399D01*
X15000000Y-8137396D02*
X15944003Y-9081399D01*
X15000000Y-6993915D02*
X15000000Y-8137396D01*
X10845000Y-3800000D02*
X11806085Y-3800000D01*
X18483670Y-9130000D02*
X18532271Y-9081399D01*
X11806085Y-3800000D02*
X15000000Y-6993915D01*
X18532271Y-9081399D02*
X25208601Y-9081399D01*
X15944003Y-9081399D02*
X17027729Y-9081399D01*
X25820001Y-8469999D02*
X26670000Y-7620000D01*
X17076330Y-9130000D02*
X18483670Y-9130000D01*
X17027729Y-9081399D02*
X17076330Y-9130000D01*
X25208601Y-9081399D02*
X25820001Y-8469999D01*
X5850381Y-5409619D02*
X5850381Y-6922821D01*
X7460000Y-3800000D02*
X5850381Y-5409619D01*
X5850381Y-6922821D02*
X5714433Y-7058769D01*
X5714433Y-7058769D02*
X5714433Y-8834433D01*
X7840001Y-10960001D02*
X8140000Y-11260000D01*
X5714433Y-8834433D02*
X7840001Y-10960001D01*
X8205000Y-3800000D02*
X7460000Y-3800000D01*
X5104811Y-6806255D02*
X5104811Y-10244010D01*
X7142332Y-3000000D02*
X5240758Y-4901574D01*
X8205000Y-3000000D02*
X7142332Y-3000000D01*
X4981317Y-10367504D02*
X4681318Y-10667503D01*
X5104811Y-10244010D02*
X4981317Y-10367504D01*
X5240758Y-6670308D02*
X5104811Y-6806255D01*
X5240758Y-4901574D02*
X5240758Y-6670308D01*
X10845000Y-2600000D02*
X11921066Y-2600000D01*
X23280001Y-5929999D02*
X24130000Y-5080000D01*
X22668601Y-6541399D02*
X23280001Y-5929999D01*
X15862465Y-6541399D02*
X22668601Y-6541399D01*
X11921066Y-2600000D02*
X15862465Y-6541399D01*
X11983199Y-1800000D02*
X14183199Y-4000000D01*
X10845000Y-1800000D02*
X11983199Y-1800000D01*
X14183199Y-4000000D02*
X25210000Y-4000000D01*
X25210000Y-4000000D02*
X25820001Y-3389999D01*
X25820001Y-3389999D02*
X26670000Y-2540000D01*
X5306923Y-1800000D02*
X5289412Y-1782489D01*
X8205000Y-1800000D02*
X5306923Y-1800000D01*
X9228301Y-1000000D02*
X9686533Y-541768D01*
X8205000Y-1000000D02*
X9228301Y-1000000D01*
X15862465Y-1461399D02*
X22668601Y-1461399D01*
X22668601Y-1461399D02*
X23280001Y-849999D01*
X15001066Y-600000D02*
X15862465Y-1461399D01*
X10845000Y-600000D02*
X15001066Y-600000D01*
X23280001Y-849999D02*
X24130000Y0D01*
X20637655Y1156589D02*
X20731066Y1250000D01*
X15113670Y200000D02*
X16070259Y1156589D01*
X10845000Y200000D02*
X15113670Y200000D01*
X16070259Y1156589D02*
X20637655Y1156589D01*
X25380000Y1250000D02*
X26670000Y2540000D01*
X20731066Y1250000D02*
X25380000Y1250000D01*
X8205000Y200000D02*
X5415725Y200000D01*
X5415725Y200000D02*
X5302527Y313198D01*
X8205000Y1000000D02*
X6243664Y1000000D01*
X5306657Y2042713D02*
X4799199Y2042713D01*
X5581529Y1767841D02*
X5306657Y2042713D01*
X4799199Y2042713D02*
X4348087Y1591601D01*
X6243664Y1000000D02*
X5581529Y1662135D01*
X4348087Y1591601D02*
X4348087Y1250820D01*
X5581529Y1662135D02*
X5581529Y1767841D01*
X22668601Y3618601D02*
X24130000Y5080000D01*
X15688601Y3618601D02*
X22668601Y3618601D01*
X13470000Y1400000D02*
X15688601Y3618601D01*
X10845000Y1400000D02*
X13470000Y1400000D01*
X25270000Y6220000D02*
X25820001Y6770001D01*
X10845000Y2200000D02*
X12102804Y2200000D01*
X16122804Y6220000D02*
X25270000Y6220000D01*
X25820001Y6770001D02*
X26670000Y7620000D01*
X12102804Y2200000D02*
X16122804Y6220000D01*
X7423290Y2200000D02*
X5275757Y4347533D01*
X8205000Y2200000D02*
X7423290Y2200000D01*
X5275757Y4347533D02*
X5275757Y4478695D01*
X5275757Y4478695D02*
X4975758Y4778694D01*
X8205000Y3000000D02*
X8965627Y3000000D01*
X8965627Y3000000D02*
X9225636Y2739991D01*
X10845000Y3400000D02*
X12009603Y3400000D01*
X12009603Y3400000D02*
X15050000Y6440397D01*
X15050000Y7756330D02*
X15992271Y8698601D01*
X25820001Y9310001D02*
X26670000Y10160000D01*
X15050000Y6440397D02*
X15050000Y7756330D01*
X15992271Y8698601D02*
X25208601Y8698601D01*
X25208601Y8698601D02*
X25820001Y9310001D01*
X15660001Y9310001D02*
X16510000Y10160000D01*
X10845000Y4200000D02*
X11947469Y4200000D01*
X14440378Y6692909D02*
X14440378Y8522512D01*
X15227867Y9310001D02*
X15660001Y9310001D01*
X14440378Y8522512D02*
X15227867Y9310001D01*
X11947469Y4200000D02*
X14440378Y6692909D01*
X8205000Y4200000D02*
X9065695Y4200000D01*
X9065695Y4200000D02*
X9728738Y4863043D01*
X13724055Y-8853458D02*
X14515955Y-9645358D01*
X16059745Y-13778601D02*
X20511399Y-13778601D01*
X20511399Y-13778601D02*
X20740001Y-13549999D01*
X11681817Y-5400000D02*
X13724055Y-7442238D01*
X10845000Y-5400000D02*
X11681817Y-5400000D01*
X15566284Y-13285140D02*
X16059745Y-13778601D01*
X15566284Y-13223187D02*
X15566284Y-13285140D01*
X20740001Y-13549999D02*
X21590000Y-12700000D01*
X14515955Y-12172858D02*
X15566284Y-13223187D01*
X13724055Y-7442238D02*
X13724055Y-8853458D01*
X14515955Y-9645358D02*
X14515955Y-12172858D01*
X10010001Y-8156873D02*
X12382278Y-10529150D01*
X12382278Y-13311406D02*
X12538771Y-13467899D01*
X10010001Y-6430318D02*
X10010001Y-8156873D01*
X8205000Y-5400000D02*
X8979683Y-5400000D01*
X8979683Y-5400000D02*
X10010001Y-6430318D01*
X12538771Y-13467899D02*
X12538771Y-13892163D01*
X12382278Y-10529150D02*
X12382278Y-13311406D01*
X6324055Y-8218244D02*
X9331685Y-11225874D01*
X9924049Y-12388363D02*
X9662412Y-12650000D01*
X8205000Y-4600000D02*
X7522132Y-4600000D01*
X9331685Y-11225874D02*
X9630466Y-11225874D01*
X9630466Y-11225874D02*
X9924049Y-11519457D01*
X7033035Y-5089097D02*
X7033035Y-6666965D01*
X7033035Y-6666965D02*
X6324055Y-7375945D01*
X9924049Y-11519457D02*
X9924049Y-12388363D01*
X7522132Y-4600000D02*
X7033035Y-5089097D01*
X6324055Y-7375945D02*
X6324055Y-8218244D01*
X15430388Y-9266591D02*
X15430388Y-11060387D01*
X17971399Y-11238601D02*
X18200001Y-11009999D01*
X15608601Y-11238601D02*
X17971399Y-11238601D01*
X14638488Y-8474691D02*
X15430388Y-9266591D01*
X15430388Y-11060387D02*
X15608601Y-11238601D01*
X18200001Y-11009999D02*
X19050000Y-10160000D01*
X10845000Y-4200000D02*
X11775018Y-4200000D01*
X14638488Y-7063470D02*
X14638488Y-8474691D01*
X11775018Y-4200000D02*
X14638488Y-7063470D01*
X16070258Y-8776588D02*
X20433412Y-8776588D01*
X20740001Y-8469999D02*
X21590000Y-7620000D01*
X10845000Y-3400000D02*
X11837152Y-3400000D01*
X15304811Y-6867659D02*
X15304811Y-8011141D01*
X11837152Y-3400000D02*
X15304811Y-6867659D01*
X15304811Y-8011141D02*
X16070258Y-8776588D01*
X20433412Y-8776588D02*
X20740001Y-8469999D01*
X5545569Y-6796564D02*
X5409622Y-6932511D01*
X5409622Y-6932511D02*
X5409622Y-10479664D01*
X7173399Y-3400000D02*
X5545569Y-5027830D01*
X5742013Y-10812055D02*
X6042012Y-11112054D01*
X8205000Y-3400000D02*
X7173399Y-3400000D01*
X5545569Y-5027830D02*
X5545569Y-6796564D01*
X5409622Y-10479664D02*
X5742013Y-10812055D01*
X8927400Y-2600000D02*
X9807294Y-3479894D01*
X9807294Y-3479894D02*
X9807294Y-4021341D01*
X8205000Y-2600000D02*
X8927400Y-2600000D01*
X17900000Y-6230000D02*
X18200001Y-5929999D01*
X11952132Y-2200000D02*
X15982132Y-6230000D01*
X18200001Y-5929999D02*
X19050000Y-5080000D01*
X15982132Y-6230000D02*
X17900000Y-6230000D01*
X10845000Y-2200000D02*
X11952132Y-2200000D01*
X10845000Y-1400000D02*
X13170000Y-1400000D01*
X20511399Y-3618601D02*
X20740001Y-3389999D01*
X15388601Y-3618601D02*
X20511399Y-3618601D01*
X20740001Y-3389999D02*
X21590000Y-2540000D01*
X13170000Y-1400000D02*
X15388601Y-3618601D01*
X5834931Y-1400000D02*
X5783755Y-1348824D01*
X5783755Y-1348824D02*
X5483756Y-1048825D01*
X8205000Y-1400000D02*
X5834931Y-1400000D01*
X8205000Y-600000D02*
X8845969Y-600000D01*
X9395972Y-49997D02*
X9440001Y-49997D01*
X8845969Y-600000D02*
X9395972Y-49997D01*
X9440001Y-49997D02*
X9740000Y250002D01*
X18200001Y-849999D02*
X19050000Y0D01*
X15992271Y-1078601D02*
X17971399Y-1078601D01*
X17971399Y-1078601D02*
X18200001Y-849999D01*
X15113670Y-200000D02*
X15992271Y-1078601D01*
X10845000Y-200000D02*
X15113670Y-200000D01*
X10845000Y600000D02*
X15082604Y600000D01*
X15082604Y600000D02*
X15944003Y1461399D01*
X20511399Y1461399D02*
X20740001Y1690001D01*
X20740001Y1690001D02*
X21590000Y2540000D01*
X15944003Y1461399D02*
X20511399Y1461399D01*
X8205000Y600000D02*
X5967040Y600000D01*
X5967040Y600000D02*
X5052928Y1514112D01*
X4858858Y2998259D02*
X4771454Y2998259D01*
X6457117Y1400000D02*
X4858858Y2998259D01*
X8205000Y1400000D02*
X6457117Y1400000D01*
X4771454Y2998259D02*
X4471455Y3298258D01*
X17944811Y3974811D02*
X18200001Y4230001D01*
X15543744Y3974811D02*
X17944811Y3974811D01*
X13368933Y1800000D02*
X15543744Y3974811D01*
X10845000Y1800000D02*
X13368933Y1800000D01*
X18200001Y4230001D02*
X19050000Y5080000D01*
X20740001Y6770001D02*
X21590000Y7620000D01*
X16013136Y6541399D02*
X20511399Y6541399D01*
X12071737Y2600000D02*
X16013136Y6541399D01*
X20511399Y6541399D02*
X20740001Y6770001D01*
X10845000Y2600000D02*
X12071737Y2600000D01*
X7482600Y2600000D02*
X6745832Y3336768D01*
X6745832Y3336768D02*
X6745832Y3854161D01*
X5114936Y5485057D02*
X4716574Y5485057D01*
X6745832Y3854161D02*
X5114936Y5485057D01*
X8205000Y2600000D02*
X7482600Y2600000D01*
X8205000Y3400000D02*
X7482600Y3400000D01*
X7482600Y3400000D02*
X7050643Y3831957D01*
X7050643Y3831957D02*
X7050643Y3980417D01*
X4850000Y8445736D02*
X4850000Y8870000D01*
X4850000Y6181060D02*
X4850000Y8445736D01*
X7050643Y3980417D02*
X4850000Y6181060D01*
X14745189Y8396256D02*
X15352345Y9003412D01*
X20740001Y9310001D02*
X21590000Y10160000D01*
X20433412Y9003412D02*
X20740001Y9310001D01*
X11978536Y3800000D02*
X14745189Y6566653D01*
X14745189Y6566653D02*
X14745189Y8396256D01*
X10845000Y3800000D02*
X11978536Y3800000D01*
X15352345Y9003412D02*
X20433412Y9003412D01*
X14820766Y-9519103D02*
X14820766Y-11888909D01*
X14028866Y-8727203D02*
X14820766Y-9519103D01*
X11712884Y-5000000D02*
X14028866Y-7315982D01*
X14820766Y-11888909D02*
X15631857Y-12700000D01*
X14028866Y-7315982D02*
X14028866Y-8727203D01*
X10845000Y-5000000D02*
X11712884Y-5000000D01*
X15631857Y-12700000D02*
X16510000Y-12700000D01*
X9095448Y-11433116D02*
X9095448Y-11473188D01*
X8205000Y-4200000D02*
X7491066Y-4200000D01*
X6019244Y-8356912D02*
X9095448Y-11433116D01*
X9095448Y-11473188D02*
X9395447Y-11773187D01*
X6155192Y-5535874D02*
X6155192Y-7049077D01*
X6019244Y-7185024D02*
X6019244Y-8356912D01*
X6155192Y-7049077D02*
X6019244Y-7185024D01*
X7491066Y-4200000D02*
X6155192Y-5535874D01*
X10881399Y-3071399D02*
X11961399Y-3071399D01*
X10845000Y-3035000D02*
X10881399Y-3071399D01*
X10845000Y-3000000D02*
X10845000Y-3035000D01*
X11961399Y-3071399D02*
X16510000Y-7620000D01*
X9452586Y-2200000D02*
X9822586Y-2570000D01*
X8205000Y-2200000D02*
X9452586Y-2200000D01*
X14970000Y-1000000D02*
X16510000Y-2540000D01*
X10845000Y-1000000D02*
X14970000Y-1000000D01*
X8205000Y-200000D02*
X8814902Y-200000D01*
X9141159Y863779D02*
X9424646Y1147266D01*
X8814902Y-200000D02*
X9141159Y126257D01*
X9141159Y126257D02*
X9141159Y863779D01*
X9424646Y1147266D02*
X9724645Y1447265D01*
X14647867Y1000000D02*
X15337868Y1690001D01*
X10845000Y1000000D02*
X14647867Y1000000D01*
X15337868Y1690001D02*
X15660001Y1690001D01*
X15660001Y1690001D02*
X16510000Y2540000D01*
X8205000Y1800000D02*
X7051959Y1800000D01*
X7051959Y1800000D02*
X4806360Y4045599D01*
X10845000Y3000000D02*
X12040670Y3000000D01*
X15660001Y6770001D02*
X16510000Y7620000D01*
X12040670Y3000000D02*
X15660001Y6619331D01*
X15660001Y6619331D02*
X15660001Y6770001D01*
X8205000Y3800000D02*
X7573399Y3800000D01*
X7855728Y10533688D02*
X8279992Y10533688D01*
X7355454Y4106673D02*
X5447411Y6014716D01*
X7573399Y3800000D02*
X7355454Y4017945D01*
X6113688Y10533688D02*
X7855728Y10533688D01*
X7355454Y4017945D02*
X7355454Y4106673D01*
X5447411Y6014716D02*
X5447411Y9867411D01*
X5447411Y9867411D02*
X6113688Y10533688D01*
X-2400000Y-6322400D02*
X-2393700Y-6328700D01*
X-7616106Y-12158602D02*
X-8809917Y-13352413D01*
X-2393700Y-8144523D02*
X-1971167Y-8567055D01*
X-2851801Y-12158602D02*
X-7616106Y-12158602D01*
X-2400000Y-5600000D02*
X-2400000Y-6322400D01*
X-2393700Y-6328700D02*
X-2393700Y-8144523D01*
X-8809917Y-13352413D02*
X-9109916Y-13652412D01*
X-1971167Y-8567055D02*
X-1971167Y-11277968D01*
X-1971167Y-11277968D02*
X-2851801Y-12158602D01*
X-1104811Y2386079D02*
X-1297465Y2578737D01*
X-1297465Y2578737D02*
X-1297461Y4601272D01*
X-1104811Y-2238005D02*
X-1104811Y2386079D01*
X-1104811Y7394811D02*
X-2200001Y8490001D01*
X-1200000Y-2960000D02*
X-1200000Y-2333194D01*
X-1104811Y4793923D02*
X-1104811Y7394811D01*
X-1297461Y4601272D02*
X-1104811Y4793923D01*
X-2200001Y8490001D02*
X-2500000Y8790000D01*
X-1200000Y-2333194D02*
X-1104811Y-2238005D01*
X-5069998Y-15670000D02*
X-5394346Y-15670000D01*
X-1200000Y-5600000D02*
X-1200000Y-8045021D01*
X-1056734Y-11656736D02*
X-5069998Y-15670000D01*
X-1200000Y-8045021D02*
X-1056734Y-8188287D01*
X-1056734Y-8188287D02*
X-1056734Y-11656736D01*
X-5394346Y-15670000D02*
X-5818610Y-15670000D01*
X-800000Y4667667D02*
X-800000Y10060000D01*
X-800000Y2512337D02*
X-992655Y2704992D01*
X-992655Y2704992D02*
X-992652Y4475015D01*
X-992652Y4475015D02*
X-800000Y4667667D01*
X-800000Y-2960000D02*
X-800000Y2512337D01*
X-800000Y10060000D02*
X-1950001Y11210001D01*
X-1950001Y11210001D02*
X-2250000Y11510000D01*
X-1550002Y-4127598D02*
X-1850000Y-4127598D01*
X-800000Y-4877600D02*
X-1550002Y-4127598D01*
X-800000Y-5600000D02*
X-800000Y-4877600D01*
X-407846Y12397846D02*
X-1830001Y13820001D01*
X-407846Y4628753D02*
X-407846Y12397846D01*
X-687845Y2831247D02*
X-687843Y4348757D01*
X-687843Y4348757D02*
X-407846Y4628753D01*
X-400000Y2543402D02*
X-687845Y2831247D01*
X-1830001Y13820001D02*
X-2130000Y14120000D01*
X-400000Y-2960000D02*
X-400000Y2543402D01*
X-400000Y-8090632D02*
X-503757Y-8194389D01*
X-400000Y-5600000D02*
X-400000Y-8090632D01*
X-383035Y2957502D02*
X-383034Y4222499D01*
X0Y4605532D02*
X0Y11740000D01*
X1820001Y13560001D02*
X2120000Y13860000D01*
X0Y-2960000D02*
X0Y2574468D01*
X-383034Y4222499D02*
X0Y4605532D01*
X0Y11740000D02*
X1820001Y13560001D01*
X0Y2574468D02*
X-383035Y2957502D01*
X0Y-5600000D02*
X0Y-8021066D01*
X95189Y-8116255D02*
X95189Y-8429929D01*
X-438259Y-9589941D02*
X-428163Y-9600037D01*
X95189Y-8429929D02*
X-73718Y-8598836D01*
X-163387Y-8598836D02*
X-438259Y-8873708D01*
X-438259Y-8873708D02*
X-438259Y-9589941D01*
X0Y-8021066D02*
X95189Y-8116255D01*
X-73718Y-8598836D02*
X-163387Y-8598836D01*
X-428163Y-9600037D02*
X-128164Y-9900036D01*
X-78224Y3083758D02*
X-78224Y4096242D01*
X2170001Y11320001D02*
X2470000Y11620000D01*
X400000Y2605534D02*
X-78224Y3083758D01*
X381776Y4556241D02*
X381776Y9531776D01*
X400000Y-2960000D02*
X400000Y2605534D01*
X381776Y9531776D02*
X2170001Y11320001D01*
X-78224Y4096242D02*
X381776Y4556241D01*
X400000Y-5600000D02*
X400000Y-8817781D01*
X400000Y-8817781D02*
X90343Y-9127438D01*
X226587Y3969986D02*
X686587Y4429986D01*
X686587Y7326587D02*
X2000001Y8640001D01*
X800000Y-2960000D02*
X800000Y2636601D01*
X686587Y4429986D02*
X686587Y7326587D01*
X2000001Y8640001D02*
X2300000Y8940000D01*
X800000Y2636601D02*
X226587Y3210014D01*
X226587Y3210014D02*
X226587Y3969986D01*
X434301Y-9531049D02*
X434301Y-10121435D01*
X800000Y-5600000D02*
X800000Y-9165350D01*
X330000Y-10225736D02*
X330000Y-10650000D01*
X800000Y-9165350D02*
X434301Y-9531049D01*
X434301Y-10121435D02*
X330000Y-10225736D01*
X1200000Y-2960000D02*
X1200000Y2667668D01*
X531398Y3336270D02*
X531398Y3843730D01*
X1200000Y2667668D02*
X531398Y3336270D01*
X2360000Y5672332D02*
X2360000Y6025736D01*
X2360000Y6025736D02*
X2360000Y6450000D01*
X531398Y3843730D02*
X2360000Y5672332D01*
X1200000Y-9547680D02*
X962902Y-9784778D01*
X1200000Y-5600000D02*
X1200000Y-9547680D01*
X1600000Y-2960000D02*
X1600000Y2950000D01*
X1600000Y2950000D02*
X2640000Y3990000D01*
X1491512Y-10398490D02*
X1409999Y-10480003D01*
X1491512Y-9739952D02*
X1491512Y-10398490D01*
X1506325Y-7526207D02*
X1506325Y-9725139D01*
X1600000Y-5600000D02*
X1600000Y-7432532D01*
X1506325Y-9725139D02*
X1491512Y-9739952D01*
X1409999Y-10480003D02*
X1110000Y-10780002D01*
X1600000Y-7432532D02*
X1506325Y-7526207D01*
X2000000Y880000D02*
X2580000Y1460000D01*
X2000000Y-2960000D02*
X2000000Y880000D01*
X1811136Y-9851395D02*
X1796323Y-9866208D01*
X2000000Y-5600000D02*
X2000000Y-7463599D01*
X1796323Y-9866208D02*
X1796323Y-11632467D01*
X2000000Y-7463599D02*
X1811136Y-7652463D01*
X1811136Y-7652463D02*
X1811136Y-9851395D01*
X1572524Y-11856266D02*
X1572524Y-12280530D01*
X1796323Y-11632467D02*
X1572524Y-11856266D01*
X2400000Y-1253069D02*
X2578886Y-1074183D01*
X2400000Y-2960000D02*
X2400000Y-1253069D01*
X2115947Y-9977651D02*
X2101134Y-9992464D01*
X2101134Y-12792935D02*
X1877335Y-13016734D01*
X2400000Y-7494666D02*
X2115947Y-7778719D01*
X2400000Y-5600000D02*
X2400000Y-7494666D01*
X2101134Y-9992464D02*
X2101134Y-12792935D01*
X2115947Y-7778719D02*
X2115947Y-9977651D01*
X2800000Y-2237600D02*
X3100002Y-1937598D01*
X3100002Y-1937598D02*
X3240000Y-1937598D01*
X2800000Y-2960000D02*
X2800000Y-2237600D01*
X2405945Y-13301280D02*
X2174951Y-13532274D01*
X2800000Y-7525733D02*
X2420758Y-7904975D01*
X2405945Y-10118720D02*
X2405945Y-13301280D01*
X2174951Y-13532274D02*
X2037379Y-13532274D01*
X1762507Y-14367270D02*
X2313395Y-14918158D01*
X2037379Y-13532274D02*
X1762507Y-13807146D01*
X1762507Y-13807146D02*
X1762507Y-14367270D01*
X2313395Y-14918158D02*
X2613394Y-15218157D01*
X2420758Y-7904975D02*
X2420758Y-10103907D01*
X2420758Y-10103907D02*
X2405945Y-10118720D01*
X2800000Y-5600000D02*
X2800000Y-7525733D01*
X3200000Y-4100000D02*
X3180000Y-4120000D01*
X3200000Y-2960000D02*
X3200000Y-4100000D01*
X3200000Y-7556800D02*
X2725569Y-8031231D01*
X2725569Y-8031231D02*
X2725569Y-10230163D01*
X2710756Y-13641227D02*
X2591107Y-13760876D01*
X2591107Y-13760876D02*
X2291108Y-14060875D01*
X2710756Y-10244976D02*
X2710756Y-13641227D01*
X3200000Y-5600000D02*
X3200000Y-7556800D01*
X2725569Y-10230163D02*
X2710756Y-10244976D01*
X3600000Y-3651334D02*
X3980056Y-4031390D01*
X3980056Y-4031390D02*
X4331519Y-4031390D01*
X3600000Y-2960000D02*
X3600000Y-3651334D01*
X3015567Y-14215269D02*
X3360150Y-14559852D01*
X3015567Y-10371232D02*
X3015567Y-14215269D01*
X3600000Y-5600000D02*
X3600000Y-7587867D01*
X3360150Y-14559852D02*
X3660149Y-14859851D01*
X3030380Y-8157487D02*
X3030380Y-10356419D01*
X3600000Y-7587867D02*
X3030380Y-8157487D01*
X3030380Y-10356419D02*
X3015567Y-10371232D01*
X3709999Y-1389999D02*
X3410000Y-1090000D01*
X4000000Y-2960000D02*
X4000000Y-1871318D01*
X4000000Y-1871318D02*
X3709999Y-1581317D01*
X3709999Y-1581317D02*
X3709999Y-1389999D01*
X3320378Y-10497488D02*
X3320378Y-13772512D01*
X4389999Y-14842132D02*
X4389999Y-15470001D01*
X4389999Y-15470001D02*
X4090000Y-15770000D01*
X3350378Y-8817490D02*
X3350378Y-10467488D01*
X3320378Y-13772512D02*
X4389999Y-14842132D01*
X4000000Y-8167868D02*
X3350378Y-8817490D01*
X3350378Y-10467488D02*
X3320378Y-10497488D01*
X4000000Y-5600000D02*
X4000000Y-8167868D01*
X4393117Y-1442052D02*
X4273942Y-1322877D01*
X4393117Y-2230717D02*
X4393117Y-1442052D01*
X4400000Y-2237600D02*
X4393117Y-2230717D01*
X4400000Y-2960000D02*
X4400000Y-2237600D01*
X5210001Y-15231068D02*
X5210001Y-15410001D01*
X5210001Y-15410001D02*
X5510000Y-15710000D01*
X3625189Y-13646256D02*
X5210001Y-15231068D01*
X5510000Y-15710000D02*
X5441216Y-15778784D01*
X3655189Y-10593744D02*
X3625189Y-10623744D01*
X3655189Y-9693745D02*
X3655189Y-10593744D01*
X4400000Y-5600000D02*
X4400000Y-8948934D01*
X3625189Y-10623744D02*
X3625189Y-13646256D01*
X4400000Y-8948934D02*
X3655189Y-9693745D01*
X4697928Y-1681221D02*
X4802543Y-1576606D01*
X4552412Y-433582D02*
X4552412Y-9318D01*
X4802543Y-1576606D02*
X4802543Y-683713D01*
X4697928Y-2009632D02*
X4697928Y-1681221D01*
X4800000Y-2960000D02*
X4800000Y-2111704D01*
X4800000Y-2111704D02*
X4697928Y-2009632D01*
X4802543Y-683713D02*
X4552412Y-433582D01*
X4800000Y-5600000D02*
X4800000Y-8980000D01*
X4800000Y-8980000D02*
X4130000Y-9650000D01*
X4130000Y-9650000D02*
X4130000Y-10550000D01*
X4130000Y-10550000D02*
X3930000Y-10750000D01*
X3930000Y-10750000D02*
X3930000Y-13520000D01*
X6640000Y-16230000D02*
X6650000Y-16230000D01*
X3930000Y-13520000D02*
X6640000Y-16230000D01*
M02*
