G04 #@! TF.GenerationSoftware,KiCad,Pcbnew,5.1.7-a382d34a8~87~ubuntu18.04.1*
G04 #@! TF.CreationDate,2020-10-22T16:54:02+03:00*
G04 #@! TF.ProjectId,FreeSmart157AAC_29mm_devboard_5r_smd,46726565-536d-4617-9274-313537414143,rev?*
G04 #@! TF.SameCoordinates,Original*
G04 #@! TF.FileFunction,Legend,Bot*
G04 #@! TF.FilePolarity,Positive*
%FSLAX46Y46*%
G04 Gerber Fmt 4.6, Leading zero omitted, Abs format (unit mm)*
G04 Created by KiCad (PCBNEW 5.1.7-a382d34a8~87~ubuntu18.04.1) date 2020-10-22 16:54:02*
%MOMM*%
%LPD*%
G01*
G04 APERTURE LIST*
%ADD10C,0.120000*%
%ADD11C,0.150000*%
%ADD12C,0.125000*%
G04 APERTURE END LIST*
D10*
X2600000Y13460000D02*
X2600000Y14480000D01*
X-2600000Y13460000D02*
X-2600000Y14480000D01*
X2600000Y10920000D02*
X2600000Y11940000D01*
X-2600000Y10920000D02*
X-2600000Y11940000D01*
X2600000Y8380000D02*
X2600000Y9400000D01*
X-2600000Y8380000D02*
X-2600000Y9400000D01*
X2600000Y5840000D02*
X2600000Y6860000D01*
X-2600000Y5840000D02*
X-2600000Y6860000D01*
X2600000Y3300000D02*
X2600000Y4320000D01*
X-2600000Y3300000D02*
X-2600000Y4320000D01*
X2600000Y760000D02*
X2600000Y1780000D01*
X-2600000Y760000D02*
X-2600000Y1780000D01*
X2600000Y-1780000D02*
X2600000Y-760000D01*
X-2600000Y-1780000D02*
X-2600000Y-760000D01*
X2600000Y-4320000D02*
X2600000Y-3300000D01*
X-2600000Y-4320000D02*
X-2600000Y-3300000D01*
X2600000Y-6860000D02*
X2600000Y-5840000D01*
X-2600000Y-6860000D02*
X-2600000Y-5840000D01*
X2600000Y16000000D02*
X2600000Y16570000D01*
X-2600000Y16000000D02*
X-2600000Y16570000D01*
X2600000Y-8950000D02*
X2600000Y-8380000D01*
X-2600000Y-8950000D02*
X-2600000Y-8380000D01*
X-4040000Y-8380000D02*
X-2600000Y-8380000D01*
X-2600000Y16570000D02*
X2600000Y16570000D01*
X-2600000Y-8950000D02*
X2600000Y-8950000D01*
X12760000Y5840000D02*
X12760000Y6860000D01*
X7560000Y5840000D02*
X7560000Y6860000D01*
X12760000Y3300000D02*
X12760000Y4320000D01*
X7560000Y3300000D02*
X7560000Y4320000D01*
X12760000Y760000D02*
X12760000Y1780000D01*
X7560000Y760000D02*
X7560000Y1780000D01*
X12760000Y-1780000D02*
X12760000Y-760000D01*
X7560000Y-1780000D02*
X7560000Y-760000D01*
X12760000Y-4320000D02*
X12760000Y-3300000D01*
X7560000Y-4320000D02*
X7560000Y-3300000D01*
X12760000Y-6860000D02*
X12760000Y-5840000D01*
X7560000Y-6860000D02*
X7560000Y-5840000D01*
X12760000Y-9400000D02*
X12760000Y-8380000D01*
X7560000Y-9400000D02*
X7560000Y-8380000D01*
X12760000Y-11940000D02*
X12760000Y-10920000D01*
X7560000Y-11940000D02*
X7560000Y-10920000D01*
X12760000Y-14480000D02*
X12760000Y-13460000D01*
X7560000Y-14480000D02*
X7560000Y-13460000D01*
X12760000Y8380000D02*
X12760000Y8950000D01*
X7560000Y8380000D02*
X7560000Y8950000D01*
X12760000Y-16570000D02*
X12760000Y-16000000D01*
X7560000Y-16570000D02*
X7560000Y-16000000D01*
X6120000Y-16000000D02*
X7560000Y-16000000D01*
X7560000Y8950000D02*
X12760000Y8950000D01*
X7560000Y-16570000D02*
X12760000Y-16570000D01*
X28000000Y19110000D02*
X26670000Y19110000D01*
X28000000Y17780000D02*
X28000000Y19110000D01*
X28000000Y16510000D02*
X25340000Y16510000D01*
X25340000Y16510000D02*
X25340000Y-19110000D01*
X28000000Y16510000D02*
X28000000Y-19110000D01*
X28000000Y-19110000D02*
X25340000Y-19110000D01*
X25460000Y19110000D02*
X24130000Y19110000D01*
X25460000Y17780000D02*
X25460000Y19110000D01*
X25460000Y16510000D02*
X22800000Y16510000D01*
X22800000Y16510000D02*
X22800000Y-19110000D01*
X25460000Y16510000D02*
X25460000Y-19110000D01*
X25460000Y-19110000D02*
X22800000Y-19110000D01*
X22920000Y19110000D02*
X21590000Y19110000D01*
X22920000Y17780000D02*
X22920000Y19110000D01*
X22920000Y16510000D02*
X20260000Y16510000D01*
X20260000Y16510000D02*
X20260000Y-19110000D01*
X22920000Y16510000D02*
X22920000Y-19110000D01*
X22920000Y-19110000D02*
X20260000Y-19110000D01*
X20380000Y19110000D02*
X19050000Y19110000D01*
X20380000Y17780000D02*
X20380000Y19110000D01*
X20380000Y16510000D02*
X17720000Y16510000D01*
X17720000Y16510000D02*
X17720000Y-19110000D01*
X20380000Y16510000D02*
X20380000Y-19110000D01*
X20380000Y-19110000D02*
X17720000Y-19110000D01*
X17840000Y19110000D02*
X16510000Y19110000D01*
X17840000Y17780000D02*
X17840000Y19110000D01*
X17840000Y16510000D02*
X15180000Y16510000D01*
X15180000Y16510000D02*
X15180000Y-19110000D01*
X17840000Y16510000D02*
X17840000Y-19110000D01*
X17840000Y-19110000D02*
X15180000Y-19110000D01*
X-7560000Y5840000D02*
X-7560000Y6860000D01*
X-12760000Y5840000D02*
X-12760000Y6860000D01*
X-7560000Y3300000D02*
X-7560000Y4320000D01*
X-12760000Y3300000D02*
X-12760000Y4320000D01*
X-7560000Y760000D02*
X-7560000Y1780000D01*
X-12760000Y760000D02*
X-12760000Y1780000D01*
X-7560000Y-1780000D02*
X-7560000Y-760000D01*
X-12760000Y-1780000D02*
X-12760000Y-760000D01*
X-7560000Y-4320000D02*
X-7560000Y-3300000D01*
X-12760000Y-4320000D02*
X-12760000Y-3300000D01*
X-7560000Y-6860000D02*
X-7560000Y-5840000D01*
X-12760000Y-6860000D02*
X-12760000Y-5840000D01*
X-7560000Y-9400000D02*
X-7560000Y-8380000D01*
X-12760000Y-9400000D02*
X-12760000Y-8380000D01*
X-7560000Y-11940000D02*
X-7560000Y-10920000D01*
X-12760000Y-11940000D02*
X-12760000Y-10920000D01*
X-7560000Y-14480000D02*
X-7560000Y-13460000D01*
X-12760000Y-14480000D02*
X-12760000Y-13460000D01*
X-7560000Y8380000D02*
X-7560000Y8950000D01*
X-12760000Y8380000D02*
X-12760000Y8950000D01*
X-7560000Y-16570000D02*
X-7560000Y-16000000D01*
X-12760000Y-16570000D02*
X-12760000Y-16000000D01*
X-14200000Y-16000000D02*
X-12760000Y-16000000D01*
X-12760000Y8950000D02*
X-7560000Y8950000D01*
X-12760000Y-16570000D02*
X-7560000Y-16570000D01*
X-25340000Y19110000D02*
X-26670000Y19110000D01*
X-25340000Y17780000D02*
X-25340000Y19110000D01*
X-25340000Y16510000D02*
X-28000000Y16510000D01*
X-28000000Y16510000D02*
X-28000000Y-19110000D01*
X-25340000Y16510000D02*
X-25340000Y-19110000D01*
X-25340000Y-19110000D02*
X-28000000Y-19110000D01*
X-22800000Y19110000D02*
X-24130000Y19110000D01*
X-22800000Y17780000D02*
X-22800000Y19110000D01*
X-22800000Y16510000D02*
X-25460000Y16510000D01*
X-25460000Y16510000D02*
X-25460000Y-19110000D01*
X-22800000Y16510000D02*
X-22800000Y-19110000D01*
X-22800000Y-19110000D02*
X-25460000Y-19110000D01*
X-20260000Y19110000D02*
X-21590000Y19110000D01*
X-20260000Y17780000D02*
X-20260000Y19110000D01*
X-20260000Y16510000D02*
X-22920000Y16510000D01*
X-22920000Y16510000D02*
X-22920000Y-19110000D01*
X-20260000Y16510000D02*
X-20260000Y-19110000D01*
X-20260000Y-19110000D02*
X-22920000Y-19110000D01*
X-17720000Y19110000D02*
X-19050000Y19110000D01*
X-17720000Y17780000D02*
X-17720000Y19110000D01*
X-17720000Y16510000D02*
X-20380000Y16510000D01*
X-20380000Y16510000D02*
X-20380000Y-19110000D01*
X-17720000Y16510000D02*
X-17720000Y-19110000D01*
X-17720000Y-19110000D02*
X-20380000Y-19110000D01*
X-15180000Y-19110000D02*
X-17840000Y-19110000D01*
X-15180000Y16510000D02*
X-15180000Y-19110000D01*
X-17840000Y16510000D02*
X-17840000Y-19110000D01*
X-15180000Y16510000D02*
X-17840000Y16510000D01*
X-15180000Y17780000D02*
X-15180000Y19110000D01*
X-15180000Y19110000D02*
X-16510000Y19110000D01*
D11*
X809523Y-9402380D02*
X809523Y-10116666D01*
X857142Y-10259523D01*
X952380Y-10354761D01*
X1095238Y-10402380D01*
X1190476Y-10402380D01*
X-190476Y-10402380D02*
X380952Y-10402380D01*
X95238Y-10402380D02*
X95238Y-9402380D01*
X190476Y-9545238D01*
X285714Y-9640476D01*
X380952Y-9688095D01*
X-1095238Y-9402380D02*
X-619047Y-9402380D01*
X-571428Y-9878571D01*
X-619047Y-9830952D01*
X-714285Y-9783333D01*
X-952380Y-9783333D01*
X-1047619Y-9830952D01*
X-1095238Y-9878571D01*
X-1142857Y-9973809D01*
X-1142857Y-10211904D01*
X-1095238Y-10307142D01*
X-1047619Y-10354761D01*
X-952380Y-10402380D01*
X-714285Y-10402380D01*
X-619047Y-10354761D01*
X-571428Y-10307142D01*
X10969523Y-17022380D02*
X10969523Y-17736666D01*
X11017142Y-17879523D01*
X11112380Y-17974761D01*
X11255238Y-18022380D01*
X11350476Y-18022380D01*
X9969523Y-18022380D02*
X10540952Y-18022380D01*
X10255238Y-18022380D02*
X10255238Y-17022380D01*
X10350476Y-17165238D01*
X10445714Y-17260476D01*
X10540952Y-17308095D01*
X9112380Y-17022380D02*
X9302857Y-17022380D01*
X9398095Y-17070000D01*
X9445714Y-17117619D01*
X9540952Y-17260476D01*
X9588571Y-17450952D01*
X9588571Y-17831904D01*
X9540952Y-17927142D01*
X9493333Y-17974761D01*
X9398095Y-18022380D01*
X9207619Y-18022380D01*
X9112380Y-17974761D01*
X9064761Y-17927142D01*
X9017142Y-17831904D01*
X9017142Y-17593809D01*
X9064761Y-17498571D01*
X9112380Y-17450952D01*
X9207619Y-17403333D01*
X9398095Y-17403333D01*
X9493333Y-17450952D01*
X9540952Y-17498571D01*
X9588571Y-17593809D01*
D12*
X26836666Y19958809D02*
X26836666Y19601666D01*
X26860476Y19530238D01*
X26908095Y19482619D01*
X26979523Y19458809D01*
X27027142Y19458809D01*
X26384285Y19792142D02*
X26384285Y19458809D01*
X26503333Y19982619D02*
X26622380Y19625476D01*
X26312857Y19625476D01*
X24296666Y19958809D02*
X24296666Y19601666D01*
X24320476Y19530238D01*
X24368095Y19482619D01*
X24439523Y19458809D01*
X24487142Y19458809D01*
X23820476Y19958809D02*
X24058571Y19958809D01*
X24082380Y19720714D01*
X24058571Y19744523D01*
X24010952Y19768333D01*
X23891904Y19768333D01*
X23844285Y19744523D01*
X23820476Y19720714D01*
X23796666Y19673095D01*
X23796666Y19554047D01*
X23820476Y19506428D01*
X23844285Y19482619D01*
X23891904Y19458809D01*
X24010952Y19458809D01*
X24058571Y19482619D01*
X24082380Y19506428D01*
X21756666Y19958809D02*
X21756666Y19601666D01*
X21780476Y19530238D01*
X21828095Y19482619D01*
X21899523Y19458809D01*
X21947142Y19458809D01*
X21304285Y19958809D02*
X21399523Y19958809D01*
X21447142Y19935000D01*
X21470952Y19911190D01*
X21518571Y19839761D01*
X21542380Y19744523D01*
X21542380Y19554047D01*
X21518571Y19506428D01*
X21494761Y19482619D01*
X21447142Y19458809D01*
X21351904Y19458809D01*
X21304285Y19482619D01*
X21280476Y19506428D01*
X21256666Y19554047D01*
X21256666Y19673095D01*
X21280476Y19720714D01*
X21304285Y19744523D01*
X21351904Y19768333D01*
X21447142Y19768333D01*
X21494761Y19744523D01*
X21518571Y19720714D01*
X21542380Y19673095D01*
X19216666Y19958809D02*
X19216666Y19601666D01*
X19240476Y19530238D01*
X19288095Y19482619D01*
X19359523Y19458809D01*
X19407142Y19458809D01*
X19026190Y19958809D02*
X18692857Y19958809D01*
X18907142Y19458809D01*
X16676666Y19958809D02*
X16676666Y19601666D01*
X16700476Y19530238D01*
X16748095Y19482619D01*
X16819523Y19458809D01*
X16867142Y19458809D01*
X16367142Y19744523D02*
X16414761Y19768333D01*
X16438571Y19792142D01*
X16462380Y19839761D01*
X16462380Y19863571D01*
X16438571Y19911190D01*
X16414761Y19935000D01*
X16367142Y19958809D01*
X16271904Y19958809D01*
X16224285Y19935000D01*
X16200476Y19911190D01*
X16176666Y19863571D01*
X16176666Y19839761D01*
X16200476Y19792142D01*
X16224285Y19768333D01*
X16271904Y19744523D01*
X16367142Y19744523D01*
X16414761Y19720714D01*
X16438571Y19696904D01*
X16462380Y19649285D01*
X16462380Y19554047D01*
X16438571Y19506428D01*
X16414761Y19482619D01*
X16367142Y19458809D01*
X16271904Y19458809D01*
X16224285Y19482619D01*
X16200476Y19506428D01*
X16176666Y19554047D01*
X16176666Y19649285D01*
X16200476Y19696904D01*
X16224285Y19720714D01*
X16271904Y19744523D01*
D11*
X-9350476Y-17022380D02*
X-9350476Y-17736666D01*
X-9302857Y-17879523D01*
X-9207619Y-17974761D01*
X-9064761Y-18022380D01*
X-8969523Y-18022380D01*
X-10350476Y-18022380D02*
X-9779047Y-18022380D01*
X-10064761Y-18022380D02*
X-10064761Y-17022380D01*
X-9969523Y-17165238D01*
X-9874285Y-17260476D01*
X-9779047Y-17308095D01*
X-11207619Y-17355714D02*
X-11207619Y-18022380D01*
X-10969523Y-16974761D02*
X-10731428Y-17689047D01*
X-11350476Y-17689047D01*
D12*
X-26265238Y19958809D02*
X-26265238Y19601666D01*
X-26241428Y19530238D01*
X-26193809Y19482619D01*
X-26122380Y19458809D01*
X-26074761Y19458809D01*
X-26765238Y19458809D02*
X-26479523Y19458809D01*
X-26622380Y19458809D02*
X-26622380Y19958809D01*
X-26574761Y19887380D01*
X-26527142Y19839761D01*
X-26479523Y19815952D01*
X-26931904Y19958809D02*
X-27241428Y19958809D01*
X-27074761Y19768333D01*
X-27146190Y19768333D01*
X-27193809Y19744523D01*
X-27217619Y19720714D01*
X-27241428Y19673095D01*
X-27241428Y19554047D01*
X-27217619Y19506428D01*
X-27193809Y19482619D01*
X-27146190Y19458809D01*
X-27003333Y19458809D01*
X-26955714Y19482619D01*
X-26931904Y19506428D01*
X-23725238Y19958809D02*
X-23725238Y19601666D01*
X-23701428Y19530238D01*
X-23653809Y19482619D01*
X-23582380Y19458809D01*
X-23534761Y19458809D01*
X-24225238Y19458809D02*
X-23939523Y19458809D01*
X-24082380Y19458809D02*
X-24082380Y19958809D01*
X-24034761Y19887380D01*
X-23987142Y19839761D01*
X-23939523Y19815952D01*
X-24415714Y19911190D02*
X-24439523Y19935000D01*
X-24487142Y19958809D01*
X-24606190Y19958809D01*
X-24653809Y19935000D01*
X-24677619Y19911190D01*
X-24701428Y19863571D01*
X-24701428Y19815952D01*
X-24677619Y19744523D01*
X-24391904Y19458809D01*
X-24701428Y19458809D01*
X-21185238Y19958809D02*
X-21185238Y19601666D01*
X-21161428Y19530238D01*
X-21113809Y19482619D01*
X-21042380Y19458809D01*
X-20994761Y19458809D01*
X-21685238Y19458809D02*
X-21399523Y19458809D01*
X-21542380Y19458809D02*
X-21542380Y19958809D01*
X-21494761Y19887380D01*
X-21447142Y19839761D01*
X-21399523Y19815952D01*
X-22161428Y19458809D02*
X-21875714Y19458809D01*
X-22018571Y19458809D02*
X-22018571Y19958809D01*
X-21970952Y19887380D01*
X-21923333Y19839761D01*
X-21875714Y19815952D01*
X-18645238Y19958809D02*
X-18645238Y19601666D01*
X-18621428Y19530238D01*
X-18573809Y19482619D01*
X-18502380Y19458809D01*
X-18454761Y19458809D01*
X-19145238Y19458809D02*
X-18859523Y19458809D01*
X-19002380Y19458809D02*
X-19002380Y19958809D01*
X-18954761Y19887380D01*
X-18907142Y19839761D01*
X-18859523Y19815952D01*
X-19454761Y19958809D02*
X-19502380Y19958809D01*
X-19550000Y19935000D01*
X-19573809Y19911190D01*
X-19597619Y19863571D01*
X-19621428Y19768333D01*
X-19621428Y19649285D01*
X-19597619Y19554047D01*
X-19573809Y19506428D01*
X-19550000Y19482619D01*
X-19502380Y19458809D01*
X-19454761Y19458809D01*
X-19407142Y19482619D01*
X-19383333Y19506428D01*
X-19359523Y19554047D01*
X-19335714Y19649285D01*
X-19335714Y19768333D01*
X-19359523Y19863571D01*
X-19383333Y19911190D01*
X-19407142Y19935000D01*
X-19454761Y19958809D01*
X-16343333Y19958809D02*
X-16343333Y19601666D01*
X-16319523Y19530238D01*
X-16271904Y19482619D01*
X-16200476Y19458809D01*
X-16152857Y19458809D01*
X-16605238Y19458809D02*
X-16700476Y19458809D01*
X-16748095Y19482619D01*
X-16771904Y19506428D01*
X-16819523Y19577857D01*
X-16843333Y19673095D01*
X-16843333Y19863571D01*
X-16819523Y19911190D01*
X-16795714Y19935000D01*
X-16748095Y19958809D01*
X-16652857Y19958809D01*
X-16605238Y19935000D01*
X-16581428Y19911190D01*
X-16557619Y19863571D01*
X-16557619Y19744523D01*
X-16581428Y19696904D01*
X-16605238Y19673095D01*
X-16652857Y19649285D01*
X-16748095Y19649285D01*
X-16795714Y19673095D01*
X-16819523Y19696904D01*
X-16843333Y19744523D01*
M02*
