G04 #@! TF.GenerationSoftware,KiCad,Pcbnew,5.1.7-a382d34a8~87~ubuntu18.04.1*
G04 #@! TF.CreationDate,2020-10-22T16:54:02+03:00*
G04 #@! TF.ProjectId,FreeSmart157AAC_29mm_devboard_5r_smd,46726565-536d-4617-9274-313537414143,rev?*
G04 #@! TF.SameCoordinates,Original*
G04 #@! TF.FileFunction,Soldermask,Top*
G04 #@! TF.FilePolarity,Negative*
%FSLAX46Y46*%
G04 Gerber Fmt 4.6, Leading zero omitted, Abs format (unit mm)*
G04 Created by KiCad (PCBNEW 5.1.7-a382d34a8~87~ubuntu18.04.1) date 2020-10-22 16:54:02*
%MOMM*%
%LPD*%
G01*
G04 APERTURE LIST*
%ADD10C,2.302000*%
%ADD11O,1.802000X1.802000*%
%ADD12C,0.100000*%
G04 APERTURE END LIST*
D10*
X7000000Y-18500000D03*
X-7000000Y-18500000D03*
X7000000Y18500000D03*
X-7000000Y18500000D03*
D11*
X26670000Y-17780000D03*
X26670000Y-15240000D03*
X26670000Y-12700000D03*
X26670000Y-10160000D03*
X26670000Y-7620000D03*
X26670000Y-5080000D03*
X26670000Y-2540000D03*
X26670000Y0D03*
X26670000Y2540000D03*
X26670000Y5080000D03*
X26670000Y7620000D03*
X26670000Y10160000D03*
X26670000Y12700000D03*
X26670000Y15240000D03*
G36*
G01*
X27571000Y18630000D02*
X27571000Y16930000D01*
G75*
G02*
X27520000Y16879000I-51000J0D01*
G01*
X25820000Y16879000D01*
G75*
G02*
X25769000Y16930000I0J51000D01*
G01*
X25769000Y18630000D01*
G75*
G02*
X25820000Y18681000I51000J0D01*
G01*
X27520000Y18681000D01*
G75*
G02*
X27571000Y18630000I0J-51000D01*
G01*
G37*
X24130000Y-17780000D03*
X24130000Y-15240000D03*
X24130000Y-12700000D03*
X24130000Y-10160000D03*
X24130000Y-7620000D03*
X24130000Y-5080000D03*
X24130000Y-2540000D03*
X24130000Y0D03*
X24130000Y2540000D03*
X24130000Y5080000D03*
X24130000Y7620000D03*
X24130000Y10160000D03*
X24130000Y12700000D03*
X24130000Y15240000D03*
G36*
G01*
X25031000Y18630000D02*
X25031000Y16930000D01*
G75*
G02*
X24980000Y16879000I-51000J0D01*
G01*
X23280000Y16879000D01*
G75*
G02*
X23229000Y16930000I0J51000D01*
G01*
X23229000Y18630000D01*
G75*
G02*
X23280000Y18681000I51000J0D01*
G01*
X24980000Y18681000D01*
G75*
G02*
X25031000Y18630000I0J-51000D01*
G01*
G37*
X21590000Y-17780000D03*
X21590000Y-15240000D03*
X21590000Y-12700000D03*
X21590000Y-10160000D03*
X21590000Y-7620000D03*
X21590000Y-5080000D03*
X21590000Y-2540000D03*
X21590000Y0D03*
X21590000Y2540000D03*
X21590000Y5080000D03*
X21590000Y7620000D03*
X21590000Y10160000D03*
X21590000Y12700000D03*
X21590000Y15240000D03*
G36*
G01*
X22491000Y18630000D02*
X22491000Y16930000D01*
G75*
G02*
X22440000Y16879000I-51000J0D01*
G01*
X20740000Y16879000D01*
G75*
G02*
X20689000Y16930000I0J51000D01*
G01*
X20689000Y18630000D01*
G75*
G02*
X20740000Y18681000I51000J0D01*
G01*
X22440000Y18681000D01*
G75*
G02*
X22491000Y18630000I0J-51000D01*
G01*
G37*
X19050000Y-17780000D03*
X19050000Y-15240000D03*
X19050000Y-12700000D03*
X19050000Y-10160000D03*
X19050000Y-7620000D03*
X19050000Y-5080000D03*
X19050000Y-2540000D03*
X19050000Y0D03*
X19050000Y2540000D03*
X19050000Y5080000D03*
X19050000Y7620000D03*
X19050000Y10160000D03*
X19050000Y12700000D03*
X19050000Y15240000D03*
G36*
G01*
X19951000Y18630000D02*
X19951000Y16930000D01*
G75*
G02*
X19900000Y16879000I-51000J0D01*
G01*
X18200000Y16879000D01*
G75*
G02*
X18149000Y16930000I0J51000D01*
G01*
X18149000Y18630000D01*
G75*
G02*
X18200000Y18681000I51000J0D01*
G01*
X19900000Y18681000D01*
G75*
G02*
X19951000Y18630000I0J-51000D01*
G01*
G37*
G36*
G01*
X4649000Y-3530000D02*
X4649000Y-2390000D01*
G75*
G02*
X4700000Y-2339000I51000J0D01*
G01*
X4900000Y-2339000D01*
G75*
G02*
X4951000Y-2390000I0J-51000D01*
G01*
X4951000Y-3530000D01*
G75*
G02*
X4900000Y-3581000I-51000J0D01*
G01*
X4700000Y-3581000D01*
G75*
G02*
X4649000Y-3530000I0J51000D01*
G01*
G37*
G36*
G01*
X4649000Y-6170000D02*
X4649000Y-5030000D01*
G75*
G02*
X4700000Y-4979000I51000J0D01*
G01*
X4900000Y-4979000D01*
G75*
G02*
X4951000Y-5030000I0J-51000D01*
G01*
X4951000Y-6170000D01*
G75*
G02*
X4900000Y-6221000I-51000J0D01*
G01*
X4700000Y-6221000D01*
G75*
G02*
X4649000Y-6170000I0J51000D01*
G01*
G37*
G36*
G01*
X4249000Y-3530000D02*
X4249000Y-2390000D01*
G75*
G02*
X4300000Y-2339000I51000J0D01*
G01*
X4500000Y-2339000D01*
G75*
G02*
X4551000Y-2390000I0J-51000D01*
G01*
X4551000Y-3530000D01*
G75*
G02*
X4500000Y-3581000I-51000J0D01*
G01*
X4300000Y-3581000D01*
G75*
G02*
X4249000Y-3530000I0J51000D01*
G01*
G37*
G36*
G01*
X4249000Y-6170000D02*
X4249000Y-5030000D01*
G75*
G02*
X4300000Y-4979000I51000J0D01*
G01*
X4500000Y-4979000D01*
G75*
G02*
X4551000Y-5030000I0J-51000D01*
G01*
X4551000Y-6170000D01*
G75*
G02*
X4500000Y-6221000I-51000J0D01*
G01*
X4300000Y-6221000D01*
G75*
G02*
X4249000Y-6170000I0J51000D01*
G01*
G37*
G36*
G01*
X3849000Y-3530000D02*
X3849000Y-2390000D01*
G75*
G02*
X3900000Y-2339000I51000J0D01*
G01*
X4100000Y-2339000D01*
G75*
G02*
X4151000Y-2390000I0J-51000D01*
G01*
X4151000Y-3530000D01*
G75*
G02*
X4100000Y-3581000I-51000J0D01*
G01*
X3900000Y-3581000D01*
G75*
G02*
X3849000Y-3530000I0J51000D01*
G01*
G37*
G36*
G01*
X3849000Y-6170000D02*
X3849000Y-5030000D01*
G75*
G02*
X3900000Y-4979000I51000J0D01*
G01*
X4100000Y-4979000D01*
G75*
G02*
X4151000Y-5030000I0J-51000D01*
G01*
X4151000Y-6170000D01*
G75*
G02*
X4100000Y-6221000I-51000J0D01*
G01*
X3900000Y-6221000D01*
G75*
G02*
X3849000Y-6170000I0J51000D01*
G01*
G37*
G36*
G01*
X3449000Y-3530000D02*
X3449000Y-2390000D01*
G75*
G02*
X3500000Y-2339000I51000J0D01*
G01*
X3700000Y-2339000D01*
G75*
G02*
X3751000Y-2390000I0J-51000D01*
G01*
X3751000Y-3530000D01*
G75*
G02*
X3700000Y-3581000I-51000J0D01*
G01*
X3500000Y-3581000D01*
G75*
G02*
X3449000Y-3530000I0J51000D01*
G01*
G37*
G36*
G01*
X3449000Y-6170000D02*
X3449000Y-5030000D01*
G75*
G02*
X3500000Y-4979000I51000J0D01*
G01*
X3700000Y-4979000D01*
G75*
G02*
X3751000Y-5030000I0J-51000D01*
G01*
X3751000Y-6170000D01*
G75*
G02*
X3700000Y-6221000I-51000J0D01*
G01*
X3500000Y-6221000D01*
G75*
G02*
X3449000Y-6170000I0J51000D01*
G01*
G37*
G36*
G01*
X3049000Y-3530000D02*
X3049000Y-2390000D01*
G75*
G02*
X3100000Y-2339000I51000J0D01*
G01*
X3300000Y-2339000D01*
G75*
G02*
X3351000Y-2390000I0J-51000D01*
G01*
X3351000Y-3530000D01*
G75*
G02*
X3300000Y-3581000I-51000J0D01*
G01*
X3100000Y-3581000D01*
G75*
G02*
X3049000Y-3530000I0J51000D01*
G01*
G37*
G36*
G01*
X3049000Y-6170000D02*
X3049000Y-5030000D01*
G75*
G02*
X3100000Y-4979000I51000J0D01*
G01*
X3300000Y-4979000D01*
G75*
G02*
X3351000Y-5030000I0J-51000D01*
G01*
X3351000Y-6170000D01*
G75*
G02*
X3300000Y-6221000I-51000J0D01*
G01*
X3100000Y-6221000D01*
G75*
G02*
X3049000Y-6170000I0J51000D01*
G01*
G37*
G36*
G01*
X2649000Y-3530000D02*
X2649000Y-2390000D01*
G75*
G02*
X2700000Y-2339000I51000J0D01*
G01*
X2900000Y-2339000D01*
G75*
G02*
X2951000Y-2390000I0J-51000D01*
G01*
X2951000Y-3530000D01*
G75*
G02*
X2900000Y-3581000I-51000J0D01*
G01*
X2700000Y-3581000D01*
G75*
G02*
X2649000Y-3530000I0J51000D01*
G01*
G37*
G36*
G01*
X2649000Y-6170000D02*
X2649000Y-5030000D01*
G75*
G02*
X2700000Y-4979000I51000J0D01*
G01*
X2900000Y-4979000D01*
G75*
G02*
X2951000Y-5030000I0J-51000D01*
G01*
X2951000Y-6170000D01*
G75*
G02*
X2900000Y-6221000I-51000J0D01*
G01*
X2700000Y-6221000D01*
G75*
G02*
X2649000Y-6170000I0J51000D01*
G01*
G37*
G36*
G01*
X2249000Y-3530000D02*
X2249000Y-2390000D01*
G75*
G02*
X2300000Y-2339000I51000J0D01*
G01*
X2500000Y-2339000D01*
G75*
G02*
X2551000Y-2390000I0J-51000D01*
G01*
X2551000Y-3530000D01*
G75*
G02*
X2500000Y-3581000I-51000J0D01*
G01*
X2300000Y-3581000D01*
G75*
G02*
X2249000Y-3530000I0J51000D01*
G01*
G37*
G36*
G01*
X2249000Y-6170000D02*
X2249000Y-5030000D01*
G75*
G02*
X2300000Y-4979000I51000J0D01*
G01*
X2500000Y-4979000D01*
G75*
G02*
X2551000Y-5030000I0J-51000D01*
G01*
X2551000Y-6170000D01*
G75*
G02*
X2500000Y-6221000I-51000J0D01*
G01*
X2300000Y-6221000D01*
G75*
G02*
X2249000Y-6170000I0J51000D01*
G01*
G37*
G36*
G01*
X1849000Y-3530000D02*
X1849000Y-2390000D01*
G75*
G02*
X1900000Y-2339000I51000J0D01*
G01*
X2100000Y-2339000D01*
G75*
G02*
X2151000Y-2390000I0J-51000D01*
G01*
X2151000Y-3530000D01*
G75*
G02*
X2100000Y-3581000I-51000J0D01*
G01*
X1900000Y-3581000D01*
G75*
G02*
X1849000Y-3530000I0J51000D01*
G01*
G37*
G36*
G01*
X1849000Y-6170000D02*
X1849000Y-5030000D01*
G75*
G02*
X1900000Y-4979000I51000J0D01*
G01*
X2100000Y-4979000D01*
G75*
G02*
X2151000Y-5030000I0J-51000D01*
G01*
X2151000Y-6170000D01*
G75*
G02*
X2100000Y-6221000I-51000J0D01*
G01*
X1900000Y-6221000D01*
G75*
G02*
X1849000Y-6170000I0J51000D01*
G01*
G37*
G36*
G01*
X1449000Y-3530000D02*
X1449000Y-2390000D01*
G75*
G02*
X1500000Y-2339000I51000J0D01*
G01*
X1700000Y-2339000D01*
G75*
G02*
X1751000Y-2390000I0J-51000D01*
G01*
X1751000Y-3530000D01*
G75*
G02*
X1700000Y-3581000I-51000J0D01*
G01*
X1500000Y-3581000D01*
G75*
G02*
X1449000Y-3530000I0J51000D01*
G01*
G37*
G36*
G01*
X1449000Y-6170000D02*
X1449000Y-5030000D01*
G75*
G02*
X1500000Y-4979000I51000J0D01*
G01*
X1700000Y-4979000D01*
G75*
G02*
X1751000Y-5030000I0J-51000D01*
G01*
X1751000Y-6170000D01*
G75*
G02*
X1700000Y-6221000I-51000J0D01*
G01*
X1500000Y-6221000D01*
G75*
G02*
X1449000Y-6170000I0J51000D01*
G01*
G37*
G36*
G01*
X1049000Y-3530000D02*
X1049000Y-2390000D01*
G75*
G02*
X1100000Y-2339000I51000J0D01*
G01*
X1300000Y-2339000D01*
G75*
G02*
X1351000Y-2390000I0J-51000D01*
G01*
X1351000Y-3530000D01*
G75*
G02*
X1300000Y-3581000I-51000J0D01*
G01*
X1100000Y-3581000D01*
G75*
G02*
X1049000Y-3530000I0J51000D01*
G01*
G37*
G36*
G01*
X1049000Y-6170000D02*
X1049000Y-5030000D01*
G75*
G02*
X1100000Y-4979000I51000J0D01*
G01*
X1300000Y-4979000D01*
G75*
G02*
X1351000Y-5030000I0J-51000D01*
G01*
X1351000Y-6170000D01*
G75*
G02*
X1300000Y-6221000I-51000J0D01*
G01*
X1100000Y-6221000D01*
G75*
G02*
X1049000Y-6170000I0J51000D01*
G01*
G37*
G36*
G01*
X649000Y-3530000D02*
X649000Y-2390000D01*
G75*
G02*
X700000Y-2339000I51000J0D01*
G01*
X900000Y-2339000D01*
G75*
G02*
X951000Y-2390000I0J-51000D01*
G01*
X951000Y-3530000D01*
G75*
G02*
X900000Y-3581000I-51000J0D01*
G01*
X700000Y-3581000D01*
G75*
G02*
X649000Y-3530000I0J51000D01*
G01*
G37*
G36*
G01*
X649000Y-6170000D02*
X649000Y-5030000D01*
G75*
G02*
X700000Y-4979000I51000J0D01*
G01*
X900000Y-4979000D01*
G75*
G02*
X951000Y-5030000I0J-51000D01*
G01*
X951000Y-6170000D01*
G75*
G02*
X900000Y-6221000I-51000J0D01*
G01*
X700000Y-6221000D01*
G75*
G02*
X649000Y-6170000I0J51000D01*
G01*
G37*
G36*
G01*
X249000Y-3530000D02*
X249000Y-2390000D01*
G75*
G02*
X300000Y-2339000I51000J0D01*
G01*
X500000Y-2339000D01*
G75*
G02*
X551000Y-2390000I0J-51000D01*
G01*
X551000Y-3530000D01*
G75*
G02*
X500000Y-3581000I-51000J0D01*
G01*
X300000Y-3581000D01*
G75*
G02*
X249000Y-3530000I0J51000D01*
G01*
G37*
G36*
G01*
X249000Y-6170000D02*
X249000Y-5030000D01*
G75*
G02*
X300000Y-4979000I51000J0D01*
G01*
X500000Y-4979000D01*
G75*
G02*
X551000Y-5030000I0J-51000D01*
G01*
X551000Y-6170000D01*
G75*
G02*
X500000Y-6221000I-51000J0D01*
G01*
X300000Y-6221000D01*
G75*
G02*
X249000Y-6170000I0J51000D01*
G01*
G37*
G36*
G01*
X-151000Y-3530000D02*
X-151000Y-2390000D01*
G75*
G02*
X-100000Y-2339000I51000J0D01*
G01*
X100000Y-2339000D01*
G75*
G02*
X151000Y-2390000I0J-51000D01*
G01*
X151000Y-3530000D01*
G75*
G02*
X100000Y-3581000I-51000J0D01*
G01*
X-100000Y-3581000D01*
G75*
G02*
X-151000Y-3530000I0J51000D01*
G01*
G37*
G36*
G01*
X-151000Y-6170000D02*
X-151000Y-5030000D01*
G75*
G02*
X-100000Y-4979000I51000J0D01*
G01*
X100000Y-4979000D01*
G75*
G02*
X151000Y-5030000I0J-51000D01*
G01*
X151000Y-6170000D01*
G75*
G02*
X100000Y-6221000I-51000J0D01*
G01*
X-100000Y-6221000D01*
G75*
G02*
X-151000Y-6170000I0J51000D01*
G01*
G37*
G36*
G01*
X-551000Y-3530000D02*
X-551000Y-2390000D01*
G75*
G02*
X-500000Y-2339000I51000J0D01*
G01*
X-300000Y-2339000D01*
G75*
G02*
X-249000Y-2390000I0J-51000D01*
G01*
X-249000Y-3530000D01*
G75*
G02*
X-300000Y-3581000I-51000J0D01*
G01*
X-500000Y-3581000D01*
G75*
G02*
X-551000Y-3530000I0J51000D01*
G01*
G37*
G36*
G01*
X-551000Y-6170000D02*
X-551000Y-5030000D01*
G75*
G02*
X-500000Y-4979000I51000J0D01*
G01*
X-300000Y-4979000D01*
G75*
G02*
X-249000Y-5030000I0J-51000D01*
G01*
X-249000Y-6170000D01*
G75*
G02*
X-300000Y-6221000I-51000J0D01*
G01*
X-500000Y-6221000D01*
G75*
G02*
X-551000Y-6170000I0J51000D01*
G01*
G37*
G36*
G01*
X-951000Y-3530000D02*
X-951000Y-2390000D01*
G75*
G02*
X-900000Y-2339000I51000J0D01*
G01*
X-700000Y-2339000D01*
G75*
G02*
X-649000Y-2390000I0J-51000D01*
G01*
X-649000Y-3530000D01*
G75*
G02*
X-700000Y-3581000I-51000J0D01*
G01*
X-900000Y-3581000D01*
G75*
G02*
X-951000Y-3530000I0J51000D01*
G01*
G37*
G36*
G01*
X-951000Y-6170000D02*
X-951000Y-5030000D01*
G75*
G02*
X-900000Y-4979000I51000J0D01*
G01*
X-700000Y-4979000D01*
G75*
G02*
X-649000Y-5030000I0J-51000D01*
G01*
X-649000Y-6170000D01*
G75*
G02*
X-700000Y-6221000I-51000J0D01*
G01*
X-900000Y-6221000D01*
G75*
G02*
X-951000Y-6170000I0J51000D01*
G01*
G37*
G36*
G01*
X-1351000Y-3530000D02*
X-1351000Y-2390000D01*
G75*
G02*
X-1300000Y-2339000I51000J0D01*
G01*
X-1100000Y-2339000D01*
G75*
G02*
X-1049000Y-2390000I0J-51000D01*
G01*
X-1049000Y-3530000D01*
G75*
G02*
X-1100000Y-3581000I-51000J0D01*
G01*
X-1300000Y-3581000D01*
G75*
G02*
X-1351000Y-3530000I0J51000D01*
G01*
G37*
G36*
G01*
X-1351000Y-6170000D02*
X-1351000Y-5030000D01*
G75*
G02*
X-1300000Y-4979000I51000J0D01*
G01*
X-1100000Y-4979000D01*
G75*
G02*
X-1049000Y-5030000I0J-51000D01*
G01*
X-1049000Y-6170000D01*
G75*
G02*
X-1100000Y-6221000I-51000J0D01*
G01*
X-1300000Y-6221000D01*
G75*
G02*
X-1351000Y-6170000I0J51000D01*
G01*
G37*
G36*
G01*
X-1751000Y-3530000D02*
X-1751000Y-2390000D01*
G75*
G02*
X-1700000Y-2339000I51000J0D01*
G01*
X-1500000Y-2339000D01*
G75*
G02*
X-1449000Y-2390000I0J-51000D01*
G01*
X-1449000Y-3530000D01*
G75*
G02*
X-1500000Y-3581000I-51000J0D01*
G01*
X-1700000Y-3581000D01*
G75*
G02*
X-1751000Y-3530000I0J51000D01*
G01*
G37*
G36*
G01*
X-1751000Y-6170000D02*
X-1751000Y-5030000D01*
G75*
G02*
X-1700000Y-4979000I51000J0D01*
G01*
X-1500000Y-4979000D01*
G75*
G02*
X-1449000Y-5030000I0J-51000D01*
G01*
X-1449000Y-6170000D01*
G75*
G02*
X-1500000Y-6221000I-51000J0D01*
G01*
X-1700000Y-6221000D01*
G75*
G02*
X-1751000Y-6170000I0J51000D01*
G01*
G37*
G36*
G01*
X-2151000Y-3530000D02*
X-2151000Y-2390000D01*
G75*
G02*
X-2100000Y-2339000I51000J0D01*
G01*
X-1900000Y-2339000D01*
G75*
G02*
X-1849000Y-2390000I0J-51000D01*
G01*
X-1849000Y-3530000D01*
G75*
G02*
X-1900000Y-3581000I-51000J0D01*
G01*
X-2100000Y-3581000D01*
G75*
G02*
X-2151000Y-3530000I0J51000D01*
G01*
G37*
G36*
G01*
X-2151000Y-6170000D02*
X-2151000Y-5030000D01*
G75*
G02*
X-2100000Y-4979000I51000J0D01*
G01*
X-1900000Y-4979000D01*
G75*
G02*
X-1849000Y-5030000I0J-51000D01*
G01*
X-1849000Y-6170000D01*
G75*
G02*
X-1900000Y-6221000I-51000J0D01*
G01*
X-2100000Y-6221000D01*
G75*
G02*
X-2151000Y-6170000I0J51000D01*
G01*
G37*
G36*
G01*
X-2551000Y-3530000D02*
X-2551000Y-2390000D01*
G75*
G02*
X-2500000Y-2339000I51000J0D01*
G01*
X-2300000Y-2339000D01*
G75*
G02*
X-2249000Y-2390000I0J-51000D01*
G01*
X-2249000Y-3530000D01*
G75*
G02*
X-2300000Y-3581000I-51000J0D01*
G01*
X-2500000Y-3581000D01*
G75*
G02*
X-2551000Y-3530000I0J51000D01*
G01*
G37*
G36*
G01*
X-2551000Y-6170000D02*
X-2551000Y-5030000D01*
G75*
G02*
X-2500000Y-4979000I51000J0D01*
G01*
X-2300000Y-4979000D01*
G75*
G02*
X-2249000Y-5030000I0J-51000D01*
G01*
X-2249000Y-6170000D01*
G75*
G02*
X-2300000Y-6221000I-51000J0D01*
G01*
X-2500000Y-6221000D01*
G75*
G02*
X-2551000Y-6170000I0J51000D01*
G01*
G37*
G36*
G01*
X-2951000Y-3530000D02*
X-2951000Y-2390000D01*
G75*
G02*
X-2900000Y-2339000I51000J0D01*
G01*
X-2700000Y-2339000D01*
G75*
G02*
X-2649000Y-2390000I0J-51000D01*
G01*
X-2649000Y-3530000D01*
G75*
G02*
X-2700000Y-3581000I-51000J0D01*
G01*
X-2900000Y-3581000D01*
G75*
G02*
X-2951000Y-3530000I0J51000D01*
G01*
G37*
G36*
G01*
X-2951000Y-6170000D02*
X-2951000Y-5030000D01*
G75*
G02*
X-2900000Y-4979000I51000J0D01*
G01*
X-2700000Y-4979000D01*
G75*
G02*
X-2649000Y-5030000I0J-51000D01*
G01*
X-2649000Y-6170000D01*
G75*
G02*
X-2700000Y-6221000I-51000J0D01*
G01*
X-2900000Y-6221000D01*
G75*
G02*
X-2951000Y-6170000I0J51000D01*
G01*
G37*
G36*
G01*
X-3351000Y-3530000D02*
X-3351000Y-2390000D01*
G75*
G02*
X-3300000Y-2339000I51000J0D01*
G01*
X-3100000Y-2339000D01*
G75*
G02*
X-3049000Y-2390000I0J-51000D01*
G01*
X-3049000Y-3530000D01*
G75*
G02*
X-3100000Y-3581000I-51000J0D01*
G01*
X-3300000Y-3581000D01*
G75*
G02*
X-3351000Y-3530000I0J51000D01*
G01*
G37*
G36*
G01*
X-3351000Y-6170000D02*
X-3351000Y-5030000D01*
G75*
G02*
X-3300000Y-4979000I51000J0D01*
G01*
X-3100000Y-4979000D01*
G75*
G02*
X-3049000Y-5030000I0J-51000D01*
G01*
X-3049000Y-6170000D01*
G75*
G02*
X-3100000Y-6221000I-51000J0D01*
G01*
X-3300000Y-6221000D01*
G75*
G02*
X-3351000Y-6170000I0J51000D01*
G01*
G37*
G36*
G01*
X-3751000Y-3530000D02*
X-3751000Y-2390000D01*
G75*
G02*
X-3700000Y-2339000I51000J0D01*
G01*
X-3500000Y-2339000D01*
G75*
G02*
X-3449000Y-2390000I0J-51000D01*
G01*
X-3449000Y-3530000D01*
G75*
G02*
X-3500000Y-3581000I-51000J0D01*
G01*
X-3700000Y-3581000D01*
G75*
G02*
X-3751000Y-3530000I0J51000D01*
G01*
G37*
G36*
G01*
X-3751000Y-6170000D02*
X-3751000Y-5030000D01*
G75*
G02*
X-3700000Y-4979000I51000J0D01*
G01*
X-3500000Y-4979000D01*
G75*
G02*
X-3449000Y-5030000I0J-51000D01*
G01*
X-3449000Y-6170000D01*
G75*
G02*
X-3500000Y-6221000I-51000J0D01*
G01*
X-3700000Y-6221000D01*
G75*
G02*
X-3751000Y-6170000I0J51000D01*
G01*
G37*
G36*
G01*
X-4151000Y-3530000D02*
X-4151000Y-2390000D01*
G75*
G02*
X-4100000Y-2339000I51000J0D01*
G01*
X-3900000Y-2339000D01*
G75*
G02*
X-3849000Y-2390000I0J-51000D01*
G01*
X-3849000Y-3530000D01*
G75*
G02*
X-3900000Y-3581000I-51000J0D01*
G01*
X-4100000Y-3581000D01*
G75*
G02*
X-4151000Y-3530000I0J51000D01*
G01*
G37*
G36*
G01*
X-4151000Y-6170000D02*
X-4151000Y-5030000D01*
G75*
G02*
X-4100000Y-4979000I51000J0D01*
G01*
X-3900000Y-4979000D01*
G75*
G02*
X-3849000Y-5030000I0J-51000D01*
G01*
X-3849000Y-6170000D01*
G75*
G02*
X-3900000Y-6221000I-51000J0D01*
G01*
X-4100000Y-6221000D01*
G75*
G02*
X-4151000Y-6170000I0J51000D01*
G01*
G37*
G36*
G01*
X-4551000Y-3530000D02*
X-4551000Y-2390000D01*
G75*
G02*
X-4500000Y-2339000I51000J0D01*
G01*
X-4300000Y-2339000D01*
G75*
G02*
X-4249000Y-2390000I0J-51000D01*
G01*
X-4249000Y-3530000D01*
G75*
G02*
X-4300000Y-3581000I-51000J0D01*
G01*
X-4500000Y-3581000D01*
G75*
G02*
X-4551000Y-3530000I0J51000D01*
G01*
G37*
G36*
G01*
X-4551000Y-6170000D02*
X-4551000Y-5030000D01*
G75*
G02*
X-4500000Y-4979000I51000J0D01*
G01*
X-4300000Y-4979000D01*
G75*
G02*
X-4249000Y-5030000I0J-51000D01*
G01*
X-4249000Y-6170000D01*
G75*
G02*
X-4300000Y-6221000I-51000J0D01*
G01*
X-4500000Y-6221000D01*
G75*
G02*
X-4551000Y-6170000I0J51000D01*
G01*
G37*
G36*
G01*
X-4951000Y-3530000D02*
X-4951000Y-2390000D01*
G75*
G02*
X-4900000Y-2339000I51000J0D01*
G01*
X-4700000Y-2339000D01*
G75*
G02*
X-4649000Y-2390000I0J-51000D01*
G01*
X-4649000Y-3530000D01*
G75*
G02*
X-4700000Y-3581000I-51000J0D01*
G01*
X-4900000Y-3581000D01*
G75*
G02*
X-4951000Y-3530000I0J51000D01*
G01*
G37*
G36*
G01*
X-4951000Y-6170000D02*
X-4951000Y-5030000D01*
G75*
G02*
X-4900000Y-4979000I51000J0D01*
G01*
X-4700000Y-4979000D01*
G75*
G02*
X-4649000Y-5030000I0J-51000D01*
G01*
X-4649000Y-6170000D01*
G75*
G02*
X-4700000Y-6221000I-51000J0D01*
G01*
X-4900000Y-6221000D01*
G75*
G02*
X-4951000Y-6170000I0J51000D01*
G01*
G37*
X16510000Y-17780000D03*
X16510000Y-15240000D03*
X16510000Y-12700000D03*
X16510000Y-10160000D03*
X16510000Y-7620000D03*
X16510000Y-5080000D03*
X16510000Y-2540000D03*
X16510000Y0D03*
X16510000Y2540000D03*
X16510000Y5080000D03*
X16510000Y7620000D03*
X16510000Y10160000D03*
X16510000Y12700000D03*
X16510000Y15240000D03*
G36*
G01*
X17411000Y18630000D02*
X17411000Y16930000D01*
G75*
G02*
X17360000Y16879000I-51000J0D01*
G01*
X15660000Y16879000D01*
G75*
G02*
X15609000Y16930000I0J51000D01*
G01*
X15609000Y18630000D01*
G75*
G02*
X15660000Y18681000I51000J0D01*
G01*
X17360000Y18681000D01*
G75*
G02*
X17411000Y18630000I0J-51000D01*
G01*
G37*
G36*
G01*
X8775000Y7649000D02*
X7635000Y7649000D01*
G75*
G02*
X7584000Y7700000I0J51000D01*
G01*
X7584000Y7900000D01*
G75*
G02*
X7635000Y7951000I51000J0D01*
G01*
X8775000Y7951000D01*
G75*
G02*
X8826000Y7900000I0J-51000D01*
G01*
X8826000Y7700000D01*
G75*
G02*
X8775000Y7649000I-51000J0D01*
G01*
G37*
G36*
G01*
X11415000Y7649000D02*
X10275000Y7649000D01*
G75*
G02*
X10224000Y7700000I0J51000D01*
G01*
X10224000Y7900000D01*
G75*
G02*
X10275000Y7951000I51000J0D01*
G01*
X11415000Y7951000D01*
G75*
G02*
X11466000Y7900000I0J-51000D01*
G01*
X11466000Y7700000D01*
G75*
G02*
X11415000Y7649000I-51000J0D01*
G01*
G37*
G36*
G01*
X8775000Y7249000D02*
X7635000Y7249000D01*
G75*
G02*
X7584000Y7300000I0J51000D01*
G01*
X7584000Y7500000D01*
G75*
G02*
X7635000Y7551000I51000J0D01*
G01*
X8775000Y7551000D01*
G75*
G02*
X8826000Y7500000I0J-51000D01*
G01*
X8826000Y7300000D01*
G75*
G02*
X8775000Y7249000I-51000J0D01*
G01*
G37*
G36*
G01*
X11415000Y7249000D02*
X10275000Y7249000D01*
G75*
G02*
X10224000Y7300000I0J51000D01*
G01*
X10224000Y7500000D01*
G75*
G02*
X10275000Y7551000I51000J0D01*
G01*
X11415000Y7551000D01*
G75*
G02*
X11466000Y7500000I0J-51000D01*
G01*
X11466000Y7300000D01*
G75*
G02*
X11415000Y7249000I-51000J0D01*
G01*
G37*
G36*
G01*
X8775000Y6849000D02*
X7635000Y6849000D01*
G75*
G02*
X7584000Y6900000I0J51000D01*
G01*
X7584000Y7100000D01*
G75*
G02*
X7635000Y7151000I51000J0D01*
G01*
X8775000Y7151000D01*
G75*
G02*
X8826000Y7100000I0J-51000D01*
G01*
X8826000Y6900000D01*
G75*
G02*
X8775000Y6849000I-51000J0D01*
G01*
G37*
G36*
G01*
X11415000Y6849000D02*
X10275000Y6849000D01*
G75*
G02*
X10224000Y6900000I0J51000D01*
G01*
X10224000Y7100000D01*
G75*
G02*
X10275000Y7151000I51000J0D01*
G01*
X11415000Y7151000D01*
G75*
G02*
X11466000Y7100000I0J-51000D01*
G01*
X11466000Y6900000D01*
G75*
G02*
X11415000Y6849000I-51000J0D01*
G01*
G37*
G36*
G01*
X8775000Y6449000D02*
X7635000Y6449000D01*
G75*
G02*
X7584000Y6500000I0J51000D01*
G01*
X7584000Y6700000D01*
G75*
G02*
X7635000Y6751000I51000J0D01*
G01*
X8775000Y6751000D01*
G75*
G02*
X8826000Y6700000I0J-51000D01*
G01*
X8826000Y6500000D01*
G75*
G02*
X8775000Y6449000I-51000J0D01*
G01*
G37*
G36*
G01*
X11415000Y6449000D02*
X10275000Y6449000D01*
G75*
G02*
X10224000Y6500000I0J51000D01*
G01*
X10224000Y6700000D01*
G75*
G02*
X10275000Y6751000I51000J0D01*
G01*
X11415000Y6751000D01*
G75*
G02*
X11466000Y6700000I0J-51000D01*
G01*
X11466000Y6500000D01*
G75*
G02*
X11415000Y6449000I-51000J0D01*
G01*
G37*
G36*
G01*
X8775000Y6049000D02*
X7635000Y6049000D01*
G75*
G02*
X7584000Y6100000I0J51000D01*
G01*
X7584000Y6300000D01*
G75*
G02*
X7635000Y6351000I51000J0D01*
G01*
X8775000Y6351000D01*
G75*
G02*
X8826000Y6300000I0J-51000D01*
G01*
X8826000Y6100000D01*
G75*
G02*
X8775000Y6049000I-51000J0D01*
G01*
G37*
G36*
G01*
X11415000Y6049000D02*
X10275000Y6049000D01*
G75*
G02*
X10224000Y6100000I0J51000D01*
G01*
X10224000Y6300000D01*
G75*
G02*
X10275000Y6351000I51000J0D01*
G01*
X11415000Y6351000D01*
G75*
G02*
X11466000Y6300000I0J-51000D01*
G01*
X11466000Y6100000D01*
G75*
G02*
X11415000Y6049000I-51000J0D01*
G01*
G37*
G36*
G01*
X8775000Y5649000D02*
X7635000Y5649000D01*
G75*
G02*
X7584000Y5700000I0J51000D01*
G01*
X7584000Y5900000D01*
G75*
G02*
X7635000Y5951000I51000J0D01*
G01*
X8775000Y5951000D01*
G75*
G02*
X8826000Y5900000I0J-51000D01*
G01*
X8826000Y5700000D01*
G75*
G02*
X8775000Y5649000I-51000J0D01*
G01*
G37*
G36*
G01*
X11415000Y5649000D02*
X10275000Y5649000D01*
G75*
G02*
X10224000Y5700000I0J51000D01*
G01*
X10224000Y5900000D01*
G75*
G02*
X10275000Y5951000I51000J0D01*
G01*
X11415000Y5951000D01*
G75*
G02*
X11466000Y5900000I0J-51000D01*
G01*
X11466000Y5700000D01*
G75*
G02*
X11415000Y5649000I-51000J0D01*
G01*
G37*
G36*
G01*
X8775000Y5249000D02*
X7635000Y5249000D01*
G75*
G02*
X7584000Y5300000I0J51000D01*
G01*
X7584000Y5500000D01*
G75*
G02*
X7635000Y5551000I51000J0D01*
G01*
X8775000Y5551000D01*
G75*
G02*
X8826000Y5500000I0J-51000D01*
G01*
X8826000Y5300000D01*
G75*
G02*
X8775000Y5249000I-51000J0D01*
G01*
G37*
G36*
G01*
X11415000Y5249000D02*
X10275000Y5249000D01*
G75*
G02*
X10224000Y5300000I0J51000D01*
G01*
X10224000Y5500000D01*
G75*
G02*
X10275000Y5551000I51000J0D01*
G01*
X11415000Y5551000D01*
G75*
G02*
X11466000Y5500000I0J-51000D01*
G01*
X11466000Y5300000D01*
G75*
G02*
X11415000Y5249000I-51000J0D01*
G01*
G37*
G36*
G01*
X8775000Y4849000D02*
X7635000Y4849000D01*
G75*
G02*
X7584000Y4900000I0J51000D01*
G01*
X7584000Y5100000D01*
G75*
G02*
X7635000Y5151000I51000J0D01*
G01*
X8775000Y5151000D01*
G75*
G02*
X8826000Y5100000I0J-51000D01*
G01*
X8826000Y4900000D01*
G75*
G02*
X8775000Y4849000I-51000J0D01*
G01*
G37*
G36*
G01*
X11415000Y4849000D02*
X10275000Y4849000D01*
G75*
G02*
X10224000Y4900000I0J51000D01*
G01*
X10224000Y5100000D01*
G75*
G02*
X10275000Y5151000I51000J0D01*
G01*
X11415000Y5151000D01*
G75*
G02*
X11466000Y5100000I0J-51000D01*
G01*
X11466000Y4900000D01*
G75*
G02*
X11415000Y4849000I-51000J0D01*
G01*
G37*
G36*
G01*
X8775000Y4449000D02*
X7635000Y4449000D01*
G75*
G02*
X7584000Y4500000I0J51000D01*
G01*
X7584000Y4700000D01*
G75*
G02*
X7635000Y4751000I51000J0D01*
G01*
X8775000Y4751000D01*
G75*
G02*
X8826000Y4700000I0J-51000D01*
G01*
X8826000Y4500000D01*
G75*
G02*
X8775000Y4449000I-51000J0D01*
G01*
G37*
G36*
G01*
X11415000Y4449000D02*
X10275000Y4449000D01*
G75*
G02*
X10224000Y4500000I0J51000D01*
G01*
X10224000Y4700000D01*
G75*
G02*
X10275000Y4751000I51000J0D01*
G01*
X11415000Y4751000D01*
G75*
G02*
X11466000Y4700000I0J-51000D01*
G01*
X11466000Y4500000D01*
G75*
G02*
X11415000Y4449000I-51000J0D01*
G01*
G37*
G36*
G01*
X8775000Y4049000D02*
X7635000Y4049000D01*
G75*
G02*
X7584000Y4100000I0J51000D01*
G01*
X7584000Y4300000D01*
G75*
G02*
X7635000Y4351000I51000J0D01*
G01*
X8775000Y4351000D01*
G75*
G02*
X8826000Y4300000I0J-51000D01*
G01*
X8826000Y4100000D01*
G75*
G02*
X8775000Y4049000I-51000J0D01*
G01*
G37*
G36*
G01*
X11415000Y4049000D02*
X10275000Y4049000D01*
G75*
G02*
X10224000Y4100000I0J51000D01*
G01*
X10224000Y4300000D01*
G75*
G02*
X10275000Y4351000I51000J0D01*
G01*
X11415000Y4351000D01*
G75*
G02*
X11466000Y4300000I0J-51000D01*
G01*
X11466000Y4100000D01*
G75*
G02*
X11415000Y4049000I-51000J0D01*
G01*
G37*
G36*
G01*
X8775000Y3649000D02*
X7635000Y3649000D01*
G75*
G02*
X7584000Y3700000I0J51000D01*
G01*
X7584000Y3900000D01*
G75*
G02*
X7635000Y3951000I51000J0D01*
G01*
X8775000Y3951000D01*
G75*
G02*
X8826000Y3900000I0J-51000D01*
G01*
X8826000Y3700000D01*
G75*
G02*
X8775000Y3649000I-51000J0D01*
G01*
G37*
G36*
G01*
X11415000Y3649000D02*
X10275000Y3649000D01*
G75*
G02*
X10224000Y3700000I0J51000D01*
G01*
X10224000Y3900000D01*
G75*
G02*
X10275000Y3951000I51000J0D01*
G01*
X11415000Y3951000D01*
G75*
G02*
X11466000Y3900000I0J-51000D01*
G01*
X11466000Y3700000D01*
G75*
G02*
X11415000Y3649000I-51000J0D01*
G01*
G37*
G36*
G01*
X8775000Y3249000D02*
X7635000Y3249000D01*
G75*
G02*
X7584000Y3300000I0J51000D01*
G01*
X7584000Y3500000D01*
G75*
G02*
X7635000Y3551000I51000J0D01*
G01*
X8775000Y3551000D01*
G75*
G02*
X8826000Y3500000I0J-51000D01*
G01*
X8826000Y3300000D01*
G75*
G02*
X8775000Y3249000I-51000J0D01*
G01*
G37*
G36*
G01*
X11415000Y3249000D02*
X10275000Y3249000D01*
G75*
G02*
X10224000Y3300000I0J51000D01*
G01*
X10224000Y3500000D01*
G75*
G02*
X10275000Y3551000I51000J0D01*
G01*
X11415000Y3551000D01*
G75*
G02*
X11466000Y3500000I0J-51000D01*
G01*
X11466000Y3300000D01*
G75*
G02*
X11415000Y3249000I-51000J0D01*
G01*
G37*
G36*
G01*
X8775000Y2849000D02*
X7635000Y2849000D01*
G75*
G02*
X7584000Y2900000I0J51000D01*
G01*
X7584000Y3100000D01*
G75*
G02*
X7635000Y3151000I51000J0D01*
G01*
X8775000Y3151000D01*
G75*
G02*
X8826000Y3100000I0J-51000D01*
G01*
X8826000Y2900000D01*
G75*
G02*
X8775000Y2849000I-51000J0D01*
G01*
G37*
G36*
G01*
X11415000Y2849000D02*
X10275000Y2849000D01*
G75*
G02*
X10224000Y2900000I0J51000D01*
G01*
X10224000Y3100000D01*
G75*
G02*
X10275000Y3151000I51000J0D01*
G01*
X11415000Y3151000D01*
G75*
G02*
X11466000Y3100000I0J-51000D01*
G01*
X11466000Y2900000D01*
G75*
G02*
X11415000Y2849000I-51000J0D01*
G01*
G37*
G36*
G01*
X8775000Y2449000D02*
X7635000Y2449000D01*
G75*
G02*
X7584000Y2500000I0J51000D01*
G01*
X7584000Y2700000D01*
G75*
G02*
X7635000Y2751000I51000J0D01*
G01*
X8775000Y2751000D01*
G75*
G02*
X8826000Y2700000I0J-51000D01*
G01*
X8826000Y2500000D01*
G75*
G02*
X8775000Y2449000I-51000J0D01*
G01*
G37*
G36*
G01*
X11415000Y2449000D02*
X10275000Y2449000D01*
G75*
G02*
X10224000Y2500000I0J51000D01*
G01*
X10224000Y2700000D01*
G75*
G02*
X10275000Y2751000I51000J0D01*
G01*
X11415000Y2751000D01*
G75*
G02*
X11466000Y2700000I0J-51000D01*
G01*
X11466000Y2500000D01*
G75*
G02*
X11415000Y2449000I-51000J0D01*
G01*
G37*
G36*
G01*
X8775000Y2049000D02*
X7635000Y2049000D01*
G75*
G02*
X7584000Y2100000I0J51000D01*
G01*
X7584000Y2300000D01*
G75*
G02*
X7635000Y2351000I51000J0D01*
G01*
X8775000Y2351000D01*
G75*
G02*
X8826000Y2300000I0J-51000D01*
G01*
X8826000Y2100000D01*
G75*
G02*
X8775000Y2049000I-51000J0D01*
G01*
G37*
G36*
G01*
X11415000Y2049000D02*
X10275000Y2049000D01*
G75*
G02*
X10224000Y2100000I0J51000D01*
G01*
X10224000Y2300000D01*
G75*
G02*
X10275000Y2351000I51000J0D01*
G01*
X11415000Y2351000D01*
G75*
G02*
X11466000Y2300000I0J-51000D01*
G01*
X11466000Y2100000D01*
G75*
G02*
X11415000Y2049000I-51000J0D01*
G01*
G37*
G36*
G01*
X8775000Y1649000D02*
X7635000Y1649000D01*
G75*
G02*
X7584000Y1700000I0J51000D01*
G01*
X7584000Y1900000D01*
G75*
G02*
X7635000Y1951000I51000J0D01*
G01*
X8775000Y1951000D01*
G75*
G02*
X8826000Y1900000I0J-51000D01*
G01*
X8826000Y1700000D01*
G75*
G02*
X8775000Y1649000I-51000J0D01*
G01*
G37*
G36*
G01*
X11415000Y1649000D02*
X10275000Y1649000D01*
G75*
G02*
X10224000Y1700000I0J51000D01*
G01*
X10224000Y1900000D01*
G75*
G02*
X10275000Y1951000I51000J0D01*
G01*
X11415000Y1951000D01*
G75*
G02*
X11466000Y1900000I0J-51000D01*
G01*
X11466000Y1700000D01*
G75*
G02*
X11415000Y1649000I-51000J0D01*
G01*
G37*
G36*
G01*
X8775000Y1249000D02*
X7635000Y1249000D01*
G75*
G02*
X7584000Y1300000I0J51000D01*
G01*
X7584000Y1500000D01*
G75*
G02*
X7635000Y1551000I51000J0D01*
G01*
X8775000Y1551000D01*
G75*
G02*
X8826000Y1500000I0J-51000D01*
G01*
X8826000Y1300000D01*
G75*
G02*
X8775000Y1249000I-51000J0D01*
G01*
G37*
G36*
G01*
X11415000Y1249000D02*
X10275000Y1249000D01*
G75*
G02*
X10224000Y1300000I0J51000D01*
G01*
X10224000Y1500000D01*
G75*
G02*
X10275000Y1551000I51000J0D01*
G01*
X11415000Y1551000D01*
G75*
G02*
X11466000Y1500000I0J-51000D01*
G01*
X11466000Y1300000D01*
G75*
G02*
X11415000Y1249000I-51000J0D01*
G01*
G37*
G36*
G01*
X8775000Y849000D02*
X7635000Y849000D01*
G75*
G02*
X7584000Y900000I0J51000D01*
G01*
X7584000Y1100000D01*
G75*
G02*
X7635000Y1151000I51000J0D01*
G01*
X8775000Y1151000D01*
G75*
G02*
X8826000Y1100000I0J-51000D01*
G01*
X8826000Y900000D01*
G75*
G02*
X8775000Y849000I-51000J0D01*
G01*
G37*
G36*
G01*
X11415000Y849000D02*
X10275000Y849000D01*
G75*
G02*
X10224000Y900000I0J51000D01*
G01*
X10224000Y1100000D01*
G75*
G02*
X10275000Y1151000I51000J0D01*
G01*
X11415000Y1151000D01*
G75*
G02*
X11466000Y1100000I0J-51000D01*
G01*
X11466000Y900000D01*
G75*
G02*
X11415000Y849000I-51000J0D01*
G01*
G37*
G36*
G01*
X8775000Y449000D02*
X7635000Y449000D01*
G75*
G02*
X7584000Y500000I0J51000D01*
G01*
X7584000Y700000D01*
G75*
G02*
X7635000Y751000I51000J0D01*
G01*
X8775000Y751000D01*
G75*
G02*
X8826000Y700000I0J-51000D01*
G01*
X8826000Y500000D01*
G75*
G02*
X8775000Y449000I-51000J0D01*
G01*
G37*
G36*
G01*
X11415000Y449000D02*
X10275000Y449000D01*
G75*
G02*
X10224000Y500000I0J51000D01*
G01*
X10224000Y700000D01*
G75*
G02*
X10275000Y751000I51000J0D01*
G01*
X11415000Y751000D01*
G75*
G02*
X11466000Y700000I0J-51000D01*
G01*
X11466000Y500000D01*
G75*
G02*
X11415000Y449000I-51000J0D01*
G01*
G37*
G36*
G01*
X8775000Y49000D02*
X7635000Y49000D01*
G75*
G02*
X7584000Y100000I0J51000D01*
G01*
X7584000Y300000D01*
G75*
G02*
X7635000Y351000I51000J0D01*
G01*
X8775000Y351000D01*
G75*
G02*
X8826000Y300000I0J-51000D01*
G01*
X8826000Y100000D01*
G75*
G02*
X8775000Y49000I-51000J0D01*
G01*
G37*
G36*
G01*
X11415000Y49000D02*
X10275000Y49000D01*
G75*
G02*
X10224000Y100000I0J51000D01*
G01*
X10224000Y300000D01*
G75*
G02*
X10275000Y351000I51000J0D01*
G01*
X11415000Y351000D01*
G75*
G02*
X11466000Y300000I0J-51000D01*
G01*
X11466000Y100000D01*
G75*
G02*
X11415000Y49000I-51000J0D01*
G01*
G37*
G36*
G01*
X8775000Y-351000D02*
X7635000Y-351000D01*
G75*
G02*
X7584000Y-300000I0J51000D01*
G01*
X7584000Y-100000D01*
G75*
G02*
X7635000Y-49000I51000J0D01*
G01*
X8775000Y-49000D01*
G75*
G02*
X8826000Y-100000I0J-51000D01*
G01*
X8826000Y-300000D01*
G75*
G02*
X8775000Y-351000I-51000J0D01*
G01*
G37*
G36*
G01*
X11415000Y-351000D02*
X10275000Y-351000D01*
G75*
G02*
X10224000Y-300000I0J51000D01*
G01*
X10224000Y-100000D01*
G75*
G02*
X10275000Y-49000I51000J0D01*
G01*
X11415000Y-49000D01*
G75*
G02*
X11466000Y-100000I0J-51000D01*
G01*
X11466000Y-300000D01*
G75*
G02*
X11415000Y-351000I-51000J0D01*
G01*
G37*
G36*
G01*
X8775000Y-751000D02*
X7635000Y-751000D01*
G75*
G02*
X7584000Y-700000I0J51000D01*
G01*
X7584000Y-500000D01*
G75*
G02*
X7635000Y-449000I51000J0D01*
G01*
X8775000Y-449000D01*
G75*
G02*
X8826000Y-500000I0J-51000D01*
G01*
X8826000Y-700000D01*
G75*
G02*
X8775000Y-751000I-51000J0D01*
G01*
G37*
G36*
G01*
X11415000Y-751000D02*
X10275000Y-751000D01*
G75*
G02*
X10224000Y-700000I0J51000D01*
G01*
X10224000Y-500000D01*
G75*
G02*
X10275000Y-449000I51000J0D01*
G01*
X11415000Y-449000D01*
G75*
G02*
X11466000Y-500000I0J-51000D01*
G01*
X11466000Y-700000D01*
G75*
G02*
X11415000Y-751000I-51000J0D01*
G01*
G37*
G36*
G01*
X8775000Y-1151000D02*
X7635000Y-1151000D01*
G75*
G02*
X7584000Y-1100000I0J51000D01*
G01*
X7584000Y-900000D01*
G75*
G02*
X7635000Y-849000I51000J0D01*
G01*
X8775000Y-849000D01*
G75*
G02*
X8826000Y-900000I0J-51000D01*
G01*
X8826000Y-1100000D01*
G75*
G02*
X8775000Y-1151000I-51000J0D01*
G01*
G37*
G36*
G01*
X11415000Y-1151000D02*
X10275000Y-1151000D01*
G75*
G02*
X10224000Y-1100000I0J51000D01*
G01*
X10224000Y-900000D01*
G75*
G02*
X10275000Y-849000I51000J0D01*
G01*
X11415000Y-849000D01*
G75*
G02*
X11466000Y-900000I0J-51000D01*
G01*
X11466000Y-1100000D01*
G75*
G02*
X11415000Y-1151000I-51000J0D01*
G01*
G37*
G36*
G01*
X8775000Y-1551000D02*
X7635000Y-1551000D01*
G75*
G02*
X7584000Y-1500000I0J51000D01*
G01*
X7584000Y-1300000D01*
G75*
G02*
X7635000Y-1249000I51000J0D01*
G01*
X8775000Y-1249000D01*
G75*
G02*
X8826000Y-1300000I0J-51000D01*
G01*
X8826000Y-1500000D01*
G75*
G02*
X8775000Y-1551000I-51000J0D01*
G01*
G37*
G36*
G01*
X11415000Y-1551000D02*
X10275000Y-1551000D01*
G75*
G02*
X10224000Y-1500000I0J51000D01*
G01*
X10224000Y-1300000D01*
G75*
G02*
X10275000Y-1249000I51000J0D01*
G01*
X11415000Y-1249000D01*
G75*
G02*
X11466000Y-1300000I0J-51000D01*
G01*
X11466000Y-1500000D01*
G75*
G02*
X11415000Y-1551000I-51000J0D01*
G01*
G37*
G36*
G01*
X8775000Y-1951000D02*
X7635000Y-1951000D01*
G75*
G02*
X7584000Y-1900000I0J51000D01*
G01*
X7584000Y-1700000D01*
G75*
G02*
X7635000Y-1649000I51000J0D01*
G01*
X8775000Y-1649000D01*
G75*
G02*
X8826000Y-1700000I0J-51000D01*
G01*
X8826000Y-1900000D01*
G75*
G02*
X8775000Y-1951000I-51000J0D01*
G01*
G37*
G36*
G01*
X11415000Y-1951000D02*
X10275000Y-1951000D01*
G75*
G02*
X10224000Y-1900000I0J51000D01*
G01*
X10224000Y-1700000D01*
G75*
G02*
X10275000Y-1649000I51000J0D01*
G01*
X11415000Y-1649000D01*
G75*
G02*
X11466000Y-1700000I0J-51000D01*
G01*
X11466000Y-1900000D01*
G75*
G02*
X11415000Y-1951000I-51000J0D01*
G01*
G37*
G36*
G01*
X8775000Y-2351000D02*
X7635000Y-2351000D01*
G75*
G02*
X7584000Y-2300000I0J51000D01*
G01*
X7584000Y-2100000D01*
G75*
G02*
X7635000Y-2049000I51000J0D01*
G01*
X8775000Y-2049000D01*
G75*
G02*
X8826000Y-2100000I0J-51000D01*
G01*
X8826000Y-2300000D01*
G75*
G02*
X8775000Y-2351000I-51000J0D01*
G01*
G37*
G36*
G01*
X11415000Y-2351000D02*
X10275000Y-2351000D01*
G75*
G02*
X10224000Y-2300000I0J51000D01*
G01*
X10224000Y-2100000D01*
G75*
G02*
X10275000Y-2049000I51000J0D01*
G01*
X11415000Y-2049000D01*
G75*
G02*
X11466000Y-2100000I0J-51000D01*
G01*
X11466000Y-2300000D01*
G75*
G02*
X11415000Y-2351000I-51000J0D01*
G01*
G37*
G36*
G01*
X8775000Y-2751000D02*
X7635000Y-2751000D01*
G75*
G02*
X7584000Y-2700000I0J51000D01*
G01*
X7584000Y-2500000D01*
G75*
G02*
X7635000Y-2449000I51000J0D01*
G01*
X8775000Y-2449000D01*
G75*
G02*
X8826000Y-2500000I0J-51000D01*
G01*
X8826000Y-2700000D01*
G75*
G02*
X8775000Y-2751000I-51000J0D01*
G01*
G37*
G36*
G01*
X11415000Y-2751000D02*
X10275000Y-2751000D01*
G75*
G02*
X10224000Y-2700000I0J51000D01*
G01*
X10224000Y-2500000D01*
G75*
G02*
X10275000Y-2449000I51000J0D01*
G01*
X11415000Y-2449000D01*
G75*
G02*
X11466000Y-2500000I0J-51000D01*
G01*
X11466000Y-2700000D01*
G75*
G02*
X11415000Y-2751000I-51000J0D01*
G01*
G37*
G36*
G01*
X8775000Y-3151000D02*
X7635000Y-3151000D01*
G75*
G02*
X7584000Y-3100000I0J51000D01*
G01*
X7584000Y-2900000D01*
G75*
G02*
X7635000Y-2849000I51000J0D01*
G01*
X8775000Y-2849000D01*
G75*
G02*
X8826000Y-2900000I0J-51000D01*
G01*
X8826000Y-3100000D01*
G75*
G02*
X8775000Y-3151000I-51000J0D01*
G01*
G37*
G36*
G01*
X11415000Y-3151000D02*
X10275000Y-3151000D01*
G75*
G02*
X10224000Y-3100000I0J51000D01*
G01*
X10224000Y-2900000D01*
G75*
G02*
X10275000Y-2849000I51000J0D01*
G01*
X11415000Y-2849000D01*
G75*
G02*
X11466000Y-2900000I0J-51000D01*
G01*
X11466000Y-3100000D01*
G75*
G02*
X11415000Y-3151000I-51000J0D01*
G01*
G37*
G36*
G01*
X8775000Y-3551000D02*
X7635000Y-3551000D01*
G75*
G02*
X7584000Y-3500000I0J51000D01*
G01*
X7584000Y-3300000D01*
G75*
G02*
X7635000Y-3249000I51000J0D01*
G01*
X8775000Y-3249000D01*
G75*
G02*
X8826000Y-3300000I0J-51000D01*
G01*
X8826000Y-3500000D01*
G75*
G02*
X8775000Y-3551000I-51000J0D01*
G01*
G37*
G36*
G01*
X11415000Y-3551000D02*
X10275000Y-3551000D01*
G75*
G02*
X10224000Y-3500000I0J51000D01*
G01*
X10224000Y-3300000D01*
G75*
G02*
X10275000Y-3249000I51000J0D01*
G01*
X11415000Y-3249000D01*
G75*
G02*
X11466000Y-3300000I0J-51000D01*
G01*
X11466000Y-3500000D01*
G75*
G02*
X11415000Y-3551000I-51000J0D01*
G01*
G37*
G36*
G01*
X8775000Y-3951000D02*
X7635000Y-3951000D01*
G75*
G02*
X7584000Y-3900000I0J51000D01*
G01*
X7584000Y-3700000D01*
G75*
G02*
X7635000Y-3649000I51000J0D01*
G01*
X8775000Y-3649000D01*
G75*
G02*
X8826000Y-3700000I0J-51000D01*
G01*
X8826000Y-3900000D01*
G75*
G02*
X8775000Y-3951000I-51000J0D01*
G01*
G37*
G36*
G01*
X11415000Y-3951000D02*
X10275000Y-3951000D01*
G75*
G02*
X10224000Y-3900000I0J51000D01*
G01*
X10224000Y-3700000D01*
G75*
G02*
X10275000Y-3649000I51000J0D01*
G01*
X11415000Y-3649000D01*
G75*
G02*
X11466000Y-3700000I0J-51000D01*
G01*
X11466000Y-3900000D01*
G75*
G02*
X11415000Y-3951000I-51000J0D01*
G01*
G37*
G36*
G01*
X8775000Y-4351000D02*
X7635000Y-4351000D01*
G75*
G02*
X7584000Y-4300000I0J51000D01*
G01*
X7584000Y-4100000D01*
G75*
G02*
X7635000Y-4049000I51000J0D01*
G01*
X8775000Y-4049000D01*
G75*
G02*
X8826000Y-4100000I0J-51000D01*
G01*
X8826000Y-4300000D01*
G75*
G02*
X8775000Y-4351000I-51000J0D01*
G01*
G37*
G36*
G01*
X11415000Y-4351000D02*
X10275000Y-4351000D01*
G75*
G02*
X10224000Y-4300000I0J51000D01*
G01*
X10224000Y-4100000D01*
G75*
G02*
X10275000Y-4049000I51000J0D01*
G01*
X11415000Y-4049000D01*
G75*
G02*
X11466000Y-4100000I0J-51000D01*
G01*
X11466000Y-4300000D01*
G75*
G02*
X11415000Y-4351000I-51000J0D01*
G01*
G37*
G36*
G01*
X8775000Y-4751000D02*
X7635000Y-4751000D01*
G75*
G02*
X7584000Y-4700000I0J51000D01*
G01*
X7584000Y-4500000D01*
G75*
G02*
X7635000Y-4449000I51000J0D01*
G01*
X8775000Y-4449000D01*
G75*
G02*
X8826000Y-4500000I0J-51000D01*
G01*
X8826000Y-4700000D01*
G75*
G02*
X8775000Y-4751000I-51000J0D01*
G01*
G37*
G36*
G01*
X11415000Y-4751000D02*
X10275000Y-4751000D01*
G75*
G02*
X10224000Y-4700000I0J51000D01*
G01*
X10224000Y-4500000D01*
G75*
G02*
X10275000Y-4449000I51000J0D01*
G01*
X11415000Y-4449000D01*
G75*
G02*
X11466000Y-4500000I0J-51000D01*
G01*
X11466000Y-4700000D01*
G75*
G02*
X11415000Y-4751000I-51000J0D01*
G01*
G37*
G36*
G01*
X8775000Y-5151000D02*
X7635000Y-5151000D01*
G75*
G02*
X7584000Y-5100000I0J51000D01*
G01*
X7584000Y-4900000D01*
G75*
G02*
X7635000Y-4849000I51000J0D01*
G01*
X8775000Y-4849000D01*
G75*
G02*
X8826000Y-4900000I0J-51000D01*
G01*
X8826000Y-5100000D01*
G75*
G02*
X8775000Y-5151000I-51000J0D01*
G01*
G37*
G36*
G01*
X11415000Y-5151000D02*
X10275000Y-5151000D01*
G75*
G02*
X10224000Y-5100000I0J51000D01*
G01*
X10224000Y-4900000D01*
G75*
G02*
X10275000Y-4849000I51000J0D01*
G01*
X11415000Y-4849000D01*
G75*
G02*
X11466000Y-4900000I0J-51000D01*
G01*
X11466000Y-5100000D01*
G75*
G02*
X11415000Y-5151000I-51000J0D01*
G01*
G37*
G36*
G01*
X8775000Y-5551000D02*
X7635000Y-5551000D01*
G75*
G02*
X7584000Y-5500000I0J51000D01*
G01*
X7584000Y-5300000D01*
G75*
G02*
X7635000Y-5249000I51000J0D01*
G01*
X8775000Y-5249000D01*
G75*
G02*
X8826000Y-5300000I0J-51000D01*
G01*
X8826000Y-5500000D01*
G75*
G02*
X8775000Y-5551000I-51000J0D01*
G01*
G37*
G36*
G01*
X11415000Y-5551000D02*
X10275000Y-5551000D01*
G75*
G02*
X10224000Y-5500000I0J51000D01*
G01*
X10224000Y-5300000D01*
G75*
G02*
X10275000Y-5249000I51000J0D01*
G01*
X11415000Y-5249000D01*
G75*
G02*
X11466000Y-5300000I0J-51000D01*
G01*
X11466000Y-5500000D01*
G75*
G02*
X11415000Y-5551000I-51000J0D01*
G01*
G37*
G36*
G01*
X8775000Y-5951000D02*
X7635000Y-5951000D01*
G75*
G02*
X7584000Y-5900000I0J51000D01*
G01*
X7584000Y-5700000D01*
G75*
G02*
X7635000Y-5649000I51000J0D01*
G01*
X8775000Y-5649000D01*
G75*
G02*
X8826000Y-5700000I0J-51000D01*
G01*
X8826000Y-5900000D01*
G75*
G02*
X8775000Y-5951000I-51000J0D01*
G01*
G37*
G36*
G01*
X11415000Y-5951000D02*
X10275000Y-5951000D01*
G75*
G02*
X10224000Y-5900000I0J51000D01*
G01*
X10224000Y-5700000D01*
G75*
G02*
X10275000Y-5649000I51000J0D01*
G01*
X11415000Y-5649000D01*
G75*
G02*
X11466000Y-5700000I0J-51000D01*
G01*
X11466000Y-5900000D01*
G75*
G02*
X11415000Y-5951000I-51000J0D01*
G01*
G37*
G36*
G01*
X8775000Y-6351000D02*
X7635000Y-6351000D01*
G75*
G02*
X7584000Y-6300000I0J51000D01*
G01*
X7584000Y-6100000D01*
G75*
G02*
X7635000Y-6049000I51000J0D01*
G01*
X8775000Y-6049000D01*
G75*
G02*
X8826000Y-6100000I0J-51000D01*
G01*
X8826000Y-6300000D01*
G75*
G02*
X8775000Y-6351000I-51000J0D01*
G01*
G37*
G36*
G01*
X11415000Y-6351000D02*
X10275000Y-6351000D01*
G75*
G02*
X10224000Y-6300000I0J51000D01*
G01*
X10224000Y-6100000D01*
G75*
G02*
X10275000Y-6049000I51000J0D01*
G01*
X11415000Y-6049000D01*
G75*
G02*
X11466000Y-6100000I0J-51000D01*
G01*
X11466000Y-6300000D01*
G75*
G02*
X11415000Y-6351000I-51000J0D01*
G01*
G37*
G36*
G01*
X8775000Y-6751000D02*
X7635000Y-6751000D01*
G75*
G02*
X7584000Y-6700000I0J51000D01*
G01*
X7584000Y-6500000D01*
G75*
G02*
X7635000Y-6449000I51000J0D01*
G01*
X8775000Y-6449000D01*
G75*
G02*
X8826000Y-6500000I0J-51000D01*
G01*
X8826000Y-6700000D01*
G75*
G02*
X8775000Y-6751000I-51000J0D01*
G01*
G37*
G36*
G01*
X11415000Y-6751000D02*
X10275000Y-6751000D01*
G75*
G02*
X10224000Y-6700000I0J51000D01*
G01*
X10224000Y-6500000D01*
G75*
G02*
X10275000Y-6449000I51000J0D01*
G01*
X11415000Y-6449000D01*
G75*
G02*
X11466000Y-6500000I0J-51000D01*
G01*
X11466000Y-6700000D01*
G75*
G02*
X11415000Y-6751000I-51000J0D01*
G01*
G37*
G36*
G01*
X8775000Y-7151000D02*
X7635000Y-7151000D01*
G75*
G02*
X7584000Y-7100000I0J51000D01*
G01*
X7584000Y-6900000D01*
G75*
G02*
X7635000Y-6849000I51000J0D01*
G01*
X8775000Y-6849000D01*
G75*
G02*
X8826000Y-6900000I0J-51000D01*
G01*
X8826000Y-7100000D01*
G75*
G02*
X8775000Y-7151000I-51000J0D01*
G01*
G37*
G36*
G01*
X11415000Y-7151000D02*
X10275000Y-7151000D01*
G75*
G02*
X10224000Y-7100000I0J51000D01*
G01*
X10224000Y-6900000D01*
G75*
G02*
X10275000Y-6849000I51000J0D01*
G01*
X11415000Y-6849000D01*
G75*
G02*
X11466000Y-6900000I0J-51000D01*
G01*
X11466000Y-7100000D01*
G75*
G02*
X11415000Y-7151000I-51000J0D01*
G01*
G37*
G36*
G01*
X8775000Y-7551000D02*
X7635000Y-7551000D01*
G75*
G02*
X7584000Y-7500000I0J51000D01*
G01*
X7584000Y-7300000D01*
G75*
G02*
X7635000Y-7249000I51000J0D01*
G01*
X8775000Y-7249000D01*
G75*
G02*
X8826000Y-7300000I0J-51000D01*
G01*
X8826000Y-7500000D01*
G75*
G02*
X8775000Y-7551000I-51000J0D01*
G01*
G37*
G36*
G01*
X11415000Y-7551000D02*
X10275000Y-7551000D01*
G75*
G02*
X10224000Y-7500000I0J51000D01*
G01*
X10224000Y-7300000D01*
G75*
G02*
X10275000Y-7249000I51000J0D01*
G01*
X11415000Y-7249000D01*
G75*
G02*
X11466000Y-7300000I0J-51000D01*
G01*
X11466000Y-7500000D01*
G75*
G02*
X11415000Y-7551000I-51000J0D01*
G01*
G37*
G36*
G01*
X8775000Y-7951000D02*
X7635000Y-7951000D01*
G75*
G02*
X7584000Y-7900000I0J51000D01*
G01*
X7584000Y-7700000D01*
G75*
G02*
X7635000Y-7649000I51000J0D01*
G01*
X8775000Y-7649000D01*
G75*
G02*
X8826000Y-7700000I0J-51000D01*
G01*
X8826000Y-7900000D01*
G75*
G02*
X8775000Y-7951000I-51000J0D01*
G01*
G37*
G36*
G01*
X11415000Y-7951000D02*
X10275000Y-7951000D01*
G75*
G02*
X10224000Y-7900000I0J51000D01*
G01*
X10224000Y-7700000D01*
G75*
G02*
X10275000Y-7649000I51000J0D01*
G01*
X11415000Y-7649000D01*
G75*
G02*
X11466000Y-7700000I0J-51000D01*
G01*
X11466000Y-7900000D01*
G75*
G02*
X11415000Y-7951000I-51000J0D01*
G01*
G37*
X-26670000Y-17780000D03*
X-26670000Y-15240000D03*
X-26670000Y-12700000D03*
X-26670000Y-10160000D03*
X-26670000Y-7620000D03*
X-26670000Y-5080000D03*
X-26670000Y-2540000D03*
X-26670000Y0D03*
X-26670000Y2540000D03*
X-26670000Y5080000D03*
X-26670000Y7620000D03*
X-26670000Y10160000D03*
X-26670000Y12700000D03*
X-26670000Y15240000D03*
G36*
G01*
X-25769000Y18630000D02*
X-25769000Y16930000D01*
G75*
G02*
X-25820000Y16879000I-51000J0D01*
G01*
X-27520000Y16879000D01*
G75*
G02*
X-27571000Y16930000I0J51000D01*
G01*
X-27571000Y18630000D01*
G75*
G02*
X-27520000Y18681000I51000J0D01*
G01*
X-25820000Y18681000D01*
G75*
G02*
X-25769000Y18630000I0J-51000D01*
G01*
G37*
X-24130000Y-17780000D03*
X-24130000Y-15240000D03*
X-24130000Y-12700000D03*
X-24130000Y-10160000D03*
X-24130000Y-7620000D03*
X-24130000Y-5080000D03*
X-24130000Y-2540000D03*
X-24130000Y0D03*
X-24130000Y2540000D03*
X-24130000Y5080000D03*
X-24130000Y7620000D03*
X-24130000Y10160000D03*
X-24130000Y12700000D03*
X-24130000Y15240000D03*
G36*
G01*
X-23229000Y18630000D02*
X-23229000Y16930000D01*
G75*
G02*
X-23280000Y16879000I-51000J0D01*
G01*
X-24980000Y16879000D01*
G75*
G02*
X-25031000Y16930000I0J51000D01*
G01*
X-25031000Y18630000D01*
G75*
G02*
X-24980000Y18681000I51000J0D01*
G01*
X-23280000Y18681000D01*
G75*
G02*
X-23229000Y18630000I0J-51000D01*
G01*
G37*
X-21590000Y-17780000D03*
X-21590000Y-15240000D03*
X-21590000Y-12700000D03*
X-21590000Y-10160000D03*
X-21590000Y-7620000D03*
X-21590000Y-5080000D03*
X-21590000Y-2540000D03*
X-21590000Y0D03*
X-21590000Y2540000D03*
X-21590000Y5080000D03*
X-21590000Y7620000D03*
X-21590000Y10160000D03*
X-21590000Y12700000D03*
X-21590000Y15240000D03*
G36*
G01*
X-20689000Y18630000D02*
X-20689000Y16930000D01*
G75*
G02*
X-20740000Y16879000I-51000J0D01*
G01*
X-22440000Y16879000D01*
G75*
G02*
X-22491000Y16930000I0J51000D01*
G01*
X-22491000Y18630000D01*
G75*
G02*
X-22440000Y18681000I51000J0D01*
G01*
X-20740000Y18681000D01*
G75*
G02*
X-20689000Y18630000I0J-51000D01*
G01*
G37*
X-19050000Y-17780000D03*
X-19050000Y-15240000D03*
X-19050000Y-12700000D03*
X-19050000Y-10160000D03*
X-19050000Y-7620000D03*
X-19050000Y-5080000D03*
X-19050000Y-2540000D03*
X-19050000Y0D03*
X-19050000Y2540000D03*
X-19050000Y5080000D03*
X-19050000Y7620000D03*
X-19050000Y10160000D03*
X-19050000Y12700000D03*
X-19050000Y15240000D03*
G36*
G01*
X-18149000Y18630000D02*
X-18149000Y16930000D01*
G75*
G02*
X-18200000Y16879000I-51000J0D01*
G01*
X-19900000Y16879000D01*
G75*
G02*
X-19951000Y16930000I0J51000D01*
G01*
X-19951000Y18630000D01*
G75*
G02*
X-19900000Y18681000I51000J0D01*
G01*
X-18200000Y18681000D01*
G75*
G02*
X-18149000Y18630000I0J-51000D01*
G01*
G37*
G36*
G01*
X-15609000Y18630000D02*
X-15609000Y16930000D01*
G75*
G02*
X-15660000Y16879000I-51000J0D01*
G01*
X-17360000Y16879000D01*
G75*
G02*
X-17411000Y16930000I0J51000D01*
G01*
X-17411000Y18630000D01*
G75*
G02*
X-17360000Y18681000I51000J0D01*
G01*
X-15660000Y18681000D01*
G75*
G02*
X-15609000Y18630000I0J-51000D01*
G01*
G37*
X-16510000Y15240000D03*
X-16510000Y12700000D03*
X-16510000Y10160000D03*
X-16510000Y7620000D03*
X-16510000Y5080000D03*
X-16510000Y2540000D03*
X-16510000Y0D03*
X-16510000Y-2540000D03*
X-16510000Y-5080000D03*
X-16510000Y-7620000D03*
X-16510000Y-10160000D03*
X-16510000Y-12700000D03*
X-16510000Y-15240000D03*
X-16510000Y-17780000D03*
G36*
G01*
X-10275000Y7649000D02*
X-11415000Y7649000D01*
G75*
G02*
X-11466000Y7700000I0J51000D01*
G01*
X-11466000Y7900000D01*
G75*
G02*
X-11415000Y7951000I51000J0D01*
G01*
X-10275000Y7951000D01*
G75*
G02*
X-10224000Y7900000I0J-51000D01*
G01*
X-10224000Y7700000D01*
G75*
G02*
X-10275000Y7649000I-51000J0D01*
G01*
G37*
G36*
G01*
X-7635000Y7649000D02*
X-8775000Y7649000D01*
G75*
G02*
X-8826000Y7700000I0J51000D01*
G01*
X-8826000Y7900000D01*
G75*
G02*
X-8775000Y7951000I51000J0D01*
G01*
X-7635000Y7951000D01*
G75*
G02*
X-7584000Y7900000I0J-51000D01*
G01*
X-7584000Y7700000D01*
G75*
G02*
X-7635000Y7649000I-51000J0D01*
G01*
G37*
G36*
G01*
X-10275000Y7249000D02*
X-11415000Y7249000D01*
G75*
G02*
X-11466000Y7300000I0J51000D01*
G01*
X-11466000Y7500000D01*
G75*
G02*
X-11415000Y7551000I51000J0D01*
G01*
X-10275000Y7551000D01*
G75*
G02*
X-10224000Y7500000I0J-51000D01*
G01*
X-10224000Y7300000D01*
G75*
G02*
X-10275000Y7249000I-51000J0D01*
G01*
G37*
G36*
G01*
X-7635000Y7249000D02*
X-8775000Y7249000D01*
G75*
G02*
X-8826000Y7300000I0J51000D01*
G01*
X-8826000Y7500000D01*
G75*
G02*
X-8775000Y7551000I51000J0D01*
G01*
X-7635000Y7551000D01*
G75*
G02*
X-7584000Y7500000I0J-51000D01*
G01*
X-7584000Y7300000D01*
G75*
G02*
X-7635000Y7249000I-51000J0D01*
G01*
G37*
G36*
G01*
X-10275000Y6849000D02*
X-11415000Y6849000D01*
G75*
G02*
X-11466000Y6900000I0J51000D01*
G01*
X-11466000Y7100000D01*
G75*
G02*
X-11415000Y7151000I51000J0D01*
G01*
X-10275000Y7151000D01*
G75*
G02*
X-10224000Y7100000I0J-51000D01*
G01*
X-10224000Y6900000D01*
G75*
G02*
X-10275000Y6849000I-51000J0D01*
G01*
G37*
G36*
G01*
X-7635000Y6849000D02*
X-8775000Y6849000D01*
G75*
G02*
X-8826000Y6900000I0J51000D01*
G01*
X-8826000Y7100000D01*
G75*
G02*
X-8775000Y7151000I51000J0D01*
G01*
X-7635000Y7151000D01*
G75*
G02*
X-7584000Y7100000I0J-51000D01*
G01*
X-7584000Y6900000D01*
G75*
G02*
X-7635000Y6849000I-51000J0D01*
G01*
G37*
G36*
G01*
X-10275000Y6449000D02*
X-11415000Y6449000D01*
G75*
G02*
X-11466000Y6500000I0J51000D01*
G01*
X-11466000Y6700000D01*
G75*
G02*
X-11415000Y6751000I51000J0D01*
G01*
X-10275000Y6751000D01*
G75*
G02*
X-10224000Y6700000I0J-51000D01*
G01*
X-10224000Y6500000D01*
G75*
G02*
X-10275000Y6449000I-51000J0D01*
G01*
G37*
G36*
G01*
X-7635000Y6449000D02*
X-8775000Y6449000D01*
G75*
G02*
X-8826000Y6500000I0J51000D01*
G01*
X-8826000Y6700000D01*
G75*
G02*
X-8775000Y6751000I51000J0D01*
G01*
X-7635000Y6751000D01*
G75*
G02*
X-7584000Y6700000I0J-51000D01*
G01*
X-7584000Y6500000D01*
G75*
G02*
X-7635000Y6449000I-51000J0D01*
G01*
G37*
G36*
G01*
X-10275000Y6049000D02*
X-11415000Y6049000D01*
G75*
G02*
X-11466000Y6100000I0J51000D01*
G01*
X-11466000Y6300000D01*
G75*
G02*
X-11415000Y6351000I51000J0D01*
G01*
X-10275000Y6351000D01*
G75*
G02*
X-10224000Y6300000I0J-51000D01*
G01*
X-10224000Y6100000D01*
G75*
G02*
X-10275000Y6049000I-51000J0D01*
G01*
G37*
G36*
G01*
X-7635000Y6049000D02*
X-8775000Y6049000D01*
G75*
G02*
X-8826000Y6100000I0J51000D01*
G01*
X-8826000Y6300000D01*
G75*
G02*
X-8775000Y6351000I51000J0D01*
G01*
X-7635000Y6351000D01*
G75*
G02*
X-7584000Y6300000I0J-51000D01*
G01*
X-7584000Y6100000D01*
G75*
G02*
X-7635000Y6049000I-51000J0D01*
G01*
G37*
G36*
G01*
X-10275000Y5649000D02*
X-11415000Y5649000D01*
G75*
G02*
X-11466000Y5700000I0J51000D01*
G01*
X-11466000Y5900000D01*
G75*
G02*
X-11415000Y5951000I51000J0D01*
G01*
X-10275000Y5951000D01*
G75*
G02*
X-10224000Y5900000I0J-51000D01*
G01*
X-10224000Y5700000D01*
G75*
G02*
X-10275000Y5649000I-51000J0D01*
G01*
G37*
G36*
G01*
X-7635000Y5649000D02*
X-8775000Y5649000D01*
G75*
G02*
X-8826000Y5700000I0J51000D01*
G01*
X-8826000Y5900000D01*
G75*
G02*
X-8775000Y5951000I51000J0D01*
G01*
X-7635000Y5951000D01*
G75*
G02*
X-7584000Y5900000I0J-51000D01*
G01*
X-7584000Y5700000D01*
G75*
G02*
X-7635000Y5649000I-51000J0D01*
G01*
G37*
G36*
G01*
X-10275000Y5249000D02*
X-11415000Y5249000D01*
G75*
G02*
X-11466000Y5300000I0J51000D01*
G01*
X-11466000Y5500000D01*
G75*
G02*
X-11415000Y5551000I51000J0D01*
G01*
X-10275000Y5551000D01*
G75*
G02*
X-10224000Y5500000I0J-51000D01*
G01*
X-10224000Y5300000D01*
G75*
G02*
X-10275000Y5249000I-51000J0D01*
G01*
G37*
G36*
G01*
X-7635000Y5249000D02*
X-8775000Y5249000D01*
G75*
G02*
X-8826000Y5300000I0J51000D01*
G01*
X-8826000Y5500000D01*
G75*
G02*
X-8775000Y5551000I51000J0D01*
G01*
X-7635000Y5551000D01*
G75*
G02*
X-7584000Y5500000I0J-51000D01*
G01*
X-7584000Y5300000D01*
G75*
G02*
X-7635000Y5249000I-51000J0D01*
G01*
G37*
G36*
G01*
X-10275000Y4849000D02*
X-11415000Y4849000D01*
G75*
G02*
X-11466000Y4900000I0J51000D01*
G01*
X-11466000Y5100000D01*
G75*
G02*
X-11415000Y5151000I51000J0D01*
G01*
X-10275000Y5151000D01*
G75*
G02*
X-10224000Y5100000I0J-51000D01*
G01*
X-10224000Y4900000D01*
G75*
G02*
X-10275000Y4849000I-51000J0D01*
G01*
G37*
G36*
G01*
X-7635000Y4849000D02*
X-8775000Y4849000D01*
G75*
G02*
X-8826000Y4900000I0J51000D01*
G01*
X-8826000Y5100000D01*
G75*
G02*
X-8775000Y5151000I51000J0D01*
G01*
X-7635000Y5151000D01*
G75*
G02*
X-7584000Y5100000I0J-51000D01*
G01*
X-7584000Y4900000D01*
G75*
G02*
X-7635000Y4849000I-51000J0D01*
G01*
G37*
G36*
G01*
X-10275000Y4449000D02*
X-11415000Y4449000D01*
G75*
G02*
X-11466000Y4500000I0J51000D01*
G01*
X-11466000Y4700000D01*
G75*
G02*
X-11415000Y4751000I51000J0D01*
G01*
X-10275000Y4751000D01*
G75*
G02*
X-10224000Y4700000I0J-51000D01*
G01*
X-10224000Y4500000D01*
G75*
G02*
X-10275000Y4449000I-51000J0D01*
G01*
G37*
G36*
G01*
X-7635000Y4449000D02*
X-8775000Y4449000D01*
G75*
G02*
X-8826000Y4500000I0J51000D01*
G01*
X-8826000Y4700000D01*
G75*
G02*
X-8775000Y4751000I51000J0D01*
G01*
X-7635000Y4751000D01*
G75*
G02*
X-7584000Y4700000I0J-51000D01*
G01*
X-7584000Y4500000D01*
G75*
G02*
X-7635000Y4449000I-51000J0D01*
G01*
G37*
G36*
G01*
X-10275000Y4049000D02*
X-11415000Y4049000D01*
G75*
G02*
X-11466000Y4100000I0J51000D01*
G01*
X-11466000Y4300000D01*
G75*
G02*
X-11415000Y4351000I51000J0D01*
G01*
X-10275000Y4351000D01*
G75*
G02*
X-10224000Y4300000I0J-51000D01*
G01*
X-10224000Y4100000D01*
G75*
G02*
X-10275000Y4049000I-51000J0D01*
G01*
G37*
G36*
G01*
X-7635000Y4049000D02*
X-8775000Y4049000D01*
G75*
G02*
X-8826000Y4100000I0J51000D01*
G01*
X-8826000Y4300000D01*
G75*
G02*
X-8775000Y4351000I51000J0D01*
G01*
X-7635000Y4351000D01*
G75*
G02*
X-7584000Y4300000I0J-51000D01*
G01*
X-7584000Y4100000D01*
G75*
G02*
X-7635000Y4049000I-51000J0D01*
G01*
G37*
G36*
G01*
X-10275000Y3649000D02*
X-11415000Y3649000D01*
G75*
G02*
X-11466000Y3700000I0J51000D01*
G01*
X-11466000Y3900000D01*
G75*
G02*
X-11415000Y3951000I51000J0D01*
G01*
X-10275000Y3951000D01*
G75*
G02*
X-10224000Y3900000I0J-51000D01*
G01*
X-10224000Y3700000D01*
G75*
G02*
X-10275000Y3649000I-51000J0D01*
G01*
G37*
G36*
G01*
X-7635000Y3649000D02*
X-8775000Y3649000D01*
G75*
G02*
X-8826000Y3700000I0J51000D01*
G01*
X-8826000Y3900000D01*
G75*
G02*
X-8775000Y3951000I51000J0D01*
G01*
X-7635000Y3951000D01*
G75*
G02*
X-7584000Y3900000I0J-51000D01*
G01*
X-7584000Y3700000D01*
G75*
G02*
X-7635000Y3649000I-51000J0D01*
G01*
G37*
G36*
G01*
X-10275000Y3249000D02*
X-11415000Y3249000D01*
G75*
G02*
X-11466000Y3300000I0J51000D01*
G01*
X-11466000Y3500000D01*
G75*
G02*
X-11415000Y3551000I51000J0D01*
G01*
X-10275000Y3551000D01*
G75*
G02*
X-10224000Y3500000I0J-51000D01*
G01*
X-10224000Y3300000D01*
G75*
G02*
X-10275000Y3249000I-51000J0D01*
G01*
G37*
G36*
G01*
X-7635000Y3249000D02*
X-8775000Y3249000D01*
G75*
G02*
X-8826000Y3300000I0J51000D01*
G01*
X-8826000Y3500000D01*
G75*
G02*
X-8775000Y3551000I51000J0D01*
G01*
X-7635000Y3551000D01*
G75*
G02*
X-7584000Y3500000I0J-51000D01*
G01*
X-7584000Y3300000D01*
G75*
G02*
X-7635000Y3249000I-51000J0D01*
G01*
G37*
G36*
G01*
X-10275000Y2849000D02*
X-11415000Y2849000D01*
G75*
G02*
X-11466000Y2900000I0J51000D01*
G01*
X-11466000Y3100000D01*
G75*
G02*
X-11415000Y3151000I51000J0D01*
G01*
X-10275000Y3151000D01*
G75*
G02*
X-10224000Y3100000I0J-51000D01*
G01*
X-10224000Y2900000D01*
G75*
G02*
X-10275000Y2849000I-51000J0D01*
G01*
G37*
G36*
G01*
X-7635000Y2849000D02*
X-8775000Y2849000D01*
G75*
G02*
X-8826000Y2900000I0J51000D01*
G01*
X-8826000Y3100000D01*
G75*
G02*
X-8775000Y3151000I51000J0D01*
G01*
X-7635000Y3151000D01*
G75*
G02*
X-7584000Y3100000I0J-51000D01*
G01*
X-7584000Y2900000D01*
G75*
G02*
X-7635000Y2849000I-51000J0D01*
G01*
G37*
G36*
G01*
X-10275000Y2449000D02*
X-11415000Y2449000D01*
G75*
G02*
X-11466000Y2500000I0J51000D01*
G01*
X-11466000Y2700000D01*
G75*
G02*
X-11415000Y2751000I51000J0D01*
G01*
X-10275000Y2751000D01*
G75*
G02*
X-10224000Y2700000I0J-51000D01*
G01*
X-10224000Y2500000D01*
G75*
G02*
X-10275000Y2449000I-51000J0D01*
G01*
G37*
G36*
G01*
X-7635000Y2449000D02*
X-8775000Y2449000D01*
G75*
G02*
X-8826000Y2500000I0J51000D01*
G01*
X-8826000Y2700000D01*
G75*
G02*
X-8775000Y2751000I51000J0D01*
G01*
X-7635000Y2751000D01*
G75*
G02*
X-7584000Y2700000I0J-51000D01*
G01*
X-7584000Y2500000D01*
G75*
G02*
X-7635000Y2449000I-51000J0D01*
G01*
G37*
G36*
G01*
X-10275000Y2049000D02*
X-11415000Y2049000D01*
G75*
G02*
X-11466000Y2100000I0J51000D01*
G01*
X-11466000Y2300000D01*
G75*
G02*
X-11415000Y2351000I51000J0D01*
G01*
X-10275000Y2351000D01*
G75*
G02*
X-10224000Y2300000I0J-51000D01*
G01*
X-10224000Y2100000D01*
G75*
G02*
X-10275000Y2049000I-51000J0D01*
G01*
G37*
G36*
G01*
X-7635000Y2049000D02*
X-8775000Y2049000D01*
G75*
G02*
X-8826000Y2100000I0J51000D01*
G01*
X-8826000Y2300000D01*
G75*
G02*
X-8775000Y2351000I51000J0D01*
G01*
X-7635000Y2351000D01*
G75*
G02*
X-7584000Y2300000I0J-51000D01*
G01*
X-7584000Y2100000D01*
G75*
G02*
X-7635000Y2049000I-51000J0D01*
G01*
G37*
G36*
G01*
X-10275000Y1649000D02*
X-11415000Y1649000D01*
G75*
G02*
X-11466000Y1700000I0J51000D01*
G01*
X-11466000Y1900000D01*
G75*
G02*
X-11415000Y1951000I51000J0D01*
G01*
X-10275000Y1951000D01*
G75*
G02*
X-10224000Y1900000I0J-51000D01*
G01*
X-10224000Y1700000D01*
G75*
G02*
X-10275000Y1649000I-51000J0D01*
G01*
G37*
G36*
G01*
X-7635000Y1649000D02*
X-8775000Y1649000D01*
G75*
G02*
X-8826000Y1700000I0J51000D01*
G01*
X-8826000Y1900000D01*
G75*
G02*
X-8775000Y1951000I51000J0D01*
G01*
X-7635000Y1951000D01*
G75*
G02*
X-7584000Y1900000I0J-51000D01*
G01*
X-7584000Y1700000D01*
G75*
G02*
X-7635000Y1649000I-51000J0D01*
G01*
G37*
G36*
G01*
X-10275000Y1249000D02*
X-11415000Y1249000D01*
G75*
G02*
X-11466000Y1300000I0J51000D01*
G01*
X-11466000Y1500000D01*
G75*
G02*
X-11415000Y1551000I51000J0D01*
G01*
X-10275000Y1551000D01*
G75*
G02*
X-10224000Y1500000I0J-51000D01*
G01*
X-10224000Y1300000D01*
G75*
G02*
X-10275000Y1249000I-51000J0D01*
G01*
G37*
G36*
G01*
X-7635000Y1249000D02*
X-8775000Y1249000D01*
G75*
G02*
X-8826000Y1300000I0J51000D01*
G01*
X-8826000Y1500000D01*
G75*
G02*
X-8775000Y1551000I51000J0D01*
G01*
X-7635000Y1551000D01*
G75*
G02*
X-7584000Y1500000I0J-51000D01*
G01*
X-7584000Y1300000D01*
G75*
G02*
X-7635000Y1249000I-51000J0D01*
G01*
G37*
G36*
G01*
X-10275000Y849000D02*
X-11415000Y849000D01*
G75*
G02*
X-11466000Y900000I0J51000D01*
G01*
X-11466000Y1100000D01*
G75*
G02*
X-11415000Y1151000I51000J0D01*
G01*
X-10275000Y1151000D01*
G75*
G02*
X-10224000Y1100000I0J-51000D01*
G01*
X-10224000Y900000D01*
G75*
G02*
X-10275000Y849000I-51000J0D01*
G01*
G37*
G36*
G01*
X-7635000Y849000D02*
X-8775000Y849000D01*
G75*
G02*
X-8826000Y900000I0J51000D01*
G01*
X-8826000Y1100000D01*
G75*
G02*
X-8775000Y1151000I51000J0D01*
G01*
X-7635000Y1151000D01*
G75*
G02*
X-7584000Y1100000I0J-51000D01*
G01*
X-7584000Y900000D01*
G75*
G02*
X-7635000Y849000I-51000J0D01*
G01*
G37*
G36*
G01*
X-10275000Y449000D02*
X-11415000Y449000D01*
G75*
G02*
X-11466000Y500000I0J51000D01*
G01*
X-11466000Y700000D01*
G75*
G02*
X-11415000Y751000I51000J0D01*
G01*
X-10275000Y751000D01*
G75*
G02*
X-10224000Y700000I0J-51000D01*
G01*
X-10224000Y500000D01*
G75*
G02*
X-10275000Y449000I-51000J0D01*
G01*
G37*
G36*
G01*
X-7635000Y449000D02*
X-8775000Y449000D01*
G75*
G02*
X-8826000Y500000I0J51000D01*
G01*
X-8826000Y700000D01*
G75*
G02*
X-8775000Y751000I51000J0D01*
G01*
X-7635000Y751000D01*
G75*
G02*
X-7584000Y700000I0J-51000D01*
G01*
X-7584000Y500000D01*
G75*
G02*
X-7635000Y449000I-51000J0D01*
G01*
G37*
G36*
G01*
X-10275000Y49000D02*
X-11415000Y49000D01*
G75*
G02*
X-11466000Y100000I0J51000D01*
G01*
X-11466000Y300000D01*
G75*
G02*
X-11415000Y351000I51000J0D01*
G01*
X-10275000Y351000D01*
G75*
G02*
X-10224000Y300000I0J-51000D01*
G01*
X-10224000Y100000D01*
G75*
G02*
X-10275000Y49000I-51000J0D01*
G01*
G37*
G36*
G01*
X-7635000Y49000D02*
X-8775000Y49000D01*
G75*
G02*
X-8826000Y100000I0J51000D01*
G01*
X-8826000Y300000D01*
G75*
G02*
X-8775000Y351000I51000J0D01*
G01*
X-7635000Y351000D01*
G75*
G02*
X-7584000Y300000I0J-51000D01*
G01*
X-7584000Y100000D01*
G75*
G02*
X-7635000Y49000I-51000J0D01*
G01*
G37*
G36*
G01*
X-10275000Y-351000D02*
X-11415000Y-351000D01*
G75*
G02*
X-11466000Y-300000I0J51000D01*
G01*
X-11466000Y-100000D01*
G75*
G02*
X-11415000Y-49000I51000J0D01*
G01*
X-10275000Y-49000D01*
G75*
G02*
X-10224000Y-100000I0J-51000D01*
G01*
X-10224000Y-300000D01*
G75*
G02*
X-10275000Y-351000I-51000J0D01*
G01*
G37*
G36*
G01*
X-7635000Y-351000D02*
X-8775000Y-351000D01*
G75*
G02*
X-8826000Y-300000I0J51000D01*
G01*
X-8826000Y-100000D01*
G75*
G02*
X-8775000Y-49000I51000J0D01*
G01*
X-7635000Y-49000D01*
G75*
G02*
X-7584000Y-100000I0J-51000D01*
G01*
X-7584000Y-300000D01*
G75*
G02*
X-7635000Y-351000I-51000J0D01*
G01*
G37*
G36*
G01*
X-10275000Y-751000D02*
X-11415000Y-751000D01*
G75*
G02*
X-11466000Y-700000I0J51000D01*
G01*
X-11466000Y-500000D01*
G75*
G02*
X-11415000Y-449000I51000J0D01*
G01*
X-10275000Y-449000D01*
G75*
G02*
X-10224000Y-500000I0J-51000D01*
G01*
X-10224000Y-700000D01*
G75*
G02*
X-10275000Y-751000I-51000J0D01*
G01*
G37*
G36*
G01*
X-7635000Y-751000D02*
X-8775000Y-751000D01*
G75*
G02*
X-8826000Y-700000I0J51000D01*
G01*
X-8826000Y-500000D01*
G75*
G02*
X-8775000Y-449000I51000J0D01*
G01*
X-7635000Y-449000D01*
G75*
G02*
X-7584000Y-500000I0J-51000D01*
G01*
X-7584000Y-700000D01*
G75*
G02*
X-7635000Y-751000I-51000J0D01*
G01*
G37*
G36*
G01*
X-10275000Y-1151000D02*
X-11415000Y-1151000D01*
G75*
G02*
X-11466000Y-1100000I0J51000D01*
G01*
X-11466000Y-900000D01*
G75*
G02*
X-11415000Y-849000I51000J0D01*
G01*
X-10275000Y-849000D01*
G75*
G02*
X-10224000Y-900000I0J-51000D01*
G01*
X-10224000Y-1100000D01*
G75*
G02*
X-10275000Y-1151000I-51000J0D01*
G01*
G37*
G36*
G01*
X-7635000Y-1151000D02*
X-8775000Y-1151000D01*
G75*
G02*
X-8826000Y-1100000I0J51000D01*
G01*
X-8826000Y-900000D01*
G75*
G02*
X-8775000Y-849000I51000J0D01*
G01*
X-7635000Y-849000D01*
G75*
G02*
X-7584000Y-900000I0J-51000D01*
G01*
X-7584000Y-1100000D01*
G75*
G02*
X-7635000Y-1151000I-51000J0D01*
G01*
G37*
G36*
G01*
X-10275000Y-1551000D02*
X-11415000Y-1551000D01*
G75*
G02*
X-11466000Y-1500000I0J51000D01*
G01*
X-11466000Y-1300000D01*
G75*
G02*
X-11415000Y-1249000I51000J0D01*
G01*
X-10275000Y-1249000D01*
G75*
G02*
X-10224000Y-1300000I0J-51000D01*
G01*
X-10224000Y-1500000D01*
G75*
G02*
X-10275000Y-1551000I-51000J0D01*
G01*
G37*
G36*
G01*
X-7635000Y-1551000D02*
X-8775000Y-1551000D01*
G75*
G02*
X-8826000Y-1500000I0J51000D01*
G01*
X-8826000Y-1300000D01*
G75*
G02*
X-8775000Y-1249000I51000J0D01*
G01*
X-7635000Y-1249000D01*
G75*
G02*
X-7584000Y-1300000I0J-51000D01*
G01*
X-7584000Y-1500000D01*
G75*
G02*
X-7635000Y-1551000I-51000J0D01*
G01*
G37*
G36*
G01*
X-10275000Y-1951000D02*
X-11415000Y-1951000D01*
G75*
G02*
X-11466000Y-1900000I0J51000D01*
G01*
X-11466000Y-1700000D01*
G75*
G02*
X-11415000Y-1649000I51000J0D01*
G01*
X-10275000Y-1649000D01*
G75*
G02*
X-10224000Y-1700000I0J-51000D01*
G01*
X-10224000Y-1900000D01*
G75*
G02*
X-10275000Y-1951000I-51000J0D01*
G01*
G37*
G36*
G01*
X-7635000Y-1951000D02*
X-8775000Y-1951000D01*
G75*
G02*
X-8826000Y-1900000I0J51000D01*
G01*
X-8826000Y-1700000D01*
G75*
G02*
X-8775000Y-1649000I51000J0D01*
G01*
X-7635000Y-1649000D01*
G75*
G02*
X-7584000Y-1700000I0J-51000D01*
G01*
X-7584000Y-1900000D01*
G75*
G02*
X-7635000Y-1951000I-51000J0D01*
G01*
G37*
G36*
G01*
X-10275000Y-2351000D02*
X-11415000Y-2351000D01*
G75*
G02*
X-11466000Y-2300000I0J51000D01*
G01*
X-11466000Y-2100000D01*
G75*
G02*
X-11415000Y-2049000I51000J0D01*
G01*
X-10275000Y-2049000D01*
G75*
G02*
X-10224000Y-2100000I0J-51000D01*
G01*
X-10224000Y-2300000D01*
G75*
G02*
X-10275000Y-2351000I-51000J0D01*
G01*
G37*
G36*
G01*
X-7635000Y-2351000D02*
X-8775000Y-2351000D01*
G75*
G02*
X-8826000Y-2300000I0J51000D01*
G01*
X-8826000Y-2100000D01*
G75*
G02*
X-8775000Y-2049000I51000J0D01*
G01*
X-7635000Y-2049000D01*
G75*
G02*
X-7584000Y-2100000I0J-51000D01*
G01*
X-7584000Y-2300000D01*
G75*
G02*
X-7635000Y-2351000I-51000J0D01*
G01*
G37*
G36*
G01*
X-10275000Y-2751000D02*
X-11415000Y-2751000D01*
G75*
G02*
X-11466000Y-2700000I0J51000D01*
G01*
X-11466000Y-2500000D01*
G75*
G02*
X-11415000Y-2449000I51000J0D01*
G01*
X-10275000Y-2449000D01*
G75*
G02*
X-10224000Y-2500000I0J-51000D01*
G01*
X-10224000Y-2700000D01*
G75*
G02*
X-10275000Y-2751000I-51000J0D01*
G01*
G37*
G36*
G01*
X-7635000Y-2751000D02*
X-8775000Y-2751000D01*
G75*
G02*
X-8826000Y-2700000I0J51000D01*
G01*
X-8826000Y-2500000D01*
G75*
G02*
X-8775000Y-2449000I51000J0D01*
G01*
X-7635000Y-2449000D01*
G75*
G02*
X-7584000Y-2500000I0J-51000D01*
G01*
X-7584000Y-2700000D01*
G75*
G02*
X-7635000Y-2751000I-51000J0D01*
G01*
G37*
G36*
G01*
X-10275000Y-3151000D02*
X-11415000Y-3151000D01*
G75*
G02*
X-11466000Y-3100000I0J51000D01*
G01*
X-11466000Y-2900000D01*
G75*
G02*
X-11415000Y-2849000I51000J0D01*
G01*
X-10275000Y-2849000D01*
G75*
G02*
X-10224000Y-2900000I0J-51000D01*
G01*
X-10224000Y-3100000D01*
G75*
G02*
X-10275000Y-3151000I-51000J0D01*
G01*
G37*
G36*
G01*
X-7635000Y-3151000D02*
X-8775000Y-3151000D01*
G75*
G02*
X-8826000Y-3100000I0J51000D01*
G01*
X-8826000Y-2900000D01*
G75*
G02*
X-8775000Y-2849000I51000J0D01*
G01*
X-7635000Y-2849000D01*
G75*
G02*
X-7584000Y-2900000I0J-51000D01*
G01*
X-7584000Y-3100000D01*
G75*
G02*
X-7635000Y-3151000I-51000J0D01*
G01*
G37*
G36*
G01*
X-10275000Y-3551000D02*
X-11415000Y-3551000D01*
G75*
G02*
X-11466000Y-3500000I0J51000D01*
G01*
X-11466000Y-3300000D01*
G75*
G02*
X-11415000Y-3249000I51000J0D01*
G01*
X-10275000Y-3249000D01*
G75*
G02*
X-10224000Y-3300000I0J-51000D01*
G01*
X-10224000Y-3500000D01*
G75*
G02*
X-10275000Y-3551000I-51000J0D01*
G01*
G37*
G36*
G01*
X-7635000Y-3551000D02*
X-8775000Y-3551000D01*
G75*
G02*
X-8826000Y-3500000I0J51000D01*
G01*
X-8826000Y-3300000D01*
G75*
G02*
X-8775000Y-3249000I51000J0D01*
G01*
X-7635000Y-3249000D01*
G75*
G02*
X-7584000Y-3300000I0J-51000D01*
G01*
X-7584000Y-3500000D01*
G75*
G02*
X-7635000Y-3551000I-51000J0D01*
G01*
G37*
G36*
G01*
X-10275000Y-3951000D02*
X-11415000Y-3951000D01*
G75*
G02*
X-11466000Y-3900000I0J51000D01*
G01*
X-11466000Y-3700000D01*
G75*
G02*
X-11415000Y-3649000I51000J0D01*
G01*
X-10275000Y-3649000D01*
G75*
G02*
X-10224000Y-3700000I0J-51000D01*
G01*
X-10224000Y-3900000D01*
G75*
G02*
X-10275000Y-3951000I-51000J0D01*
G01*
G37*
G36*
G01*
X-7635000Y-3951000D02*
X-8775000Y-3951000D01*
G75*
G02*
X-8826000Y-3900000I0J51000D01*
G01*
X-8826000Y-3700000D01*
G75*
G02*
X-8775000Y-3649000I51000J0D01*
G01*
X-7635000Y-3649000D01*
G75*
G02*
X-7584000Y-3700000I0J-51000D01*
G01*
X-7584000Y-3900000D01*
G75*
G02*
X-7635000Y-3951000I-51000J0D01*
G01*
G37*
G36*
G01*
X-10275000Y-4351000D02*
X-11415000Y-4351000D01*
G75*
G02*
X-11466000Y-4300000I0J51000D01*
G01*
X-11466000Y-4100000D01*
G75*
G02*
X-11415000Y-4049000I51000J0D01*
G01*
X-10275000Y-4049000D01*
G75*
G02*
X-10224000Y-4100000I0J-51000D01*
G01*
X-10224000Y-4300000D01*
G75*
G02*
X-10275000Y-4351000I-51000J0D01*
G01*
G37*
G36*
G01*
X-7635000Y-4351000D02*
X-8775000Y-4351000D01*
G75*
G02*
X-8826000Y-4300000I0J51000D01*
G01*
X-8826000Y-4100000D01*
G75*
G02*
X-8775000Y-4049000I51000J0D01*
G01*
X-7635000Y-4049000D01*
G75*
G02*
X-7584000Y-4100000I0J-51000D01*
G01*
X-7584000Y-4300000D01*
G75*
G02*
X-7635000Y-4351000I-51000J0D01*
G01*
G37*
G36*
G01*
X-10275000Y-4751000D02*
X-11415000Y-4751000D01*
G75*
G02*
X-11466000Y-4700000I0J51000D01*
G01*
X-11466000Y-4500000D01*
G75*
G02*
X-11415000Y-4449000I51000J0D01*
G01*
X-10275000Y-4449000D01*
G75*
G02*
X-10224000Y-4500000I0J-51000D01*
G01*
X-10224000Y-4700000D01*
G75*
G02*
X-10275000Y-4751000I-51000J0D01*
G01*
G37*
G36*
G01*
X-7635000Y-4751000D02*
X-8775000Y-4751000D01*
G75*
G02*
X-8826000Y-4700000I0J51000D01*
G01*
X-8826000Y-4500000D01*
G75*
G02*
X-8775000Y-4449000I51000J0D01*
G01*
X-7635000Y-4449000D01*
G75*
G02*
X-7584000Y-4500000I0J-51000D01*
G01*
X-7584000Y-4700000D01*
G75*
G02*
X-7635000Y-4751000I-51000J0D01*
G01*
G37*
G36*
G01*
X-10275000Y-5151000D02*
X-11415000Y-5151000D01*
G75*
G02*
X-11466000Y-5100000I0J51000D01*
G01*
X-11466000Y-4900000D01*
G75*
G02*
X-11415000Y-4849000I51000J0D01*
G01*
X-10275000Y-4849000D01*
G75*
G02*
X-10224000Y-4900000I0J-51000D01*
G01*
X-10224000Y-5100000D01*
G75*
G02*
X-10275000Y-5151000I-51000J0D01*
G01*
G37*
G36*
G01*
X-7635000Y-5151000D02*
X-8775000Y-5151000D01*
G75*
G02*
X-8826000Y-5100000I0J51000D01*
G01*
X-8826000Y-4900000D01*
G75*
G02*
X-8775000Y-4849000I51000J0D01*
G01*
X-7635000Y-4849000D01*
G75*
G02*
X-7584000Y-4900000I0J-51000D01*
G01*
X-7584000Y-5100000D01*
G75*
G02*
X-7635000Y-5151000I-51000J0D01*
G01*
G37*
G36*
G01*
X-10275000Y-5551000D02*
X-11415000Y-5551000D01*
G75*
G02*
X-11466000Y-5500000I0J51000D01*
G01*
X-11466000Y-5300000D01*
G75*
G02*
X-11415000Y-5249000I51000J0D01*
G01*
X-10275000Y-5249000D01*
G75*
G02*
X-10224000Y-5300000I0J-51000D01*
G01*
X-10224000Y-5500000D01*
G75*
G02*
X-10275000Y-5551000I-51000J0D01*
G01*
G37*
G36*
G01*
X-7635000Y-5551000D02*
X-8775000Y-5551000D01*
G75*
G02*
X-8826000Y-5500000I0J51000D01*
G01*
X-8826000Y-5300000D01*
G75*
G02*
X-8775000Y-5249000I51000J0D01*
G01*
X-7635000Y-5249000D01*
G75*
G02*
X-7584000Y-5300000I0J-51000D01*
G01*
X-7584000Y-5500000D01*
G75*
G02*
X-7635000Y-5551000I-51000J0D01*
G01*
G37*
G36*
G01*
X-10275000Y-5951000D02*
X-11415000Y-5951000D01*
G75*
G02*
X-11466000Y-5900000I0J51000D01*
G01*
X-11466000Y-5700000D01*
G75*
G02*
X-11415000Y-5649000I51000J0D01*
G01*
X-10275000Y-5649000D01*
G75*
G02*
X-10224000Y-5700000I0J-51000D01*
G01*
X-10224000Y-5900000D01*
G75*
G02*
X-10275000Y-5951000I-51000J0D01*
G01*
G37*
G36*
G01*
X-7635000Y-5951000D02*
X-8775000Y-5951000D01*
G75*
G02*
X-8826000Y-5900000I0J51000D01*
G01*
X-8826000Y-5700000D01*
G75*
G02*
X-8775000Y-5649000I51000J0D01*
G01*
X-7635000Y-5649000D01*
G75*
G02*
X-7584000Y-5700000I0J-51000D01*
G01*
X-7584000Y-5900000D01*
G75*
G02*
X-7635000Y-5951000I-51000J0D01*
G01*
G37*
G36*
G01*
X-10275000Y-6351000D02*
X-11415000Y-6351000D01*
G75*
G02*
X-11466000Y-6300000I0J51000D01*
G01*
X-11466000Y-6100000D01*
G75*
G02*
X-11415000Y-6049000I51000J0D01*
G01*
X-10275000Y-6049000D01*
G75*
G02*
X-10224000Y-6100000I0J-51000D01*
G01*
X-10224000Y-6300000D01*
G75*
G02*
X-10275000Y-6351000I-51000J0D01*
G01*
G37*
G36*
G01*
X-7635000Y-6351000D02*
X-8775000Y-6351000D01*
G75*
G02*
X-8826000Y-6300000I0J51000D01*
G01*
X-8826000Y-6100000D01*
G75*
G02*
X-8775000Y-6049000I51000J0D01*
G01*
X-7635000Y-6049000D01*
G75*
G02*
X-7584000Y-6100000I0J-51000D01*
G01*
X-7584000Y-6300000D01*
G75*
G02*
X-7635000Y-6351000I-51000J0D01*
G01*
G37*
G36*
G01*
X-10275000Y-6751000D02*
X-11415000Y-6751000D01*
G75*
G02*
X-11466000Y-6700000I0J51000D01*
G01*
X-11466000Y-6500000D01*
G75*
G02*
X-11415000Y-6449000I51000J0D01*
G01*
X-10275000Y-6449000D01*
G75*
G02*
X-10224000Y-6500000I0J-51000D01*
G01*
X-10224000Y-6700000D01*
G75*
G02*
X-10275000Y-6751000I-51000J0D01*
G01*
G37*
G36*
G01*
X-7635000Y-6751000D02*
X-8775000Y-6751000D01*
G75*
G02*
X-8826000Y-6700000I0J51000D01*
G01*
X-8826000Y-6500000D01*
G75*
G02*
X-8775000Y-6449000I51000J0D01*
G01*
X-7635000Y-6449000D01*
G75*
G02*
X-7584000Y-6500000I0J-51000D01*
G01*
X-7584000Y-6700000D01*
G75*
G02*
X-7635000Y-6751000I-51000J0D01*
G01*
G37*
G36*
G01*
X-10275000Y-7151000D02*
X-11415000Y-7151000D01*
G75*
G02*
X-11466000Y-7100000I0J51000D01*
G01*
X-11466000Y-6900000D01*
G75*
G02*
X-11415000Y-6849000I51000J0D01*
G01*
X-10275000Y-6849000D01*
G75*
G02*
X-10224000Y-6900000I0J-51000D01*
G01*
X-10224000Y-7100000D01*
G75*
G02*
X-10275000Y-7151000I-51000J0D01*
G01*
G37*
G36*
G01*
X-7635000Y-7151000D02*
X-8775000Y-7151000D01*
G75*
G02*
X-8826000Y-7100000I0J51000D01*
G01*
X-8826000Y-6900000D01*
G75*
G02*
X-8775000Y-6849000I51000J0D01*
G01*
X-7635000Y-6849000D01*
G75*
G02*
X-7584000Y-6900000I0J-51000D01*
G01*
X-7584000Y-7100000D01*
G75*
G02*
X-7635000Y-7151000I-51000J0D01*
G01*
G37*
G36*
G01*
X-10275000Y-7551000D02*
X-11415000Y-7551000D01*
G75*
G02*
X-11466000Y-7500000I0J51000D01*
G01*
X-11466000Y-7300000D01*
G75*
G02*
X-11415000Y-7249000I51000J0D01*
G01*
X-10275000Y-7249000D01*
G75*
G02*
X-10224000Y-7300000I0J-51000D01*
G01*
X-10224000Y-7500000D01*
G75*
G02*
X-10275000Y-7551000I-51000J0D01*
G01*
G37*
G36*
G01*
X-7635000Y-7551000D02*
X-8775000Y-7551000D01*
G75*
G02*
X-8826000Y-7500000I0J51000D01*
G01*
X-8826000Y-7300000D01*
G75*
G02*
X-8775000Y-7249000I51000J0D01*
G01*
X-7635000Y-7249000D01*
G75*
G02*
X-7584000Y-7300000I0J-51000D01*
G01*
X-7584000Y-7500000D01*
G75*
G02*
X-7635000Y-7551000I-51000J0D01*
G01*
G37*
G36*
G01*
X-10275000Y-7951000D02*
X-11415000Y-7951000D01*
G75*
G02*
X-11466000Y-7900000I0J51000D01*
G01*
X-11466000Y-7700000D01*
G75*
G02*
X-11415000Y-7649000I51000J0D01*
G01*
X-10275000Y-7649000D01*
G75*
G02*
X-10224000Y-7700000I0J-51000D01*
G01*
X-10224000Y-7900000D01*
G75*
G02*
X-10275000Y-7951000I-51000J0D01*
G01*
G37*
G36*
G01*
X-7635000Y-7951000D02*
X-8775000Y-7951000D01*
G75*
G02*
X-8826000Y-7900000I0J51000D01*
G01*
X-8826000Y-7700000D01*
G75*
G02*
X-8775000Y-7649000I51000J0D01*
G01*
X-7635000Y-7649000D01*
G75*
G02*
X-7584000Y-7700000I0J-51000D01*
G01*
X-7584000Y-7900000D01*
G75*
G02*
X-7635000Y-7951000I-51000J0D01*
G01*
G37*
D10*
X12500000Y12500000D03*
X-12500000Y12500000D03*
X0Y-12500000D03*
D12*
G36*
X-7582268Y-7550000D02*
G01*
X-7582000Y-7551000D01*
X-7582000Y-7649000D01*
X-7583000Y-7650732D01*
X-7584000Y-7651000D01*
X-8826000Y-7651000D01*
X-8827732Y-7650000D01*
X-8828000Y-7649000D01*
X-8828000Y-7551000D01*
X-8827000Y-7549268D01*
X-8826000Y-7549000D01*
X-7584000Y-7549000D01*
X-7582268Y-7550000D01*
G37*
G36*
X8827732Y-7550000D02*
G01*
X8828000Y-7551000D01*
X8828000Y-7649000D01*
X8827000Y-7650732D01*
X8826000Y-7651000D01*
X7584000Y-7651000D01*
X7582268Y-7650000D01*
X7582000Y-7649000D01*
X7582000Y-7551000D01*
X7583000Y-7549268D01*
X7584000Y-7549000D01*
X8826000Y-7549000D01*
X8827732Y-7550000D01*
G37*
G36*
X11467732Y-7550000D02*
G01*
X11468000Y-7551000D01*
X11468000Y-7649000D01*
X11467000Y-7650732D01*
X11466000Y-7651000D01*
X10224000Y-7651000D01*
X10222268Y-7650000D01*
X10222000Y-7649000D01*
X10222000Y-7551000D01*
X10223000Y-7549268D01*
X10224000Y-7549000D01*
X11466000Y-7549000D01*
X11467732Y-7550000D01*
G37*
G36*
X-10222268Y-7550000D02*
G01*
X-10222000Y-7551000D01*
X-10222000Y-7649000D01*
X-10223000Y-7650732D01*
X-10224000Y-7651000D01*
X-11466000Y-7651000D01*
X-11467732Y-7650000D01*
X-11468000Y-7649000D01*
X-11468000Y-7551000D01*
X-11467000Y-7549268D01*
X-11466000Y-7549000D01*
X-10224000Y-7549000D01*
X-10222268Y-7550000D01*
G37*
G36*
X8827732Y-7150000D02*
G01*
X8828000Y-7151000D01*
X8828000Y-7249000D01*
X8827000Y-7250732D01*
X8826000Y-7251000D01*
X7584000Y-7251000D01*
X7582268Y-7250000D01*
X7582000Y-7249000D01*
X7582000Y-7151000D01*
X7583000Y-7149268D01*
X7584000Y-7149000D01*
X8826000Y-7149000D01*
X8827732Y-7150000D01*
G37*
G36*
X-7582268Y-7150000D02*
G01*
X-7582000Y-7151000D01*
X-7582000Y-7249000D01*
X-7583000Y-7250732D01*
X-7584000Y-7251000D01*
X-8826000Y-7251000D01*
X-8827732Y-7250000D01*
X-8828000Y-7249000D01*
X-8828000Y-7151000D01*
X-8827000Y-7149268D01*
X-8826000Y-7149000D01*
X-7584000Y-7149000D01*
X-7582268Y-7150000D01*
G37*
G36*
X-10222268Y-7150000D02*
G01*
X-10222000Y-7151000D01*
X-10222000Y-7249000D01*
X-10223000Y-7250732D01*
X-10224000Y-7251000D01*
X-11466000Y-7251000D01*
X-11467732Y-7250000D01*
X-11468000Y-7249000D01*
X-11468000Y-7151000D01*
X-11467000Y-7149268D01*
X-11466000Y-7149000D01*
X-10224000Y-7149000D01*
X-10222268Y-7150000D01*
G37*
G36*
X11467732Y-7150000D02*
G01*
X11468000Y-7151000D01*
X11468000Y-7249000D01*
X11467000Y-7250732D01*
X11466000Y-7251000D01*
X10224000Y-7251000D01*
X10222268Y-7250000D01*
X10222000Y-7249000D01*
X10222000Y-7151000D01*
X10223000Y-7149268D01*
X10224000Y-7149000D01*
X11466000Y-7149000D01*
X11467732Y-7150000D01*
G37*
G36*
X-10222268Y-6750000D02*
G01*
X-10222000Y-6751000D01*
X-10222000Y-6849000D01*
X-10223000Y-6850732D01*
X-10224000Y-6851000D01*
X-11466000Y-6851000D01*
X-11467732Y-6850000D01*
X-11468000Y-6849000D01*
X-11468000Y-6751000D01*
X-11467000Y-6749268D01*
X-11466000Y-6749000D01*
X-10224000Y-6749000D01*
X-10222268Y-6750000D01*
G37*
G36*
X-7582268Y-6750000D02*
G01*
X-7582000Y-6751000D01*
X-7582000Y-6849000D01*
X-7583000Y-6850732D01*
X-7584000Y-6851000D01*
X-8826000Y-6851000D01*
X-8827732Y-6850000D01*
X-8828000Y-6849000D01*
X-8828000Y-6751000D01*
X-8827000Y-6749268D01*
X-8826000Y-6749000D01*
X-7584000Y-6749000D01*
X-7582268Y-6750000D01*
G37*
G36*
X8827732Y-6750000D02*
G01*
X8828000Y-6751000D01*
X8828000Y-6849000D01*
X8827000Y-6850732D01*
X8826000Y-6851000D01*
X7584000Y-6851000D01*
X7582268Y-6850000D01*
X7582000Y-6849000D01*
X7582000Y-6751000D01*
X7583000Y-6749268D01*
X7584000Y-6749000D01*
X8826000Y-6749000D01*
X8827732Y-6750000D01*
G37*
G36*
X11467732Y-6750000D02*
G01*
X11468000Y-6751000D01*
X11468000Y-6849000D01*
X11467000Y-6850732D01*
X11466000Y-6851000D01*
X10224000Y-6851000D01*
X10222268Y-6850000D01*
X10222000Y-6849000D01*
X10222000Y-6751000D01*
X10223000Y-6749268D01*
X10224000Y-6749000D01*
X11466000Y-6749000D01*
X11467732Y-6750000D01*
G37*
G36*
X-7582268Y-6350000D02*
G01*
X-7582000Y-6351000D01*
X-7582000Y-6449000D01*
X-7583000Y-6450732D01*
X-7584000Y-6451000D01*
X-8826000Y-6451000D01*
X-8827732Y-6450000D01*
X-8828000Y-6449000D01*
X-8828000Y-6351000D01*
X-8827000Y-6349268D01*
X-8826000Y-6349000D01*
X-7584000Y-6349000D01*
X-7582268Y-6350000D01*
G37*
G36*
X-10222268Y-6350000D02*
G01*
X-10222000Y-6351000D01*
X-10222000Y-6449000D01*
X-10223000Y-6450732D01*
X-10224000Y-6451000D01*
X-11466000Y-6451000D01*
X-11467732Y-6450000D01*
X-11468000Y-6449000D01*
X-11468000Y-6351000D01*
X-11467000Y-6349268D01*
X-11466000Y-6349000D01*
X-10224000Y-6349000D01*
X-10222268Y-6350000D01*
G37*
G36*
X8827732Y-6350000D02*
G01*
X8828000Y-6351000D01*
X8828000Y-6449000D01*
X8827000Y-6450732D01*
X8826000Y-6451000D01*
X7584000Y-6451000D01*
X7582268Y-6450000D01*
X7582000Y-6449000D01*
X7582000Y-6351000D01*
X7583000Y-6349268D01*
X7584000Y-6349000D01*
X8826000Y-6349000D01*
X8827732Y-6350000D01*
G37*
G36*
X11467732Y-6350000D02*
G01*
X11468000Y-6351000D01*
X11468000Y-6449000D01*
X11467000Y-6450732D01*
X11466000Y-6451000D01*
X10224000Y-6451000D01*
X10222268Y-6450000D01*
X10222000Y-6449000D01*
X10222000Y-6351000D01*
X10223000Y-6349268D01*
X10224000Y-6349000D01*
X11466000Y-6349000D01*
X11467732Y-6350000D01*
G37*
G36*
X4650732Y-4978000D02*
G01*
X4651000Y-4979000D01*
X4651000Y-6221000D01*
X4650000Y-6222732D01*
X4649000Y-6223000D01*
X4551000Y-6223000D01*
X4549268Y-6222000D01*
X4549000Y-6221000D01*
X4549000Y-4981000D01*
X4251000Y-4981000D01*
X4251000Y-6221000D01*
X4250000Y-6222732D01*
X4249000Y-6223000D01*
X4151000Y-6223000D01*
X4149268Y-6222000D01*
X4149000Y-6221000D01*
X4149000Y-4981000D01*
X3851000Y-4981000D01*
X3851000Y-6221000D01*
X3850000Y-6222732D01*
X3849000Y-6223000D01*
X3751000Y-6223000D01*
X3749268Y-6222000D01*
X3749000Y-6221000D01*
X3749000Y-4981000D01*
X3451000Y-4981000D01*
X3451000Y-6221000D01*
X3450000Y-6222732D01*
X3449000Y-6223000D01*
X3351000Y-6223000D01*
X3349268Y-6222000D01*
X3349000Y-6221000D01*
X3349000Y-4981000D01*
X3051000Y-4981000D01*
X3051000Y-6221000D01*
X3050000Y-6222732D01*
X3049000Y-6223000D01*
X2951000Y-6223000D01*
X2949268Y-6222000D01*
X2949000Y-6221000D01*
X2949000Y-4981000D01*
X2651000Y-4981000D01*
X2651000Y-6221000D01*
X2650000Y-6222732D01*
X2649000Y-6223000D01*
X2551000Y-6223000D01*
X2549268Y-6222000D01*
X2549000Y-6221000D01*
X2549000Y-4981000D01*
X2251000Y-4981000D01*
X2251000Y-6221000D01*
X2250000Y-6222732D01*
X2249000Y-6223000D01*
X2151000Y-6223000D01*
X2149268Y-6222000D01*
X2149000Y-6221000D01*
X2149000Y-4981000D01*
X1851000Y-4981000D01*
X1851000Y-6221000D01*
X1850000Y-6222732D01*
X1849000Y-6223000D01*
X1751000Y-6223000D01*
X1749268Y-6222000D01*
X1749000Y-6221000D01*
X1749000Y-4981000D01*
X1451000Y-4981000D01*
X1451000Y-6221000D01*
X1450000Y-6222732D01*
X1449000Y-6223000D01*
X1351000Y-6223000D01*
X1349268Y-6222000D01*
X1349000Y-6221000D01*
X1349000Y-4981000D01*
X1051000Y-4981000D01*
X1051000Y-6221000D01*
X1050000Y-6222732D01*
X1049000Y-6223000D01*
X951000Y-6223000D01*
X949268Y-6222000D01*
X949000Y-6221000D01*
X949000Y-4981000D01*
X651000Y-4981000D01*
X651000Y-6221000D01*
X650000Y-6222732D01*
X649000Y-6223000D01*
X551000Y-6223000D01*
X549268Y-6222000D01*
X549000Y-6221000D01*
X549000Y-4981000D01*
X251000Y-4981000D01*
X251000Y-6221000D01*
X250000Y-6222732D01*
X249000Y-6223000D01*
X151000Y-6223000D01*
X149268Y-6222000D01*
X149000Y-6221000D01*
X149000Y-4981000D01*
X-149000Y-4981000D01*
X-149000Y-6221000D01*
X-150000Y-6222732D01*
X-151000Y-6223000D01*
X-249000Y-6223000D01*
X-250732Y-6222000D01*
X-251000Y-6221000D01*
X-251000Y-4981000D01*
X-549000Y-4981000D01*
X-549000Y-6221000D01*
X-550000Y-6222732D01*
X-551000Y-6223000D01*
X-649000Y-6223000D01*
X-650732Y-6222000D01*
X-651000Y-6221000D01*
X-651000Y-4981000D01*
X-949000Y-4981000D01*
X-949000Y-6221000D01*
X-950000Y-6222732D01*
X-951000Y-6223000D01*
X-1049000Y-6223000D01*
X-1050732Y-6222000D01*
X-1051000Y-6221000D01*
X-1051000Y-4981000D01*
X-1349000Y-4981000D01*
X-1349000Y-6221000D01*
X-1350000Y-6222732D01*
X-1351000Y-6223000D01*
X-1449000Y-6223000D01*
X-1450732Y-6222000D01*
X-1451000Y-6221000D01*
X-1451000Y-4981000D01*
X-1749000Y-4981000D01*
X-1749000Y-6221000D01*
X-1750000Y-6222732D01*
X-1751000Y-6223000D01*
X-1849000Y-6223000D01*
X-1850732Y-6222000D01*
X-1851000Y-6221000D01*
X-1851000Y-4981000D01*
X-2149000Y-4981000D01*
X-2149000Y-6221000D01*
X-2150000Y-6222732D01*
X-2151000Y-6223000D01*
X-2249000Y-6223000D01*
X-2250732Y-6222000D01*
X-2251000Y-6221000D01*
X-2251000Y-4981000D01*
X-2549000Y-4981000D01*
X-2549000Y-6221000D01*
X-2550000Y-6222732D01*
X-2551000Y-6223000D01*
X-2649000Y-6223000D01*
X-2650732Y-6222000D01*
X-2651000Y-6221000D01*
X-2651000Y-4981000D01*
X-2949000Y-4981000D01*
X-2949000Y-6221000D01*
X-2950000Y-6222732D01*
X-2951000Y-6223000D01*
X-3049000Y-6223000D01*
X-3050732Y-6222000D01*
X-3051000Y-6221000D01*
X-3051000Y-4981000D01*
X-3349000Y-4981000D01*
X-3349000Y-6221000D01*
X-3350000Y-6222732D01*
X-3351000Y-6223000D01*
X-3449000Y-6223000D01*
X-3450732Y-6222000D01*
X-3451000Y-6221000D01*
X-3451000Y-4981000D01*
X-3749000Y-4981000D01*
X-3749000Y-6221000D01*
X-3750000Y-6222732D01*
X-3751000Y-6223000D01*
X-3849000Y-6223000D01*
X-3850732Y-6222000D01*
X-3851000Y-6221000D01*
X-3851000Y-4981000D01*
X-4149000Y-4981000D01*
X-4149000Y-6221000D01*
X-4150000Y-6222732D01*
X-4151000Y-6223000D01*
X-4249000Y-6223000D01*
X-4250732Y-6222000D01*
X-4251000Y-6221000D01*
X-4251000Y-4981000D01*
X-4549000Y-4981000D01*
X-4549000Y-6221000D01*
X-4550000Y-6222732D01*
X-4551000Y-6223000D01*
X-4649000Y-6223000D01*
X-4650732Y-6222000D01*
X-4651000Y-6221000D01*
X-4651000Y-4979000D01*
X-4650000Y-4977268D01*
X-4649000Y-4977000D01*
X4649000Y-4977000D01*
X4650732Y-4978000D01*
G37*
G36*
X11467732Y-5950000D02*
G01*
X11468000Y-5951000D01*
X11468000Y-6049000D01*
X11467000Y-6050732D01*
X11466000Y-6051000D01*
X10224000Y-6051000D01*
X10222268Y-6050000D01*
X10222000Y-6049000D01*
X10222000Y-5951000D01*
X10223000Y-5949268D01*
X10224000Y-5949000D01*
X11466000Y-5949000D01*
X11467732Y-5950000D01*
G37*
G36*
X-7582268Y-5950000D02*
G01*
X-7582000Y-5951000D01*
X-7582000Y-6049000D01*
X-7583000Y-6050732D01*
X-7584000Y-6051000D01*
X-8826000Y-6051000D01*
X-8827732Y-6050000D01*
X-8828000Y-6049000D01*
X-8828000Y-5951000D01*
X-8827000Y-5949268D01*
X-8826000Y-5949000D01*
X-7584000Y-5949000D01*
X-7582268Y-5950000D01*
G37*
G36*
X-10222268Y-5950000D02*
G01*
X-10222000Y-5951000D01*
X-10222000Y-6049000D01*
X-10223000Y-6050732D01*
X-10224000Y-6051000D01*
X-11466000Y-6051000D01*
X-11467732Y-6050000D01*
X-11468000Y-6049000D01*
X-11468000Y-5951000D01*
X-11467000Y-5949268D01*
X-11466000Y-5949000D01*
X-10224000Y-5949000D01*
X-10222268Y-5950000D01*
G37*
G36*
X8827732Y-5950000D02*
G01*
X8828000Y-5951000D01*
X8828000Y-6049000D01*
X8827000Y-6050732D01*
X8826000Y-6051000D01*
X7584000Y-6051000D01*
X7582268Y-6050000D01*
X7582000Y-6049000D01*
X7582000Y-5951000D01*
X7583000Y-5949268D01*
X7584000Y-5949000D01*
X8826000Y-5949000D01*
X8827732Y-5950000D01*
G37*
G36*
X8827732Y-5550000D02*
G01*
X8828000Y-5551000D01*
X8828000Y-5649000D01*
X8827000Y-5650732D01*
X8826000Y-5651000D01*
X7584000Y-5651000D01*
X7582268Y-5650000D01*
X7582000Y-5649000D01*
X7582000Y-5551000D01*
X7583000Y-5549268D01*
X7584000Y-5549000D01*
X8826000Y-5549000D01*
X8827732Y-5550000D01*
G37*
G36*
X11467732Y-5550000D02*
G01*
X11468000Y-5551000D01*
X11468000Y-5649000D01*
X11467000Y-5650732D01*
X11466000Y-5651000D01*
X10224000Y-5651000D01*
X10222268Y-5650000D01*
X10222000Y-5649000D01*
X10222000Y-5551000D01*
X10223000Y-5549268D01*
X10224000Y-5549000D01*
X11466000Y-5549000D01*
X11467732Y-5550000D01*
G37*
G36*
X-7582268Y-5550000D02*
G01*
X-7582000Y-5551000D01*
X-7582000Y-5649000D01*
X-7583000Y-5650732D01*
X-7584000Y-5651000D01*
X-8826000Y-5651000D01*
X-8827732Y-5650000D01*
X-8828000Y-5649000D01*
X-8828000Y-5551000D01*
X-8827000Y-5549268D01*
X-8826000Y-5549000D01*
X-7584000Y-5549000D01*
X-7582268Y-5550000D01*
G37*
G36*
X-10222268Y-5550000D02*
G01*
X-10222000Y-5551000D01*
X-10222000Y-5649000D01*
X-10223000Y-5650732D01*
X-10224000Y-5651000D01*
X-11466000Y-5651000D01*
X-11467732Y-5650000D01*
X-11468000Y-5649000D01*
X-11468000Y-5551000D01*
X-11467000Y-5549268D01*
X-11466000Y-5549000D01*
X-10224000Y-5549000D01*
X-10222268Y-5550000D01*
G37*
G36*
X11467732Y-5150000D02*
G01*
X11468000Y-5151000D01*
X11468000Y-5249000D01*
X11467000Y-5250732D01*
X11466000Y-5251000D01*
X10224000Y-5251000D01*
X10222268Y-5250000D01*
X10222000Y-5249000D01*
X10222000Y-5151000D01*
X10223000Y-5149268D01*
X10224000Y-5149000D01*
X11466000Y-5149000D01*
X11467732Y-5150000D01*
G37*
G36*
X-10222268Y-5150000D02*
G01*
X-10222000Y-5151000D01*
X-10222000Y-5249000D01*
X-10223000Y-5250732D01*
X-10224000Y-5251000D01*
X-11466000Y-5251000D01*
X-11467732Y-5250000D01*
X-11468000Y-5249000D01*
X-11468000Y-5151000D01*
X-11467000Y-5149268D01*
X-11466000Y-5149000D01*
X-10224000Y-5149000D01*
X-10222268Y-5150000D01*
G37*
G36*
X-7582268Y-5150000D02*
G01*
X-7582000Y-5151000D01*
X-7582000Y-5249000D01*
X-7583000Y-5250732D01*
X-7584000Y-5251000D01*
X-8826000Y-5251000D01*
X-8827732Y-5250000D01*
X-8828000Y-5249000D01*
X-8828000Y-5151000D01*
X-8827000Y-5149268D01*
X-8826000Y-5149000D01*
X-7584000Y-5149000D01*
X-7582268Y-5150000D01*
G37*
G36*
X8827732Y-5150000D02*
G01*
X8828000Y-5151000D01*
X8828000Y-5249000D01*
X8827000Y-5250732D01*
X8826000Y-5251000D01*
X7584000Y-5251000D01*
X7582268Y-5250000D01*
X7582000Y-5249000D01*
X7582000Y-5151000D01*
X7583000Y-5149268D01*
X7584000Y-5149000D01*
X8826000Y-5149000D01*
X8827732Y-5150000D01*
G37*
G36*
X-10222268Y-4750000D02*
G01*
X-10222000Y-4751000D01*
X-10222000Y-4849000D01*
X-10223000Y-4850732D01*
X-10224000Y-4851000D01*
X-11466000Y-4851000D01*
X-11467732Y-4850000D01*
X-11468000Y-4849000D01*
X-11468000Y-4751000D01*
X-11467000Y-4749268D01*
X-11466000Y-4749000D01*
X-10224000Y-4749000D01*
X-10222268Y-4750000D01*
G37*
G36*
X11467732Y-4750000D02*
G01*
X11468000Y-4751000D01*
X11468000Y-4849000D01*
X11467000Y-4850732D01*
X11466000Y-4851000D01*
X10224000Y-4851000D01*
X10222268Y-4850000D01*
X10222000Y-4849000D01*
X10222000Y-4751000D01*
X10223000Y-4749268D01*
X10224000Y-4749000D01*
X11466000Y-4749000D01*
X11467732Y-4750000D01*
G37*
G36*
X-7582268Y-4750000D02*
G01*
X-7582000Y-4751000D01*
X-7582000Y-4849000D01*
X-7583000Y-4850732D01*
X-7584000Y-4851000D01*
X-8826000Y-4851000D01*
X-8827732Y-4850000D01*
X-8828000Y-4849000D01*
X-8828000Y-4751000D01*
X-8827000Y-4749268D01*
X-8826000Y-4749000D01*
X-7584000Y-4749000D01*
X-7582268Y-4750000D01*
G37*
G36*
X8827732Y-4750000D02*
G01*
X8828000Y-4751000D01*
X8828000Y-4849000D01*
X8827000Y-4850732D01*
X8826000Y-4851000D01*
X7584000Y-4851000D01*
X7582268Y-4850000D01*
X7582000Y-4849000D01*
X7582000Y-4751000D01*
X7583000Y-4749268D01*
X7584000Y-4749000D01*
X8826000Y-4749000D01*
X8827732Y-4750000D01*
G37*
G36*
X11467732Y-4350000D02*
G01*
X11468000Y-4351000D01*
X11468000Y-4449000D01*
X11467000Y-4450732D01*
X11466000Y-4451000D01*
X10224000Y-4451000D01*
X10222268Y-4450000D01*
X10222000Y-4449000D01*
X10222000Y-4351000D01*
X10223000Y-4349268D01*
X10224000Y-4349000D01*
X11466000Y-4349000D01*
X11467732Y-4350000D01*
G37*
G36*
X8827732Y-4350000D02*
G01*
X8828000Y-4351000D01*
X8828000Y-4449000D01*
X8827000Y-4450732D01*
X8826000Y-4451000D01*
X7584000Y-4451000D01*
X7582268Y-4450000D01*
X7582000Y-4449000D01*
X7582000Y-4351000D01*
X7583000Y-4349268D01*
X7584000Y-4349000D01*
X8826000Y-4349000D01*
X8827732Y-4350000D01*
G37*
G36*
X-7582268Y-4350000D02*
G01*
X-7582000Y-4351000D01*
X-7582000Y-4449000D01*
X-7583000Y-4450732D01*
X-7584000Y-4451000D01*
X-8826000Y-4451000D01*
X-8827732Y-4450000D01*
X-8828000Y-4449000D01*
X-8828000Y-4351000D01*
X-8827000Y-4349268D01*
X-8826000Y-4349000D01*
X-7584000Y-4349000D01*
X-7582268Y-4350000D01*
G37*
G36*
X-10222268Y-4350000D02*
G01*
X-10222000Y-4351000D01*
X-10222000Y-4449000D01*
X-10223000Y-4450732D01*
X-10224000Y-4451000D01*
X-11466000Y-4451000D01*
X-11467732Y-4450000D01*
X-11468000Y-4449000D01*
X-11468000Y-4351000D01*
X-11467000Y-4349268D01*
X-11466000Y-4349000D01*
X-10224000Y-4349000D01*
X-10222268Y-4350000D01*
G37*
G36*
X11467732Y-3950000D02*
G01*
X11468000Y-3951000D01*
X11468000Y-4049000D01*
X11467000Y-4050732D01*
X11466000Y-4051000D01*
X10224000Y-4051000D01*
X10222268Y-4050000D01*
X10222000Y-4049000D01*
X10222000Y-3951000D01*
X10223000Y-3949268D01*
X10224000Y-3949000D01*
X11466000Y-3949000D01*
X11467732Y-3950000D01*
G37*
G36*
X8827732Y-3950000D02*
G01*
X8828000Y-3951000D01*
X8828000Y-4049000D01*
X8827000Y-4050732D01*
X8826000Y-4051000D01*
X7584000Y-4051000D01*
X7582268Y-4050000D01*
X7582000Y-4049000D01*
X7582000Y-3951000D01*
X7583000Y-3949268D01*
X7584000Y-3949000D01*
X8826000Y-3949000D01*
X8827732Y-3950000D01*
G37*
G36*
X-7582268Y-3950000D02*
G01*
X-7582000Y-3951000D01*
X-7582000Y-4049000D01*
X-7583000Y-4050732D01*
X-7584000Y-4051000D01*
X-8826000Y-4051000D01*
X-8827732Y-4050000D01*
X-8828000Y-4049000D01*
X-8828000Y-3951000D01*
X-8827000Y-3949268D01*
X-8826000Y-3949000D01*
X-7584000Y-3949000D01*
X-7582268Y-3950000D01*
G37*
G36*
X-10222268Y-3950000D02*
G01*
X-10222000Y-3951000D01*
X-10222000Y-4049000D01*
X-10223000Y-4050732D01*
X-10224000Y-4051000D01*
X-11466000Y-4051000D01*
X-11467732Y-4050000D01*
X-11468000Y-4049000D01*
X-11468000Y-3951000D01*
X-11467000Y-3949268D01*
X-11466000Y-3949000D01*
X-10224000Y-3949000D01*
X-10222268Y-3950000D01*
G37*
G36*
X-10222268Y-3550000D02*
G01*
X-10222000Y-3551000D01*
X-10222000Y-3649000D01*
X-10223000Y-3650732D01*
X-10224000Y-3651000D01*
X-11466000Y-3651000D01*
X-11467732Y-3650000D01*
X-11468000Y-3649000D01*
X-11468000Y-3551000D01*
X-11467000Y-3549268D01*
X-11466000Y-3549000D01*
X-10224000Y-3549000D01*
X-10222268Y-3550000D01*
G37*
G36*
X-7582268Y-3550000D02*
G01*
X-7582000Y-3551000D01*
X-7582000Y-3649000D01*
X-7583000Y-3650732D01*
X-7584000Y-3651000D01*
X-8826000Y-3651000D01*
X-8827732Y-3650000D01*
X-8828000Y-3649000D01*
X-8828000Y-3551000D01*
X-8827000Y-3549268D01*
X-8826000Y-3549000D01*
X-7584000Y-3549000D01*
X-7582268Y-3550000D01*
G37*
G36*
X8827732Y-3550000D02*
G01*
X8828000Y-3551000D01*
X8828000Y-3649000D01*
X8827000Y-3650732D01*
X8826000Y-3651000D01*
X7584000Y-3651000D01*
X7582268Y-3650000D01*
X7582000Y-3649000D01*
X7582000Y-3551000D01*
X7583000Y-3549268D01*
X7584000Y-3549000D01*
X8826000Y-3549000D01*
X8827732Y-3550000D01*
G37*
G36*
X11467732Y-3550000D02*
G01*
X11468000Y-3551000D01*
X11468000Y-3649000D01*
X11467000Y-3650732D01*
X11466000Y-3651000D01*
X10224000Y-3651000D01*
X10222268Y-3650000D01*
X10222000Y-3649000D01*
X10222000Y-3551000D01*
X10223000Y-3549268D01*
X10224000Y-3549000D01*
X11466000Y-3549000D01*
X11467732Y-3550000D01*
G37*
G36*
X4650732Y-2338000D02*
G01*
X4651000Y-2339000D01*
X4651000Y-3581000D01*
X4650000Y-3582732D01*
X4649000Y-3583000D01*
X4551000Y-3583000D01*
X4549268Y-3582000D01*
X4549000Y-3581000D01*
X4549000Y-2341000D01*
X4251000Y-2341000D01*
X4251000Y-3581000D01*
X4250000Y-3582732D01*
X4249000Y-3583000D01*
X4151000Y-3583000D01*
X4149268Y-3582000D01*
X4149000Y-3581000D01*
X4149000Y-2341000D01*
X3851000Y-2341000D01*
X3851000Y-3581000D01*
X3850000Y-3582732D01*
X3849000Y-3583000D01*
X3751000Y-3583000D01*
X3749268Y-3582000D01*
X3749000Y-3581000D01*
X3749000Y-2341000D01*
X3451000Y-2341000D01*
X3451000Y-3581000D01*
X3450000Y-3582732D01*
X3449000Y-3583000D01*
X3351000Y-3583000D01*
X3349268Y-3582000D01*
X3349000Y-3581000D01*
X3349000Y-2341000D01*
X3051000Y-2341000D01*
X3051000Y-3581000D01*
X3050000Y-3582732D01*
X3049000Y-3583000D01*
X2951000Y-3583000D01*
X2949268Y-3582000D01*
X2949000Y-3581000D01*
X2949000Y-2341000D01*
X2651000Y-2341000D01*
X2651000Y-3581000D01*
X2650000Y-3582732D01*
X2649000Y-3583000D01*
X2551000Y-3583000D01*
X2549268Y-3582000D01*
X2549000Y-3581000D01*
X2549000Y-2341000D01*
X2251000Y-2341000D01*
X2251000Y-3581000D01*
X2250000Y-3582732D01*
X2249000Y-3583000D01*
X2151000Y-3583000D01*
X2149268Y-3582000D01*
X2149000Y-3581000D01*
X2149000Y-2341000D01*
X1851000Y-2341000D01*
X1851000Y-3581000D01*
X1850000Y-3582732D01*
X1849000Y-3583000D01*
X1751000Y-3583000D01*
X1749268Y-3582000D01*
X1749000Y-3581000D01*
X1749000Y-2341000D01*
X1451000Y-2341000D01*
X1451000Y-3581000D01*
X1450000Y-3582732D01*
X1449000Y-3583000D01*
X1351000Y-3583000D01*
X1349268Y-3582000D01*
X1349000Y-3581000D01*
X1349000Y-2341000D01*
X1051000Y-2341000D01*
X1051000Y-3581000D01*
X1050000Y-3582732D01*
X1049000Y-3583000D01*
X951000Y-3583000D01*
X949268Y-3582000D01*
X949000Y-3581000D01*
X949000Y-2341000D01*
X651000Y-2341000D01*
X651000Y-3581000D01*
X650000Y-3582732D01*
X649000Y-3583000D01*
X551000Y-3583000D01*
X549268Y-3582000D01*
X549000Y-3581000D01*
X549000Y-2341000D01*
X251000Y-2341000D01*
X251000Y-3581000D01*
X250000Y-3582732D01*
X249000Y-3583000D01*
X151000Y-3583000D01*
X149268Y-3582000D01*
X149000Y-3581000D01*
X149000Y-2341000D01*
X-149000Y-2341000D01*
X-149000Y-3581000D01*
X-150000Y-3582732D01*
X-151000Y-3583000D01*
X-249000Y-3583000D01*
X-250732Y-3582000D01*
X-251000Y-3581000D01*
X-251000Y-2341000D01*
X-549000Y-2341000D01*
X-549000Y-3581000D01*
X-550000Y-3582732D01*
X-551000Y-3583000D01*
X-649000Y-3583000D01*
X-650732Y-3582000D01*
X-651000Y-3581000D01*
X-651000Y-2341000D01*
X-949000Y-2341000D01*
X-949000Y-3581000D01*
X-950000Y-3582732D01*
X-951000Y-3583000D01*
X-1049000Y-3583000D01*
X-1050732Y-3582000D01*
X-1051000Y-3581000D01*
X-1051000Y-2341000D01*
X-1349000Y-2341000D01*
X-1349000Y-3581000D01*
X-1350000Y-3582732D01*
X-1351000Y-3583000D01*
X-1449000Y-3583000D01*
X-1450732Y-3582000D01*
X-1451000Y-3581000D01*
X-1451000Y-2341000D01*
X-1749000Y-2341000D01*
X-1749000Y-3581000D01*
X-1750000Y-3582732D01*
X-1751000Y-3583000D01*
X-1849000Y-3583000D01*
X-1850732Y-3582000D01*
X-1851000Y-3581000D01*
X-1851000Y-2341000D01*
X-2149000Y-2341000D01*
X-2149000Y-3581000D01*
X-2150000Y-3582732D01*
X-2151000Y-3583000D01*
X-2249000Y-3583000D01*
X-2250732Y-3582000D01*
X-2251000Y-3581000D01*
X-2251000Y-2341000D01*
X-2549000Y-2341000D01*
X-2549000Y-3581000D01*
X-2550000Y-3582732D01*
X-2551000Y-3583000D01*
X-2649000Y-3583000D01*
X-2650732Y-3582000D01*
X-2651000Y-3581000D01*
X-2651000Y-2341000D01*
X-2949000Y-2341000D01*
X-2949000Y-3581000D01*
X-2950000Y-3582732D01*
X-2951000Y-3583000D01*
X-3049000Y-3583000D01*
X-3050732Y-3582000D01*
X-3051000Y-3581000D01*
X-3051000Y-2341000D01*
X-3349000Y-2341000D01*
X-3349000Y-3581000D01*
X-3350000Y-3582732D01*
X-3351000Y-3583000D01*
X-3449000Y-3583000D01*
X-3450732Y-3582000D01*
X-3451000Y-3581000D01*
X-3451000Y-2341000D01*
X-3749000Y-2341000D01*
X-3749000Y-3581000D01*
X-3750000Y-3582732D01*
X-3751000Y-3583000D01*
X-3849000Y-3583000D01*
X-3850732Y-3582000D01*
X-3851000Y-3581000D01*
X-3851000Y-2341000D01*
X-4149000Y-2341000D01*
X-4149000Y-3581000D01*
X-4150000Y-3582732D01*
X-4151000Y-3583000D01*
X-4249000Y-3583000D01*
X-4250732Y-3582000D01*
X-4251000Y-3581000D01*
X-4251000Y-2341000D01*
X-4549000Y-2341000D01*
X-4549000Y-3581000D01*
X-4550000Y-3582732D01*
X-4551000Y-3583000D01*
X-4649000Y-3583000D01*
X-4650732Y-3582000D01*
X-4651000Y-3581000D01*
X-4651000Y-2339000D01*
X-4650000Y-2337268D01*
X-4649000Y-2337000D01*
X4649000Y-2337000D01*
X4650732Y-2338000D01*
G37*
G36*
X8827732Y-3150000D02*
G01*
X8828000Y-3151000D01*
X8828000Y-3249000D01*
X8827000Y-3250732D01*
X8826000Y-3251000D01*
X7584000Y-3251000D01*
X7582268Y-3250000D01*
X7582000Y-3249000D01*
X7582000Y-3151000D01*
X7583000Y-3149268D01*
X7584000Y-3149000D01*
X8826000Y-3149000D01*
X8827732Y-3150000D01*
G37*
G36*
X-10222268Y-3150000D02*
G01*
X-10222000Y-3151000D01*
X-10222000Y-3249000D01*
X-10223000Y-3250732D01*
X-10224000Y-3251000D01*
X-11466000Y-3251000D01*
X-11467732Y-3250000D01*
X-11468000Y-3249000D01*
X-11468000Y-3151000D01*
X-11467000Y-3149268D01*
X-11466000Y-3149000D01*
X-10224000Y-3149000D01*
X-10222268Y-3150000D01*
G37*
G36*
X-7582268Y-3150000D02*
G01*
X-7582000Y-3151000D01*
X-7582000Y-3249000D01*
X-7583000Y-3250732D01*
X-7584000Y-3251000D01*
X-8826000Y-3251000D01*
X-8827732Y-3250000D01*
X-8828000Y-3249000D01*
X-8828000Y-3151000D01*
X-8827000Y-3149268D01*
X-8826000Y-3149000D01*
X-7584000Y-3149000D01*
X-7582268Y-3150000D01*
G37*
G36*
X11467732Y-3150000D02*
G01*
X11468000Y-3151000D01*
X11468000Y-3249000D01*
X11467000Y-3250732D01*
X11466000Y-3251000D01*
X10224000Y-3251000D01*
X10222268Y-3250000D01*
X10222000Y-3249000D01*
X10222000Y-3151000D01*
X10223000Y-3149268D01*
X10224000Y-3149000D01*
X11466000Y-3149000D01*
X11467732Y-3150000D01*
G37*
G36*
X-10222268Y-2750000D02*
G01*
X-10222000Y-2751000D01*
X-10222000Y-2849000D01*
X-10223000Y-2850732D01*
X-10224000Y-2851000D01*
X-11466000Y-2851000D01*
X-11467732Y-2850000D01*
X-11468000Y-2849000D01*
X-11468000Y-2751000D01*
X-11467000Y-2749268D01*
X-11466000Y-2749000D01*
X-10224000Y-2749000D01*
X-10222268Y-2750000D01*
G37*
G36*
X-7582268Y-2750000D02*
G01*
X-7582000Y-2751000D01*
X-7582000Y-2849000D01*
X-7583000Y-2850732D01*
X-7584000Y-2851000D01*
X-8826000Y-2851000D01*
X-8827732Y-2850000D01*
X-8828000Y-2849000D01*
X-8828000Y-2751000D01*
X-8827000Y-2749268D01*
X-8826000Y-2749000D01*
X-7584000Y-2749000D01*
X-7582268Y-2750000D01*
G37*
G36*
X8827732Y-2750000D02*
G01*
X8828000Y-2751000D01*
X8828000Y-2849000D01*
X8827000Y-2850732D01*
X8826000Y-2851000D01*
X7584000Y-2851000D01*
X7582268Y-2850000D01*
X7582000Y-2849000D01*
X7582000Y-2751000D01*
X7583000Y-2749268D01*
X7584000Y-2749000D01*
X8826000Y-2749000D01*
X8827732Y-2750000D01*
G37*
G36*
X11467732Y-2750000D02*
G01*
X11468000Y-2751000D01*
X11468000Y-2849000D01*
X11467000Y-2850732D01*
X11466000Y-2851000D01*
X10224000Y-2851000D01*
X10222268Y-2850000D01*
X10222000Y-2849000D01*
X10222000Y-2751000D01*
X10223000Y-2749268D01*
X10224000Y-2749000D01*
X11466000Y-2749000D01*
X11467732Y-2750000D01*
G37*
G36*
X11467732Y-2350000D02*
G01*
X11468000Y-2351000D01*
X11468000Y-2449000D01*
X11467000Y-2450732D01*
X11466000Y-2451000D01*
X10224000Y-2451000D01*
X10222268Y-2450000D01*
X10222000Y-2449000D01*
X10222000Y-2351000D01*
X10223000Y-2349268D01*
X10224000Y-2349000D01*
X11466000Y-2349000D01*
X11467732Y-2350000D01*
G37*
G36*
X8827732Y-2350000D02*
G01*
X8828000Y-2351000D01*
X8828000Y-2449000D01*
X8827000Y-2450732D01*
X8826000Y-2451000D01*
X7584000Y-2451000D01*
X7582268Y-2450000D01*
X7582000Y-2449000D01*
X7582000Y-2351000D01*
X7583000Y-2349268D01*
X7584000Y-2349000D01*
X8826000Y-2349000D01*
X8827732Y-2350000D01*
G37*
G36*
X-10222268Y-2350000D02*
G01*
X-10222000Y-2351000D01*
X-10222000Y-2449000D01*
X-10223000Y-2450732D01*
X-10224000Y-2451000D01*
X-11466000Y-2451000D01*
X-11467732Y-2450000D01*
X-11468000Y-2449000D01*
X-11468000Y-2351000D01*
X-11467000Y-2349268D01*
X-11466000Y-2349000D01*
X-10224000Y-2349000D01*
X-10222268Y-2350000D01*
G37*
G36*
X-7582268Y-2350000D02*
G01*
X-7582000Y-2351000D01*
X-7582000Y-2449000D01*
X-7583000Y-2450732D01*
X-7584000Y-2451000D01*
X-8826000Y-2451000D01*
X-8827732Y-2450000D01*
X-8828000Y-2449000D01*
X-8828000Y-2351000D01*
X-8827000Y-2349268D01*
X-8826000Y-2349000D01*
X-7584000Y-2349000D01*
X-7582268Y-2350000D01*
G37*
G36*
X11467732Y-1950000D02*
G01*
X11468000Y-1951000D01*
X11468000Y-2049000D01*
X11467000Y-2050732D01*
X11466000Y-2051000D01*
X10224000Y-2051000D01*
X10222268Y-2050000D01*
X10222000Y-2049000D01*
X10222000Y-1951000D01*
X10223000Y-1949268D01*
X10224000Y-1949000D01*
X11466000Y-1949000D01*
X11467732Y-1950000D01*
G37*
G36*
X8827732Y-1950000D02*
G01*
X8828000Y-1951000D01*
X8828000Y-2049000D01*
X8827000Y-2050732D01*
X8826000Y-2051000D01*
X7584000Y-2051000D01*
X7582268Y-2050000D01*
X7582000Y-2049000D01*
X7582000Y-1951000D01*
X7583000Y-1949268D01*
X7584000Y-1949000D01*
X8826000Y-1949000D01*
X8827732Y-1950000D01*
G37*
G36*
X-10222268Y-1950000D02*
G01*
X-10222000Y-1951000D01*
X-10222000Y-2049000D01*
X-10223000Y-2050732D01*
X-10224000Y-2051000D01*
X-11466000Y-2051000D01*
X-11467732Y-2050000D01*
X-11468000Y-2049000D01*
X-11468000Y-1951000D01*
X-11467000Y-1949268D01*
X-11466000Y-1949000D01*
X-10224000Y-1949000D01*
X-10222268Y-1950000D01*
G37*
G36*
X-7582268Y-1950000D02*
G01*
X-7582000Y-1951000D01*
X-7582000Y-2049000D01*
X-7583000Y-2050732D01*
X-7584000Y-2051000D01*
X-8826000Y-2051000D01*
X-8827732Y-2050000D01*
X-8828000Y-2049000D01*
X-8828000Y-1951000D01*
X-8827000Y-1949268D01*
X-8826000Y-1949000D01*
X-7584000Y-1949000D01*
X-7582268Y-1950000D01*
G37*
G36*
X-10222268Y-1550000D02*
G01*
X-10222000Y-1551000D01*
X-10222000Y-1649000D01*
X-10223000Y-1650732D01*
X-10224000Y-1651000D01*
X-11466000Y-1651000D01*
X-11467732Y-1650000D01*
X-11468000Y-1649000D01*
X-11468000Y-1551000D01*
X-11467000Y-1549268D01*
X-11466000Y-1549000D01*
X-10224000Y-1549000D01*
X-10222268Y-1550000D01*
G37*
G36*
X-7582268Y-1550000D02*
G01*
X-7582000Y-1551000D01*
X-7582000Y-1649000D01*
X-7583000Y-1650732D01*
X-7584000Y-1651000D01*
X-8826000Y-1651000D01*
X-8827732Y-1650000D01*
X-8828000Y-1649000D01*
X-8828000Y-1551000D01*
X-8827000Y-1549268D01*
X-8826000Y-1549000D01*
X-7584000Y-1549000D01*
X-7582268Y-1550000D01*
G37*
G36*
X8827732Y-1550000D02*
G01*
X8828000Y-1551000D01*
X8828000Y-1649000D01*
X8827000Y-1650732D01*
X8826000Y-1651000D01*
X7584000Y-1651000D01*
X7582268Y-1650000D01*
X7582000Y-1649000D01*
X7582000Y-1551000D01*
X7583000Y-1549268D01*
X7584000Y-1549000D01*
X8826000Y-1549000D01*
X8827732Y-1550000D01*
G37*
G36*
X11467732Y-1550000D02*
G01*
X11468000Y-1551000D01*
X11468000Y-1649000D01*
X11467000Y-1650732D01*
X11466000Y-1651000D01*
X10224000Y-1651000D01*
X10222268Y-1650000D01*
X10222000Y-1649000D01*
X10222000Y-1551000D01*
X10223000Y-1549268D01*
X10224000Y-1549000D01*
X11466000Y-1549000D01*
X11467732Y-1550000D01*
G37*
G36*
X-10222268Y-1150000D02*
G01*
X-10222000Y-1151000D01*
X-10222000Y-1249000D01*
X-10223000Y-1250732D01*
X-10224000Y-1251000D01*
X-11466000Y-1251000D01*
X-11467732Y-1250000D01*
X-11468000Y-1249000D01*
X-11468000Y-1151000D01*
X-11467000Y-1149268D01*
X-11466000Y-1149000D01*
X-10224000Y-1149000D01*
X-10222268Y-1150000D01*
G37*
G36*
X-7582268Y-1150000D02*
G01*
X-7582000Y-1151000D01*
X-7582000Y-1249000D01*
X-7583000Y-1250732D01*
X-7584000Y-1251000D01*
X-8826000Y-1251000D01*
X-8827732Y-1250000D01*
X-8828000Y-1249000D01*
X-8828000Y-1151000D01*
X-8827000Y-1149268D01*
X-8826000Y-1149000D01*
X-7584000Y-1149000D01*
X-7582268Y-1150000D01*
G37*
G36*
X8827732Y-1150000D02*
G01*
X8828000Y-1151000D01*
X8828000Y-1249000D01*
X8827000Y-1250732D01*
X8826000Y-1251000D01*
X7584000Y-1251000D01*
X7582268Y-1250000D01*
X7582000Y-1249000D01*
X7582000Y-1151000D01*
X7583000Y-1149268D01*
X7584000Y-1149000D01*
X8826000Y-1149000D01*
X8827732Y-1150000D01*
G37*
G36*
X11467732Y-1150000D02*
G01*
X11468000Y-1151000D01*
X11468000Y-1249000D01*
X11467000Y-1250732D01*
X11466000Y-1251000D01*
X10224000Y-1251000D01*
X10222268Y-1250000D01*
X10222000Y-1249000D01*
X10222000Y-1151000D01*
X10223000Y-1149268D01*
X10224000Y-1149000D01*
X11466000Y-1149000D01*
X11467732Y-1150000D01*
G37*
G36*
X-10222268Y-750000D02*
G01*
X-10222000Y-751000D01*
X-10222000Y-849000D01*
X-10223000Y-850732D01*
X-10224000Y-851000D01*
X-11466000Y-851000D01*
X-11467732Y-850000D01*
X-11468000Y-849000D01*
X-11468000Y-751000D01*
X-11467000Y-749268D01*
X-11466000Y-749000D01*
X-10224000Y-749000D01*
X-10222268Y-750000D01*
G37*
G36*
X-7582268Y-750000D02*
G01*
X-7582000Y-751000D01*
X-7582000Y-849000D01*
X-7583000Y-850732D01*
X-7584000Y-851000D01*
X-8826000Y-851000D01*
X-8827732Y-850000D01*
X-8828000Y-849000D01*
X-8828000Y-751000D01*
X-8827000Y-749268D01*
X-8826000Y-749000D01*
X-7584000Y-749000D01*
X-7582268Y-750000D01*
G37*
G36*
X8827732Y-750000D02*
G01*
X8828000Y-751000D01*
X8828000Y-849000D01*
X8827000Y-850732D01*
X8826000Y-851000D01*
X7584000Y-851000D01*
X7582268Y-850000D01*
X7582000Y-849000D01*
X7582000Y-751000D01*
X7583000Y-749268D01*
X7584000Y-749000D01*
X8826000Y-749000D01*
X8827732Y-750000D01*
G37*
G36*
X11467732Y-750000D02*
G01*
X11468000Y-751000D01*
X11468000Y-849000D01*
X11467000Y-850732D01*
X11466000Y-851000D01*
X10224000Y-851000D01*
X10222268Y-850000D01*
X10222000Y-849000D01*
X10222000Y-751000D01*
X10223000Y-749268D01*
X10224000Y-749000D01*
X11466000Y-749000D01*
X11467732Y-750000D01*
G37*
G36*
X-7582268Y-350000D02*
G01*
X-7582000Y-351000D01*
X-7582000Y-449000D01*
X-7583000Y-450732D01*
X-7584000Y-451000D01*
X-8826000Y-451000D01*
X-8827732Y-450000D01*
X-8828000Y-449000D01*
X-8828000Y-351000D01*
X-8827000Y-349268D01*
X-8826000Y-349000D01*
X-7584000Y-349000D01*
X-7582268Y-350000D01*
G37*
G36*
X-10222268Y-350000D02*
G01*
X-10222000Y-351000D01*
X-10222000Y-449000D01*
X-10223000Y-450732D01*
X-10224000Y-451000D01*
X-11466000Y-451000D01*
X-11467732Y-450000D01*
X-11468000Y-449000D01*
X-11468000Y-351000D01*
X-11467000Y-349268D01*
X-11466000Y-349000D01*
X-10224000Y-349000D01*
X-10222268Y-350000D01*
G37*
G36*
X11467732Y-350000D02*
G01*
X11468000Y-351000D01*
X11468000Y-449000D01*
X11467000Y-450732D01*
X11466000Y-451000D01*
X10224000Y-451000D01*
X10222268Y-450000D01*
X10222000Y-449000D01*
X10222000Y-351000D01*
X10223000Y-349268D01*
X10224000Y-349000D01*
X11466000Y-349000D01*
X11467732Y-350000D01*
G37*
G36*
X8827732Y-350000D02*
G01*
X8828000Y-351000D01*
X8828000Y-449000D01*
X8827000Y-450732D01*
X8826000Y-451000D01*
X7584000Y-451000D01*
X7582268Y-450000D01*
X7582000Y-449000D01*
X7582000Y-351000D01*
X7583000Y-349268D01*
X7584000Y-349000D01*
X8826000Y-349000D01*
X8827732Y-350000D01*
G37*
G36*
X-10222268Y50000D02*
G01*
X-10222000Y49000D01*
X-10222000Y-49000D01*
X-10223000Y-50732D01*
X-10224000Y-51000D01*
X-11466000Y-51000D01*
X-11467732Y-50000D01*
X-11468000Y-49000D01*
X-11468000Y49000D01*
X-11467000Y50732D01*
X-11466000Y51000D01*
X-10224000Y51000D01*
X-10222268Y50000D01*
G37*
G36*
X-7582268Y50000D02*
G01*
X-7582000Y49000D01*
X-7582000Y-49000D01*
X-7583000Y-50732D01*
X-7584000Y-51000D01*
X-8826000Y-51000D01*
X-8827732Y-50000D01*
X-8828000Y-49000D01*
X-8828000Y49000D01*
X-8827000Y50732D01*
X-8826000Y51000D01*
X-7584000Y51000D01*
X-7582268Y50000D01*
G37*
G36*
X8827732Y50000D02*
G01*
X8828000Y49000D01*
X8828000Y-49000D01*
X8827000Y-50732D01*
X8826000Y-51000D01*
X7584000Y-51000D01*
X7582268Y-50000D01*
X7582000Y-49000D01*
X7582000Y49000D01*
X7583000Y50732D01*
X7584000Y51000D01*
X8826000Y51000D01*
X8827732Y50000D01*
G37*
G36*
X11467732Y50000D02*
G01*
X11468000Y49000D01*
X11468000Y-49000D01*
X11467000Y-50732D01*
X11466000Y-51000D01*
X10224000Y-51000D01*
X10222268Y-50000D01*
X10222000Y-49000D01*
X10222000Y49000D01*
X10223000Y50732D01*
X10224000Y51000D01*
X11466000Y51000D01*
X11467732Y50000D01*
G37*
G36*
X11467732Y450000D02*
G01*
X11468000Y449000D01*
X11468000Y351000D01*
X11467000Y349268D01*
X11466000Y349000D01*
X10224000Y349000D01*
X10222268Y350000D01*
X10222000Y351000D01*
X10222000Y449000D01*
X10223000Y450732D01*
X10224000Y451000D01*
X11466000Y451000D01*
X11467732Y450000D01*
G37*
G36*
X-7582268Y450000D02*
G01*
X-7582000Y449000D01*
X-7582000Y351000D01*
X-7583000Y349268D01*
X-7584000Y349000D01*
X-8826000Y349000D01*
X-8827732Y350000D01*
X-8828000Y351000D01*
X-8828000Y449000D01*
X-8827000Y450732D01*
X-8826000Y451000D01*
X-7584000Y451000D01*
X-7582268Y450000D01*
G37*
G36*
X-10222268Y450000D02*
G01*
X-10222000Y449000D01*
X-10222000Y351000D01*
X-10223000Y349268D01*
X-10224000Y349000D01*
X-11466000Y349000D01*
X-11467732Y350000D01*
X-11468000Y351000D01*
X-11468000Y449000D01*
X-11467000Y450732D01*
X-11466000Y451000D01*
X-10224000Y451000D01*
X-10222268Y450000D01*
G37*
G36*
X8827732Y450000D02*
G01*
X8828000Y449000D01*
X8828000Y351000D01*
X8827000Y349268D01*
X8826000Y349000D01*
X7584000Y349000D01*
X7582268Y350000D01*
X7582000Y351000D01*
X7582000Y449000D01*
X7583000Y450732D01*
X7584000Y451000D01*
X8826000Y451000D01*
X8827732Y450000D01*
G37*
G36*
X-10222268Y850000D02*
G01*
X-10222000Y849000D01*
X-10222000Y751000D01*
X-10223000Y749268D01*
X-10224000Y749000D01*
X-11466000Y749000D01*
X-11467732Y750000D01*
X-11468000Y751000D01*
X-11468000Y849000D01*
X-11467000Y850732D01*
X-11466000Y851000D01*
X-10224000Y851000D01*
X-10222268Y850000D01*
G37*
G36*
X11467732Y850000D02*
G01*
X11468000Y849000D01*
X11468000Y751000D01*
X11467000Y749268D01*
X11466000Y749000D01*
X10224000Y749000D01*
X10222268Y750000D01*
X10222000Y751000D01*
X10222000Y849000D01*
X10223000Y850732D01*
X10224000Y851000D01*
X11466000Y851000D01*
X11467732Y850000D01*
G37*
G36*
X8827732Y850000D02*
G01*
X8828000Y849000D01*
X8828000Y751000D01*
X8827000Y749268D01*
X8826000Y749000D01*
X7584000Y749000D01*
X7582268Y750000D01*
X7582000Y751000D01*
X7582000Y849000D01*
X7583000Y850732D01*
X7584000Y851000D01*
X8826000Y851000D01*
X8827732Y850000D01*
G37*
G36*
X-7582268Y850000D02*
G01*
X-7582000Y849000D01*
X-7582000Y751000D01*
X-7583000Y749268D01*
X-7584000Y749000D01*
X-8826000Y749000D01*
X-8827732Y750000D01*
X-8828000Y751000D01*
X-8828000Y849000D01*
X-8827000Y850732D01*
X-8826000Y851000D01*
X-7584000Y851000D01*
X-7582268Y850000D01*
G37*
G36*
X-10222268Y1250000D02*
G01*
X-10222000Y1249000D01*
X-10222000Y1151000D01*
X-10223000Y1149268D01*
X-10224000Y1149000D01*
X-11466000Y1149000D01*
X-11467732Y1150000D01*
X-11468000Y1151000D01*
X-11468000Y1249000D01*
X-11467000Y1250732D01*
X-11466000Y1251000D01*
X-10224000Y1251000D01*
X-10222268Y1250000D01*
G37*
G36*
X-7582268Y1250000D02*
G01*
X-7582000Y1249000D01*
X-7582000Y1151000D01*
X-7583000Y1149268D01*
X-7584000Y1149000D01*
X-8826000Y1149000D01*
X-8827732Y1150000D01*
X-8828000Y1151000D01*
X-8828000Y1249000D01*
X-8827000Y1250732D01*
X-8826000Y1251000D01*
X-7584000Y1251000D01*
X-7582268Y1250000D01*
G37*
G36*
X8827732Y1250000D02*
G01*
X8828000Y1249000D01*
X8828000Y1151000D01*
X8827000Y1149268D01*
X8826000Y1149000D01*
X7584000Y1149000D01*
X7582268Y1150000D01*
X7582000Y1151000D01*
X7582000Y1249000D01*
X7583000Y1250732D01*
X7584000Y1251000D01*
X8826000Y1251000D01*
X8827732Y1250000D01*
G37*
G36*
X11467732Y1250000D02*
G01*
X11468000Y1249000D01*
X11468000Y1151000D01*
X11467000Y1149268D01*
X11466000Y1149000D01*
X10224000Y1149000D01*
X10222268Y1150000D01*
X10222000Y1151000D01*
X10222000Y1249000D01*
X10223000Y1250732D01*
X10224000Y1251000D01*
X11466000Y1251000D01*
X11467732Y1250000D01*
G37*
G36*
X-10222268Y1650000D02*
G01*
X-10222000Y1649000D01*
X-10222000Y1551000D01*
X-10223000Y1549268D01*
X-10224000Y1549000D01*
X-11466000Y1549000D01*
X-11467732Y1550000D01*
X-11468000Y1551000D01*
X-11468000Y1649000D01*
X-11467000Y1650732D01*
X-11466000Y1651000D01*
X-10224000Y1651000D01*
X-10222268Y1650000D01*
G37*
G36*
X8827732Y1650000D02*
G01*
X8828000Y1649000D01*
X8828000Y1551000D01*
X8827000Y1549268D01*
X8826000Y1549000D01*
X7584000Y1549000D01*
X7582268Y1550000D01*
X7582000Y1551000D01*
X7582000Y1649000D01*
X7583000Y1650732D01*
X7584000Y1651000D01*
X8826000Y1651000D01*
X8827732Y1650000D01*
G37*
G36*
X-7582268Y1650000D02*
G01*
X-7582000Y1649000D01*
X-7582000Y1551000D01*
X-7583000Y1549268D01*
X-7584000Y1549000D01*
X-8826000Y1549000D01*
X-8827732Y1550000D01*
X-8828000Y1551000D01*
X-8828000Y1649000D01*
X-8827000Y1650732D01*
X-8826000Y1651000D01*
X-7584000Y1651000D01*
X-7582268Y1650000D01*
G37*
G36*
X11467732Y1650000D02*
G01*
X11468000Y1649000D01*
X11468000Y1551000D01*
X11467000Y1549268D01*
X11466000Y1549000D01*
X10224000Y1549000D01*
X10222268Y1550000D01*
X10222000Y1551000D01*
X10222000Y1649000D01*
X10223000Y1650732D01*
X10224000Y1651000D01*
X11466000Y1651000D01*
X11467732Y1650000D01*
G37*
G36*
X-10222268Y2050000D02*
G01*
X-10222000Y2049000D01*
X-10222000Y1951000D01*
X-10223000Y1949268D01*
X-10224000Y1949000D01*
X-11466000Y1949000D01*
X-11467732Y1950000D01*
X-11468000Y1951000D01*
X-11468000Y2049000D01*
X-11467000Y2050732D01*
X-11466000Y2051000D01*
X-10224000Y2051000D01*
X-10222268Y2050000D01*
G37*
G36*
X-7582268Y2050000D02*
G01*
X-7582000Y2049000D01*
X-7582000Y1951000D01*
X-7583000Y1949268D01*
X-7584000Y1949000D01*
X-8826000Y1949000D01*
X-8827732Y1950000D01*
X-8828000Y1951000D01*
X-8828000Y2049000D01*
X-8827000Y2050732D01*
X-8826000Y2051000D01*
X-7584000Y2051000D01*
X-7582268Y2050000D01*
G37*
G36*
X8827732Y2050000D02*
G01*
X8828000Y2049000D01*
X8828000Y1951000D01*
X8827000Y1949268D01*
X8826000Y1949000D01*
X7584000Y1949000D01*
X7582268Y1950000D01*
X7582000Y1951000D01*
X7582000Y2049000D01*
X7583000Y2050732D01*
X7584000Y2051000D01*
X8826000Y2051000D01*
X8827732Y2050000D01*
G37*
G36*
X11467732Y2050000D02*
G01*
X11468000Y2049000D01*
X11468000Y1951000D01*
X11467000Y1949268D01*
X11466000Y1949000D01*
X10224000Y1949000D01*
X10222268Y1950000D01*
X10222000Y1951000D01*
X10222000Y2049000D01*
X10223000Y2050732D01*
X10224000Y2051000D01*
X11466000Y2051000D01*
X11467732Y2050000D01*
G37*
G36*
X-10222268Y2450000D02*
G01*
X-10222000Y2449000D01*
X-10222000Y2351000D01*
X-10223000Y2349268D01*
X-10224000Y2349000D01*
X-11466000Y2349000D01*
X-11467732Y2350000D01*
X-11468000Y2351000D01*
X-11468000Y2449000D01*
X-11467000Y2450732D01*
X-11466000Y2451000D01*
X-10224000Y2451000D01*
X-10222268Y2450000D01*
G37*
G36*
X-7582268Y2450000D02*
G01*
X-7582000Y2449000D01*
X-7582000Y2351000D01*
X-7583000Y2349268D01*
X-7584000Y2349000D01*
X-8826000Y2349000D01*
X-8827732Y2350000D01*
X-8828000Y2351000D01*
X-8828000Y2449000D01*
X-8827000Y2450732D01*
X-8826000Y2451000D01*
X-7584000Y2451000D01*
X-7582268Y2450000D01*
G37*
G36*
X8827732Y2450000D02*
G01*
X8828000Y2449000D01*
X8828000Y2351000D01*
X8827000Y2349268D01*
X8826000Y2349000D01*
X7584000Y2349000D01*
X7582268Y2350000D01*
X7582000Y2351000D01*
X7582000Y2449000D01*
X7583000Y2450732D01*
X7584000Y2451000D01*
X8826000Y2451000D01*
X8827732Y2450000D01*
G37*
G36*
X11467732Y2450000D02*
G01*
X11468000Y2449000D01*
X11468000Y2351000D01*
X11467000Y2349268D01*
X11466000Y2349000D01*
X10224000Y2349000D01*
X10222268Y2350000D01*
X10222000Y2351000D01*
X10222000Y2449000D01*
X10223000Y2450732D01*
X10224000Y2451000D01*
X11466000Y2451000D01*
X11467732Y2450000D01*
G37*
G36*
X-7582268Y2850000D02*
G01*
X-7582000Y2849000D01*
X-7582000Y2751000D01*
X-7583000Y2749268D01*
X-7584000Y2749000D01*
X-8826000Y2749000D01*
X-8827732Y2750000D01*
X-8828000Y2751000D01*
X-8828000Y2849000D01*
X-8827000Y2850732D01*
X-8826000Y2851000D01*
X-7584000Y2851000D01*
X-7582268Y2850000D01*
G37*
G36*
X11467732Y2850000D02*
G01*
X11468000Y2849000D01*
X11468000Y2751000D01*
X11467000Y2749268D01*
X11466000Y2749000D01*
X10224000Y2749000D01*
X10222268Y2750000D01*
X10222000Y2751000D01*
X10222000Y2849000D01*
X10223000Y2850732D01*
X10224000Y2851000D01*
X11466000Y2851000D01*
X11467732Y2850000D01*
G37*
G36*
X-10222268Y2850000D02*
G01*
X-10222000Y2849000D01*
X-10222000Y2751000D01*
X-10223000Y2749268D01*
X-10224000Y2749000D01*
X-11466000Y2749000D01*
X-11467732Y2750000D01*
X-11468000Y2751000D01*
X-11468000Y2849000D01*
X-11467000Y2850732D01*
X-11466000Y2851000D01*
X-10224000Y2851000D01*
X-10222268Y2850000D01*
G37*
G36*
X8827732Y2850000D02*
G01*
X8828000Y2849000D01*
X8828000Y2751000D01*
X8827000Y2749268D01*
X8826000Y2749000D01*
X7584000Y2749000D01*
X7582268Y2750000D01*
X7582000Y2751000D01*
X7582000Y2849000D01*
X7583000Y2850732D01*
X7584000Y2851000D01*
X8826000Y2851000D01*
X8827732Y2850000D01*
G37*
G36*
X-10222268Y3250000D02*
G01*
X-10222000Y3249000D01*
X-10222000Y3151000D01*
X-10223000Y3149268D01*
X-10224000Y3149000D01*
X-11466000Y3149000D01*
X-11467732Y3150000D01*
X-11468000Y3151000D01*
X-11468000Y3249000D01*
X-11467000Y3250732D01*
X-11466000Y3251000D01*
X-10224000Y3251000D01*
X-10222268Y3250000D01*
G37*
G36*
X-7582268Y3250000D02*
G01*
X-7582000Y3249000D01*
X-7582000Y3151000D01*
X-7583000Y3149268D01*
X-7584000Y3149000D01*
X-8826000Y3149000D01*
X-8827732Y3150000D01*
X-8828000Y3151000D01*
X-8828000Y3249000D01*
X-8827000Y3250732D01*
X-8826000Y3251000D01*
X-7584000Y3251000D01*
X-7582268Y3250000D01*
G37*
G36*
X8827732Y3250000D02*
G01*
X8828000Y3249000D01*
X8828000Y3151000D01*
X8827000Y3149268D01*
X8826000Y3149000D01*
X7584000Y3149000D01*
X7582268Y3150000D01*
X7582000Y3151000D01*
X7582000Y3249000D01*
X7583000Y3250732D01*
X7584000Y3251000D01*
X8826000Y3251000D01*
X8827732Y3250000D01*
G37*
G36*
X11467732Y3250000D02*
G01*
X11468000Y3249000D01*
X11468000Y3151000D01*
X11467000Y3149268D01*
X11466000Y3149000D01*
X10224000Y3149000D01*
X10222268Y3150000D01*
X10222000Y3151000D01*
X10222000Y3249000D01*
X10223000Y3250732D01*
X10224000Y3251000D01*
X11466000Y3251000D01*
X11467732Y3250000D01*
G37*
G36*
X11467732Y3650000D02*
G01*
X11468000Y3649000D01*
X11468000Y3551000D01*
X11467000Y3549268D01*
X11466000Y3549000D01*
X10224000Y3549000D01*
X10222268Y3550000D01*
X10222000Y3551000D01*
X10222000Y3649000D01*
X10223000Y3650732D01*
X10224000Y3651000D01*
X11466000Y3651000D01*
X11467732Y3650000D01*
G37*
G36*
X-7582268Y3650000D02*
G01*
X-7582000Y3649000D01*
X-7582000Y3551000D01*
X-7583000Y3549268D01*
X-7584000Y3549000D01*
X-8826000Y3549000D01*
X-8827732Y3550000D01*
X-8828000Y3551000D01*
X-8828000Y3649000D01*
X-8827000Y3650732D01*
X-8826000Y3651000D01*
X-7584000Y3651000D01*
X-7582268Y3650000D01*
G37*
G36*
X-10222268Y3650000D02*
G01*
X-10222000Y3649000D01*
X-10222000Y3551000D01*
X-10223000Y3549268D01*
X-10224000Y3549000D01*
X-11466000Y3549000D01*
X-11467732Y3550000D01*
X-11468000Y3551000D01*
X-11468000Y3649000D01*
X-11467000Y3650732D01*
X-11466000Y3651000D01*
X-10224000Y3651000D01*
X-10222268Y3650000D01*
G37*
G36*
X8827732Y3650000D02*
G01*
X8828000Y3649000D01*
X8828000Y3551000D01*
X8827000Y3549268D01*
X8826000Y3549000D01*
X7584000Y3549000D01*
X7582268Y3550000D01*
X7582000Y3551000D01*
X7582000Y3649000D01*
X7583000Y3650732D01*
X7584000Y3651000D01*
X8826000Y3651000D01*
X8827732Y3650000D01*
G37*
G36*
X8827732Y4050000D02*
G01*
X8828000Y4049000D01*
X8828000Y3951000D01*
X8827000Y3949268D01*
X8826000Y3949000D01*
X7584000Y3949000D01*
X7582268Y3950000D01*
X7582000Y3951000D01*
X7582000Y4049000D01*
X7583000Y4050732D01*
X7584000Y4051000D01*
X8826000Y4051000D01*
X8827732Y4050000D01*
G37*
G36*
X11467732Y4050000D02*
G01*
X11468000Y4049000D01*
X11468000Y3951000D01*
X11467000Y3949268D01*
X11466000Y3949000D01*
X10224000Y3949000D01*
X10222268Y3950000D01*
X10222000Y3951000D01*
X10222000Y4049000D01*
X10223000Y4050732D01*
X10224000Y4051000D01*
X11466000Y4051000D01*
X11467732Y4050000D01*
G37*
G36*
X-7582268Y4050000D02*
G01*
X-7582000Y4049000D01*
X-7582000Y3951000D01*
X-7583000Y3949268D01*
X-7584000Y3949000D01*
X-8826000Y3949000D01*
X-8827732Y3950000D01*
X-8828000Y3951000D01*
X-8828000Y4049000D01*
X-8827000Y4050732D01*
X-8826000Y4051000D01*
X-7584000Y4051000D01*
X-7582268Y4050000D01*
G37*
G36*
X-10222268Y4050000D02*
G01*
X-10222000Y4049000D01*
X-10222000Y3951000D01*
X-10223000Y3949268D01*
X-10224000Y3949000D01*
X-11466000Y3949000D01*
X-11467732Y3950000D01*
X-11468000Y3951000D01*
X-11468000Y4049000D01*
X-11467000Y4050732D01*
X-11466000Y4051000D01*
X-10224000Y4051000D01*
X-10222268Y4050000D01*
G37*
G36*
X-10222268Y4450000D02*
G01*
X-10222000Y4449000D01*
X-10222000Y4351000D01*
X-10223000Y4349268D01*
X-10224000Y4349000D01*
X-11466000Y4349000D01*
X-11467732Y4350000D01*
X-11468000Y4351000D01*
X-11468000Y4449000D01*
X-11467000Y4450732D01*
X-11466000Y4451000D01*
X-10224000Y4451000D01*
X-10222268Y4450000D01*
G37*
G36*
X-7582268Y4450000D02*
G01*
X-7582000Y4449000D01*
X-7582000Y4351000D01*
X-7583000Y4349268D01*
X-7584000Y4349000D01*
X-8826000Y4349000D01*
X-8827732Y4350000D01*
X-8828000Y4351000D01*
X-8828000Y4449000D01*
X-8827000Y4450732D01*
X-8826000Y4451000D01*
X-7584000Y4451000D01*
X-7582268Y4450000D01*
G37*
G36*
X8827732Y4450000D02*
G01*
X8828000Y4449000D01*
X8828000Y4351000D01*
X8827000Y4349268D01*
X8826000Y4349000D01*
X7584000Y4349000D01*
X7582268Y4350000D01*
X7582000Y4351000D01*
X7582000Y4449000D01*
X7583000Y4450732D01*
X7584000Y4451000D01*
X8826000Y4451000D01*
X8827732Y4450000D01*
G37*
G36*
X11467732Y4450000D02*
G01*
X11468000Y4449000D01*
X11468000Y4351000D01*
X11467000Y4349268D01*
X11466000Y4349000D01*
X10224000Y4349000D01*
X10222268Y4350000D01*
X10222000Y4351000D01*
X10222000Y4449000D01*
X10223000Y4450732D01*
X10224000Y4451000D01*
X11466000Y4451000D01*
X11467732Y4450000D01*
G37*
G36*
X-10222268Y4850000D02*
G01*
X-10222000Y4849000D01*
X-10222000Y4751000D01*
X-10223000Y4749268D01*
X-10224000Y4749000D01*
X-11466000Y4749000D01*
X-11467732Y4750000D01*
X-11468000Y4751000D01*
X-11468000Y4849000D01*
X-11467000Y4850732D01*
X-11466000Y4851000D01*
X-10224000Y4851000D01*
X-10222268Y4850000D01*
G37*
G36*
X11467732Y4850000D02*
G01*
X11468000Y4849000D01*
X11468000Y4751000D01*
X11467000Y4749268D01*
X11466000Y4749000D01*
X10224000Y4749000D01*
X10222268Y4750000D01*
X10222000Y4751000D01*
X10222000Y4849000D01*
X10223000Y4850732D01*
X10224000Y4851000D01*
X11466000Y4851000D01*
X11467732Y4850000D01*
G37*
G36*
X8827732Y4850000D02*
G01*
X8828000Y4849000D01*
X8828000Y4751000D01*
X8827000Y4749268D01*
X8826000Y4749000D01*
X7584000Y4749000D01*
X7582268Y4750000D01*
X7582000Y4751000D01*
X7582000Y4849000D01*
X7583000Y4850732D01*
X7584000Y4851000D01*
X8826000Y4851000D01*
X8827732Y4850000D01*
G37*
G36*
X-7582268Y4850000D02*
G01*
X-7582000Y4849000D01*
X-7582000Y4751000D01*
X-7583000Y4749268D01*
X-7584000Y4749000D01*
X-8826000Y4749000D01*
X-8827732Y4750000D01*
X-8828000Y4751000D01*
X-8828000Y4849000D01*
X-8827000Y4850732D01*
X-8826000Y4851000D01*
X-7584000Y4851000D01*
X-7582268Y4850000D01*
G37*
G36*
X11467732Y5250000D02*
G01*
X11468000Y5249000D01*
X11468000Y5151000D01*
X11467000Y5149268D01*
X11466000Y5149000D01*
X10224000Y5149000D01*
X10222268Y5150000D01*
X10222000Y5151000D01*
X10222000Y5249000D01*
X10223000Y5250732D01*
X10224000Y5251000D01*
X11466000Y5251000D01*
X11467732Y5250000D01*
G37*
G36*
X8827732Y5250000D02*
G01*
X8828000Y5249000D01*
X8828000Y5151000D01*
X8827000Y5149268D01*
X8826000Y5149000D01*
X7584000Y5149000D01*
X7582268Y5150000D01*
X7582000Y5151000D01*
X7582000Y5249000D01*
X7583000Y5250732D01*
X7584000Y5251000D01*
X8826000Y5251000D01*
X8827732Y5250000D01*
G37*
G36*
X-10222268Y5250000D02*
G01*
X-10222000Y5249000D01*
X-10222000Y5151000D01*
X-10223000Y5149268D01*
X-10224000Y5149000D01*
X-11466000Y5149000D01*
X-11467732Y5150000D01*
X-11468000Y5151000D01*
X-11468000Y5249000D01*
X-11467000Y5250732D01*
X-11466000Y5251000D01*
X-10224000Y5251000D01*
X-10222268Y5250000D01*
G37*
G36*
X-7582268Y5250000D02*
G01*
X-7582000Y5249000D01*
X-7582000Y5151000D01*
X-7583000Y5149268D01*
X-7584000Y5149000D01*
X-8826000Y5149000D01*
X-8827732Y5150000D01*
X-8828000Y5151000D01*
X-8828000Y5249000D01*
X-8827000Y5250732D01*
X-8826000Y5251000D01*
X-7584000Y5251000D01*
X-7582268Y5250000D01*
G37*
G36*
X11467732Y5650000D02*
G01*
X11468000Y5649000D01*
X11468000Y5551000D01*
X11467000Y5549268D01*
X11466000Y5549000D01*
X10224000Y5549000D01*
X10222268Y5550000D01*
X10222000Y5551000D01*
X10222000Y5649000D01*
X10223000Y5650732D01*
X10224000Y5651000D01*
X11466000Y5651000D01*
X11467732Y5650000D01*
G37*
G36*
X8827732Y5650000D02*
G01*
X8828000Y5649000D01*
X8828000Y5551000D01*
X8827000Y5549268D01*
X8826000Y5549000D01*
X7584000Y5549000D01*
X7582268Y5550000D01*
X7582000Y5551000D01*
X7582000Y5649000D01*
X7583000Y5650732D01*
X7584000Y5651000D01*
X8826000Y5651000D01*
X8827732Y5650000D01*
G37*
G36*
X-10222268Y5650000D02*
G01*
X-10222000Y5649000D01*
X-10222000Y5551000D01*
X-10223000Y5549268D01*
X-10224000Y5549000D01*
X-11466000Y5549000D01*
X-11467732Y5550000D01*
X-11468000Y5551000D01*
X-11468000Y5649000D01*
X-11467000Y5650732D01*
X-11466000Y5651000D01*
X-10224000Y5651000D01*
X-10222268Y5650000D01*
G37*
G36*
X-7582268Y5650000D02*
G01*
X-7582000Y5649000D01*
X-7582000Y5551000D01*
X-7583000Y5549268D01*
X-7584000Y5549000D01*
X-8826000Y5549000D01*
X-8827732Y5550000D01*
X-8828000Y5551000D01*
X-8828000Y5649000D01*
X-8827000Y5650732D01*
X-8826000Y5651000D01*
X-7584000Y5651000D01*
X-7582268Y5650000D01*
G37*
G36*
X-10222268Y6050000D02*
G01*
X-10222000Y6049000D01*
X-10222000Y5951000D01*
X-10223000Y5949268D01*
X-10224000Y5949000D01*
X-11466000Y5949000D01*
X-11467732Y5950000D01*
X-11468000Y5951000D01*
X-11468000Y6049000D01*
X-11467000Y6050732D01*
X-11466000Y6051000D01*
X-10224000Y6051000D01*
X-10222268Y6050000D01*
G37*
G36*
X-7582268Y6050000D02*
G01*
X-7582000Y6049000D01*
X-7582000Y5951000D01*
X-7583000Y5949268D01*
X-7584000Y5949000D01*
X-8826000Y5949000D01*
X-8827732Y5950000D01*
X-8828000Y5951000D01*
X-8828000Y6049000D01*
X-8827000Y6050732D01*
X-8826000Y6051000D01*
X-7584000Y6051000D01*
X-7582268Y6050000D01*
G37*
G36*
X8827732Y6050000D02*
G01*
X8828000Y6049000D01*
X8828000Y5951000D01*
X8827000Y5949268D01*
X8826000Y5949000D01*
X7584000Y5949000D01*
X7582268Y5950000D01*
X7582000Y5951000D01*
X7582000Y6049000D01*
X7583000Y6050732D01*
X7584000Y6051000D01*
X8826000Y6051000D01*
X8827732Y6050000D01*
G37*
G36*
X11467732Y6050000D02*
G01*
X11468000Y6049000D01*
X11468000Y5951000D01*
X11467000Y5949268D01*
X11466000Y5949000D01*
X10224000Y5949000D01*
X10222268Y5950000D01*
X10222000Y5951000D01*
X10222000Y6049000D01*
X10223000Y6050732D01*
X10224000Y6051000D01*
X11466000Y6051000D01*
X11467732Y6050000D01*
G37*
G36*
X11467732Y6450000D02*
G01*
X11468000Y6449000D01*
X11468000Y6351000D01*
X11467000Y6349268D01*
X11466000Y6349000D01*
X10224000Y6349000D01*
X10222268Y6350000D01*
X10222000Y6351000D01*
X10222000Y6449000D01*
X10223000Y6450732D01*
X10224000Y6451000D01*
X11466000Y6451000D01*
X11467732Y6450000D01*
G37*
G36*
X8827732Y6450000D02*
G01*
X8828000Y6449000D01*
X8828000Y6351000D01*
X8827000Y6349268D01*
X8826000Y6349000D01*
X7584000Y6349000D01*
X7582268Y6350000D01*
X7582000Y6351000D01*
X7582000Y6449000D01*
X7583000Y6450732D01*
X7584000Y6451000D01*
X8826000Y6451000D01*
X8827732Y6450000D01*
G37*
G36*
X-7582268Y6450000D02*
G01*
X-7582000Y6449000D01*
X-7582000Y6351000D01*
X-7583000Y6349268D01*
X-7584000Y6349000D01*
X-8826000Y6349000D01*
X-8827732Y6350000D01*
X-8828000Y6351000D01*
X-8828000Y6449000D01*
X-8827000Y6450732D01*
X-8826000Y6451000D01*
X-7584000Y6451000D01*
X-7582268Y6450000D01*
G37*
G36*
X-10222268Y6450000D02*
G01*
X-10222000Y6449000D01*
X-10222000Y6351000D01*
X-10223000Y6349268D01*
X-10224000Y6349000D01*
X-11466000Y6349000D01*
X-11467732Y6350000D01*
X-11468000Y6351000D01*
X-11468000Y6449000D01*
X-11467000Y6450732D01*
X-11466000Y6451000D01*
X-10224000Y6451000D01*
X-10222268Y6450000D01*
G37*
G36*
X-7582268Y6850000D02*
G01*
X-7582000Y6849000D01*
X-7582000Y6751000D01*
X-7583000Y6749268D01*
X-7584000Y6749000D01*
X-8826000Y6749000D01*
X-8827732Y6750000D01*
X-8828000Y6751000D01*
X-8828000Y6849000D01*
X-8827000Y6850732D01*
X-8826000Y6851000D01*
X-7584000Y6851000D01*
X-7582268Y6850000D01*
G37*
G36*
X11467732Y6850000D02*
G01*
X11468000Y6849000D01*
X11468000Y6751000D01*
X11467000Y6749268D01*
X11466000Y6749000D01*
X10224000Y6749000D01*
X10222268Y6750000D01*
X10222000Y6751000D01*
X10222000Y6849000D01*
X10223000Y6850732D01*
X10224000Y6851000D01*
X11466000Y6851000D01*
X11467732Y6850000D01*
G37*
G36*
X8827732Y6850000D02*
G01*
X8828000Y6849000D01*
X8828000Y6751000D01*
X8827000Y6749268D01*
X8826000Y6749000D01*
X7584000Y6749000D01*
X7582268Y6750000D01*
X7582000Y6751000D01*
X7582000Y6849000D01*
X7583000Y6850732D01*
X7584000Y6851000D01*
X8826000Y6851000D01*
X8827732Y6850000D01*
G37*
G36*
X-10222268Y6850000D02*
G01*
X-10222000Y6849000D01*
X-10222000Y6751000D01*
X-10223000Y6749268D01*
X-10224000Y6749000D01*
X-11466000Y6749000D01*
X-11467732Y6750000D01*
X-11468000Y6751000D01*
X-11468000Y6849000D01*
X-11467000Y6850732D01*
X-11466000Y6851000D01*
X-10224000Y6851000D01*
X-10222268Y6850000D01*
G37*
G36*
X-10222268Y7250000D02*
G01*
X-10222000Y7249000D01*
X-10222000Y7151000D01*
X-10223000Y7149268D01*
X-10224000Y7149000D01*
X-11466000Y7149000D01*
X-11467732Y7150000D01*
X-11468000Y7151000D01*
X-11468000Y7249000D01*
X-11467000Y7250732D01*
X-11466000Y7251000D01*
X-10224000Y7251000D01*
X-10222268Y7250000D01*
G37*
G36*
X-7582268Y7250000D02*
G01*
X-7582000Y7249000D01*
X-7582000Y7151000D01*
X-7583000Y7149268D01*
X-7584000Y7149000D01*
X-8826000Y7149000D01*
X-8827732Y7150000D01*
X-8828000Y7151000D01*
X-8828000Y7249000D01*
X-8827000Y7250732D01*
X-8826000Y7251000D01*
X-7584000Y7251000D01*
X-7582268Y7250000D01*
G37*
G36*
X8827732Y7250000D02*
G01*
X8828000Y7249000D01*
X8828000Y7151000D01*
X8827000Y7149268D01*
X8826000Y7149000D01*
X7584000Y7149000D01*
X7582268Y7150000D01*
X7582000Y7151000D01*
X7582000Y7249000D01*
X7583000Y7250732D01*
X7584000Y7251000D01*
X8826000Y7251000D01*
X8827732Y7250000D01*
G37*
G36*
X11467732Y7250000D02*
G01*
X11468000Y7249000D01*
X11468000Y7151000D01*
X11467000Y7149268D01*
X11466000Y7149000D01*
X10224000Y7149000D01*
X10222268Y7150000D01*
X10222000Y7151000D01*
X10222000Y7249000D01*
X10223000Y7250732D01*
X10224000Y7251000D01*
X11466000Y7251000D01*
X11467732Y7250000D01*
G37*
G36*
X-10222268Y7650000D02*
G01*
X-10222000Y7649000D01*
X-10222000Y7551000D01*
X-10223000Y7549268D01*
X-10224000Y7549000D01*
X-11466000Y7549000D01*
X-11467732Y7550000D01*
X-11468000Y7551000D01*
X-11468000Y7649000D01*
X-11467000Y7650732D01*
X-11466000Y7651000D01*
X-10224000Y7651000D01*
X-10222268Y7650000D01*
G37*
G36*
X-7582268Y7650000D02*
G01*
X-7582000Y7649000D01*
X-7582000Y7551000D01*
X-7583000Y7549268D01*
X-7584000Y7549000D01*
X-8826000Y7549000D01*
X-8827732Y7550000D01*
X-8828000Y7551000D01*
X-8828000Y7649000D01*
X-8827000Y7650732D01*
X-8826000Y7651000D01*
X-7584000Y7651000D01*
X-7582268Y7650000D01*
G37*
G36*
X8827732Y7650000D02*
G01*
X8828000Y7649000D01*
X8828000Y7551000D01*
X8827000Y7549268D01*
X8826000Y7549000D01*
X7584000Y7549000D01*
X7582268Y7550000D01*
X7582000Y7551000D01*
X7582000Y7649000D01*
X7583000Y7650732D01*
X7584000Y7651000D01*
X8826000Y7651000D01*
X8827732Y7650000D01*
G37*
G36*
X11467732Y7650000D02*
G01*
X11468000Y7649000D01*
X11468000Y7551000D01*
X11467000Y7549268D01*
X11466000Y7549000D01*
X10224000Y7549000D01*
X10222268Y7550000D01*
X10222000Y7551000D01*
X10222000Y7649000D01*
X10223000Y7650732D01*
X10224000Y7651000D01*
X11466000Y7651000D01*
X11467732Y7650000D01*
G37*
M02*
