G04 #@! TF.GenerationSoftware,KiCad,Pcbnew,5.1.7-a382d34a8~87~ubuntu18.04.1*
G04 #@! TF.CreationDate,2020-10-22T16:54:02+03:00*
G04 #@! TF.ProjectId,FreeSmart157AAC_29mm_devboard_5r_smd,46726565-536d-4617-9274-313537414143,rev?*
G04 #@! TF.SameCoordinates,Original*
G04 #@! TF.FileFunction,Legend,Top*
G04 #@! TF.FilePolarity,Positive*
%FSLAX46Y46*%
G04 Gerber Fmt 4.6, Leading zero omitted, Abs format (unit mm)*
G04 Created by KiCad (PCBNEW 5.1.7-a382d34a8~87~ubuntu18.04.1) date 2020-10-22 16:54:02*
%MOMM*%
%LPD*%
G01*
G04 APERTURE LIST*
%ADD10C,0.100000*%
%ADD11C,0.150000*%
G04 APERTURE END LIST*
D10*
X6300620Y-5719960D02*
X5499190Y-5719960D01*
X6300620Y-2839680D02*
X6300620Y-5719960D01*
X5500890Y-2839680D02*
X6300620Y-2839680D01*
X-6300620Y-5719960D02*
X-5499190Y-5719960D01*
X-6300620Y-2841670D02*
X-6300620Y-5719960D01*
X-5499190Y-2841670D02*
X-6300620Y-2841670D01*
X7834190Y9299440D02*
X7834190Y8250420D01*
X11215830Y9299440D02*
X7834190Y9299440D01*
X11215830Y8250850D02*
X11215830Y9299440D01*
X11215810Y-9301070D02*
X11215810Y-8250420D01*
X7834190Y-9301070D02*
X11215810Y-9301070D01*
X7834190Y-8250420D02*
X7834190Y-9301070D01*
X-11215810Y9299440D02*
X-11215810Y8250420D01*
X-7834170Y9299440D02*
X-11215810Y9299440D01*
X-7834170Y8250850D02*
X-7834170Y9299440D01*
X-7834190Y-9301070D02*
X-7834190Y-8250420D01*
X-11215810Y-9301070D02*
X-7834190Y-9301070D01*
X-11215810Y-8250420D02*
X-11215810Y-9301070D01*
D11*
X4252380Y-19261904D02*
X3252380Y-19261904D01*
X3728571Y-19261904D02*
X3728571Y-18690476D01*
X4252380Y-18690476D02*
X3252380Y-18690476D01*
X3252380Y-17738095D02*
X3252380Y-18214285D01*
X3728571Y-18261904D01*
X3680952Y-18214285D01*
X3633333Y-18119047D01*
X3633333Y-17880952D01*
X3680952Y-17785714D01*
X3728571Y-17738095D01*
X3823809Y-17690476D01*
X4061904Y-17690476D01*
X4157142Y-17738095D01*
X4204761Y-17785714D01*
X4252380Y-17880952D01*
X4252380Y-18119047D01*
X4204761Y-18214285D01*
X4157142Y-18261904D01*
X-9747619Y-19261904D02*
X-10747619Y-19261904D01*
X-10271428Y-19261904D02*
X-10271428Y-18690476D01*
X-9747619Y-18690476D02*
X-10747619Y-18690476D01*
X-10414285Y-17785714D02*
X-9747619Y-17785714D01*
X-10795238Y-18023809D02*
X-10080952Y-18261904D01*
X-10080952Y-17642857D01*
X4252380Y17738095D02*
X3252380Y17738095D01*
X3728571Y17738095D02*
X3728571Y18309523D01*
X4252380Y18309523D02*
X3252380Y18309523D01*
X3252380Y18690476D02*
X3252380Y19357142D01*
X4252380Y18928571D01*
X-9747619Y17738095D02*
X-10747619Y17738095D01*
X-10271428Y17738095D02*
X-10271428Y18309523D01*
X-9747619Y18309523D02*
X-10747619Y18309523D01*
X-10747619Y19214285D02*
X-10747619Y19023809D01*
X-10700000Y18928571D01*
X-10652380Y18880952D01*
X-10509523Y18785714D01*
X-10319047Y18738095D01*
X-9938095Y18738095D01*
X-9842857Y18785714D01*
X-9795238Y18833333D01*
X-9747619Y18928571D01*
X-9747619Y19119047D01*
X-9795238Y19214285D01*
X-9842857Y19261904D01*
X-9938095Y19309523D01*
X-10176190Y19309523D01*
X-10271428Y19261904D01*
X-10319047Y19214285D01*
X-10366666Y19119047D01*
X-10366666Y18928571D01*
X-10319047Y18833333D01*
X-10271428Y18785714D01*
X-10176190Y18738095D01*
X-4069639Y-942935D02*
X-4069639Y-1506354D01*
X-4107200Y-1619038D01*
X-4182322Y-1694160D01*
X-4295006Y-1731722D01*
X-4370129Y-1731722D01*
X-3769148Y-942935D02*
X-3280852Y-942935D01*
X-3543781Y-1243425D01*
X-3431097Y-1243425D01*
X-3355974Y-1280986D01*
X-3318413Y-1318548D01*
X-3280852Y-1393670D01*
X-3280852Y-1581477D01*
X-3318413Y-1656599D01*
X-3355974Y-1694160D01*
X-3431097Y-1731722D01*
X-3656464Y-1731722D01*
X-3731587Y-1694160D01*
X-3769148Y-1656599D01*
X6089725Y-7271104D02*
X6652824Y-7271104D01*
X6765444Y-7308644D01*
X6840524Y-7383724D01*
X6878064Y-7496344D01*
X6878064Y-7571424D01*
X6878064Y-6482765D02*
X6878064Y-6933245D01*
X6878064Y-6708005D02*
X6089725Y-6708005D01*
X6202345Y-6783085D01*
X6277425Y-6858165D01*
X6314965Y-6933245D01*
X-12960274Y-7271104D02*
X-12397175Y-7271104D01*
X-12284555Y-7308644D01*
X-12209475Y-7383724D01*
X-12171935Y-7496344D01*
X-12171935Y-7571424D01*
X-12885194Y-6933245D02*
X-12922734Y-6895705D01*
X-12960274Y-6820625D01*
X-12960274Y-6632925D01*
X-12922734Y-6557845D01*
X-12885194Y-6520305D01*
X-12810114Y-6482765D01*
X-12735034Y-6482765D01*
X-12622414Y-6520305D01*
X-12171935Y-6970785D01*
X-12171935Y-6482765D01*
X9752380Y11738095D02*
X8752380Y11738095D01*
X9228571Y11738095D02*
X9228571Y12309523D01*
X9752380Y12309523D02*
X8752380Y12309523D01*
X9752380Y13309523D02*
X9752380Y12738095D01*
X9752380Y13023809D02*
X8752380Y13023809D01*
X8895238Y12928571D01*
X8990476Y12833333D01*
X9038095Y12738095D01*
X-8437619Y11738095D02*
X-9437619Y11738095D01*
X-8961428Y11738095D02*
X-8961428Y12309523D01*
X-8437619Y12309523D02*
X-9437619Y12309523D01*
X-9342380Y12738095D02*
X-9390000Y12785714D01*
X-9437619Y12880952D01*
X-9437619Y13119047D01*
X-9390000Y13214285D01*
X-9342380Y13261904D01*
X-9247142Y13309523D01*
X-9151904Y13309523D01*
X-9009047Y13261904D01*
X-8437619Y12690476D01*
X-8437619Y13309523D01*
X-2747619Y-13261904D02*
X-3747619Y-13261904D01*
X-3271428Y-13261904D02*
X-3271428Y-12690476D01*
X-2747619Y-12690476D02*
X-3747619Y-12690476D01*
X-3747619Y-12309523D02*
X-3747619Y-11690476D01*
X-3366666Y-12023809D01*
X-3366666Y-11880952D01*
X-3319047Y-11785714D01*
X-3271428Y-11738095D01*
X-3176190Y-11690476D01*
X-2938095Y-11690476D01*
X-2842857Y-11738095D01*
X-2795238Y-11785714D01*
X-2747619Y-11880952D01*
X-2747619Y-12166666D01*
X-2795238Y-12261904D01*
X-2842857Y-12309523D01*
M02*
